<svg width="28" height="28" viewBox="0 0 28 28" fill="none" xmlns="http://www.w3.org/2000/svg">
<path d="M7.39032 22.4255C7.26838 22.4255 7.15362 22.3791 7.0532 22.294C6.88822 22.147 6.8165 21.9072 6.88105 21.6828L7.81351 18.4023C7.15362 17.7756 6.61566 17.0561 6.22833 16.2669C5.76928 15.3308 5.53258 14.325 5.53258 13.2882C5.53258 12.2592 5.7621 11.2534 6.21399 10.3017C6.64435 9.38878 7.26121 8.56093 8.04304 7.84913C8.83204 7.13733 9.7358 6.58027 10.7328 6.18569C11.7729 5.77563 12.8703 5.57447 14.0036 5.57447C15.1297 5.57447 16.2343 5.78337 17.2744 6.18569C18.2714 6.58027 19.1751 7.13733 19.957 7.84913C20.7388 8.56093 21.3556 9.38878 21.786 10.3017C22.2379 11.2611 22.4674 12.2669 22.4674 13.2882C22.4674 14.3172 22.2379 15.3075 21.786 16.2437C21.3556 17.1412 20.7316 17.9381 19.9498 18.6267C18.3574 20.0116 16.2487 20.7776 14.0036 20.7776C12.9994 20.7776 12.0239 20.6228 11.0915 20.3211L7.64854 22.3482C7.56246 22.4023 7.47639 22.4255 7.39032 22.4255ZM14.0036 6.7118C12.9994 6.7118 12.0167 6.89749 11.0915 7.26112C10.2092 7.60928 9.41303 8.09671 8.73162 8.7234C8.05738 9.33462 7.5266 10.0464 7.16079 10.8279C6.78781 11.6248 6.59414 12.4526 6.59414 13.2959C6.59414 14.9826 7.36163 16.5687 8.75314 17.7679C8.92528 17.9149 8.98984 18.1547 8.93246 18.3791L8.27974 20.6847L10.783 19.2147C10.9121 19.1373 11.0628 19.1219 11.199 19.176C12.0885 19.4855 13.0353 19.648 14.0036 19.648C18.0849 19.648 21.413 16.8008 21.413 13.3037C21.413 12.4603 21.2265 11.6325 20.8464 10.8356C20.4734 10.0542 19.9498 9.3501 19.2756 8.73114C18.5941 8.10445 17.798 7.61702 16.9157 7.26886C15.9904 6.89749 15.0078 6.7118 14.0036 6.7118Z" fill="#65676B"/>
<path fill-rule="evenodd" clip-rule="evenodd" d="M16.9973 6.68947C17.0316 6.70271 17.0659 6.71619 17.1001 6.72991C17.2663 6.79555 17.43 6.86595 17.5908 6.94114C17.4279 6.8645 17.2618 6.79268 17.0928 6.72574C17.061 6.71346 17.0292 6.70137 16.9973 6.68947ZM20.9581 9.90694C20.6515 9.40731 20.2831 8.94346 19.8547 8.51724C20.2863 8.94485 20.6552 9.41057 20.9581 9.90694ZM7.39498 21.843L7.99217 19.7335L7.39208 21.8447L7.39498 21.843ZM6.67619 10.5886C6.45862 11.0572 6.29629 11.539 6.19326 12.0308C6.29441 11.5404 6.45543 11.0584 6.67619 10.5886ZM10.55 5.64613C11.6516 5.2118 12.8112 5 14.0036 5C15.1909 5 16.3563 5.22028 17.4541 5.64494L17.4578 5.64636C18.5096 6.06262 19.4683 6.65247 20.3005 7.41013C21.1326 8.16771 21.7958 9.05506 22.2607 10.0414C22.7485 11.0769 23 12.1716 23 13.2882C23 14.4125 22.7486 15.4933 22.2587 16.5084C21.7905 17.4845 21.1167 18.3406 20.2866 19.0717L20.2841 19.0739C18.5882 20.5489 16.3584 21.352 14.0036 21.352C13.0253 21.352 12.0713 21.2122 11.1544 20.9385L7.90929 22.8491C7.74425 22.9511 7.56828 23 7.39032 23C7.13655 23 6.90808 22.9016 6.72416 22.7457L6.71904 22.7414L6.71401 22.7369C6.38942 22.4477 6.24151 21.9689 6.37211 21.5135L6.37241 21.5125L7.20585 18.5804C6.61662 17.9723 6.12578 17.2858 5.75765 16.5357C5.25939 15.5196 5 14.4217 5 13.2882C5 12.1648 5.25104 11.0698 5.7396 10.0406C6.20452 9.05462 6.86762 8.16752 7.69953 7.41013L7.70136 7.40846C8.53955 6.65228 9.498 6.06247 10.55 5.64613ZM11.2741 7.80075C12.1398 7.46056 13.0606 7.28627 14.0036 7.28627C14.9466 7.28627 15.8662 7.46058 16.73 7.80726L16.7327 7.80835C17.5613 8.13534 18.3012 8.58992 18.93 9.16828C19.5551 9.74215 20.0339 10.3884 20.3728 11.0984M11.2741 7.80075C10.4457 8.12772 9.70594 8.58226 9.07716 9.16055L9.07428 9.1632C8.45066 9.72853 7.967 10.3802 7.63621 11.0868C7.29741 11.8106 7.12672 12.5503 7.12672 13.2959C7.12672 14.7816 7.80019 16.2113 9.08557 17.3191L8.75314 17.7679L9.08371 17.3175C9.43426 17.6168 9.5564 18.0996 9.44586 18.5319L9.44393 18.5394L9.16972 19.508L10.5244 18.7125L10.5267 18.7111C10.7795 18.5605 11.0853 18.5231 11.3709 18.6322C12.2047 18.9213 13.0935 19.0735 14.0036 19.0735C17.9121 19.0735 20.8805 16.3668 20.8805 13.3037C20.8805 12.555 20.7155 11.8169 20.3728 11.0984" fill="#65676B"/>
<path d="M18.4018 12.6284H9.62811C9.30462 12.6284 9.04425 12.2869 9.04425 11.8625C9.04425 11.4381 9.30462 11.0965 9.62811 11.0965H18.4018C18.7253 11.0965 18.9857 11.4381 18.9857 11.8625C18.9857 12.2869 18.7253 12.6284 18.4018 12.6284Z" fill="#65676B"/>
<path fill-rule="evenodd" clip-rule="evenodd" d="M9.62811 11.288C9.43359 11.288 9.22178 11.5071 9.22178 11.8625C9.22178 12.2179 9.43359 12.4369 9.62811 12.4369H18.4018C18.5963 12.4369 18.8081 12.2179 18.8081 11.8625C18.8081 11.5071 18.5963 11.288 18.4018 11.288H9.62811ZM8.86672 11.8625C8.86672 11.3691 9.17565 10.905 9.62811 10.905H18.4018C18.8543 10.905 19.1632 11.3691 19.1632 11.8625C19.1632 12.3559 18.8543 12.8199 18.4018 12.8199H9.62811C9.17565 12.8199 8.86672 12.3559 8.86672 11.8625Z" fill="#65676B"/>
<path d="M16.9321 15.6923H10.3792C10.033 15.6923 9.75435 15.3507 9.75435 14.9263C9.75435 14.5019 10.033 14.1604 10.3792 14.1604H16.9406C17.2868 14.1604 17.5655 14.5019 17.5655 14.9263C17.557 15.3507 17.2784 15.6923 16.9321 15.6923Z" fill="#65676B"/>
<path fill-rule="evenodd" clip-rule="evenodd" d="M10.3792 14.3518C10.1517 14.3518 9.93188 14.584 9.93188 14.9263C9.93188 15.2687 10.1517 15.5008 10.3792 15.5008H16.9321C17.1591 15.5008 17.3802 15.2692 17.3879 14.9243C17.3871 14.583 17.1677 14.3518 16.9406 14.3518H10.3792ZM9.57683 14.9263C9.57683 14.4199 9.91433 13.9689 10.3792 13.9689H16.9406C17.4055 13.9689 17.743 14.4199 17.743 14.9263V14.9304C17.733 15.4331 17.3972 15.8838 16.9321 15.8838H10.3792C9.91433 15.8838 9.57683 15.4327 9.57683 14.9263Z" fill="#65676B"/>
</svg>
