<svg width="35" height="35" viewBox="0 0 35 35" fill="none" xmlns="http://www.w3.org/2000/svg">
<path d="M9.29688 2.73438C8.08875 2.73438 7.10938 3.71375 7.10938 4.92188V14.2188H4.92187C3.71375 14.2188 2.73438 15.1981 2.73438 16.4062V30.0781C2.73438 31.2862 3.71375 32.2656 4.92187 32.2656H30.625C31.8331 32.2656 32.8125 31.2862 32.8125 30.0781V16.4062C32.8125 15.1981 31.8331 14.2188 30.625 14.2188H28.9844V4.92188C28.9844 3.71375 28.005 2.73438 26.7969 2.73438H9.29688Z" fill="#050505"/>
<path d="M1.93561 4.72703C2.12856 4.25766 2.79331 4.25766 2.98626 4.72703L3.19816 5.24247C3.25583 5.38277 3.36723 5.49417 3.50753 5.55184L4.02297 5.76373C4.49234 5.95669 4.49234 6.62144 4.02297 6.81439L3.50753 7.02628C3.36723 7.08396 3.25583 7.19536 3.19816 7.33565L2.98626 7.8511C2.79331 8.32047 2.12856 8.32047 1.93561 7.8511L1.72372 7.33565C1.66604 7.19536 1.55464 7.08396 1.41435 7.02628L0.898903 6.81439C0.429532 6.62144 0.429533 5.95669 0.898903 5.76373L1.41435 5.55184C1.55464 5.49417 1.66604 5.38277 1.72372 5.24247L1.93561 4.72703Z" fill="#050505"/>
<path d="M31.4586 1.99817C31.6546 1.52144 32.3298 1.52144 32.5258 1.99817L32.5729 2.11287C32.6315 2.25537 32.7446 2.36852 32.8871 2.42709L33.0018 2.47425C33.4786 2.67023 33.4786 3.3454 33.0018 3.54138L32.8871 3.58853C32.7446 3.64711 32.6315 3.76026 32.5729 3.90275L32.5258 4.01745C32.3298 4.49418 31.6546 4.49418 31.4586 4.01745L31.4115 3.90275C31.3529 3.76026 31.2397 3.64711 31.0972 3.58853L30.9825 3.54138C30.5058 3.3454 30.5058 2.67023 30.9825 2.47425L31.0972 2.42709C31.2397 2.36852 31.3529 2.25537 31.4115 2.11287L31.4586 1.99817Z" fill="#050505"/>
<path d="M7.41415 15.748L18.5311 23.2097C21.238 25.0266 24.0022 26.7665 26.7648 28.5054C28.1491 29.3767 29.5331 30.2478 30.9092 31.1282C30.8186 31.1525 30.7233 31.1655 30.625 31.1655H7.65625C7.05219 31.1655 6.5625 30.6758 6.5625 30.0718V16.2021C6.5625 15.7645 7.05084 15.5042 7.41415 15.748Z" fill="#279B48"/>
<path d="M31.7188 30.0718C31.7188 30.1601 31.7083 30.246 31.6885 30.3283L20.202 22.9799L30.9178 17.3583C31.282 17.1673 31.7188 17.4314 31.7188 17.8426V30.0718Z" fill="#279B48"/>
<path fill-rule="evenodd" clip-rule="evenodd" d="M9.84375 4.92187C9.84375 4.31781 10.3334 3.82812 10.9375 3.82812H26.7969C27.4009 3.82812 27.8906 4.31781 27.8906 4.92188V17.7113L19.1406 22.3016L9.84375 16.0615V4.92187ZM14.2188 7.51953C13.8412 7.51953 13.5352 7.82559 13.5352 8.20312C13.5352 8.58066 13.8412 8.88672 14.2188 8.88672H18.5938C18.9713 8.88672 19.2773 8.58066 19.2773 8.20312C19.2773 7.82559 18.9713 7.51953 18.5938 7.51953H14.2188ZM13.5352 11.4844C13.5352 11.1068 13.8412 10.8008 14.2188 10.8008H24.0625C24.44 10.8008 24.7461 11.1068 24.7461 11.4844C24.7461 11.8619 24.44 12.168 24.0625 12.168H14.2188C13.8412 12.168 13.5352 11.8619 13.5352 11.4844ZM14.2188 14.082C13.8412 14.082 13.5352 14.3881 13.5352 14.7656C13.5352 15.1432 13.8412 15.4492 14.2188 15.4492H24.0625C24.44 15.4492 24.7461 15.1432 24.7461 14.7656C24.7461 14.3881 24.44 14.082 24.0625 14.082H14.2188Z" fill="#E9EBF4"/>
</svg>
