<svg width="46" height="20" viewBox="0 0 46 20" fill="none" xmlns="http://www.w3.org/2000/svg">
<path d="M3.26086 15.8768V9.55721C3.26086 9.31201 3.35124 9.09782 3.53199 8.91465C3.71275 8.73147 3.93741 8.63988 4.20597 8.63988C4.47451 8.63988 4.69625 8.73147 4.87118 8.91465C5.0461 9.09782 5.13356 9.31201 5.13356 9.55721V15.8906C5.13356 16.1736 5.04376 16.4013 4.86415 16.5737C4.68454 16.7461 4.46459 16.8322 4.20429 16.8322C3.93116 16.8322 3.70564 16.7438 3.52774 16.5668C3.34982 16.3898 3.26086 16.1599 3.26086 15.8768ZM9.42178 15.8906V9.55721C9.42178 9.31751 9.51481 9.1047 9.70088 8.91878C9.88696 8.73285 10.1047 8.63988 10.3542 8.63988C10.6037 8.63988 10.8205 8.73285 11.0046 8.91878C11.1887 9.1047 11.2807 9.31751 11.2807 9.55721V15.8906C11.2807 16.1516 11.1883 16.3738 11.0033 16.5572C10.8184 16.7406 10.5998 16.8322 10.3476 16.8322C10.0954 16.8322 9.87802 16.7406 9.69552 16.5572C9.51303 16.3738 9.42178 16.1516 9.42178 15.8906ZM1.02418 20C0.735648 20 0.492819 19.8995 0.295692 19.6986C0.0985639 19.4977 0 19.2579 0 18.9792C0 18.7006 0.0985558 18.4637 0.295667 18.2686C0.492811 18.0735 0.735648 17.976 1.02418 17.976H19.5048C19.7775 17.976 20.0146 18.0749 20.2161 18.2729C20.4177 18.4708 20.5184 18.7091 20.5184 18.9878C20.5184 19.2664 20.4177 19.5048 20.2161 19.7028C20.0146 19.9009 19.7775 20 19.5048 20H1.02418ZM15.3711 15.8768V9.55721C15.3711 9.31201 15.4647 9.09782 15.6518 8.91465C15.839 8.73147 16.0628 8.63988 16.3231 8.63988C16.5962 8.63988 16.8179 8.73147 16.9883 8.91465C17.1586 9.09782 17.2438 9.31201 17.2438 9.55721V15.8906C17.2438 16.1736 17.1572 16.4013 16.984 16.5737C16.8108 16.7461 16.59 16.8322 16.3214 16.8322C16.0529 16.8322 15.8273 16.7438 15.6448 16.5668C15.4623 16.3898 15.3711 16.1599 15.3711 15.8768ZM19.5503 7.49617H0.867582C0.628778 7.49617 0.424471 7.40899 0.254663 7.23462C0.0848878 7.06024 0 6.85822 0 6.62857V6.03502C0 5.86855 0.040631 5.71838 0.121893 5.58451C0.203138 5.45065 0.315216 5.34407 0.458126 5.26477L9.26623 0.232762C9.55235 0.0775874 9.88013 0 10.2496 0C10.619 0 10.9486 0.0775874 11.2384 0.232762L20.0084 5.22667C20.1657 5.32613 20.2901 5.45274 20.3814 5.60651C20.4728 5.76029 20.5184 5.92715 20.5184 6.1071V6.47275C20.5184 6.78071 20.4243 7.02827 20.236 7.21542C20.0478 7.40259 19.8192 7.49617 19.5503 7.49617Z" fill="#65676B"/>
<path d="M37.7878 20C37.3317 20 36.9333 19.8283 36.5925 19.4848C36.2518 19.1413 36.0814 18.7432 36.0814 18.2903C36.0814 17.8227 36.2534 17.4219 36.5972 17.088C36.9411 16.754 37.3398 16.5871 37.7933 16.5871C38.2682 16.5871 38.6684 16.756 38.9938 17.094C39.3192 17.4319 39.4819 17.8359 39.4819 18.3061C39.4819 18.7615 39.3172 19.1577 38.9879 19.4946C38.6586 19.8315 38.2586 20 37.7878 20ZM32.223 3.40046C31.7675 3.40046 31.3694 3.22872 31.0287 2.88523C30.6879 2.54175 30.5176 2.14086 30.5176 1.68256C30.5176 1.21931 30.6895 0.823071 31.0334 0.493834C31.3773 0.164612 31.7759 0 32.2294 0C32.701 0 33.1024 0.167089 33.4337 0.501266C33.7649 0.835444 33.9305 1.23623 33.9305 1.70363C33.9305 2.15632 33.7635 2.5523 33.4294 2.89156C33.0953 3.23083 32.6931 3.40046 32.223 3.40046ZM32.223 8.91351C31.7675 8.91351 31.3694 8.74072 31.0287 8.39513C30.6879 8.04955 30.5176 7.64883 30.5176 7.19294C30.5176 6.73214 30.6895 6.33695 31.0334 6.00739C31.3773 5.67783 31.7759 5.51305 32.2294 5.51305C32.701 5.51305 33.1024 5.67927 33.4337 6.01171C33.7649 6.34416 33.9305 6.74286 33.9305 7.20783C33.9305 7.6581 33.7635 8.05494 33.4294 8.39837C33.0953 8.7418 32.6931 8.91351 32.223 8.91351ZM32.223 14.4678C31.7675 14.4678 31.3694 14.2958 31.0287 13.952C30.6879 13.6081 30.5176 13.2094 30.5176 12.756C30.5176 12.2843 30.6895 11.8829 31.0334 11.5517C31.3773 11.2205 31.7759 11.0549 32.2294 11.0549C32.701 11.0549 33.1024 11.2219 33.4337 11.556C33.7649 11.8901 33.9305 12.2922 33.9305 12.7624C33.9305 13.2178 33.7635 13.6159 33.4294 13.9567C33.0953 14.2974 32.6931 14.4678 32.223 14.4678ZM43.3463 3.40046C42.8908 3.40046 42.4914 3.22872 42.148 2.88523C41.8046 2.54175 41.6329 2.14086 41.6329 1.68256C41.6329 1.21931 41.8055 0.823071 42.1508 0.493834C42.496 0.164612 42.8964 0 43.3519 0C43.822 0 44.2219 0.167089 44.5514 0.501266C44.881 0.835444 45.0458 1.23623 45.0458 1.70363C45.0458 2.15632 44.8801 2.5523 44.5487 2.89156C44.2172 3.23083 43.8165 3.40046 43.3463 3.40046ZM37.7878 14.4678C37.3317 14.4678 36.9333 14.2958 36.5925 13.952C36.2518 13.6081 36.0814 13.2094 36.0814 12.756C36.0814 12.2843 36.2534 11.8829 36.5972 11.5517C36.9411 11.2205 37.3398 11.0549 37.7933 11.0549C38.2682 11.0549 38.6684 11.2219 38.9938 11.556C39.3192 11.8901 39.4819 12.2922 39.4819 12.7624C39.4819 13.2178 39.3172 13.6159 38.9879 13.9567C38.6586 14.2974 38.2586 14.4678 37.7878 14.4678ZM43.3463 14.4678C42.8908 14.4678 42.4914 14.2958 42.148 13.952C41.8046 13.6081 41.6329 13.2094 41.6329 12.756C41.6329 12.2843 41.8055 11.8829 42.1508 11.5517C42.496 11.2205 42.8964 11.0549 43.3519 11.0549C43.822 11.0549 44.2219 11.2138 44.5514 11.5316C44.881 11.8495 45.0458 12.2447 45.0458 12.7173C45.0458 13.1684 44.8801 13.5729 44.5487 13.9309C44.2172 14.2888 43.8165 14.4678 43.3463 14.4678ZM43.3463 8.91351C42.8908 8.91351 42.4914 8.74072 42.148 8.39513C41.8046 8.04955 41.6329 7.64883 41.6329 7.19294C41.6329 6.73214 41.8055 6.33695 42.1508 6.00739C42.496 5.67783 42.8964 5.51305 43.3519 5.51305C43.822 5.51305 44.2219 5.67927 44.5514 6.01171C44.881 6.34416 45.0458 6.74286 45.0458 7.20783C45.0458 7.6581 44.8801 8.05494 44.5487 8.39837C44.2172 8.7418 43.8165 8.91351 43.3463 8.91351ZM37.7878 8.91351C37.3317 8.91351 36.9333 8.74072 36.5925 8.39513C36.2518 8.04955 36.0814 7.64883 36.0814 7.19294C36.0814 6.73214 36.2534 6.33695 36.5972 6.00739C36.9411 5.67783 37.3398 5.51305 37.7933 5.51305C38.2682 5.51305 38.6684 5.67927 38.9938 6.01171C39.3192 6.34416 39.4819 6.74286 39.4819 7.20783C39.4819 7.6581 39.3172 8.05494 38.9879 8.39837C38.6586 8.7418 38.2586 8.91351 37.7878 8.91351ZM37.7878 3.40046C37.3317 3.40046 36.9333 3.22872 36.5925 2.88523C36.2518 2.54175 36.0814 2.14086 36.0814 1.68256C36.0814 1.21931 36.2534 0.823071 36.5972 0.493834C36.9411 0.164612 37.3398 0 37.7933 0C38.2682 0 38.6684 0.167089 38.9938 0.501266C39.3192 0.835444 39.4819 1.23623 39.4819 1.70363C39.4819 2.15632 39.3172 2.5523 38.9879 2.89156C38.6586 3.23083 38.2586 3.40046 37.7878 3.40046Z" fill="#65676B"/>
</svg>
