<svg width="18" height="18" viewBox="0 0 18 18" fill="none" xmlns="http://www.w3.org/2000/svg">
<path d="M1.9784 18C1.44716 18 0.984609 17.8031 0.590756 17.4092C0.196919 17.0154 0 16.5528 0 16.0216V1.99184C0 1.4569 0.196919 0.991189 0.590756 0.594703C0.984609 0.198234 1.44716 0 1.9784 0H16.0082C16.5431 0 17.0088 0.198234 17.4053 0.594703C17.8018 0.991189 18 1.4569 18 1.99184V16.0216C18 16.5528 17.8018 17.0154 17.4053 17.4092C17.0088 17.8031 16.5431 18 16.0082 18H1.9784ZM1.9784 16.0216H16.0082V1.99184H1.9784V16.0216ZM2.94848 14.0122H15.0619L11.3347 8.95396L8.18455 13.0287L5.96208 9.99747L2.94848 14.0122Z" fill="#050505"/>
</svg>
