<svg width="36" height="36" viewBox="0 0 36 36" fill="none" xmlns="http://www.w3.org/2000/svg">
<path d="M16.4889 25.4333C14.9845 23.8618 13.7605 22.5388 12.817 21.4645C11.8734 20.3901 11.128 19.4666 10.5806 18.6941C10.0332 17.9216 9.66543 17.2373 9.47738 16.6411C9.28934 16.045 9.19531 15.4531 9.19531 14.8656C9.19531 13.5228 9.65061 12.3762 10.5612 11.4257C11.4718 10.4752 12.5953 10 13.9317 10C14.5876 10 15.2415 10.1377 15.8936 10.413C16.5456 10.6884 17.147 11.0746 17.6978 11.5715L16.8314 15.6414C16.7911 15.7839 16.826 15.9203 16.9362 16.0505C17.0464 16.1807 17.1886 16.2459 17.3629 16.2459H18.7454L18.0806 21.7813C18.0671 21.8815 18.1074 21.9377 18.2015 21.9498C18.2955 21.9618 18.3626 21.9276 18.4029 21.847L19.9342 16.0847C19.9476 15.9504 19.907 15.816 19.8124 15.6817C19.7177 15.5474 19.5972 15.4802 19.4506 15.4802H17.9597L19.2894 10.5843C19.6655 10.3962 20.0832 10.2518 20.5424 10.1511C21.0017 10.0504 21.5017 10 22.0424 10C23.3614 10 24.4849 10.4757 25.4128 11.427C26.3407 12.3783 26.8046 13.5234 26.8046 14.8624C26.8046 15.4491 26.6998 16.039 26.4902 16.6321C26.2806 17.2251 25.8901 17.9104 25.3189 18.6878C24.7476 19.4653 23.9626 20.4011 22.9637 21.4952C21.9649 22.5894 20.6729 23.9155 19.088 25.4736C18.8999 25.6483 18.6984 25.7826 18.4835 25.8766C18.2686 25.9706 18.0336 26.0109 17.7783 25.9975C17.5231 25.984 17.2814 25.9337 17.053 25.8464C16.8247 25.7591 16.6366 25.6214 16.4889 25.4333ZM11.0288 14.8533C11.0288 15.2854 11.1002 15.7241 11.2432 16.1694C11.3861 16.6146 11.648 17.1081 12.0289 17.6497C12.4099 18.1913 12.9193 18.8282 13.5573 19.5602C14.1954 20.2923 15.0114 21.1553 16.0053 22.1492C16.0188 22.1895 16.0651 22.2009 16.1443 22.1832C16.2236 22.1656 16.2713 22.1341 16.2874 22.0888L16.7911 17.6965H16.4889C15.9919 17.5353 15.5889 17.2466 15.28 16.8302C14.9711 16.4138 14.8977 15.8191 15.0599 15.0463L15.683 12.3775C15.4081 12.2368 15.123 12.1143 14.8277 12.0101C14.5324 11.9058 14.2276 11.8536 13.9133 11.8536C13.0967 11.8536 12.4118 12.1433 11.8586 12.7227C11.3054 13.3022 11.0288 14.0123 11.0288 14.8533ZM24.951 14.8635C24.951 14.0122 24.6713 13.2978 24.1119 12.7201C23.5524 12.1424 22.8672 11.8536 22.0561 11.8536C21.8325 11.8536 21.621 11.8613 21.4218 11.8766C21.2225 11.892 21.0154 11.938 20.8005 12.0148L20.2364 13.949H20.3371C20.7804 14.0162 21.1598 14.2479 21.4755 14.6441C21.7911 15.0403 21.8482 15.6414 21.6468 16.4473L20.5073 20.7383C20.4879 20.8081 20.5017 20.8592 20.5487 20.8916C20.5957 20.9241 20.6729 20.9135 20.7804 20.8598C21.5729 20.1076 22.2411 19.4427 22.7851 18.8651C23.3291 18.2875 23.7623 17.7704 24.0847 17.3137C24.407 16.857 24.632 16.4339 24.7596 16.0442C24.8872 15.6546 24.951 15.261 24.951 14.8635Z" fill="#65676B"/>
</svg>
