<svg width="60" height="60" viewBox="0 0 60 60" fill="none" xmlns="http://www.w3.org/2000/svg">
<path d="M15.9375 4.6875C13.8664 4.6875 12.1875 6.36643 12.1875 8.4375V24.375H8.4375C6.36643 24.375 4.6875 26.0539 4.6875 28.125V51.5625C4.6875 53.6336 6.36643 55.3125 8.4375 55.3125H52.5C54.5711 55.3125 56.25 53.6336 56.25 51.5625V28.125C56.25 26.0539 54.5711 24.375 52.5 24.375H49.6875V8.4375C49.6875 6.36643 48.0086 4.6875 45.9375 4.6875H15.9375Z" fill="#050505"/>
<path d="M3.31819 8.10348C3.64897 7.29884 4.78853 7.29884 5.11931 8.10348L5.48256 8.98709C5.58143 9.2276 5.7724 9.41857 6.01291 9.51744L6.89652 9.88069C7.70116 10.2115 7.70116 11.351 6.89652 11.6818L6.01291 12.0451C5.7724 12.1439 5.58143 12.3349 5.48256 12.5754L5.11931 13.459C4.78853 14.2637 3.64897 14.2637 3.31819 13.459L2.95494 12.5754C2.85607 12.3349 2.6651 12.1439 2.42459 12.0451L1.54098 11.6818C0.736341 11.351 0.736341 10.2115 1.54098 9.88069L2.42459 9.51744C2.6651 9.41857 2.85607 9.2276 2.95494 8.98709L3.31819 8.10348Z" fill="#050505"/>
<path d="M53.9291 3.42544C54.265 2.60819 55.4225 2.60819 55.7584 3.42544L55.8393 3.62207C55.9397 3.86635 56.1337 4.06031 56.3779 4.16073L56.5746 4.24156C57.3918 4.57753 57.3918 5.73497 56.5746 6.07094L56.3779 6.15177C56.1337 6.25219 55.9397 6.44615 55.8393 6.69043L55.7584 6.88706C55.4225 7.70431 54.265 7.70431 53.9291 6.88706L53.8482 6.69043C53.7478 6.44615 53.5538 6.25219 53.3096 6.15177L53.1129 6.07094C52.2957 5.73497 52.2957 4.57753 53.1129 4.24156L53.3096 4.16073C53.5538 4.06031 53.7478 3.86635 53.8482 3.62207L53.9291 3.42544Z" fill="#050505"/>
<path d="M12.71 26.9966L31.7676 39.7881C36.408 42.9028 41.1466 45.8854 45.8825 48.8664C48.2556 50.3601 50.6281 51.8534 52.9872 53.3627C52.8318 53.4044 52.6685 53.4266 52.5 53.4266H13.125C12.0895 53.4266 11.25 52.5871 11.25 51.5516V27.775C11.25 27.0249 12.0872 26.5786 12.71 26.9966Z" fill="#279B48"/>
<path d="M54.375 51.5516C54.375 51.7031 54.357 51.8504 54.3231 51.9915L34.632 39.3941L53.002 29.7571C53.6262 29.4296 54.375 29.8824 54.375 30.5873V51.5516Z" fill="#279B48"/>
<path fill-rule="evenodd" clip-rule="evenodd" d="M16.875 8.4375C16.875 7.40197 17.7145 6.5625 18.75 6.5625H45.9375C46.973 6.5625 47.8125 7.40197 47.8125 8.4375V30.3622L32.8125 38.2314L16.875 27.534V8.4375ZM24.375 12.8906C23.7278 12.8906 23.2031 13.4153 23.2031 14.0625C23.2031 14.7097 23.7278 15.2344 24.375 15.2344H31.875C32.5222 15.2344 33.0469 14.7097 33.0469 14.0625C33.0469 13.4153 32.5222 12.8906 31.875 12.8906H24.375ZM23.2031 19.6875C23.2031 19.0403 23.7278 18.5156 24.375 18.5156H41.25C41.8972 18.5156 42.4219 19.0403 42.4219 19.6875C42.4219 20.3347 41.8972 20.8594 41.25 20.8594H24.375C23.7278 20.8594 23.2031 20.3347 23.2031 19.6875ZM24.375 24.1406C23.7278 24.1406 23.2031 24.6653 23.2031 25.3125C23.2031 25.9597 23.7278 26.4844 24.375 26.4844H41.25C41.8972 26.4844 42.4219 25.9597 42.4219 25.3125C42.4219 24.6653 41.8972 24.1406 41.25 24.1406H24.375Z" fill="white"/>
</svg>
