<svg width="64" height="35" viewBox="0 0 64 35" fill="none" xmlns="http://www.w3.org/2000/svg">
<rect width="34.9988" height="34.9996" rx="17.495" fill="#E9EBF4"/>
<path fill-rule="evenodd" clip-rule="evenodd" d="M16.7535 10.0025C15.675 10.0026 14.6122 10.2611 13.6541 10.7563C12.6961 11.2515 11.8705 11.969 11.2467 12.8487C10.6228 13.7285 10.2188 14.7449 10.0685 15.8128C9.91809 16.8808 10.0257 17.9692 10.3824 18.987C10.7391 20.0048 11.3344 20.9224 12.1185 21.6629C12.9026 22.4034 13.8526 22.9453 14.8892 23.2432C15.9257 23.5411 17.0185 23.5864 18.0761 23.3752C19.1337 23.1641 20.1254 22.7026 20.968 22.0295L23.725 24.7865C23.8665 24.9231 24.056 24.9987 24.2527 24.997C24.4494 24.9953 24.6375 24.9164 24.7766 24.7773C24.9157 24.6382 24.9946 24.4501 24.9963 24.2534C24.998 24.0567 24.9224 23.8672 24.7857 23.7257L22.0288 20.9688C22.8225 19.9754 23.3196 18.7781 23.4628 17.5147C23.606 16.2513 23.3896 14.9732 22.8384 13.8273C22.2872 12.6815 21.4236 11.7147 20.3471 11.038C19.2707 10.3613 18.025 10.0024 16.7535 10.0025ZM12.2523 16.7542C12.2523 16.1631 12.3688 15.5778 12.595 15.0317C12.8212 14.4856 13.1527 13.9894 13.5707 13.5714C13.9887 13.1535 14.4849 12.8219 15.031 12.5957C15.5771 12.3695 16.1624 12.2531 16.7535 12.2531C17.3446 12.2531 17.9299 12.3695 18.476 12.5957C19.0221 12.8219 19.5183 13.1535 19.9363 13.5714C20.3542 13.9894 20.6858 14.4856 20.912 15.0317C21.1382 15.5778 21.2546 16.1631 21.2546 16.7542C21.2546 17.948 20.7804 19.0929 19.9363 19.937C19.0921 20.7811 17.9473 21.2553 16.7535 21.2553C15.5597 21.2553 14.4148 20.7811 13.5707 19.937C12.7266 19.0929 12.2523 17.948 12.2523 16.7542Z" fill="#65676B"/>
<path d="M51.7977 26.5018L51.3468 23.6745C51.134 23.6048 50.8982 23.4953 50.6393 23.3459C50.3805 23.1966 50.163 23.0513 49.9869 22.91L47.3435 24.115L45.0015 19.952L47.3901 18.201C47.3758 18.117 47.3671 18.0023 47.364 17.857C47.3609 17.7117 47.3593 17.5899 47.3593 17.4916C47.3593 17.3995 47.3609 17.2864 47.364 17.1523C47.3671 17.0182 47.3758 16.8979 47.3901 16.7915L45.0015 15.0255L47.3435 10.8961L49.9925 12.1011C50.1605 11.9761 50.3755 11.8373 50.6375 11.6848C50.8994 11.5324 51.1359 11.4213 51.3468 11.3516L51.7977 8.49725H56.4358L56.8652 11.3395C57.0923 11.4092 57.3364 11.5203 57.5974 11.6727C57.8585 11.8252 58.0739 11.968 58.2438 12.1011L60.9022 10.8961L63.2319 15.0255L60.8004 16.7458C60.8147 16.8665 60.8311 16.9975 60.8494 17.1388C60.8678 17.28 60.8769 17.4038 60.8769 17.5102C60.8769 17.6167 60.8678 17.7369 60.8494 17.871C60.8311 18.0051 60.8178 18.1254 60.8098 18.2318L63.2226 19.952L60.8686 24.115L58.2251 22.91C58.049 23.0513 57.8311 23.2001 57.5713 23.3567C57.3115 23.5132 57.0833 23.6191 56.8866 23.6745L56.4358 26.5018H51.7977ZM54.0845 20.3861C54.8866 20.3861 55.568 20.1057 56.1287 19.5451C56.6894 18.9844 56.9697 18.303 56.9697 17.5009C56.9697 16.7069 56.6894 16.0275 56.1287 15.4628C55.568 14.8981 54.8866 14.6157 54.0845 14.6157C53.2743 14.6157 52.5909 14.8981 52.0343 15.4628C51.4777 16.0275 51.1994 16.7069 51.1994 17.5009C51.1994 18.303 51.4777 18.9844 52.0343 19.5451C52.5909 20.1057 53.2743 20.3861 54.0845 20.3861Z" fill="#65676B"/>
</svg>
