<svg width="14" height="14" viewBox="0 0 14 14" fill="none" xmlns="http://www.w3.org/2000/svg">
<path d="M14 7C14 10.8659 10.8659 14 7 14C3.13406 14 0 10.8659 0 7C0 3.13406 3.13406 0 7 0C10.8659 0 14 3.13406 14 7Z" fill="#FFCC4D"/>
<path fill-rule="evenodd" clip-rule="evenodd" d="M0.481818 4.28457C0.575151 4.37751 1.04104 4.65673 1.13398 4.93595C1.22732 5.21479 1.41398 6.7964 1.97321 7.2619C2.54993 7.74101 4.72537 7.5629 5.14187 7.35523C6.07404 6.89051 6.18837 5.59318 6.35326 4.93595C6.44621 4.56379 7.00543 4.56379 7.00543 4.56379C7.00543 4.56379 7.56465 4.56379 7.65798 4.93557C7.82287 5.59318 7.93798 6.89051 8.86937 7.35484C9.28626 7.5629 11.4617 7.7414 12.0392 7.26229C12.5977 6.79679 12.7839 5.21518 12.8773 4.93595C12.9698 4.65712 13.4365 4.3779 13.5294 4.28495C13.6232 4.19201 13.6232 3.81984 13.5294 3.72651C13.3432 3.54062 11.144 3.37495 8.77604 3.63357C8.30354 3.68529 8.12387 3.81945 7.00504 3.81945C5.88698 3.81945 5.70654 3.6849 5.23443 3.63357C2.86804 3.37457 0.668484 3.54023 0.481818 3.72612C0.388873 3.81907 0.388873 4.19162 0.481818 4.28457Z" fill="#292F33"/>
<path d="M10.6294 9.18868C10.5602 9.12607 10.4568 9.12218 10.3825 9.1774C10.3673 9.18868 8.85727 10.3052 6.99916 10.3052C5.14572 10.3052 3.63061 9.18868 3.61583 9.1774C3.54155 9.12218 3.43811 9.12685 3.36888 9.18868C3.30005 9.2509 3.28449 9.35357 3.33233 9.4329C3.38249 9.51651 4.58338 11.4718 6.99916 11.4718C9.41494 11.4718 10.6162 9.51651 10.666 9.4329C10.7138 9.35318 10.6987 9.2509 10.6294 9.18868Z" fill="#664500"/>
</svg>
