<svg width="35" height="36" viewBox="0 0 35 36" fill="none" xmlns="http://www.w3.org/2000/svg">
<path d="M18.0464 35.0001H16.0764C9.57644 35.0001 3.27344 30.0181 3.27344 23.0441C3.27344 19.0591 4.75044 17.0661 4.75044 17.0661C4.75044 17.0661 4.25844 15.0731 4.25844 13.0811C4.25844 7.10309 10.5614 2.12109 17.0614 2.12109C23.5614 2.12109 29.8644 8.09909 29.8644 13.0811C29.8644 15.0741 29.3724 17.0661 29.3724 17.0661C29.3724 17.0661 30.8494 19.0591 30.8494 23.0441C30.8494 30.0181 24.5464 35.0001 18.0464 35.0001Z" fill="#BF6952"/>
<path d="M28.7266 15.3784C28.7266 11.5714 25.6396 8.48438 21.8326 8.48438C19.9786 8.48438 18.2986 9.22038 17.0596 10.4104C15.8206 9.21938 14.1406 8.48438 12.2866 8.48438C8.47958 8.48438 5.39258 11.5714 5.39258 15.3784C5.39258 17.6874 6.53258 19.7264 8.27458 20.9774C7.78558 22.1894 7.51358 23.5234 7.51358 24.9234C7.51358 30.4884 11.7876 33.9384 17.0586 33.9384C22.3296 33.9384 26.6036 30.4884 26.6036 24.9234C26.6036 23.5224 26.3316 22.1894 25.8426 20.9774C27.5866 19.7264 28.7266 17.6874 28.7266 15.3784Z" fill="#D79E84"/>
<path d="M12.0605 20C13.1651 20 14.0605 18.6569 14.0605 17C14.0605 15.3431 13.1651 14 12.0605 14C10.956 14 10.0605 15.3431 10.0605 17C10.0605 18.6569 10.956 20 12.0605 20Z" fill="#292F33"/>
<path d="M22.0605 20C23.1651 20 24.0605 18.6569 24.0605 17C24.0605 15.3431 23.1651 14 22.0605 14C20.956 14 20.0605 15.3431 20.0605 17C20.0605 18.6569 20.956 20 22.0605 20Z" fill="#292F33"/>
<path d="M17.0601 31.5C19.7751 31.5 22.0871 30.12 22.9551 28.191C23.3141 27.393 22.7051 26.5 21.7982 26.5H12.3221C11.4151 26.5 10.8061 27.393 11.1651 28.191C12.0331 30.12 14.3451 31.5 17.0601 31.5Z" fill="#642116"/>
<path d="M15.5605 23.0605C16.1128 23.0605 16.5605 22.5855 16.5605 21.9995C16.5605 21.4135 16.1128 20.9385 15.5605 20.9385C15.0083 20.9385 14.5605 21.4135 14.5605 21.9995C14.5605 22.5855 15.0083 23.0605 15.5605 23.0605Z" fill="#642116"/>
<path d="M18.5605 23C19.1128 23 19.5605 22.5523 19.5605 22C19.5605 21.4477 19.1128 21 18.5605 21C18.0083 21 17.5605 21.4477 17.5605 22C17.5605 22.5523 18.0083 23 18.5605 23Z" fill="#642116"/>
<path d="M21.3022 0.169824C21.3022 0.169824 15.9992 -0.891176 13.8782 2.29082C11.7572 5.47282 18.1202 3.35182 18.1202 3.35182C18.1202 3.35182 19.1812 0.169824 21.3022 0.169824Z" fill="#BF6952"/>
<path d="M8.06055 31.9971C8.18555 32.6561 9.84155 33.4061 9.84155 33.4061L9.06055 18.9961L7.06055 24.0001C7.06055 24.0001 7.93555 31.3371 8.06055 31.9971ZM26.0605 31.9971C25.8725 32.7191 24.3105 33.3751 24.3105 33.3751L25.0615 18.9961L27.0605 24.0001C27.0605 24.0001 26.2485 31.2751 26.0605 31.9971Z" fill="#9B3C07"/>
<path d="M1.06055 36H9.06055L8.04855 20.167L4.05155 15.999L1.06055 36ZM33.0605 36H25.0605L26.0625 20.167L30.0595 15.999L33.0605 36Z" fill="#BF6952"/>
<path d="M29.6686 15.0533C29.6686 15.0533 29.8686 12.5773 30.8656 11.5113C32.1676 10.1183 33.7356 11.1973 33.6146 13.1513C33.1746 20.2373 31.6186 22.1843 29.5966 23.3473C27.5756 24.5113 24.8076 24.2933 21.8786 21.4753C18.9496 18.6573 17.7206 16.9213 17.3706 15.6783C17.0206 14.4343 18.3266 13.4243 19.4406 14.0573C20.4426 14.6263 21.9506 16.3653 21.9506 16.3653C21.9506 16.3653 20.0036 13.6693 19.7276 12.6273C19.3456 11.1863 21.0496 10.3263 21.9746 11.1203C22.8866 11.9033 24.7666 14.2763 24.7666 14.2763C24.7666 14.2763 23.1606 11.8123 23.0126 10.6253C22.8666 9.45329 24.2516 8.41729 25.4756 9.43929C26.6986 10.4623 28.6646 13.4103 29.6686 15.0533ZM4.45259 15.0533C4.45259 15.0533 4.25259 12.5773 3.25559 11.5113C1.95359 10.1183 0.385594 11.1973 0.506594 13.1513C0.946594 20.2373 2.50259 22.1843 4.52459 23.3473C6.54559 24.5113 9.31359 24.2933 12.2426 21.4753C15.1716 18.6573 16.4006 16.9213 16.7506 15.6783C17.1006 14.4343 15.7946 13.4243 14.6806 14.0573C13.6786 14.6263 12.1706 16.3653 12.1706 16.3653C12.1706 16.3653 14.1176 13.6693 14.3936 12.6273C14.7756 11.1863 13.0716 10.3263 12.1466 11.1203C11.2346 11.9033 9.35459 14.2763 9.35459 14.2763C9.35459 14.2763 10.9606 11.8123 11.1086 10.6253C11.2546 9.45329 9.86959 8.41729 8.64559 9.43929C7.42159 10.4613 5.45659 13.4103 4.45259 15.0533Z" fill="#D79E84"/>
<path d="M27.1422 24.5122C25.3122 24.5122 23.3682 23.6032 21.5312 21.8362C18.7362 19.1482 17.3042 17.2902 16.8892 15.8142C16.6722 15.0432 16.9232 14.2602 17.5452 13.7732C18.1372 13.3092 18.9072 13.2332 19.5812 13.5662C19.4242 13.2582 19.3032 12.9782 19.2442 12.7562C19.0182 11.9052 19.3342 11.0902 20.0672 10.6302C20.7932 10.1742 21.6902 10.2182 22.3002 10.7422C22.3842 10.8152 22.4762 10.8992 22.5722 10.9932C22.5462 10.8862 22.5262 10.7842 22.5142 10.6882C22.4172 9.91221 22.8212 9.13521 23.5182 8.75421C24.2452 8.35821 25.0952 8.47321 25.7932 9.05621C26.9132 9.99221 28.4752 12.2672 29.3832 13.6672C29.5702 12.8332 29.9062 11.8032 30.4982 11.1692C31.1792 10.4402 32.0342 10.1972 32.7902 10.5222C33.6692 10.9012 34.1882 11.9452 34.1112 13.1812C33.6752 20.2122 32.1552 22.4502 29.8432 23.7812C28.9962 24.2712 28.0832 24.5122 27.1422 24.5122ZM18.7202 14.3622C18.5232 14.3622 18.3292 14.4282 18.1612 14.5602C17.8602 14.7962 17.7442 15.1632 17.8502 15.5432C18.2052 16.8032 19.6352 18.6262 22.2232 21.1152C24.6972 23.4932 27.2252 24.1322 29.3462 22.9142C31.0042 21.9592 32.6612 20.4162 33.1142 13.1202C33.1712 12.1992 32.7942 11.6132 32.3942 11.4412C32.0392 11.2852 31.6232 11.4332 31.2292 11.8532C30.5122 12.6212 30.2182 14.4532 30.1662 15.0942C30.1482 15.3102 29.9942 15.4902 29.7832 15.5402C29.5732 15.5912 29.3542 15.4982 29.2412 15.3142C28.2782 13.7392 26.3342 10.8102 25.1532 9.82421C24.6332 9.39021 24.2062 9.51721 23.9982 9.63221C23.6572 9.81821 23.4602 10.1922 23.5072 10.5642C23.6172 11.4442 24.7552 13.3452 25.1852 14.0042C25.3312 14.2282 25.2752 14.5262 25.0582 14.6832C24.8432 14.8392 24.5402 14.7982 24.3742 14.5882C24.3552 14.5652 22.5132 12.2432 21.6472 11.5012C21.3342 11.2312 20.8822 11.2992 20.5972 11.4772C20.4272 11.5842 20.0492 11.8972 20.2092 12.5002C20.4162 13.2812 21.8272 15.3452 22.3542 16.0742C22.5102 16.2912 22.4692 16.5932 22.2592 16.7592C22.0502 16.9232 21.7462 16.8972 21.5712 16.6952C21.1682 16.2292 19.9532 14.9252 19.1932 14.4942C19.0402 14.4052 18.8792 14.3622 18.7202 14.3622Z" fill="#BF6952"/>
<path d="M6.97853 24.5122C6.03653 24.5122 5.12453 24.2712 4.27453 23.7822C1.96353 22.4512 0.443526 20.2142 0.00752558 13.1822C-0.0694744 11.9462 0.449526 10.9022 1.32953 10.5232C2.07953 10.1992 2.93853 10.4402 3.62053 11.1702C4.21253 11.8032 4.54953 12.8332 4.73653 13.6682C5.64453 12.2692 7.20453 9.99421 8.32653 9.05721C9.02553 8.47221 9.87553 8.35821 10.6005 8.75521C11.2985 9.13521 11.7025 9.91321 11.6045 10.6892C11.5925 10.7852 11.5725 10.8872 11.5465 10.9942C11.6435 10.9002 11.7345 10.8152 11.8195 10.7432C12.4275 10.2212 13.3265 10.1762 14.0515 10.6312C14.7855 11.0912 15.1015 11.9062 14.8765 12.7572C14.8175 12.9792 14.6965 13.2592 14.5405 13.5682C15.2125 13.2362 15.9835 13.3112 16.5745 13.7752C17.1975 14.2622 17.4485 15.0452 17.2315 15.8162C16.8155 17.2942 15.3835 19.1512 12.5885 21.8382C10.7525 23.6032 8.80853 24.5122 6.97853 24.5122ZM2.01453 11.3812C1.91453 11.3812 1.81853 11.4012 1.72453 11.4412C1.32553 11.6132 0.948526 12.1992 1.00553 13.1202C1.45853 20.4162 3.11553 21.9592 4.77353 22.9142C6.89453 24.1352 9.42153 23.4952 11.8955 21.1152C14.4835 18.6272 15.9135 16.8042 16.2685 15.5432C16.3755 15.1632 16.2595 14.7952 15.9585 14.5602C15.6555 14.3222 15.2695 14.2962 14.9265 14.4922C14.1655 14.9252 12.9515 16.2272 12.5475 16.6932C12.3715 16.8952 12.0675 16.9222 11.8595 16.7572C11.6505 16.5912 11.6085 16.2892 11.7645 16.0722C12.2905 15.3432 13.7025 13.2792 13.9105 12.4982C14.0705 11.8952 13.6915 11.5822 13.5215 11.4752C13.2375 11.2962 12.7875 11.2272 12.4725 11.4992C11.6075 12.2422 9.76553 14.5632 9.74753 14.5862C9.58153 14.7942 9.28053 14.8372 9.06353 14.6812C8.84653 14.5252 8.79053 14.2262 8.93653 14.0022C9.36553 13.3432 10.5045 11.4412 10.6135 10.5622C10.6595 10.1902 10.4625 9.81621 10.1225 9.63021C9.91453 9.51721 9.48653 9.38921 8.96853 9.82221C7.93853 10.6822 6.12753 13.2712 4.87953 15.3122C4.76653 15.4972 4.55053 15.5902 4.33753 15.5382C4.12753 15.4882 3.97253 15.3082 3.95453 15.0922C3.90253 14.4512 3.60853 12.6192 2.89153 11.8512C2.59953 11.5422 2.29753 11.3812 2.01453 11.3812Z" fill="#BF6952"/>
<path d="M25.0492 9.75825C25.0852 9.78425 25.1182 9.79325 25.1552 9.82425C26.3362 10.8102 28.2802 13.7392 29.2432 15.3142C29.3332 15.4602 29.4922 15.5242 29.6572 15.5292C29.8732 14.4772 29.9302 13.2462 29.9232 12.0742C29.6762 12.5922 29.4982 13.1612 29.3852 13.6672C28.4772 12.2672 26.9152 9.99225 25.7952 9.05625C25.1292 8.49925 24.3272 8.38425 23.6242 8.71625C24.2962 8.94225 24.7442 9.33125 25.0492 9.75825ZM4.87915 15.3142C6.12715 13.2722 7.93815 10.6842 8.96815 9.82425C9.03715 9.76625 9.09915 9.74225 9.16415 9.70325C9.46315 9.30325 9.89515 8.94425 10.5232 8.72725C9.81515 8.37825 9.00115 8.49225 8.32615 9.05725C7.20415 9.99425 5.64315 12.2692 4.73615 13.6682C4.63015 13.1962 4.46915 12.6672 4.24815 12.1782C4.24515 13.3192 4.30515 14.5062 4.51315 15.5272C4.66115 15.5072 4.79915 15.4452 4.87915 15.3142Z" fill="#9B3C07"/>
</svg>
