<svg width="19" height="18" viewBox="0 0 19 18" fill="none" xmlns="http://www.w3.org/2000/svg">
<path d="M3.50467 10.0374L9.70094 16.2336C9.90654 16.4393 10.0093 16.6822 10.0093 16.9626C10.0093 17.243 9.91589 17.486 9.72897 17.6916C9.52337 17.8972 9.2757 18 8.98598 18C8.69626 18 8.45794 17.8972 8.27103 17.6916L0.308411 9.72897C0.196262 9.63551 0.116822 9.52804 0.0700935 9.40654C0.0233645 9.28505 0 9.14953 0 9C0 8.86916 0.0233645 8.74299 0.0700935 8.6215C0.116822 8.5 0.196262 8.39252 0.308411 8.29907L8.29907 0.308411C8.50467 0.102804 8.74766 0 9.02804 0C9.30841 0 9.5514 0.102804 9.75701 0.308411C9.94393 0.514019 10.0374 0.757009 10.0374 1.03738C10.0374 1.31776 9.94393 1.5514 9.75701 1.73832L3.50467 7.99065H17.4112C17.6916 7.99065 17.9299 8.08879 18.1262 8.28505C18.3224 8.48131 18.4206 8.71963 18.4206 9C18.4206 9.29907 18.3224 9.54673 18.1262 9.74299C17.9299 9.93925 17.6916 10.0374 17.4112 10.0374H3.50467Z" fill="black"/>
</svg>
