<svg width="15" height="14" viewBox="0 0 15 14" fill="none" xmlns="http://www.w3.org/2000/svg">
<path d="M2.72586 7.80685L7.54517 12.6262C7.70509 12.7861 7.78505 12.9751 7.78505 13.1931C7.78505 13.4112 7.71236 13.6002 7.56698 13.7601C7.40706 13.92 7.21443 14 6.9891 14C6.76376 14 6.5784 13.92 6.43302 13.7601L0.239875 7.56698C0.152648 7.49429 0.0908619 7.4107 0.0545171 7.3162C0.0181724 7.2217 0 7.1163 0 7C0 6.89823 0.0181724 6.8001 0.0545171 6.70561C0.0908619 6.61111 0.152648 6.52752 0.239875 6.45483L6.45483 0.239875C6.61475 0.0799585 6.80374 0 7.02181 0C7.23988 0 7.42887 0.0799585 7.58878 0.239875C7.73416 0.399792 7.80685 0.588785 7.80685 0.806854C7.80685 1.02492 7.73416 1.20665 7.58878 1.35202L2.72586 6.21495H13.5421C13.7601 6.21495 13.9455 6.29128 14.0981 6.44392C14.2508 6.59657 14.3271 6.78193 14.3271 7C14.3271 7.23261 14.2508 7.42523 14.0981 7.57788C13.9455 7.73053 13.7601 7.80685 13.5421 7.80685H2.72586Z" fill="#EC5D5D"/>
</svg>
