<svg width="15" height="12" viewBox="0 0 15 12" fill="none" xmlns="http://www.w3.org/2000/svg">
<path d="M0 11.0271V9.20191C0 8.76157 0.10886 8.36942 0.326579 8.02546C0.544299 7.6815 0.85088 7.42063 1.24632 7.24287C2.05377 6.89371 2.78564 6.63833 3.44194 6.47675C4.09823 6.31516 4.77379 6.23437 5.4686 6.23437C6.1751 6.23437 6.85369 6.31516 7.50438 6.47675C8.15506 6.63833 8.88436 6.89382 9.69229 7.24322C10.083 7.41003 10.3909 7.6661 10.6162 8.01142C10.8414 8.35674 10.9541 8.75341 10.9541 9.20141V11.0271H0ZM12.0451 11.0271V9.20613C12.0451 8.51998 11.8724 7.94062 11.527 7.46804C11.1816 6.99547 10.7211 6.57863 10.1454 6.21752C10.8606 6.31846 11.5344 6.45224 12.167 6.61884C12.7995 6.78546 13.3254 6.97441 13.7447 7.18568C14.126 7.39249 14.4305 7.67122 14.6583 8.02187C14.8861 8.37252 15 8.77657 15 9.23402V11.0271H12.0451ZM5.47473 5.20866C4.70082 5.20866 4.07368 4.96907 3.59329 4.4899C3.1129 4.01072 2.87271 3.3855 2.87271 2.61423C2.87271 1.84296 3.11305 1.21443 3.59375 0.728667C4.07444 0.242889 4.69965 0 5.46936 0C6.23306 0 6.86084 0.242377 7.3527 0.727132C7.84456 1.21189 8.0905 1.8367 8.0905 2.60158C8.0905 3.38128 7.84593 4.01072 7.35679 4.4899C6.86765 4.96907 6.24029 5.20866 5.47473 5.20866ZM11.8266 2.6015C11.8266 3.37517 11.583 4.00311 11.0958 4.48532C10.6087 4.96755 9.98359 5.20866 9.22059 5.20866C9.07513 5.20866 8.92992 5.19941 8.78497 5.1809C8.64001 5.1624 8.49446 5.12622 8.34834 5.07236C8.62373 4.77275 8.82876 4.41602 8.96341 4.00217C9.09806 3.58832 9.16539 3.1245 9.16539 2.61071C9.16539 2.09691 9.09759 1.64194 8.96199 1.24579C8.8264 0.849647 8.62185 0.479418 8.34834 0.135102C8.47819 0.0955025 8.62305 0.0630884 8.78294 0.0378596C8.94283 0.0126201 9.08852 0 9.22001 0C9.98092 0 10.6056 0.243875 11.094 0.731625C11.5824 1.21936 11.8266 1.84266 11.8266 2.6015ZM1.34398 9.68316H9.60096V9.23844C9.60096 9.07003 9.55194 8.90633 9.45389 8.74734C9.35584 8.58834 9.23344 8.48203 9.0867 8.42842C8.31999 8.09588 7.68021 7.87258 7.16735 7.75854C6.6545 7.64449 6.08684 7.58747 5.46439 7.58747C4.85411 7.58747 4.28529 7.64449 3.75792 7.75854C3.23054 7.87258 2.59193 8.09588 1.84209 8.42842C1.70143 8.48114 1.58325 8.58713 1.48754 8.7464C1.39183 8.90567 1.34398 9.06968 1.34398 9.23844V9.68316ZM5.46707 3.96515C5.86126 3.96515 6.18979 3.83752 6.45267 3.58226C6.71555 3.32701 6.84699 3.00297 6.84699 2.61015C6.84699 2.21731 6.71578 1.89133 6.45337 1.6322C6.19094 1.37307 5.86296 1.24351 5.46941 1.24351C5.07585 1.24351 4.75194 1.37297 4.49765 1.63189C4.24336 1.89082 4.11622 2.21612 4.11622 2.6078C4.11622 3.002 4.24344 3.32677 4.49788 3.58211C4.75232 3.83747 5.07539 3.96515 5.46707 3.96515Z" fill="#050505"/>
</svg>
