<svg width="58" height="57" viewBox="0 0 58 57" fill="none" xmlns="http://www.w3.org/2000/svg">
<mask id="mask0_471_4237" style="mask-type:luminance" maskUnits="userSpaceOnUse" x="-5" y="-5" width="68" height="67">
<path d="M-4.32964 -4.43959H62.0228V61.9128H-4.32964V-4.43959Z" fill="white"/>
</mask>
<g mask="url(#mask0_471_4237)">
<path d="M17.6139 24.0064C20.1021 23.0899 22.5219 25.5097 21.6054 27.9999L16.1791 42.7509C16.059 43.0777 15.8585 43.3691 15.5962 43.598C15.3339 43.827 15.0182 43.9862 14.6781 44.061C14.3381 44.1357 13.9847 44.1237 13.6505 44.0259C13.3163 43.9282 13.0122 43.7478 12.7661 43.5015L2.11235 32.8478C1.86655 32.6017 1.68662 32.2977 1.58913 31.9637C1.49165 31.6298 1.47974 31.2767 1.5545 30.937C1.62926 30.5973 1.78829 30.2818 2.01695 30.0197C2.2456 29.7575 2.53654 29.5571 2.86296 29.4369L17.6139 24.0064Z" fill="url(#paint0_linear_471_4237)"/>
<path d="M17.6139 24.0064C20.1021 23.0899 22.5219 25.5097 21.6054 27.9999L16.1791 42.7509C16.059 43.0777 15.8585 43.3691 15.5962 43.598C15.3339 43.827 15.0182 43.9862 14.6781 44.061C14.3381 44.1357 13.9847 44.1237 13.6505 44.0259C13.3163 43.9282 13.0122 43.7478 12.7661 43.5015L2.11235 32.8478C1.86655 32.6017 1.68662 32.2977 1.58913 31.9637C1.49165 31.6298 1.47974 31.2767 1.5545 30.937C1.62926 30.5973 1.78829 30.2818 2.01695 30.0197C2.2456 29.7575 2.53654 29.5571 2.86296 29.4369L17.6139 24.0064Z" fill="url(#paint1_radial_471_4237)"/>
<path d="M17.6139 24.0064C20.1021 23.0899 22.5219 25.5097 21.6054 27.9999L16.1791 42.7509C16.059 43.0777 15.8585 43.3691 15.5962 43.598C15.3339 43.827 15.0182 43.9862 14.6781 44.061C14.3381 44.1357 13.9847 44.1237 13.6505 44.0259C13.3163 43.9282 13.0122 43.7478 12.7661 43.5015L2.11235 32.8478C1.86655 32.6017 1.68662 32.2977 1.58913 31.9637C1.49165 31.6298 1.47974 31.2767 1.5545 30.937C1.62926 30.5973 1.78829 30.2818 2.01695 30.0197C2.2456 29.7575 2.53654 29.5571 2.86296 29.4369L17.6139 24.0064Z" fill="url(#paint2_linear_471_4237)"/>
<path d="M30.0532 36.4474C32.5414 35.5309 34.9612 37.9507 34.0447 40.441L28.6141 55.192C28.4939 55.5184 28.2935 55.8094 28.0314 56.038C27.7692 56.2667 27.4538 56.4257 27.114 56.5005C26.7743 56.5752 26.4212 56.5633 26.0873 56.4658C25.7534 56.3683 25.4493 56.1884 25.2032 55.9426L14.5495 45.2889C14.3037 45.0428 14.1238 44.7387 14.0263 44.4048C13.9288 44.0709 13.9169 43.7178 13.9916 43.3781C14.0664 43.0384 14.2254 42.7229 14.4541 42.4607C14.6828 42.1986 14.9737 41.9982 15.3001 41.878L30.0532 36.4474Z" fill="url(#paint3_linear_471_4237)"/>
<path d="M30.0532 36.4474C32.5414 35.5309 34.9612 37.9507 34.0447 40.441L28.6141 55.192C28.4939 55.5184 28.2935 55.8094 28.0314 56.038C27.7692 56.2667 27.4538 56.4257 27.114 56.5005C26.7743 56.5752 26.4212 56.5633 26.0873 56.4658C25.7534 56.3683 25.4493 56.1884 25.2032 55.9426L14.5495 45.2889C14.3037 45.0428 14.1238 44.7387 14.0263 44.4048C13.9288 44.0709 13.9169 43.7178 13.9916 43.3781C14.0664 43.0384 14.2254 42.7229 14.4541 42.4607C14.6828 42.1986 14.9737 41.9982 15.3001 41.878L30.0532 36.4474Z" fill="url(#paint4_radial_471_4237)"/>
<path d="M30.0532 36.4474C32.5414 35.5309 34.9612 37.9507 34.0447 40.441L28.6141 55.192C28.4939 55.5184 28.2935 55.8094 28.0314 56.038C27.7692 56.2667 27.4538 56.4257 27.114 56.5005C26.7743 56.5752 26.4212 56.5633 26.0873 56.4658C25.7534 56.3683 25.4493 56.1884 25.2032 55.9426L14.5495 45.2889C14.3037 45.0428 14.1238 44.7387 14.0263 44.4048C13.9288 44.0709 13.9169 43.7178 13.9916 43.3781C14.0664 43.0384 14.2254 42.7229 14.4541 42.4607C14.6828 42.1986 14.9737 41.9982 15.3001 41.878L30.0532 36.4474Z" fill="url(#paint5_radial_471_4237)"/>
<g filter="url(#filter0_i_471_4237)">
<path d="M42.1164 2.92208C42.1732 2.89958 42.2352 2.89426 42.295 2.9068C42.3547 2.91934 42.4094 2.94917 42.4523 2.99258L54.655 15.2885C54.698 15.3316 54.7275 15.3865 54.7396 15.4462C54.7518 15.5059 54.7461 15.5679 54.7234 15.6244C51.7997 22.7988 47.7709 30.4293 42.3777 35.8246C37.1234 41.0789 28.2363 45.5556 20.2118 48.8483L8.82617 37.4606C12.1189 29.4361 16.5956 20.5511 21.8499 15.2968C27.2618 9.88494 34.9213 5.84781 42.1143 2.92415" fill="url(#paint6_linear_471_4237)"/>
<path d="M42.1164 2.92208C42.1732 2.89958 42.2352 2.89426 42.295 2.9068C42.3547 2.91934 42.4094 2.94917 42.4523 2.99258L54.655 15.2885C54.698 15.3316 54.7275 15.3865 54.7396 15.4462C54.7518 15.5059 54.7461 15.5679 54.7234 15.6244C51.7997 22.7988 47.7709 30.4293 42.3777 35.8246C37.1234 41.0789 28.2363 45.5556 20.2118 48.8483L8.82617 37.4606C12.1189 29.4361 16.5956 20.5511 21.8499 15.2968C27.2618 9.88494 34.9213 5.84781 42.1143 2.92415" fill="url(#paint7_radial_471_4237)"/>
<path d="M42.1164 2.92208C42.1732 2.89958 42.2352 2.89426 42.295 2.9068C42.3547 2.91934 42.4094 2.94917 42.4523 2.99258L54.655 15.2885C54.698 15.3316 54.7275 15.3865 54.7396 15.4462C54.7518 15.5059 54.7461 15.5679 54.7234 15.6244C51.7997 22.7988 47.7709 30.4293 42.3777 35.8246C37.1234 41.0789 28.2363 45.5556 20.2118 48.8483L8.82617 37.4606C12.1189 29.4361 16.5956 20.5511 21.8499 15.2968C27.2618 9.88494 34.9213 5.84781 42.1143 2.92415" fill="url(#paint8_radial_471_4237)"/>
<path d="M42.1164 2.92208C42.1732 2.89958 42.2352 2.89426 42.295 2.9068C42.3547 2.91934 42.4094 2.94917 42.4523 2.99258L54.655 15.2885C54.698 15.3316 54.7275 15.3865 54.7396 15.4462C54.7518 15.5059 54.7461 15.5679 54.7234 15.6244C51.7997 22.7988 47.7709 30.4293 42.3777 35.8246C37.1234 41.0789 28.2363 45.5556 20.2118 48.8483L8.82617 37.4606C12.1189 29.4361 16.5956 20.5511 21.8499 15.2968C27.2618 9.88494 34.9213 5.84781 42.1143 2.92415" fill="url(#paint9_radial_471_4237)"/>
<path d="M42.1164 2.92208C42.1732 2.89958 42.2352 2.89426 42.295 2.9068C42.3547 2.91934 42.4094 2.94917 42.4523 2.99258L54.655 15.2885C54.698 15.3316 54.7275 15.3865 54.7396 15.4462C54.7518 15.5059 54.7461 15.5679 54.7234 15.6244C51.7997 22.7988 47.7709 30.4293 42.3777 35.8246C37.1234 41.0789 28.2363 45.5556 20.2118 48.8483L8.82617 37.4606C12.1189 29.4361 16.5956 20.5511 21.8499 15.2968C27.2618 9.88494 34.9213 5.84781 42.1143 2.92415" fill="url(#paint10_radial_471_4237)"/>
</g>
<g filter="url(#filter1_dii_471_4237)">
<path d="M46.473 18.4966C46.4889 19.4215 46.3206 20.3403 45.9776 21.1994C45.6347 22.0585 45.1242 22.8408 44.4757 23.5005C43.8273 24.1602 43.054 24.6842 42.2009 25.0419C41.3478 25.3996 40.432 25.5838 39.507 25.5838C38.582 25.5838 37.6662 25.3996 36.8131 25.0419C35.96 24.6842 35.1867 24.1602 34.5383 23.5005C33.8899 22.8408 33.3793 22.0585 33.0364 21.1994C32.6935 20.3403 32.5251 19.4215 32.541 18.4966C32.5726 16.6699 33.3203 14.9287 34.6233 13.648C35.9262 12.3674 37.6801 11.6498 39.507 11.6498C41.334 11.6498 43.0878 12.3674 44.3908 13.648C45.6937 14.9287 46.4415 16.6699 46.473 18.4966Z" fill="url(#paint11_linear_471_4237)"/>
<path d="M46.473 18.4966C46.4889 19.4215 46.3206 20.3403 45.9776 21.1994C45.6347 22.0585 45.1242 22.8408 44.4757 23.5005C43.8273 24.1602 43.054 24.6842 42.2009 25.0419C41.3478 25.3996 40.432 25.5838 39.507 25.5838C38.582 25.5838 37.6662 25.3996 36.8131 25.0419C35.96 24.6842 35.1867 24.1602 34.5383 23.5005C33.8899 22.8408 33.3793 22.0585 33.0364 21.1994C32.6935 20.3403 32.5251 19.4215 32.541 18.4966C32.5726 16.6699 33.3203 14.9287 34.6233 13.648C35.9262 12.3674 37.6801 11.6498 39.507 11.6498C41.334 11.6498 43.0878 12.3674 44.3908 13.648C45.6937 14.9287 46.4415 16.6699 46.473 18.4966Z" fill="url(#paint12_radial_471_4237)"/>
</g>
<path d="M44.3272 18.4973C44.3405 19.139 44.2256 19.7768 43.9893 20.3735C43.7529 20.9702 43.3999 21.5137 42.9508 21.9721C42.5017 22.4306 41.9656 22.7949 41.374 23.0436C40.7823 23.2922 40.147 23.4203 39.5052 23.4203C38.8635 23.4203 38.2281 23.2922 37.6365 23.0436C37.0448 22.7949 36.5088 22.4306 36.0597 21.9721C35.6106 21.5137 35.2576 20.9702 35.0212 20.3735C34.7849 19.7768 34.67 19.139 34.6833 18.4973C34.7094 17.2358 35.229 16.0347 36.1304 15.1518C37.0319 14.2688 38.2434 13.7743 39.5052 13.7743C40.7671 13.7743 41.9786 14.2688 42.8801 15.1518C43.7815 16.0347 44.301 17.2358 44.3272 18.4973Z" fill="url(#paint13_radial_471_4237)"/>
<g filter="url(#filter2_i_471_4237)">
<path d="M0.69599 56.798C-0.769983 55.3321 -0.181106 45.1636 5.00268 43.09C5.00268 43.09 10.1865 41.0165 13.5269 44.3341C16.8673 47.6518 15.3702 51.3841 15.3702 51.3841C13.9043 55.782 7.66299 57.53 6.92897 56.796C6.52463 56.3916 7.25244 55.6555 6.92897 55.3321C6.6055 55.0065 6.10371 55.3777 4.73105 56.064C3.75235 56.5534 1.28279 57.3848 0.69599 56.798Z" fill="url(#paint14_radial_471_4237)"/>
<path d="M0.69599 56.798C-0.769983 55.3321 -0.181106 45.1636 5.00268 43.09C5.00268 43.09 10.1865 41.0165 13.5269 44.3341C16.8673 47.6518 15.3702 51.3841 15.3702 51.3841C13.9043 55.782 7.66299 57.53 6.92897 56.796C6.52463 56.3916 7.25244 55.6555 6.92897 55.3321C6.6055 55.0065 6.10371 55.3777 4.73105 56.064C3.75235 56.5534 1.28279 57.3848 0.69599 56.798Z" fill="url(#paint15_radial_471_4237)"/>
</g>
<path d="M8.2377 39.0694C8.52654 38.7804 8.8695 38.5511 9.24699 38.3947C9.62447 38.2383 10.0291 38.1577 10.4377 38.1577C10.8463 38.1577 11.2509 38.2383 11.6284 38.3947C12.0059 38.5511 12.3489 38.7804 12.6377 39.0694L19.9676 46.4014C20.5243 46.9896 20.8295 47.7719 20.8184 48.5817C20.8074 49.3915 20.4808 50.1651 19.9083 50.738C19.3357 51.3108 18.5623 51.6377 17.7524 51.6491C16.9426 51.6606 16.1602 51.3557 15.5717 50.7993L8.2377 43.4694C7.94867 43.1806 7.71939 42.8376 7.56296 42.4601C7.40653 42.0826 7.32602 41.678 7.32602 41.2694C7.32602 40.8608 7.40653 40.4562 7.56296 40.0787C7.71939 39.7012 7.94867 39.3583 8.2377 39.0694Z" fill="url(#paint16_linear_471_4237)"/>
<path d="M8.2377 39.0694C8.52654 38.7804 8.8695 38.5511 9.24699 38.3947C9.62447 38.2383 10.0291 38.1577 10.4377 38.1577C10.8463 38.1577 11.2509 38.2383 11.6284 38.3947C12.0059 38.5511 12.3489 38.7804 12.6377 39.0694L19.9676 46.4014C20.5243 46.9896 20.8295 47.7719 20.8184 48.5817C20.8074 49.3915 20.4808 50.1651 19.9083 50.738C19.3357 51.3108 18.5623 51.6377 17.7524 51.6491C16.9426 51.6606 16.1602 51.3557 15.5717 50.7993L8.2377 43.4694C7.94867 43.1806 7.71939 42.8376 7.56296 42.4601C7.40653 42.0826 7.32602 41.678 7.32602 41.2694C7.32602 40.8608 7.40653 40.4562 7.56296 40.0787C7.71939 39.7012 7.94867 39.3583 8.2377 39.0694Z" fill="url(#paint17_radial_471_4237)"/>
<path d="M8.2377 39.0694C8.52654 38.7804 8.8695 38.5511 9.24699 38.3947C9.62447 38.2383 10.0291 38.1577 10.4377 38.1577C10.8463 38.1577 11.2509 38.2383 11.6284 38.3947C12.0059 38.5511 12.3489 38.7804 12.6377 39.0694L19.9676 46.4014C20.5243 46.9896 20.8295 47.7719 20.8184 48.5817C20.8074 49.3915 20.4808 50.1651 19.9083 50.738C19.3357 51.3108 18.5623 51.6377 17.7524 51.6491C16.9426 51.6606 16.1602 51.3557 15.5717 50.7993L8.2377 43.4694C7.94867 43.1806 7.71939 42.8376 7.56296 42.4601C7.40653 42.0826 7.32602 41.678 7.32602 41.2694C7.32602 40.8608 7.40653 40.4562 7.56296 40.0787C7.71939 39.7012 7.94867 39.3583 8.2377 39.0694Z" fill="url(#paint18_radial_471_4237)"/>
<path d="M56.1637 1.51406C54.2001 -0.449557 50.756 -0.227691 48.247 0.63489C46.354 1.2836 44.4775 1.97983 42.6195 2.72292C42.5878 2.73564 42.5597 2.756 42.5378 2.78218C42.5158 2.80837 42.5007 2.83958 42.4937 2.87302C42.4867 2.90647 42.4881 2.94112 42.4978 2.9739C42.5074 3.00668 42.525 3.03656 42.549 3.0609L54.5961 15.1889C54.6203 15.2125 54.6499 15.2298 54.6823 15.2393C54.7148 15.2488 54.749 15.2503 54.7822 15.2435C54.8153 15.2368 54.8462 15.222 54.8724 15.2006C54.8985 15.1791 54.919 15.1516 54.932 15.1204C55.6844 13.2428 56.3889 11.3463 57.0449 9.43281C57.8951 6.95703 58.5793 3.9297 56.1637 1.51406Z" fill="url(#paint19_linear_471_4237)"/>
<path d="M56.1637 1.51406C54.2001 -0.449557 50.756 -0.227691 48.247 0.63489C46.354 1.2836 44.4775 1.97983 42.6195 2.72292C42.5878 2.73564 42.5597 2.756 42.5378 2.78218C42.5158 2.80837 42.5007 2.83958 42.4937 2.87302C42.4867 2.90647 42.4881 2.94112 42.4978 2.9739C42.5074 3.00668 42.525 3.03656 42.549 3.0609L54.5961 15.1889C54.6203 15.2125 54.6499 15.2298 54.6823 15.2393C54.7148 15.2488 54.749 15.2503 54.7822 15.2435C54.8153 15.2368 54.8462 15.222 54.8724 15.2006C54.8985 15.1791 54.919 15.1516 54.932 15.1204C55.6844 13.2428 56.3889 11.3463 57.0449 9.43281C57.8951 6.95703 58.5793 3.9297 56.1637 1.51406Z" fill="url(#paint20_radial_471_4237)"/>
<path d="M56.1637 1.51406C54.2001 -0.449557 50.756 -0.227691 48.247 0.63489C46.354 1.2836 44.4775 1.97983 42.6195 2.72292C42.5878 2.73564 42.5597 2.756 42.5378 2.78218C42.5158 2.80837 42.5007 2.83958 42.4937 2.87302C42.4867 2.90647 42.4881 2.94112 42.4978 2.9739C42.5074 3.00668 42.525 3.03656 42.549 3.0609L54.5961 15.1889C54.6203 15.2125 54.6499 15.2298 54.6823 15.2393C54.7148 15.2488 54.749 15.2503 54.7822 15.2435C54.8153 15.2368 54.8462 15.222 54.8724 15.2006C54.8985 15.1791 54.919 15.1516 54.932 15.1204C55.6844 13.2428 56.3889 11.3463 57.0449 9.43281C57.8951 6.95703 58.5793 3.9297 56.1637 1.51406Z" fill="url(#paint21_linear_471_4237)"/>
<path d="M23.8326 30.2269C26.3208 29.3104 28.7406 31.7302 27.8241 34.2205L22.3957 48.9715C22.2756 49.2983 22.0752 49.5896 21.8128 49.8185C21.5505 50.0475 21.2348 50.2067 20.8947 50.2815C20.5547 50.3563 20.2013 50.3442 19.8671 50.2465C19.5329 50.1487 19.2288 49.9684 18.9827 49.7221L8.32896 39.0684C8.08316 38.8222 7.90323 38.5182 7.80574 38.1843C7.70826 37.8504 7.69635 37.4973 7.77111 37.1575C7.84587 36.8178 8.0049 36.5024 8.23356 36.2402C8.46221 35.9781 8.75315 35.7776 9.07957 35.6574L23.8326 30.2269Z" fill="url(#paint22_linear_471_4237)"/>
<path d="M23.8326 30.2269C26.3208 29.3104 28.7406 31.7302 27.8241 34.2205L22.3957 48.9715C22.2756 49.2983 22.0752 49.5896 21.8128 49.8185C21.5505 50.0475 21.2348 50.2067 20.8947 50.2815C20.5547 50.3563 20.2013 50.3442 19.8671 50.2465C19.5329 50.1487 19.2288 49.9684 18.9827 49.7221L8.32896 39.0684C8.08316 38.8222 7.90323 38.5182 7.80574 38.1843C7.70826 37.8504 7.69635 37.4973 7.77111 37.1575C7.84587 36.8178 8.0049 36.5024 8.23356 36.2402C8.46221 35.9781 8.75315 35.7776 9.07957 35.6574L23.8326 30.2269Z" fill="url(#paint23_radial_471_4237)"/>
<path d="M23.8326 30.2269C26.3208 29.3104 28.7406 31.7302 27.8241 34.2205L22.3957 48.9715C22.2756 49.2983 22.0752 49.5896 21.8128 49.8185C21.5505 50.0475 21.2348 50.2067 20.8947 50.2815C20.5547 50.3563 20.2013 50.3442 19.8671 50.2465C19.5329 50.1487 19.2288 49.9684 18.9827 49.7221L8.32896 39.0684C8.08316 38.8222 7.90323 38.5182 7.80574 38.1843C7.70826 37.8504 7.69635 37.4973 7.77111 37.1575C7.84587 36.8178 8.0049 36.5024 8.23356 36.2402C8.46221 35.9781 8.75315 35.7776 9.07957 35.6574L23.8326 30.2269Z" fill="url(#paint24_radial_471_4237)"/>
<path d="M23.8326 30.2269C26.3208 29.3104 28.7406 31.7302 27.8241 34.2205L22.3957 48.9715C22.2756 49.2983 22.0752 49.5896 21.8128 49.8185C21.5505 50.0475 21.2348 50.2067 20.8947 50.2815C20.5547 50.3563 20.2013 50.3442 19.8671 50.2465C19.5329 50.1487 19.2288 49.9684 18.9827 49.7221L8.32896 39.0684C8.08316 38.8222 7.90323 38.5182 7.80574 38.1843C7.70826 37.8504 7.69635 37.4973 7.77111 37.1575C7.84587 36.8178 8.0049 36.5024 8.23356 36.2402C8.46221 35.9781 8.75315 35.7776 9.07957 35.6574L23.8326 30.2269Z" fill="url(#paint25_radial_471_4237)"/>
<g filter="url(#filter3_f_471_4237)">
<path d="M14.7541 41.2794L26.4177 32.1414L18.9012 45.4907L14.7541 41.2794Z" fill="url(#paint26_linear_471_4237)"/>
</g>
</g>
<defs>
<filter id="filter0_i_471_4237" x="8.52996" y="2.30774" width="46.2159" height="46.5416" filterUnits="userSpaceOnUse" color-interpolation-filters="sRGB">
<feFlood flood-opacity="0" result="BackgroundImageFix"/>
<feBlend mode="normal" in="SourceGraphic" in2="BackgroundImageFix" result="shape"/>
<feColorMatrix in="SourceAlpha" type="matrix" values="0 0 0 0 0 0 0 0 0 0 0 0 0 0 0 0 0 0 127 0" result="hardAlpha"/>
<feOffset dx="-0.294643" dy="-0.589286"/>
<feGaussianBlur stdDeviation="0.883929"/>
<feComposite in2="hardAlpha" operator="arithmetic" k2="-1" k3="1"/>
<feColorMatrix type="matrix" values="0 0 0 0 0.745098 0 0 0 0 0.772549 0 0 0 0 0.952941 0 0 0 1 0"/>
<feBlend mode="normal" in2="shape" result="effect1_innerShadow_471_4237"/>
</filter>
<filter id="filter1_dii_471_4237" x="31.3551" y="10.7611" width="16.3031" height="16.3031" filterUnits="userSpaceOnUse" color-interpolation-filters="sRGB">
<feFlood flood-opacity="0" result="BackgroundImageFix"/>
<feColorMatrix in="SourceAlpha" type="matrix" values="0 0 0 0 0 0 0 0 0 0 0 0 0 0 0 0 0 0 127 0" result="hardAlpha"/>
<feOffset dy="0.294643"/>
<feGaussianBlur stdDeviation="0.589286"/>
<feComposite in2="hardAlpha" operator="out"/>
<feColorMatrix type="matrix" values="0 0 0 0 0.866667 0 0 0 0 0.764706 0 0 0 0 0.847059 0 0 0 1 0"/>
<feBlend mode="normal" in2="BackgroundImageFix" result="effect1_dropShadow_471_4237"/>
<feBlend mode="normal" in="SourceGraphic" in2="effect1_dropShadow_471_4237" result="shape"/>
<feColorMatrix in="SourceAlpha" type="matrix" values="0 0 0 0 0 0 0 0 0 0 0 0 0 0 0 0 0 0 127 0" result="hardAlpha"/>
<feOffset dx="-0.117857" dy="0.117857"/>
<feGaussianBlur stdDeviation="0.0589286"/>
<feComposite in2="hardAlpha" operator="arithmetic" k2="-1" k3="1"/>
<feColorMatrix type="matrix" values="0 0 0 0 0.721569 0 0 0 0 0.690196 0 0 0 0 0.701961 0 0 0 1 0"/>
<feBlend mode="normal" in2="shape" result="effect2_innerShadow_471_4237"/>
<feColorMatrix in="SourceAlpha" type="matrix" values="0 0 0 0 0 0 0 0 0 0 0 0 0 0 0 0 0 0 127 0" result="hardAlpha"/>
<feOffset dx="0.117857" dy="-0.117857"/>
<feGaussianBlur stdDeviation="0.0589286"/>
<feComposite in2="hardAlpha" operator="arithmetic" k2="-1" k3="1"/>
<feColorMatrix type="matrix" values="0 0 0 0 0.615686 0 0 0 0 0.560784 0 0 0 0 0.65098 0 0 0 1 0"/>
<feBlend mode="normal" in2="effect2_innerShadow_471_4237" result="effect3_innerShadow_471_4237"/>
</filter>
<filter id="filter2_i_471_4237" x="0" y="42.2131" width="15.7045" height="14.7869" filterUnits="userSpaceOnUse" color-interpolation-filters="sRGB">
<feFlood flood-opacity="0" result="BackgroundImageFix"/>
<feBlend mode="normal" in="SourceGraphic" in2="BackgroundImageFix" result="shape"/>
<feColorMatrix in="SourceAlpha" type="matrix" values="0 0 0 0 0 0 0 0 0 0 0 0 0 0 0 0 0 0 127 0" result="hardAlpha"/>
<feOffset dy="-0.235714"/>
<feGaussianBlur stdDeviation="0.235714"/>
<feComposite in2="hardAlpha" operator="arithmetic" k2="-1" k3="1"/>
<feColorMatrix type="matrix" values="0 0 0 0 0.847059 0 0 0 0 0.505882 0 0 0 0 0.360784 0 0 0 1 0"/>
<feBlend mode="normal" in2="shape" result="effect1_innerShadow_471_4237"/>
</filter>
<filter id="filter3_f_471_4237" x="13.5693" y="30.9565" width="14.0332" height="15.7199" filterUnits="userSpaceOnUse" color-interpolation-filters="sRGB">
<feFlood flood-opacity="0" result="BackgroundImageFix"/>
<feBlend mode="normal" in="SourceGraphic" in2="BackgroundImageFix" result="shape"/>
<feGaussianBlur stdDeviation="0.589286" result="effect1_foregroundBlur_471_4237"/>
</filter>
<linearGradient id="paint0_linear_471_4237" x1="12.4903" y1="31.4503" x2="2.12272" y2="29.7417" gradientUnits="userSpaceOnUse">
<stop stop-color="#EE2452"/>
<stop offset="1" stop-color="#F63E7A"/>
</linearGradient>
<radialGradient id="paint1_radial_471_4237" cx="0" cy="0" r="1" gradientUnits="userSpaceOnUse" gradientTransform="translate(0.644302 30.9423) rotate(-19.9576) scale(16.5916 2.82092)">
<stop offset="0.164" stop-color="#FF8DB0"/>
<stop offset="1" stop-color="#FF8DB0" stop-opacity="0"/>
</radialGradient>
<linearGradient id="paint2_linear_471_4237" x1="5.8426" y1="36.4785" x2="7.53251" y2="34.8301" gradientUnits="userSpaceOnUse">
<stop offset="0.491" stop-color="#DD467C"/>
<stop offset="1" stop-color="#DD467C" stop-opacity="0"/>
</linearGradient>
<linearGradient id="paint3_linear_471_4237" x1="32.7695" y1="40.4991" x2="19.8764" y2="50.6158" gradientUnits="userSpaceOnUse">
<stop stop-color="#F83267"/>
<stop offset="1" stop-color="#FF3190"/>
</linearGradient>
<radialGradient id="paint4_radial_471_4237" cx="0" cy="0" r="1" gradientUnits="userSpaceOnUse" gradientTransform="translate(25.901 41.5994) rotate(86.482) scale(15.8397 13.6563)">
<stop offset="0.757" stop-color="#E76CBE" stop-opacity="0"/>
<stop offset="0.951" stop-color="#E76CBE"/>
</radialGradient>
<radialGradient id="paint5_radial_471_4237" cx="0" cy="0" r="1" gradientUnits="userSpaceOnUse" gradientTransform="translate(23.5672 49.9585) rotate(-57.346) scale(10.9285 4.80033)">
<stop stop-color="#FF5898"/>
<stop offset="1" stop-color="#FF5898" stop-opacity="0"/>
</radialGradient>
<linearGradient id="paint6_linear_471_4237" x1="23.6331" y1="13.5426" x2="41.9049" y2="31.945" gradientUnits="userSpaceOnUse">
<stop stop-color="#CCBBC0"/>
<stop offset="1" stop-color="#EAD2EC"/>
</linearGradient>
<radialGradient id="paint7_radial_471_4237" cx="0" cy="0" r="1" gradientUnits="userSpaceOnUse" gradientTransform="translate(45.3718 40.3013) rotate(-142.447) scale(34.5798 65.0011)">
<stop offset="0.811" stop-color="#E7E5E5" stop-opacity="0"/>
<stop offset="1" stop-color="#E7E5E5"/>
</radialGradient>
<radialGradient id="paint8_radial_471_4237" cx="0" cy="0" r="1" gradientUnits="userSpaceOnUse" gradientTransform="translate(14.7067 39.7477) rotate(-56.929) scale(20.3283 9.55412)">
<stop offset="0.281" stop-color="#B5A3A5"/>
<stop offset="1" stop-color="#B5A3A5" stop-opacity="0"/>
</radialGradient>
<radialGradient id="paint9_radial_471_4237" cx="0" cy="0" r="1" gradientUnits="userSpaceOnUse" gradientTransform="translate(8.82477 37.2196) rotate(-73.625) scale(18.0213 3.05366)">
<stop offset="0.208" stop-color="#B28F96"/>
<stop offset="1" stop-color="#B28F96" stop-opacity="0"/>
</radialGradient>
<radialGradient id="paint10_radial_471_4237" cx="0" cy="0" r="1" gradientUnits="userSpaceOnUse" gradientTransform="translate(51.8827 10.3038) rotate(137.284) scale(27.3185 8.48209)">
<stop stop-color="#FAECF1"/>
<stop offset="1" stop-color="#FAECF1" stop-opacity="0"/>
</radialGradient>
<linearGradient id="paint11_linear_471_4237" x1="32.541" y1="17.3126" x2="46.473" y2="18.4966" gradientUnits="userSpaceOnUse">
<stop stop-color="#A796A0"/>
<stop offset="1" stop-color="#A5959F"/>
</linearGradient>
<radialGradient id="paint12_radial_471_4237" cx="0" cy="0" r="1" gradientUnits="userSpaceOnUse" gradientTransform="translate(39.5101 18.4966) rotate(90) scale(6.96572)">
<stop offset="0.587" stop-color="#93859B"/>
<stop offset="1" stop-color="#93859B" stop-opacity="0"/>
</radialGradient>
<radialGradient id="paint13_radial_471_4237" cx="0" cy="0" r="1" gradientUnits="userSpaceOnUse" gradientTransform="translate(39.5042 23.3203) rotate(-90) scale(10.0474 9.24011)">
<stop stop-color="#72CDFF"/>
<stop offset="0.738" stop-color="#66ACFF"/>
<stop offset="1" stop-color="#3B57F4"/>
</radialGradient>
<radialGradient id="paint14_radial_471_4237" cx="0" cy="0" r="1" gradientUnits="userSpaceOnUse" gradientTransform="translate(12.656 45.8374) rotate(135) scale(12.0397 9.46353)">
<stop stop-color="#D46213"/>
<stop offset="1" stop-color="#FF9542"/>
</radialGradient>
<radialGradient id="paint15_radial_471_4237" cx="0" cy="0" r="1" gradientUnits="userSpaceOnUse" gradientTransform="translate(12.8903 55.6306) rotate(-131.186) scale(14.8765 15.6773)">
<stop offset="0.871" stop-color="#FFC484" stop-opacity="0"/>
<stop offset="1" stop-color="#FFC484"/>
</radialGradient>
<linearGradient id="paint16_linear_471_4237" x1="7.69444" y1="41.0828" x2="19.0988" y2="52.2922" gradientUnits="userSpaceOnUse">
<stop stop-color="#452860"/>
<stop offset="1" stop-color="#51509F"/>
</linearGradient>
<radialGradient id="paint17_radial_471_4237" cx="0" cy="0" r="1" gradientUnits="userSpaceOnUse" gradientTransform="translate(9.8343 40.046) rotate(77.8285) scale(3.38065 2.9869)">
<stop stop-color="#8E839A"/>
<stop offset="1" stop-color="#8E839A" stop-opacity="0"/>
</radialGradient>
<radialGradient id="paint18_radial_471_4237" cx="0" cy="0" r="1" gradientUnits="userSpaceOnUse" gradientTransform="translate(10.616 42.047) rotate(47.9357) scale(12.8813 6.75211)">
<stop offset="0.86" stop-color="#6175B9" stop-opacity="0"/>
<stop offset="1" stop-color="#6175B9"/>
</radialGradient>
<linearGradient id="paint19_linear_471_4237" x1="56.174" y1="1.52443" x2="48.5518" y2="9.14666" gradientUnits="userSpaceOnUse">
<stop stop-color="#FF3745"/>
<stop offset="1" stop-color="#ED224B"/>
</linearGradient>
<radialGradient id="paint20_radial_471_4237" cx="0" cy="0" r="1" gradientUnits="userSpaceOnUse" gradientTransform="translate(55.2658 4.57649) rotate(135) scale(17.0998 4.10493)">
<stop offset="0.189" stop-color="#FF5971"/>
<stop offset="1" stop-color="#FF5971" stop-opacity="0"/>
</radialGradient>
<linearGradient id="paint21_linear_471_4237" x1="49.2174" y1="9.65467" x2="49.9784" y2="8.86052" gradientUnits="userSpaceOnUse">
<stop stop-color="#D2575E"/>
<stop offset="1" stop-color="#F93251" stop-opacity="0"/>
</linearGradient>
<linearGradient id="paint22_linear_471_4237" x1="27.1046" y1="30.9464" x2="13.6558" y2="44.3952" gradientUnits="userSpaceOnUse">
<stop stop-color="#FF2644"/>
<stop offset="1" stop-color="#FF2982"/>
</linearGradient>
<radialGradient id="paint23_radial_471_4237" cx="0" cy="0" r="1" gradientUnits="userSpaceOnUse" gradientTransform="translate(8.60059 35.8337) rotate(-20.865) scale(15.4639 4.04831)">
<stop stop-color="#FF95AF"/>
<stop offset="1" stop-color="#FF95AF" stop-opacity="0"/>
</radialGradient>
<radialGradient id="paint24_radial_471_4237" cx="0" cy="0" r="1" gradientUnits="userSpaceOnUse" gradientTransform="translate(6.86299 37.6708) rotate(44.7044) scale(9.55934 2.82374)">
<stop offset="0.382" stop-color="#E14678"/>
<stop offset="1" stop-color="#E14678" stop-opacity="0"/>
</radialGradient>
<radialGradient id="paint25_radial_471_4237" cx="0" cy="0" r="1" gradientUnits="userSpaceOnUse" gradientTransform="translate(19.6814 35.249) rotate(84.6743) scale(15.3585 16.3667)">
<stop offset="0.832" stop-color="#E67BC7" stop-opacity="0"/>
<stop offset="1" stop-color="#E67BC7"/>
</radialGradient>
<linearGradient id="paint26_linear_471_4237" x1="24.6676" y1="33.1139" x2="16.1144" y2="42.0569" gradientUnits="userSpaceOnUse">
<stop stop-color="#FF5970"/>
<stop offset="1" stop-color="#FF5794"/>
</linearGradient>
</defs>
</svg>
