<svg width="31" height="24" viewBox="0 0 31 24" fill="none" xmlns="http://www.w3.org/2000/svg">
<path d="M5.33333 5.77778C5.33333 4.71691 5.75476 3.6995 6.50491 2.94935C7.25505 2.19921 8.27247 1.77778 9.33333 1.77778C10.3942 1.77778 11.4116 2.19921 12.1618 2.94935C12.9119 3.6995 13.3333 4.71691 13.3333 5.77778C13.3333 6.83864 12.9119 7.85606 12.1618 8.6062C11.4116 9.35635 10.3942 9.77778 9.33333 9.77778C8.27247 9.77778 7.25505 9.35635 6.50491 8.6062C5.75476 7.85606 5.33333 6.83864 5.33333 5.77778ZM9.33333 0C7.80097 0 6.33137 0.608728 5.24783 1.69227C4.16428 2.77582 3.55556 4.24542 3.55556 5.77778C3.55556 7.31014 4.16428 8.77974 5.24783 9.86328C6.33137 10.9468 7.80097 11.5556 9.33333 11.5556C10.8657 11.5556 12.3353 10.9468 13.4188 9.86328C14.5024 8.77974 15.1111 7.31014 15.1111 5.77778C15.1111 4.24542 14.5024 2.77582 13.4188 1.69227C12.3353 0.608728 10.8657 0 9.33333 0ZM19.4436 20.7022C20.4 21.0933 21.6036 21.3333 23.1111 21.3333C26.4551 21.3333 28.304 20.1458 29.2782 18.784C29.7865 18.0694 30.1052 17.2375 30.2044 16.3662C30.2133 16.2853 30.2193 16.204 30.2222 16.1227V16C30.2222 15.6498 30.1532 15.303 30.0192 14.9795C29.8852 14.656 29.6888 14.362 29.4412 14.1144C29.1935 13.8668 28.8996 13.6703 28.576 13.5363C28.2525 13.4023 27.9057 13.3333 27.5556 13.3333H19.3244C19.7511 13.8489 20.0711 14.4516 20.2578 15.1111H27.5556C27.7913 15.1111 28.0174 15.2048 28.1841 15.3715C28.3508 15.5382 28.4444 15.7643 28.4444 16V16.096L28.4356 16.1849C28.3675 16.7486 28.1597 17.2863 27.8311 17.7493C27.2498 18.5653 25.9876 19.5556 23.1111 19.5556C21.8098 19.5556 20.8391 19.3529 20.112 19.056C19.9662 19.5538 19.7547 20.1156 19.4436 20.7022ZM0 16.8889C0 15.9459 0.374602 15.0415 1.0414 14.3747C1.70819 13.7079 2.61256 13.3333 3.55556 13.3333H15.1111C16.0541 13.3333 16.9585 13.7079 17.6253 14.3747C18.2921 15.0415 18.6667 15.9459 18.6667 16.8889V17.0382C18.6667 17.056 18.6667 17.0791 18.6631 17.1093C18.6415 17.4613 18.5909 17.811 18.512 18.1547C18.3609 18.8089 18.0604 19.6836 17.4542 20.5618C16.208 22.3644 13.8009 24 9.33333 24C4.86578 24 2.45867 22.3644 1.21244 20.5618C0.556132 19.6058 0.146903 18.5021 0.0213333 17.3493C0.0107101 17.2459 0.00359497 17.1421 0 17.0382V16.9991V16.8889ZM1.77778 16.9956V17.0276L1.79022 17.1751C1.88655 18.0273 2.19055 18.8429 2.67556 19.5502C3.54133 20.8018 5.35644 22.2222 9.33333 22.2222C13.3102 22.2222 15.1253 20.8018 15.9911 19.5502C16.4762 18.843 16.7803 18.0274 16.8764 17.1751C16.8823 17.1261 16.8858 17.0769 16.8871 17.0276L16.8889 16.9973V16.8889C16.8889 16.4174 16.7016 15.9652 16.3682 15.6318C16.0348 15.2984 15.5826 15.1111 15.1111 15.1111H3.55556C3.08406 15.1111 2.63187 15.2984 2.29848 15.6318C1.96508 15.9652 1.77778 16.4174 1.77778 16.8889V16.9956ZM20.4444 7.11111C20.4444 6.40387 20.7254 5.72559 21.2255 5.22549C21.7256 4.7254 22.4039 4.44444 23.1111 4.44444C23.8184 4.44444 24.4966 4.7254 24.9967 5.22549C25.4968 5.72559 25.7778 6.40387 25.7778 7.11111C25.7778 7.81836 25.4968 8.49663 24.9967 8.99673C24.4966 9.49683 23.8184 9.77778 23.1111 9.77778C22.4039 9.77778 21.7256 9.49683 21.2255 8.99673C20.7254 8.49663 20.4444 7.81836 20.4444 7.11111ZM23.1111 2.66667C21.9324 2.66667 20.8019 3.13492 19.9684 3.96841C19.1349 4.80191 18.6667 5.93237 18.6667 7.11111C18.6667 8.28985 19.1349 9.42031 19.9684 10.2538C20.8019 11.0873 21.9324 11.5556 23.1111 11.5556C24.2899 11.5556 25.4203 11.0873 26.2538 10.2538C27.0873 9.42031 27.5556 8.28985 27.5556 7.11111C27.5556 5.93237 27.0873 4.80191 26.2538 3.96841C25.4203 3.13492 24.2899 2.66667 23.1111 2.66667Z" fill="#279B48"/>
</svg>
