<svg width="30" height="30" viewBox="0 0 30 30" fill="none" xmlns="http://www.w3.org/2000/svg">
<path d="M4.21875 6.09375C3.18322 6.09375 2.34375 6.93322 2.34375 7.96875V25.7812C2.34375 26.8168 3.18322 27.6562 4.21875 27.6562H23.9062C24.9418 27.6562 25.7812 26.8168 25.7812 25.7812V20.625C26.8168 20.625 27.6562 19.7855 27.6562 18.75V15C27.6562 13.9645 26.8168 13.125 25.7812 13.125V7.96875C25.7812 6.93322 24.9418 6.09375 23.9062 6.09375H4.21875Z" fill="#050505"/>
<path d="M1.65909 0.770485C1.82448 0.368171 2.39427 0.368172 2.55966 0.770485L2.74128 1.21229C2.79071 1.33254 2.8862 1.42803 3.00645 1.47746L3.44826 1.65908C3.85058 1.82447 3.85058 2.39425 3.44826 2.55964L3.00645 2.74126C2.8862 2.79069 2.79071 2.88618 2.74128 3.00643L2.55966 3.44824C2.39427 3.85055 1.82448 3.85055 1.65909 3.44823L1.47747 3.00643C1.42804 2.88618 1.33255 2.79069 1.2123 2.74126L0.770488 2.55964C0.368171 2.39425 0.368171 1.82447 0.770488 1.65908L1.2123 1.47746C1.33255 1.42803 1.42804 1.33254 1.47747 1.21229L1.65909 0.770485Z" fill="#050505"/>
<path d="M26.9754 0.76792C27.1394 0.369027 27.7043 0.369027 27.8683 0.76792L28.189 1.54804C28.238 1.66727 28.3327 1.76195 28.4519 1.81096L29.2321 2.13166C29.631 2.29564 29.631 2.86058 29.2321 3.02456L28.4519 3.34526C28.3327 3.39427 28.238 3.48895 28.189 3.60818L27.8683 4.3883C27.7043 4.78719 27.1394 4.78719 26.9754 4.3883L26.6547 3.60818C26.6057 3.48895 26.511 3.39427 26.3918 3.34526L25.6117 3.02456C25.2128 2.86058 25.2128 2.29564 25.6117 2.13166L26.3918 1.81096C26.511 1.76195 26.6057 1.66727 26.6547 1.54804L26.9754 0.76792Z" fill="#050505"/>
<path d="M7.96875 7.03125C7.45098 7.03125 7.03125 7.45098 7.03125 7.96875V8.4375C7.03125 8.95527 7.45098 9.375 7.96875 9.375H24.8438V7.96875C24.8438 7.45098 24.424 7.03125 23.9062 7.03125H7.96875Z" fill="#279B48"/>
<path d="M7.96875 10.3125C7.45098 10.3125 7.03125 10.7322 7.03125 11.25V22.5C7.03125 23.0178 7.45098 23.4375 7.96875 23.4375H24.8438V20.625H16.4062C15.3707 20.625 14.5312 19.7855 14.5312 18.75V15C14.5312 13.9645 15.3707 13.125 16.4062 13.125H24.8438V10.3125H7.96875Z" fill="#279B48"/>
<path d="M7.03125 25.7812C7.03125 26.299 7.45098 26.7188 7.96875 26.7188H23.9062C24.424 26.7188 24.8438 26.299 24.8438 25.7812V24.375H7.96875C7.45098 24.375 7.03125 24.7947 7.03125 25.3125V25.7812Z" fill="#279B48"/>
<path fill-rule="evenodd" clip-rule="evenodd" d="M18.2812 14.0625C17.7635 14.0625 17.3438 14.4822 17.3438 15V18.75C17.3438 19.2678 17.7635 19.6875 18.2813 19.6875H25.7812C26.299 19.6875 26.7188 19.2678 26.7188 18.75V15C26.7188 14.4822 26.299 14.0625 25.7812 14.0625H18.2812ZM20.625 18.2812C21.4017 18.2812 22.0312 17.6517 22.0312 16.875C22.0312 16.0983 21.4017 15.4688 20.625 15.4688C19.8483 15.4688 19.2188 16.0983 19.2188 16.875C19.2188 17.6517 19.8483 18.2812 20.625 18.2812Z" fill="#E9EBF4"/>
</svg>
