<svg width="5" height="3" viewBox="0 0 5 3" fill="none" xmlns="http://www.w3.org/2000/svg">
<path d="M2.22944 2.56802L0.0887825 0.445622C0.0594648 0.42506 0.037336 0.398713 0.0223965 0.36658C0.00746535 0.334447 0 0.2983 0 0.25814C0 0.18769 0.025828 0.127057 0.0774837 0.0762391C0.129139 0.0254128 0.190561 0 0.261747 0H4.73825C4.80944 0 4.87086 0.0264011 4.92252 0.0792047C4.97417 0.132 5 0.194754 5 0.267465C5 0.284056 4.97013 0.343718 4.91039 0.446451L2.7831 2.56804C2.74264 2.60866 2.69669 2.63945 2.64525 2.6604C2.59381 2.68134 2.54594 2.69182 2.50163 2.69182C2.45733 2.69182 2.40891 2.68134 2.35638 2.6604C2.30385 2.63945 2.26154 2.60866 2.22944 2.56802Z" fill="#1A1A1A"/>
</svg>
