<svg width="13" height="14" viewBox="0 0 13 14" fill="none" xmlns="http://www.w3.org/2000/svg">
<path d="M1.62465 7.97876V13.1779C1.62465 13.4095 1.54778 13.6044 1.39404 13.7627C1.24031 13.9209 1.05036 14 0.824191 14C0.585004 14 0.387839 13.9209 0.232695 13.7627C0.0775651 13.6044 0 13.4095 0 13.1779V0.813584C0 0.595011 0.0791148 0.404767 0.237344 0.242852C0.395587 0.0809506 0.5905 0 0.822082 0H6.70999C6.88749 0 7.05585 0.0682213 7.21509 0.204665C7.37432 0.341109 7.47347 0.494827 7.51253 0.665818L7.73562 1.68831H11.6578C11.8763 1.68831 12.0666 1.76669 12.2285 1.92344C12.3904 2.08022 12.4714 2.27304 12.4714 2.50191V8.82548C12.4714 9.05707 12.3904 9.25198 12.2285 9.41021C12.0666 9.56844 11.8763 9.64756 11.6578 9.64756H7.46923C7.28437 9.64756 7.11232 9.58443 6.95309 9.45817C6.79385 9.33192 6.69838 9.18047 6.66668 9.00381L6.42379 7.97876H1.62465Z" fill="#279B48"/>
</svg>
