<svg width="60" height="60" viewBox="0 0 60 60" fill="none" xmlns="http://www.w3.org/2000/svg">
<path d="M6.59467 60C4.82386 60 3.28203 59.3436 1.96919 58.0308C0.656395 56.718 0 55.1761 0 53.4053V6.63946C0 4.85633 0.656395 3.30396 1.96919 1.98234C3.28203 0.660779 4.82386 0 6.59467 0H53.3605C55.1437 0 56.696 0.660779 58.0177 1.98234C59.3392 3.30396 60 4.85633 60 6.63946V53.4053C60 55.1761 59.3392 56.718 58.0177 58.0308C56.696 59.3436 55.1437 60 53.3605 60H6.59467ZM6.59467 53.4053H53.3605V6.63946H6.59467V53.4053ZM9.82825 46.7073H50.2062L37.7823 29.8465L27.2818 43.4289L19.8736 33.3249L9.82825 46.7073Z" fill="#999D9F"/>
</svg>
