<svg width="18" height="18" viewBox="0 0 18 18" fill="none" xmlns="http://www.w3.org/2000/svg">
<path d="M0 15.9761V6.67568C0 6.35001 0.0749253 6.04743 0.224777 5.76794C0.374628 5.48847 0.596129 5.24832 0.88928 5.04747L7.66663 0.381905C8.03843 0.127302 8.47896 0 8.9882 0C9.49745 0 9.94969 0.127302 10.3449 0.381905L17.1223 5.04747C17.3977 5.24832 17.6128 5.48847 17.7677 5.76794C17.9226 6.04743 18 6.35001 18 6.67568V15.9761C18 16.5392 17.7824 17.0172 17.3471 17.4103C16.9118 17.8034 16.386 18 15.7698 18H12.3771C12.0473 18 11.778 17.9024 11.5693 17.7071C11.3606 17.5118 11.2562 17.2681 11.2562 16.9759V11.6639C11.2562 11.388 11.1493 11.1524 10.9356 10.9571C10.7219 10.7618 10.464 10.6642 10.162 10.6642H7.84959C7.52981 10.6642 7.26305 10.7618 7.04931 10.9571C6.83558 11.1524 6.72871 11.388 6.72871 11.6639V16.9759C6.72871 17.2681 6.62436 17.5118 6.41565 17.7071C6.20692 17.9024 5.94653 18 5.63447 18H2.21512C1.5989 18 1.07565 17.8034 0.645381 17.4103C0.215127 17.0172 0 16.5392 0 15.9761Z" fill="#65676B"/>
</svg>
