<svg width="116" height="31" viewBox="0 0 116 31" fill="none" xmlns="http://www.w3.org/2000/svg">
<path d="M15.4999 30.9997C24.0602 30.9997 30.9997 24.0602 30.9997 15.4999C30.9997 6.93952 24.0602 0 15.4999 0C6.93952 0 0 6.93952 0 15.4999C0 24.0602 6.93952 30.9997 15.4999 30.9997Z" fill="#FFCC4D"/>
<path d="M15.5038 18.081C12.384 18.081 10.3139 17.7176 7.75385 17.2199C7.16917 17.1071 6.03165 17.2199 6.03165 18.9421C6.03165 22.3865 9.98842 26.6921 15.5038 26.6921C21.0183 26.6921 24.9759 22.3865 24.9759 18.9421C24.9759 17.2199 23.8384 17.1063 23.2537 17.2199C20.6937 17.7176 18.6236 18.081 15.5038 18.081Z" fill="#664500"/>
<path d="M7.75049 18.9426C7.75049 18.9426 10.3338 19.8037 15.5004 19.8037C20.667 19.8037 23.2504 18.9426 23.2504 18.9426C23.2504 18.9426 21.5281 22.387 15.5004 22.387C9.4727 22.387 7.75049 18.9426 7.75049 18.9426Z" fill="white"/>
<path d="M10.333 14.6376C11.5219 14.6376 12.4857 13.2883 12.4857 11.6238C12.4857 9.95926 11.5219 8.60991 10.333 8.60991C9.14402 8.60991 8.1802 9.95926 8.1802 11.6238C8.1802 13.2883 9.14402 14.6376 10.333 14.6376Z" fill="#664500"/>
<path d="M20.6637 14.6376C21.8526 14.6376 22.8164 13.2883 22.8164 11.6238C22.8164 9.95926 21.8526 8.60991 20.6637 8.60991C19.4747 8.60991 18.5109 9.95926 18.5109 11.6238C18.5109 13.2883 19.4747 14.6376 20.6637 14.6376Z" fill="#664500"/>
<path d="M59.3853 30.9997C57.2779 30.9997 55.2762 30.5962 53.3802 29.7893C51.4842 28.9823 49.8338 27.8801 48.4292 26.4828C47.0245 25.0855 45.9213 23.4391 45.1195 21.5437C44.3177 19.6484 43.9168 17.6376 43.9168 15.5115C43.9168 13.3853 44.3203 11.3752 45.1273 9.4812C45.9343 7.58721 47.0353 5.93752 48.4305 4.53215C49.8256 3.12675 51.4714 2.02003 53.3678 1.212C55.2642 0.404001 57.276 0 59.4034 0C61.5307 0 63.5422 0.406059 65.4378 1.21818C67.3335 2.03032 68.9834 3.1345 70.3878 4.53071C71.7921 5.92693 72.898 7.57504 73.7054 9.47503C74.5128 11.375 74.9166 13.3798 74.9166 15.4894V17.5099C74.9166 18.9944 74.38 20.2441 73.3068 21.2591C72.2336 22.274 70.9446 22.7815 69.4399 22.7815C68.4664 22.7815 67.5796 22.5606 66.7794 22.119C65.9793 21.6773 65.3535 21.0588 64.9022 20.2634C64.2537 21.1221 63.4443 21.7564 62.4742 22.1664C61.504 22.5765 60.4835 22.7815 59.4126 22.7815C57.3936 22.7815 55.6697 22.076 54.2411 20.665C52.8124 19.254 52.0981 17.5324 52.0981 15.5C52.0981 13.4477 52.8103 11.7122 54.2346 10.2934C55.6589 8.87457 57.3795 8.16517 59.3963 8.16517C61.413 8.16517 63.1369 8.87462 64.5679 10.2935C65.9989 11.7124 66.7144 13.4513 66.7144 15.5103V17.3934C66.7144 18.1316 66.9807 18.7433 67.5133 19.2285C68.0459 19.7137 68.6826 19.9563 69.4233 19.9563C70.144 19.9563 70.7619 19.7137 71.277 19.2285C71.7921 18.7433 72.0496 18.1316 72.0496 17.3934V15.4894C72.0496 11.9805 70.8189 8.99959 68.3576 6.54653C65.8963 4.09348 62.9103 2.86695 59.3996 2.86695C55.8888 2.86695 52.9051 4.09761 50.4482 6.55892C47.9913 9.02024 46.7629 12.0063 46.7629 15.517C46.7629 19.0277 47.9894 22.0115 50.4425 24.4684C52.8955 26.9252 55.8765 28.1537 59.3853 28.1537H65.9587C66.356 28.1537 66.6877 28.2909 66.9537 28.5652C67.2198 28.8397 67.3528 29.1766 67.3528 29.5762C67.3528 29.9844 67.2198 30.3238 66.9537 30.5941C66.6877 30.8645 66.356 30.9997 65.9587 30.9997H59.3853ZM59.4165 19.9563C60.6328 19.9563 61.6823 19.5153 62.5651 18.6333C63.4478 17.7514 63.8892 16.7077 63.8892 15.5023C63.8892 14.2599 63.4444 13.1973 62.5549 12.3145C61.6653 11.4317 60.6123 10.9904 59.396 10.9904C58.1797 10.9904 57.1302 11.4344 56.2474 12.3226C55.3647 13.2107 54.9233 14.2759 54.9233 15.5183C54.9233 16.7238 55.3681 17.7648 56.2576 18.6414C57.1472 19.518 58.2002 19.9563 59.4165 19.9563Z" fill="#02558B"/>
<path d="M96.7741 22.05L95.447 27.2391C95.3566 27.601 95.1793 27.8878 94.9151 28.0996C94.6509 28.3114 94.345 28.4173 93.9975 28.4173C93.4691 28.4173 93.0475 28.2181 92.7325 27.8199C92.4176 27.4217 92.3307 26.9711 92.4719 26.468L93.6037 22.05H89.4024C88.874 22.05 88.456 21.8572 88.1482 21.4717C87.8404 21.0861 87.7571 20.6292 87.8983 20.1008C87.9888 19.7643 88.1689 19.4775 88.4386 19.2403C88.7083 19.0031 89.0296 18.8846 89.4024 18.8846H94.3963L96.1155 12.0788H91.9143C91.3859 12.0788 90.9678 11.886 90.66 11.5005C90.3522 11.1149 90.2689 10.658 90.4101 10.1296C90.5006 9.79311 90.6807 9.5063 90.9504 9.26912C91.2201 9.03194 91.5414 8.91335 91.9143 8.91335H96.9081L98.1756 3.76227C98.2661 3.40044 98.4434 3.11363 98.7076 2.90182C98.9718 2.69004 99.2904 2.58415 99.6632 2.58415C100.166 2.58415 100.569 2.7805 100.871 3.17321C101.173 3.56592 101.267 3.99393 101.151 4.45725L100.095 8.91335H106.879L108.147 3.76227C108.237 3.40044 108.415 3.11363 108.679 2.90182C108.943 2.69004 109.262 2.58415 109.634 2.58415C110.137 2.58415 110.54 2.7805 110.842 3.17321C111.145 3.56592 111.238 3.99393 111.122 4.45725L110.066 8.91335H114.268C114.771 8.91335 115.176 9.11247 115.484 9.51071C115.792 9.90892 115.888 10.3595 115.772 10.8626C115.656 11.2244 115.463 11.5176 115.193 11.7421C114.924 11.9665 114.615 12.0788 114.268 12.0788H109.257L107.554 18.8846H111.756C112.259 18.8846 112.664 19.0837 112.972 19.4819C113.28 19.8801 113.376 20.3307 113.26 20.8338C113.144 21.1956 112.951 21.4888 112.682 21.7133C112.412 21.9377 112.103 22.05 111.756 22.05H106.745L105.418 27.2391C105.328 27.601 105.15 27.8878 104.886 28.0996C104.622 28.3114 104.316 28.4173 103.969 28.4173C103.44 28.4173 103.019 28.2181 102.704 27.8199C102.389 27.4217 102.302 26.9711 102.443 26.468L103.575 22.05H96.7741ZM97.5833 18.8846H104.367L106.087 12.0788H99.2859L97.5833 18.8846Z" fill="#279B48"/>
</svg>
