<svg width="32" height="32" viewBox="0 0 32 32" fill="none" xmlns="http://www.w3.org/2000/svg">
<path d="M27.3436 8.50003C27.4242 8.04034 27.4031 7.56858 27.282 7.11788C27.1608 6.66718 26.9425 6.24845 26.6423 5.89109C26.3422 5.53374 25.9674 5.24641 25.5444 5.04929C25.1213 4.85216 24.6603 4.75002 24.1936 4.75002H7.80753C7.34082 4.75002 6.87978 4.85216 6.45675 5.04929C6.03372 5.24641 5.65897 5.53374 5.35879 5.89109C5.05861 6.24845 4.84029 6.66718 4.71914 7.11788C4.59799 7.56858 4.57695 8.04034 4.65751 8.50003M24.2506 4.75002C24.2926 4.36002 24.3151 4.16651 24.3151 4.00601C24.3167 3.26455 24.0437 2.54875 23.5487 1.9967C23.0537 1.44465 22.3718 1.09546 21.6346 1.0165C21.4756 1 21.2806 1 20.8906 1H11.1105C10.7205 1 10.524 1 10.365 1.0165C9.62779 1.09546 8.9459 1.44465 8.45091 1.9967C7.95592 2.54875 7.6829 3.26455 7.68452 4.00601C7.68452 4.16651 7.70552 4.36152 7.74902 4.75002M1.5765 18.6896C0.905993 13.9436 0.571492 11.572 1.9935 10.0345C3.4155 8.50003 5.94752 8.50003 11.0085 8.50003H20.9926C26.0536 8.50003 28.5856 8.50003 30.0076 10.036C31.4281 11.572 31.0936 13.9436 30.4246 18.6896L29.7916 23.1896C29.2666 26.9096 29.0041 28.7711 27.6586 29.8856C26.3131 31.0001 24.3286 31.0001 20.3581 31.0001H11.643C7.67402 31.0001 5.68802 31.0001 4.34251 29.8856C2.997 28.7711 2.7345 26.9111 2.2095 23.1896L1.5765 18.6896Z" stroke="#333333" stroke-width="2"/>
<path d="M22.75 17.5C23.9927 17.5 25 16.4927 25 15.25C25 14.0074 23.9927 13 22.75 13C21.5074 13 20.5 14.0074 20.5 15.25C20.5 16.4927 21.5074 17.5 22.75 17.5Z" stroke="#333333" stroke-width="2"/>
<path d="M28.0028 28L23.6768 24.7765C22.2818 23.7385 20.2028 23.635 18.6668 24.5275L18.2678 24.76C17.1998 25.381 15.7477 25.2775 14.8267 24.514L9.06822 19.7484C7.91921 18.7974 6.0757 18.7464 4.8532 19.6314L2.86719 21.0715" stroke="#333333" stroke-width="2" stroke-linecap="round"/>
</svg>
