<svg width="30" height="20" viewBox="0 0 30 20" fill="none" xmlns="http://www.w3.org/2000/svg">
<path d="M5.36265 9.63735C5.36265 9.35335 5.47547 9.08099 5.67628 8.88017C5.8771 8.67935 6.14947 8.56653 6.43347 8.56653H8.5751V6.4249C8.5751 6.1409 8.68792 5.86854 8.88874 5.66772C9.08955 5.4669 9.36192 5.35408 9.64592 5.35408C9.92992 5.35408 10.2023 5.4669 10.4031 5.66772C10.6039 5.86854 10.7167 6.1409 10.7167 6.4249V8.56653H12.8584C13.1424 8.56653 13.4147 8.67935 13.6156 8.88017C13.8164 9.08099 13.9292 9.35335 13.9292 9.63735C13.9292 9.92135 13.8164 10.1937 13.6156 10.3945C13.4147 10.5953 13.1424 10.7082 12.8584 10.7082H10.7167V12.8498C10.7167 13.1338 10.6039 13.4062 10.4031 13.607C10.2023 13.8078 9.92992 13.9206 9.64592 13.9206C9.36192 13.9206 9.08955 13.8078 8.88874 13.607C8.68792 13.4062 8.5751 13.1338 8.5751 12.8498V10.7082H6.43347C6.14947 10.7082 5.8771 10.5953 5.67628 10.3945C5.47547 10.1937 5.36265 9.92135 5.36265 9.63735ZM21.4142 12.8498C21.4142 13.4178 21.1886 13.9625 20.7869 14.3642C20.3853 14.7658 19.8406 14.9914 19.2726 14.9914C18.7046 14.9914 18.1598 14.7658 17.7582 14.3642C17.3566 13.9625 17.1309 13.4178 17.1309 12.8498C17.1309 12.2818 17.3566 11.7371 17.7582 11.3354C18.1598 10.9338 18.7046 10.7082 19.2726 10.7082C19.8406 10.7082 20.3853 10.9338 20.7869 11.3354C21.1886 11.7371 21.4142 12.2818 21.4142 12.8498ZM21.4142 8.56653C21.9822 8.56653 22.5269 8.3409 22.9286 7.93926C23.3302 7.53763 23.5558 6.9929 23.5558 6.4249C23.5558 5.8569 23.3302 5.31217 22.9286 4.91054C22.5269 4.5089 21.9822 4.28327 21.4142 4.28327C20.8462 4.28327 20.3015 4.5089 19.8998 4.91054C19.4982 5.31217 19.2726 5.8569 19.2726 6.4249C19.2726 6.9929 19.4982 7.53763 19.8998 7.93926C20.3015 8.3409 20.8462 8.56653 21.4142 8.56653ZM0 9.63735C0 7.08137 1.01536 4.63007 2.82271 2.82271C4.63007 1.01536 7.08137 0 9.63735 0H20.3626C22.9186 0 25.3699 1.01536 27.1773 2.82271C28.9846 4.63007 30 7.08137 30 9.63735C30 12.1933 28.9846 14.6446 27.1773 16.452C25.3699 18.2593 22.9186 19.2747 20.3626 19.2747H9.63735C7.08137 19.2747 4.63007 18.2593 2.82271 16.452C1.01536 14.6446 0 12.1933 0 9.63735ZM9.63735 2.14163C7.64936 2.14163 5.7428 2.93136 4.33708 4.33708C2.93136 5.7428 2.14163 7.64936 2.14163 9.63735C2.14163 11.6253 2.93136 13.5319 4.33708 14.9376C5.7428 16.3433 7.64936 17.1331 9.63735 17.1331H20.3626C22.3506 17.1331 24.2572 16.3433 25.6629 14.9376C27.0686 13.5319 27.8584 11.6253 27.8584 9.63735C27.8584 7.64936 27.0686 5.7428 25.6629 4.33708C24.2572 2.93136 22.3506 2.14163 20.3626 2.14163H9.63735Z" fill="#333333"/>
</svg>
