<svg width="24" height="24" viewBox="0 0 24 24" fill="none" xmlns="http://www.w3.org/2000/svg">
<path d="M3.78947 0H20.2105C21.2156 0 22.1794 0.399247 22.8901 1.10991C23.6008 1.82058 24 2.78444 24 3.78947V20.2105C24 21.2156 23.6008 22.1794 22.8901 22.8901C22.1794 23.6008 21.2156 24 20.2105 24H3.78947C2.78444 24 1.82058 23.6008 1.10991 22.8901C0.399247 22.1794 0 21.2156 0 20.2105V3.78947C0 2.78444 0.399247 1.82058 1.10991 1.10991C1.82058 0.399247 2.78444 0 3.78947 0ZM3.78947 1.26316C3.11945 1.26316 2.47687 1.52932 2.0031 2.0031C1.52932 2.47687 1.26316 3.11945 1.26316 3.78947V18.4295L6.68211 12.9979L9.84 16.1558L16.1558 9.84L22.7368 16.4211V3.78947C22.7368 3.11945 22.4707 2.47687 21.9969 2.0031C21.5231 1.52932 20.8805 1.26316 20.2105 1.26316H3.78947ZM9.84 17.9495L6.68211 14.7916L1.26316 20.2105C1.26316 20.8805 1.52932 21.5231 2.0031 21.9969C2.47687 22.4707 3.11945 22.7368 3.78947 22.7368H20.2105C20.8805 22.7368 21.5231 22.4707 21.9969 21.9969C22.4707 21.5231 22.7368 20.8805 22.7368 20.2105V18.2021L16.1558 11.6337L9.84 17.9495ZM6.94737 3.78947C7.78489 3.78947 8.58812 4.12218 9.18034 4.7144C9.77256 5.30662 10.1053 6.10984 10.1053 6.94737C10.1053 7.78489 9.77256 8.58812 9.18034 9.18034C8.58812 9.77256 7.78489 10.1053 6.94737 10.1053C6.10984 10.1053 5.30662 9.77256 4.7144 9.18034C4.12218 8.58812 3.78947 7.78489 3.78947 6.94737C3.78947 6.10984 4.12218 5.30662 4.7144 4.7144C5.30662 4.12218 6.10984 3.78947 6.94737 3.78947ZM6.94737 5.05263C6.44485 5.05263 5.96292 5.25225 5.60759 5.60759C5.25225 5.96292 5.05263 6.44485 5.05263 6.94737C5.05263 7.44988 5.25225 7.93182 5.60759 8.28715C5.96292 8.64248 6.44485 8.8421 6.94737 8.8421C7.44988 8.8421 7.93182 8.64248 8.28715 8.28715C8.64248 7.93182 8.8421 7.44988 8.8421 6.94737C8.8421 6.44485 8.64248 5.96292 8.28715 5.60759C7.93182 5.25225 7.44988 5.05263 6.94737 5.05263Z" fill="white"/>
</svg>
