<svg width="23" height="18" viewBox="0 0 23 18" fill="none" xmlns="http://www.w3.org/2000/svg">
<path d="M20.3636 5.14286H14V7.71429H20.3636V10.2857H15.2727C14.5976 10.2857 13.9502 10.5566 13.4728 11.0389C12.9955 11.5211 12.7273 12.1752 12.7273 12.8571V15.4286C12.7273 16.1106 12.9955 16.7646 13.4728 17.2468C13.9502 17.7291 14.5976 18 15.2727 18H22.9091V7.71429C22.9091 7.0323 22.6409 6.37825 22.1635 5.89601C21.6862 5.41377 21.0387 5.14286 20.3636 5.14286ZM20.3636 15.4286H15.2727V12.8571H20.3636V15.4286Z" fill="#050505"/>
<path d="M7.63636 0H2.54545C1.87036 0 1.22291 0.270918 0.745546 0.753154C0.268181 1.23539 0 1.88944 0 2.57143V18H2.54545V11.5714H7.63636V18H10.1818V2.57143C10.1818 1.88944 9.91364 1.23539 9.43627 0.753154C8.95891 0.270918 8.31146 0 7.63636 0ZM2.54545 9V2.57143H7.63636V9H2.54545Z" fill="#050505"/>
</svg>
