<svg width="35" height="35" viewBox="0 0 35 35" fill="none" xmlns="http://www.w3.org/2000/svg">
<g clip-path="url(#clip0_0_239)">
<path d="M25.4512 0.352024C25.6442 -0.117342 26.3089 -0.117341 26.5019 0.352025L26.7138 0.867463C26.7715 1.00776 26.8829 1.11916 27.0232 1.17683L27.5386 1.38872C28.008 1.58167 28.008 2.24642 27.5386 2.43937L27.0232 2.65126C26.8829 2.70893 26.7715 2.82033 26.7138 2.96063L26.5019 3.47607C26.3089 3.94543 25.6442 3.94543 25.4512 3.47607L25.2393 2.96063C25.1817 2.82033 25.0703 2.70893 24.93 2.65126L24.4145 2.43937C23.9452 2.24642 23.9452 1.58167 24.4145 1.38872L24.93 1.17683C25.0703 1.11916 25.1817 1.00776 25.2393 0.867463L25.4512 0.352024Z" fill="#050505"/>
<path d="M3.52867 0.895907C3.33736 0.430531 2.67826 0.430531 2.48695 0.895907L2.1128 1.80605C2.05561 1.94515 1.94516 2.0556 1.80606 2.11279L0.895909 2.48694C0.43053 2.67825 0.43053 3.33734 0.895909 3.52865L1.80606 3.9028C1.94516 3.95999 2.05561 4.07044 2.1128 4.20954L2.48695 5.11968C2.67826 5.58506 3.33736 5.58506 3.52867 5.11968L3.90283 4.20954C3.96001 4.07044 4.07046 3.95999 4.20957 3.9028L5.11972 3.52865C5.58509 3.33734 5.58509 2.67825 5.11972 2.48694L4.20957 2.11279C4.07046 2.0556 3.96001 1.94515 3.90283 1.80605L3.52867 0.895907Z" fill="#050505"/>
<path d="M6.5625 8.75V9.29688H4.92188C3.71375 9.29688 2.73438 10.2763 2.73438 11.4844V30.0781C2.73438 31.2862 3.71375 32.2656 4.92188 32.2656H30.0781C31.2862 32.2656 32.2656 31.2862 32.2656 30.0781V11.4844C32.2656 10.2763 31.2862 9.29688 30.0781 9.29688H26.1892L24.6876 6.59391C24.3018 5.89945 23.5698 5.46875 22.7754 5.46875H17.6934C17.6718 5.46875 17.6502 5.46907 17.6287 5.4697C17.6072 5.46907 17.5856 5.46875 17.564 5.46875H12.2246C11.4422 5.46875 10.7204 5.88649 10.3302 6.5625H8.75C7.54188 6.5625 6.5625 7.54188 6.5625 8.75Z" fill="#050505"/>
<path d="M33.6195 4.73254C33.4235 4.25582 32.7484 4.25582 32.5524 4.73254L32.5052 4.84724C32.4466 4.98974 32.3335 5.10288 32.191 5.16146L32.0763 5.20861C31.5996 5.40459 31.5996 6.07975 32.0763 6.27573L32.191 6.32288C32.3335 6.38146 32.4466 6.4946 32.5052 6.6371L32.5524 6.7518C32.7484 7.22852 33.4235 7.22852 33.6195 6.7518L33.6667 6.6371C33.7252 6.4946 33.8384 6.38146 33.9809 6.32288L34.0956 6.27573C34.5723 6.07975 34.5723 5.40459 34.0956 5.20861L33.9809 5.16146C33.8384 5.10288 33.7252 4.98974 33.6667 4.84724L33.6195 4.73254Z" fill="#050505"/>
<path fill-rule="evenodd" clip-rule="evenodd" d="M28.4375 21.0547C28.4375 24.2685 25.9474 26.7969 22.9688 26.7969C19.9901 26.7969 17.5 24.2685 17.5 21.0547C17.5 17.8409 19.9901 15.3125 22.9688 15.3125C25.9474 15.3125 28.4375 17.8409 28.4375 21.0547ZM26.7969 21.0547C26.7969 23.3199 25.083 25.1562 22.9688 25.1562C20.8545 25.1562 19.1406 23.3199 19.1406 21.0547C19.1406 18.7895 20.8545 16.9531 22.9688 16.9531C25.083 16.9531 26.7969 18.7895 26.7969 21.0547Z" fill="#279B48"/>
<path d="M22.9688 27.8906C26.5931 27.8906 29.5312 24.8301 29.5312 21.0547C29.5312 19.9754 29.2911 18.9545 28.8635 18.0469H30.625C30.927 18.0469 31.1719 18.2917 31.1719 18.5938V30.0781C31.1719 30.6822 30.6822 31.1719 30.0781 31.1719H10.9375C10.3334 31.1719 9.84375 30.6822 9.84375 30.0781V18.5938C9.84375 18.2917 10.0886 18.0469 10.3906 18.0469H14.3396C13.912 18.9545 13.6719 19.9754 13.6719 21.0547C13.6719 24.8301 16.61 27.8906 20.2344 27.8906H22.9688Z" fill="#279B48"/>
<path d="M22.7754 6.5625H17.6934C17.2962 6.5625 16.9302 6.77785 16.7373 7.12508L15.5307 9.29688H24.938L23.7315 7.12508C23.5386 6.77785 23.1726 6.5625 22.7754 6.5625Z" fill="#E9EBF4"/>
<path d="M10.9375 10.3906H30.0781C30.6822 10.3906 31.1719 10.8803 31.1719 11.4844V16.4062C31.1719 16.7083 30.927 16.9531 30.625 16.9531H28.2192C27.022 15.2927 25.1158 14.2188 22.9688 14.2188H20.2344C18.0874 14.2188 16.1812 15.2927 14.9839 16.9531H10.3906C10.0886 16.9531 9.84375 16.7083 9.84375 16.4062V11.4844C9.84375 10.8803 10.3334 10.3906 10.9375 10.3906Z" fill="#E9EBF4"/>
<path d="M23.5998 23.5156C23.3794 23.5156 23.3543 23.2234 23.5262 23.0854C24.0787 22.642 24.4411 21.8979 24.4411 21.0547C24.4411 20.2115 24.0787 19.4674 23.5262 19.0239C23.3543 18.886 23.3794 18.5938 23.5998 18.5938C24.7614 18.5938 25.7031 19.6955 25.7031 21.0547C25.7031 22.4138 24.7614 23.5156 23.5998 23.5156Z" fill="#E9EBF4"/>
<path d="M12.5781 7.65625H10.9375C10.3334 7.65625 9.84375 8.14594 9.84375 8.75V9.29688H13.125C13.427 9.29688 13.6719 9.05203 13.6719 8.75C13.6719 8.14594 13.1822 7.65625 12.5781 7.65625Z" fill="#E9EBF4"/>
</g>
<defs>
<clipPath id="clip0_0_239">
<rect width="35" height="35" fill="white"/>
</clipPath>
</defs>
</svg>
