<svg width="76" height="36" viewBox="0 0 76 36" fill="none" xmlns="http://www.w3.org/2000/svg">
<path d="M8.16009 11.6173C8.19544 11.6017 8.23414 11.5953 8.27262 11.5986C8.31111 11.6019 8.34815 11.6148 8.38034 11.6362C8.41253 11.6575 8.43883 11.6866 8.45684 11.7208C8.47484 11.755 8.48397 11.7931 8.48338 11.8317V13.677C8.48338 13.8893 8.56768 14.0928 8.71775 14.2429C8.86782 14.393 9.07136 14.4773 9.2836 14.4773C10.3511 14.4773 12.5053 14.4853 14.5651 15.7928C16.1399 16.7915 17.7499 18.6096 18.7182 21.9961C17.0857 20.4229 15.2212 19.5699 13.5888 19.1169C12.5854 18.8398 11.5542 18.6755 10.5143 18.6272C10.0887 18.6085 9.66236 18.6128 9.23718 18.64H9.21638L9.20837 18.6416L9.2836 19.4386L9.20357 18.6416C9.00605 18.6615 8.82296 18.754 8.68986 18.9013C8.55677 19.0486 8.48317 19.2401 8.48338 19.4386V21.2839C8.48338 21.4568 8.30733 21.5656 8.16009 21.4984L1.78392 16.8043C1.76228 16.7883 1.73985 16.7733 1.71671 16.7595C1.68191 16.7386 1.65311 16.709 1.63312 16.6737C1.61313 16.6383 1.60262 16.5984 1.60262 16.5578C1.60262 16.5172 1.61313 16.4773 1.63312 16.442C1.65311 16.4067 1.68191 16.3771 1.71671 16.3562C1.73985 16.3424 1.76229 16.3274 1.78392 16.3114L8.16009 11.6173ZM10.0838 20.2164C10.1926 20.2164 10.3127 20.2213 10.4407 20.2261C11.1353 20.2581 12.0956 20.3637 13.1615 20.6598C15.2837 21.2487 17.7963 22.5835 19.4672 25.5891C19.5576 25.7514 19.7015 25.8771 19.8744 25.9449C20.0474 26.0126 20.2385 26.0181 20.415 25.9604C20.5915 25.9027 20.7424 25.7854 20.8419 25.6286C20.9415 25.4718 20.9833 25.2853 20.9604 25.101C20.2178 19.1634 17.942 16.0393 15.4229 14.4421C13.4303 13.1777 11.3786 12.9344 10.0838 12.888V11.8317C10.084 11.5022 9.99515 11.1786 9.82674 10.8953C9.65833 10.612 9.41656 10.3794 9.12696 10.2221C8.83736 10.0648 8.51066 9.98852 8.18133 10.0014C7.852 10.0143 7.53226 10.1158 7.25584 10.2953L0.863671 15.0006C0.599406 15.1656 0.381467 15.3951 0.230373 15.6675C0.0792788 15.9399 0 16.2463 0 16.5578C0 16.8694 0.0792788 17.1758 0.230373 17.4482C0.381467 17.7206 0.599406 17.9501 0.863671 18.1151L7.25584 22.8204C7.53226 22.9999 7.852 23.1014 8.18133 23.1143C8.51066 23.1272 8.83736 23.0509 9.12696 22.8936C9.41656 22.7362 9.65833 22.5036 9.82674 22.2203C9.99515 21.937 10.084 21.6135 10.0838 21.2839V20.2164Z" fill="#333333"/>
<path d="M46.1522 24.9611L46.1444 24.9532L46.1363 24.9455L45.0343 23.9071L45.0343 23.9071L45.0251 23.8986C43.2923 22.3196 41.7965 20.7882 40.535 19.3048C39.3451 17.9057 38.7852 16.4623 38.7852 14.9589C38.7852 13.7457 39.1819 12.7609 39.9701 11.9548C40.7555 11.1515 41.718 10.75 42.9093 10.75C43.5021 10.75 44.0972 10.8797 44.7001 11.1504C45.2618 11.4026 45.8153 11.8408 46.3524 12.5057L46.9038 13.1884L47.4922 12.5373C48.1136 11.8498 48.6949 11.3989 49.2303 11.1428C49.7791 10.8803 50.3537 10.75 50.9623 10.75C52.1702 10.75 53.1484 11.1534 53.9479 11.9588C54.7488 12.7657 55.1501 13.7492 55.1501 14.9589C55.1501 16.4576 54.5797 17.903 53.362 19.3106C52.069 20.8052 50.5702 22.3429 48.8637 23.9235C48.8636 23.9237 48.8634 23.9238 48.8633 23.9239L47.7622 24.9403L47.7512 24.9505L47.7406 24.9611C47.6344 25.0672 47.5249 25.1331 47.4086 25.1719C47.2502 25.2247 47.0935 25.25 46.9358 25.25C46.7782 25.25 46.6275 25.2248 46.4803 25.1742C46.3712 25.1367 46.2624 25.0712 46.1522 24.9611Z" stroke="#333333" stroke-width="1.5"/>
<path d="M74.3068 26.1189C73.926 26.1189 73.6074 25.9884 73.3512 25.7273C73.0949 25.4663 72.9668 25.1525 72.9668 24.786C72.9668 24.4276 73.094 24.1098 73.3484 23.8326C73.6027 23.5554 73.914 23.4168 74.2823 23.4168C74.6632 23.4168 74.9817 23.555 75.238 23.8314C75.4942 24.1079 75.6223 24.4262 75.6223 24.7865C75.6223 25.1468 75.4955 25.4589 75.2419 25.7229C74.9884 25.9869 74.6767 26.1189 74.3068 26.1189ZM74.3068 19.3403C73.926 19.3403 73.6074 19.2131 73.3512 18.9587C73.0949 18.7044 72.9668 18.393 72.9668 18.0248C72.9668 17.6439 73.094 17.3253 73.3484 17.0691C73.6027 16.8128 73.914 16.6847 74.2823 16.6847C74.6632 16.6847 74.9817 16.8115 75.238 17.0651C75.4942 17.3187 75.6223 17.6304 75.6223 18.0002C75.6223 18.3811 75.4955 18.6997 75.2419 18.9559C74.9884 19.2122 74.6767 19.3403 74.3068 19.3403ZM74.3068 12.6082C73.926 12.6082 73.6074 12.4742 73.3512 12.2062C73.0949 11.9381 72.9668 11.6159 72.9668 11.2394C72.9668 10.863 73.094 10.5428 73.3484 10.2788C73.6027 10.0148 73.914 9.88281 74.2823 9.88281C74.6632 9.88281 74.9817 10.0154 75.238 10.2806C75.4942 10.5458 75.6223 10.865 75.6223 11.2382C75.6223 11.6178 75.4955 11.941 75.2419 12.2079C74.9884 12.4748 74.6767 12.6082 74.3068 12.6082Z" fill="#1A1A1A"/>
</svg>
