<svg width="70" height="30" viewBox="0 0 70 30" fill="none" xmlns="http://www.w3.org/2000/svg">
<path fill-rule="evenodd" clip-rule="evenodd" d="M13.999 5C12.5614 5.00016 11.1447 5.3447 9.86761 6.00479C8.59049 6.66489 7.49007 7.62132 6.65849 8.79402C5.82691 9.96672 5.28835 11.3216 5.08791 12.7452C4.88747 14.1687 5.03097 15.6196 5.5064 16.9764C5.98183 18.3331 6.77536 19.5562 7.82056 20.5433C8.86576 21.5304 10.1322 22.2527 11.5139 22.6498C12.8956 23.0469 14.3523 23.1073 15.7621 22.8258C17.1719 22.5443 18.4938 21.9292 19.617 21.032L23.292 24.707C23.4806 24.8892 23.7332 24.99 23.9954 24.9877C24.2576 24.9854 24.5084 24.8802 24.6938 24.6948C24.8793 24.5094 24.9844 24.2586 24.9867 23.9964C24.989 23.7342 24.8882 23.4816 24.706 23.293L21.031 19.618C22.089 18.2939 22.7516 16.6979 22.9425 15.0138C23.1334 13.3297 22.8449 11.6259 22.1102 10.0985C21.3754 8.57113 20.2243 7.28228 18.7894 6.38029C17.3544 5.47831 15.6939 4.99985 13.999 5ZM7.99903 14C7.99903 13.2121 8.15422 12.4319 8.45575 11.7039C8.75728 10.9759 9.19923 10.3145 9.75639 9.75736C10.3135 9.20021 10.975 8.75825 11.7029 8.45672C12.4309 8.15519 13.2111 8 13.999 8C14.787 8 15.5672 8.15519 16.2951 8.45672C17.0231 8.75825 17.6845 9.20021 18.2417 9.75736C18.7988 10.3145 19.2408 10.9759 19.5423 11.7039C19.8438 12.4319 19.999 13.2121 19.999 14C19.999 15.5913 19.3669 17.1174 18.2417 18.2426C17.1164 19.3679 15.5903 20 13.999 20C12.4077 20 10.8816 19.3679 9.75639 18.2426C8.63117 17.1174 7.99903 15.5913 7.99903 14Z" fill="#65676B"/>
<path d="M52.5 15C52.5 15.663 52.7634 16.2989 53.2322 16.7678C53.7011 17.2366 54.337 17.5 55 17.5C55.663 17.5 56.2989 17.2366 56.7678 16.7678C57.2366 16.2989 57.5 15.663 57.5 15C57.5 14.337 57.2366 13.7011 56.7678 13.2322C56.2989 12.7634 55.663 12.5 55 12.5C54.337 12.5 53.7011 12.7634 53.2322 13.2322C52.7634 13.7011 52.5 14.337 52.5 15ZM52.5 7.5C52.5 8.16304 52.7634 8.79893 53.2322 9.26777C53.7011 9.73661 54.337 10 55 10C55.663 10 56.2989 9.73661 56.7678 9.26777C57.2366 8.79893 57.5 8.16304 57.5 7.5C57.5 6.83696 57.2366 6.20107 56.7678 5.73223C56.2989 5.26339 55.663 5 55 5C54.337 5 53.7011 5.26339 53.2322 5.73223C52.7634 6.20107 52.5 6.83696 52.5 7.5ZM52.5 22.5C52.5 23.163 52.7634 23.7989 53.2322 24.2678C53.7011 24.7366 54.337 25 55 25C55.663 25 56.2989 24.7366 56.7678 24.2678C57.2366 23.7989 57.5 23.163 57.5 22.5C57.5 21.837 57.2366 21.2011 56.7678 20.7322C56.2989 20.2634 55.663 20 55 20C54.337 20 53.7011 20.2634 53.2322 20.7322C52.7634 21.2011 52.5 21.837 52.5 22.5Z" fill="#65676B"/>
</svg>
