<svg width="30" height="30" viewBox="0 0 30 30" fill="none" xmlns="http://www.w3.org/2000/svg">
<path fill-rule="evenodd" clip-rule="evenodd" d="M4.21876 4.6875C4.21876 3.65197 5.05822 2.8125 6.09376 2.8125H24.375C25.4105 2.8125 26.25 3.65197 26.25 4.6875V4.88855C26.9223 5.12623 27.5095 5.564 27.9299 6.14713C28.4226 6.83052 28.6535 7.66811 28.5806 8.50742C28.5076 9.34674 28.1357 10.132 27.5326 10.7201C26.9353 11.3026 26.1505 11.6535 25.3187 11.7105C23.9787 14.2255 21.3299 15.9375 18.2813 15.9375V21.0938H20.625C21.4017 21.0938 22.0313 21.7234 22.0313 22.5V23.4375C22.0313 23.6019 22.0031 23.7596 21.9512 23.9062H24.8438C25.6204 23.9062 26.25 24.5359 26.25 25.3125V26.25C26.25 27.0266 25.6204 27.6562 24.8438 27.6562H5.15626C4.37961 27.6562 3.75001 27.0266 3.75001 26.25V25.3125C3.75001 24.5359 4.37961 23.9062 5.15626 23.9062H7.11127C7.05945 23.7596 7.03126 23.6019 7.03126 23.4375V22.5C7.03126 21.7234 7.66086 21.0938 8.43751 21.0938H11.7188V15.9239C8.84678 15.7573 6.38292 14.0698 5.12068 11.6548C4.83181 11.7107 4.53503 11.7305 4.23708 11.7121C3.39619 11.6603 2.60186 11.3083 1.99869 10.7201C1.39552 10.132 1.02362 9.34674 0.9507 8.50743C0.877778 7.66811 1.10868 6.83052 1.60138 6.14713C2.09407 5.46374 2.81579 4.98001 3.63514 4.78399C3.82797 4.73785 4.02319 4.70838 4.21876 4.69531V4.6875Z" fill="#050505"/>
<path d="M3.06918 16.2367C3.23316 15.8378 3.7981 15.8378 3.96208 16.2367L4.28279 17.0168C4.3318 17.136 4.42647 17.2307 4.54571 17.2797L5.32583 17.6004C5.72473 17.7644 5.72473 18.3293 5.32583 18.4933L4.5457 18.814C4.42647 18.863 4.3318 18.9577 4.28279 19.0769L3.96208 19.8571C3.7981 20.256 3.23316 20.256 3.06918 19.8571L2.74848 19.0769C2.69946 18.9577 2.60479 18.863 2.48556 18.814L1.70543 18.4933C1.30653 18.3293 1.30653 17.7644 1.70543 17.6004L2.48556 17.2797C2.60479 17.2307 2.69946 17.136 2.74848 17.0168L3.06918 16.2367Z" fill="#050505"/>
<path d="M25.0966 16.2392C25.262 15.8369 25.8318 15.8369 25.9972 16.2392L26.1788 16.681C26.2282 16.8013 26.3237 16.8968 26.444 16.9462L26.8858 17.1278C27.2881 17.2932 27.2881 17.863 26.8858 18.0284L26.444 18.21C26.3237 18.2595 26.2282 18.3549 26.1788 18.4752L25.9972 18.917C25.8318 19.3193 25.262 19.3193 25.0966 18.917L24.915 18.4752C24.8655 18.3549 24.7701 18.2595 24.6498 18.21L24.208 18.0284C23.8057 17.863 23.8057 17.2932 24.208 17.1278L24.6498 16.9462C24.7701 16.8968 24.8655 16.8013 24.915 16.681L25.0966 16.2392Z" fill="#050505"/>
<path d="M25.7781 10.6844C26.0835 9.83964 26.25 8.92842 26.25 7.97832V5.90672C26.6122 6.09156 26.9282 6.36086 27.1694 6.69539C27.5307 7.19655 27.7001 7.81078 27.6466 8.42628C27.5931 9.04178 27.3204 9.6176 26.878 10.0489C26.5681 10.3512 26.1893 10.5684 25.7781 10.6844Z" fill="#279B48"/>
<path d="M20.625 22.0312H13.125C12.8661 22.0312 12.6562 22.2411 12.6562 22.5V23.4375C12.6562 23.6964 12.8661 23.9062 13.125 23.9062H20.625C20.8839 23.9062 21.0938 23.6964 21.0938 23.4375V22.5C21.0938 22.2411 20.8839 22.0312 20.625 22.0312Z" fill="#279B48"/>
<path d="M24.8438 24.8438H9.84375C9.58487 24.8438 9.375 25.0536 9.375 25.3125V26.25C9.375 26.5089 9.58487 26.7188 9.84375 26.7188H24.8438C25.1026 26.7188 25.3125 26.5089 25.3125 26.25V25.3125C25.3125 25.0536 25.1026 24.8438 24.8438 24.8438Z" fill="#279B48"/>
<path fill-rule="evenodd" clip-rule="evenodd" d="M24.375 3.75H11.7188C11.201 3.75 10.7812 4.16973 10.7812 4.6875V7.96875C10.7812 11.852 13.9292 15 17.8125 15H18.2812C22.1645 15 25.3125 11.852 25.3125 7.96875V4.6875C25.3125 4.16973 24.8928 3.75 24.375 3.75ZM19.7795 6.78363C19.4014 5.86379 18.0986 5.86379 17.7205 6.78363L17.4262 7.49955C17.4107 7.53714 17.3809 7.56698 17.3433 7.58243L16.6274 7.87674C15.7075 8.25488 15.7075 9.55761 16.6274 9.93575L17.3433 10.2301C17.3809 10.2455 17.4107 10.2754 17.4262 10.3129L17.7205 11.0289C18.0986 11.9487 19.4014 11.9487 19.7795 11.0289L20.0738 10.3129C20.0893 10.2754 20.1191 10.2455 20.1567 10.2301L20.8726 9.93575C21.7925 9.55761 21.7925 8.25488 20.8726 7.87674L20.1567 7.58243C20.1191 7.56698 20.0893 7.53714 20.0738 7.49955L19.7795 6.78363Z" fill="#279B48"/>
<path d="M17.3437 15.9375H15V21.0937H17.3437V15.9375Z" fill="#E9EBF4"/>
<path d="M18.6093 7.149C18.6609 7.02325 18.839 7.02325 18.8907 7.149L19.185 7.86492C19.2981 8.13986 19.5164 8.35817 19.7913 8.4712L20.5072 8.76551C20.633 8.8172 20.633 8.99529 20.5072 9.04699L19.7913 9.34129C19.5164 9.45432 19.2981 9.67263 19.185 9.94758L18.8907 10.6635C18.839 10.7892 18.6609 10.7892 18.6093 10.6635L18.3149 9.94758C18.2019 9.67263 17.9836 9.45432 17.7087 9.34129L16.9927 9.04699C16.867 8.99529 16.867 8.8172 16.9927 8.76551L17.7087 8.4712C17.9836 8.35817 18.2019 8.13986 18.3149 7.86492L18.6093 7.149Z" fill="#E9EBF4"/>
</svg>
