<svg width="10" height="10" viewBox="0 0 10 10" fill="none" xmlns="http://www.w3.org/2000/svg">
<path d="M4.30845 5.71231H0.703541C0.496526 5.71231 0.327512 5.64337 0.196501 5.50548C0.0655003 5.36757 0 5.20301 0 5.01179C0 4.81175 0.0655003 4.64699 0.196501 4.5175C0.327512 4.38801 0.496526 4.32326 0.703541 4.32326H4.30845V0.712312C4.30845 0.521213 4.37634 0.35472 4.51213 0.212832C4.64791 0.0709443 4.80984 0 4.99792 0C5.186 0 5.34984 0.0709443 5.48943 0.212832C5.62902 0.35472 5.69882 0.521213 5.69882 0.712312V4.32326H9.30373C9.4991 4.32326 9.66399 4.38898 9.7984 4.52043C9.9328 4.65187 10 4.81604 10 5.01293C10 5.20981 9.9328 5.3756 9.7984 5.51029C9.66399 5.64497 9.4991 5.71231 9.30373 5.71231H5.69882V9.31382C5.69882 9.50098 5.6293 9.66214 5.49027 9.79729C5.35122 9.93243 5.18525 10 4.99235 10C4.80418 10 4.64315 9.93243 4.50927 9.79729C4.37539 9.66214 4.30845 9.50098 4.30845 9.31382V5.71231Z" fill="white"/>
</svg>
