<svg width="18" height="18" viewBox="0 0 18 18" fill="none" xmlns="http://www.w3.org/2000/svg">
<path fill-rule="evenodd" clip-rule="evenodd" d="M9.00027 3C7.92616 2.99984 6.8717 3.28802 5.94697 3.83446C5.02224 4.3809 4.26116 5.16556 3.74317 6.10652C3.22519 7.04748 2.96929 8.11023 3.0022 9.18384C3.03511 10.2574 3.35562 11.3025 3.93027 12.21C3.98978 12.3039 4.02765 12.41 4.04114 12.5203C4.05463 12.6307 4.0434 12.7427 4.00827 12.8483L3.43527 14.565L5.15127 13.9928C5.25695 13.9576 5.36912 13.9464 5.47965 13.9601C5.59018 13.9737 5.69629 14.0118 5.79027 14.0715C6.57664 14.5686 7.46785 14.8761 8.39348 14.9696C9.31911 15.0631 10.2538 14.9401 11.1237 14.6103C11.9936 14.2804 12.7749 13.7528 13.4059 13.0691C14.0368 12.3854 14.5001 11.5643 14.7592 10.6708C15.0182 9.77725 15.066 8.8357 14.8986 7.92054C14.7312 7.00538 14.3533 6.14168 13.7948 5.39767C13.2362 4.65367 12.5123 4.04975 11.6802 3.63363C10.8481 3.21751 9.93061 3.00059 9.00027 3ZM1.50027 9C1.50027 4.85775 4.85802 1.5 9.00027 1.5C13.1425 1.5 16.5003 4.85775 16.5003 9C16.5003 13.1423 13.1425 16.5 9.00027 16.5C7.70278 16.502 6.42716 16.1659 5.29902 15.525L2.48727 16.4618C2.35512 16.5058 2.21331 16.5122 2.07774 16.4802C1.94216 16.4482 1.81817 16.3791 1.71967 16.2806C1.62117 16.1821 1.55205 16.0581 1.52005 15.9225C1.48806 15.787 1.49445 15.6451 1.53852 15.513L2.47602 12.7013C1.8348 11.5732 1.49851 10.2976 1.50027 9Z" fill="white"/>
<path fill-rule="evenodd" clip-rule="evenodd" d="M4.65309 7.83609C4.85698 7.07262 5.25906 6.37661 5.81859 5.81859C6.37652 5.25879 7.07254 4.85644 7.83609 4.65234L8.22384 6.10209C7.71458 6.23768 7.25033 6.50578 6.87834 6.87909C6.50553 7.25075 6.23771 7.71444 6.10209 8.22309L4.65309 7.83609ZM10.1656 4.65234C10.9291 4.85626 11.6251 5.25834 12.1831 5.81784C12.7426 6.37586 13.1447 7.07187 13.3486 7.83534L11.8988 8.22309C11.763 7.71436 11.4949 7.25066 11.1218 6.87909C10.7503 6.506 10.2866 6.23792 9.77784 6.10209L10.1648 4.65234H10.1656ZM5.81859 12.1823C5.25906 11.6243 4.85698 10.9283 4.65309 10.1648L6.10284 9.77709C6.23409 10.2691 6.49284 10.7341 6.87984 11.1211C7.26684 11.5088 7.73184 11.7668 8.22309 11.8981L7.83684 13.3478C7.07336 13.144 6.37659 12.7419 5.81859 12.1823ZM12.1831 12.1823C11.6251 12.7419 10.9291 13.144 10.1656 13.3478L9.77784 11.8981C10.2866 11.7622 10.7503 11.4942 11.1218 11.1211C11.4949 10.7495 11.763 10.2858 11.8988 9.77709L13.3486 10.1641C13.1447 10.9276 12.7426 11.6243 12.1831 12.1823Z" fill="white"/>
</svg>
