<svg width="365" height="78" viewBox="0 0 365 78" fill="none" xmlns="http://www.w3.org/2000/svg">
<g filter="url(#filter0_d_380_4610)">
<rect x="10.7781" width="354.221" height="77.7745" rx="15.3775" fill="white" shape-rendering="crispEdges"/>
<path d="M26.1097 13.7447L23.6625 18.4235V21.2588H22.6815V18.4235L20.2235 13.7447H21.3123L23.1666 17.5503L25.0209 13.7447H26.1097ZM29.7211 21.3559C29.1677 21.3559 28.6646 21.2301 28.2118 20.9785C27.7662 20.727 27.414 20.3712 27.1553 19.9113C26.9037 19.4441 26.778 18.9051 26.778 18.2942C26.778 17.6904 26.9073 17.1586 27.1661 16.6986C27.432 16.2315 27.7913 15.8757 28.2441 15.6313C28.6969 15.3798 29.2036 15.254 29.7642 15.254C30.3248 15.254 30.8315 15.3798 31.2843 15.6313C31.737 15.8757 32.0928 16.2279 32.3515 16.6878C32.6175 17.1478 32.7504 17.6833 32.7504 18.2942C32.7504 18.9051 32.6139 19.4441 32.3408 19.9113C32.0748 20.3712 31.7119 20.727 31.2519 20.9785C30.7919 21.2301 30.2817 21.3559 29.7211 21.3559ZM29.7211 20.4934C30.0732 20.4934 30.4038 20.4108 30.7129 20.2455C31.0219 20.0802 31.2699 19.8322 31.4567 19.5016C31.6508 19.171 31.7478 18.7685 31.7478 18.2942C31.7478 17.8198 31.6544 17.4173 31.4675 17.0867C31.2807 16.7561 31.0363 16.5118 30.7344 16.3536C30.4326 16.1883 30.1056 16.1057 29.7534 16.1057C29.3941 16.1057 29.0634 16.1883 28.7616 16.3536C28.4669 16.5118 28.2297 16.7561 28.0501 17.0867C27.8704 17.4173 27.7806 17.8198 27.7806 18.2942C27.7806 18.7757 27.8668 19.1818 28.0393 19.5124C28.219 19.843 28.4561 20.0909 28.7508 20.2562C29.0455 20.4144 29.3689 20.4934 29.7211 20.4934ZM39.2797 15.351V21.2588H38.2987V20.3856C38.1118 20.6875 37.8495 20.9246 37.5117 21.0971C37.1811 21.2624 36.8145 21.3451 36.412 21.3451C35.9521 21.3451 35.5388 21.2516 35.1723 21.0648C34.8057 20.8707 34.5147 20.5832 34.299 20.2023C34.0906 19.8214 33.9864 19.3578 33.9864 18.8116V15.351H34.9567V18.6823C34.9567 19.2644 35.104 19.7136 35.3987 20.0298C35.6933 20.3389 36.0958 20.4934 36.6061 20.4934C37.1308 20.4934 37.544 20.3317 37.8459 20.0083C38.1477 19.6849 38.2987 19.2141 38.2987 18.596V15.351H39.2797ZM41.9172 16.3105C42.0896 15.9727 42.334 15.7104 42.6502 15.5235C42.9737 15.3367 43.3654 15.2432 43.8253 15.2432V16.2566H43.5666C42.467 16.2566 41.9172 16.8532 41.9172 18.0462V21.2588H40.9361V15.351H41.9172V16.3105ZM50.1713 13.7447C50.9907 13.7447 51.6986 13.8993 52.2951 14.2083C52.8988 14.5102 53.3588 14.945 53.675 15.5128C53.9985 16.0805 54.1602 16.7489 54.1602 17.518C54.1602 18.287 53.9985 18.9554 53.675 19.5232C53.3588 20.0837 52.8988 20.515 52.2951 20.8168C51.6986 21.1115 50.9907 21.2588 50.1713 21.2588H47.8319V13.7447H50.1713ZM50.1713 20.4503C51.1416 20.4503 51.8819 20.1951 52.3921 19.6849C52.9024 19.1674 53.1576 18.4451 53.1576 17.518C53.1576 16.5836 52.8988 15.8541 52.3814 15.3295C51.8711 14.8048 51.1344 14.5425 50.1713 14.5425H48.813V20.4503H50.1713ZM58.0307 21.3559C57.4773 21.3559 56.9742 21.2301 56.5215 20.9785C56.0759 20.727 55.7237 20.3712 55.465 19.9113C55.2134 19.4441 55.0876 18.9051 55.0876 18.2942C55.0876 17.6904 55.217 17.1586 55.4757 16.6986C55.7417 16.2315 56.101 15.8757 56.5538 15.6313C57.0066 15.3798 57.5133 15.254 58.0739 15.254C58.6345 15.254 59.1411 15.3798 59.5939 15.6313C60.0467 15.8757 60.4025 16.2279 60.6612 16.6878C60.9271 17.1478 61.0601 17.6833 61.0601 18.2942C61.0601 18.9051 60.9235 19.4441 60.6504 19.9113C60.3845 20.3712 60.0216 20.727 59.5616 20.9785C59.1016 21.2301 58.5913 21.3559 58.0307 21.3559ZM58.0307 20.4934C58.3829 20.4934 58.7135 20.4108 59.0226 20.2455C59.3316 20.0802 59.5796 19.8322 59.7664 19.5016C59.9605 19.171 60.0575 18.7685 60.0575 18.2942C60.0575 17.8198 59.9641 17.4173 59.7772 17.0867C59.5903 16.7561 59.346 16.5118 59.0441 16.3536C58.7423 16.1883 58.4152 16.1057 58.0631 16.1057C57.7037 16.1057 57.3731 16.1883 57.0713 16.3536C56.7766 16.5118 56.5394 16.7561 56.3597 17.0867C56.1801 17.4173 56.0902 17.8198 56.0902 18.2942C56.0902 18.7757 56.1765 19.1818 56.349 19.5124C56.5286 19.843 56.7658 20.0909 57.0605 20.2562C57.3552 20.4144 57.6786 20.4934 58.0307 20.4934ZM64.7864 15.254C65.2967 15.254 65.7423 15.3654 66.1232 15.5882C66.5113 15.811 66.7988 16.0913 66.9857 16.4291V15.351H67.9775V21.3882C67.9775 21.9272 67.8625 22.4052 67.6325 22.822C67.4025 23.2461 67.0719 23.5767 66.6407 23.8138C66.2166 24.051 65.7207 24.1696 65.1529 24.1696C64.3767 24.1696 63.7299 23.9863 63.2124 23.6198C62.695 23.2533 62.3895 22.7537 62.2961 22.1213H63.2663C63.3741 22.4806 63.5969 22.7681 63.9347 22.9837C64.2725 23.2065 64.6786 23.3179 65.1529 23.3179C65.692 23.3179 66.1304 23.149 66.4682 22.8112C66.8132 22.4735 66.9857 21.9991 66.9857 21.3882V20.1484C66.7916 20.4934 66.5041 20.7809 66.1232 21.0109C65.7423 21.2409 65.2967 21.3559 64.7864 21.3559C64.2617 21.3559 63.7838 21.2265 63.3526 20.9678C62.9285 20.709 62.5943 20.3461 62.35 19.8789C62.1056 19.4118 61.9834 18.8799 61.9834 18.2834C61.9834 17.6797 62.1056 17.1514 62.35 16.6986C62.5943 16.2387 62.9285 15.8829 63.3526 15.6313C63.7838 15.3798 64.2617 15.254 64.7864 15.254ZM66.9857 18.2942C66.9857 17.8486 66.8958 17.4605 66.7161 17.1299C66.5365 16.7992 66.2921 16.5477 65.9831 16.3752C65.6812 16.1955 65.347 16.1057 64.9805 16.1057C64.6139 16.1057 64.2797 16.1919 63.9779 16.3644C63.676 16.5369 63.4352 16.7885 63.2556 17.1191C63.0759 17.4497 62.986 17.8378 62.986 18.2834C62.986 18.7362 63.0759 19.1315 63.2556 19.4692C63.4352 19.7999 63.676 20.055 63.9779 20.2347C64.2797 20.4072 64.6139 20.4934 64.9805 20.4934C65.347 20.4934 65.6812 20.4072 65.9831 20.2347C66.2921 20.055 66.5365 19.7999 66.7161 19.4692C66.8958 19.1315 66.9857 18.7398 66.9857 18.2942ZM73.0161 14.3916C72.8293 14.3916 72.6712 14.3269 72.5418 14.1975C72.4124 14.0682 72.3478 13.91 72.3478 13.7232C72.3478 13.5363 72.4124 13.3782 72.5418 13.2488C72.6712 13.1195 72.8293 13.0548 73.0161 13.0548C73.1958 13.0548 73.3468 13.1195 73.4689 13.2488C73.5983 13.3782 73.663 13.5363 73.663 13.7232C73.663 13.91 73.5983 14.0682 73.4689 14.1975C73.3468 14.3269 73.1958 14.3916 73.0161 14.3916ZM73.4905 15.351V21.2588H72.5095V15.351H73.4905ZM77.2539 21.3559C76.8012 21.3559 76.3951 21.2804 76.0357 21.1295C75.6764 20.9714 75.3925 20.7557 75.1841 20.4826C74.9756 20.2023 74.8606 19.8825 74.8391 19.5232H75.8525C75.8812 19.8178 76.0178 20.0586 76.2621 20.2455C76.5137 20.4323 76.8407 20.5258 77.2432 20.5258C77.6169 20.5258 77.9116 20.4431 78.1272 20.2778C78.3428 20.1125 78.4506 19.9041 78.4506 19.6525C78.4506 19.3938 78.3356 19.2033 78.1056 19.0811C77.8756 18.9518 77.5199 18.826 77.0383 18.7038C76.5999 18.5888 76.2406 18.4738 75.9603 18.3588C75.6872 18.2367 75.45 18.0606 75.2488 17.8306C75.0547 17.5934 74.9577 17.2844 74.9577 16.9035C74.9577 16.6016 75.0475 16.3249 75.2272 16.0734C75.4069 15.8218 75.662 15.6242 75.9926 15.4804C76.3232 15.3295 76.7005 15.254 77.1246 15.254C77.7786 15.254 78.3069 15.4193 78.7093 15.7499C79.1118 16.0805 79.3274 16.5333 79.3562 17.1083H78.3751C78.3536 16.7992 78.2278 16.5513 77.9978 16.3644C77.775 16.1776 77.4732 16.0841 77.0922 16.0841C76.7401 16.0841 76.4598 16.1596 76.2513 16.3105C76.0429 16.4615 75.9387 16.6591 75.9387 16.9035C75.9387 17.0975 75.9998 17.2592 76.122 17.3886C76.2513 17.5108 76.4095 17.6114 76.5963 17.6904C76.7904 17.7623 77.0563 17.845 77.3941 17.9384C77.8181 18.0534 78.1631 18.1684 78.429 18.2834C78.695 18.3912 78.9214 18.5565 79.1082 18.7793C79.3023 19.0021 79.4029 19.2932 79.4101 19.6525C79.4101 19.9759 79.3202 20.267 79.1406 20.5258C78.9609 20.7845 78.7057 20.9893 78.3751 21.1402C78.0517 21.284 77.678 21.3559 77.2539 21.3559ZM85.7605 21.3559C85.3077 21.3559 84.9017 21.2804 84.5423 21.1295C84.183 20.9714 83.8991 20.7557 83.6907 20.4826C83.4822 20.2023 83.3672 19.8825 83.3457 19.5232H84.3591C84.3878 19.8178 84.5244 20.0586 84.7687 20.2455C85.0203 20.4323 85.3473 20.5258 85.7498 20.5258C86.1235 20.5258 86.4182 20.4431 86.6338 20.2778C86.8494 20.1125 86.9572 19.9041 86.9572 19.6525C86.9572 19.3938 86.8422 19.2033 86.6122 19.0811C86.3822 18.9518 86.0265 18.826 85.5449 18.7038C85.1065 18.5888 84.7472 18.4738 84.4669 18.3588C84.1938 18.2367 83.9566 18.0606 83.7553 17.8306C83.5613 17.5934 83.4643 17.2844 83.4643 16.9035C83.4643 16.6016 83.5541 16.3249 83.7338 16.0734C83.9135 15.8218 84.1686 15.6242 84.4992 15.4804C84.8298 15.3295 85.2071 15.254 85.6312 15.254C86.2852 15.254 86.8134 15.4193 87.2159 15.7499C87.6184 16.0805 87.834 16.5333 87.8628 17.1083H86.8817C86.8602 16.7992 86.7344 16.5513 86.5044 16.3644C86.2816 16.1776 85.9797 16.0841 85.5988 16.0841C85.2467 16.0841 84.9664 16.1596 84.7579 16.3105C84.5495 16.4615 84.4453 16.6591 84.4453 16.9035C84.4453 17.0975 84.5064 17.2592 84.6286 17.3886C84.7579 17.5108 84.9161 17.6114 85.1029 17.6904C85.297 17.7623 85.5629 17.845 85.9007 17.9384C86.3247 18.0534 86.6697 18.1684 86.9356 18.2834C87.2015 18.3912 87.4279 18.5565 87.6148 18.7793C87.8089 19.0021 87.9095 19.2932 87.9167 19.6525C87.9167 19.9759 87.8268 20.267 87.6471 20.5258C87.4675 20.7845 87.2123 20.9893 86.8817 21.1402C86.5583 21.284 86.1846 21.3559 85.7605 21.3559ZM91.8781 21.3559C91.3247 21.3559 90.8216 21.2301 90.3688 20.9785C89.9232 20.727 89.5711 20.3712 89.3123 19.9113C89.0608 19.4441 88.935 18.9051 88.935 18.2942C88.935 17.6904 89.0644 17.1586 89.3231 16.6986C89.589 16.2315 89.9484 15.8757 90.4012 15.6313C90.854 15.3798 91.3607 15.254 91.9212 15.254C92.4818 15.254 92.9885 15.3798 93.4413 15.6313C93.8941 15.8757 94.2499 16.2279 94.5086 16.6878C94.7745 17.1478 94.9075 17.6833 94.9075 18.2942C94.9075 18.9051 94.7709 19.4441 94.4978 19.9113C94.2319 20.3712 93.8689 20.727 93.409 20.9785C92.949 21.2301 92.4387 21.3559 91.8781 21.3559ZM91.8781 20.4934C92.2303 20.4934 92.5609 20.4108 92.8699 20.2455C93.179 20.0802 93.4269 19.8322 93.6138 19.5016C93.8079 19.171 93.9049 18.7685 93.9049 18.2942C93.9049 17.8198 93.8114 17.4173 93.6246 17.0867C93.4377 16.7561 93.1934 16.5118 92.8915 16.3536C92.5896 16.1883 92.2626 16.1057 91.9105 16.1057C91.5511 16.1057 91.2205 16.1883 90.9186 16.3536C90.624 16.5118 90.3868 16.7561 90.2071 17.0867C90.0274 17.4173 89.9376 17.8198 89.9376 18.2942C89.9376 18.7757 90.0239 19.1818 90.1963 19.5124C90.376 19.843 90.6132 20.0909 90.9079 20.2562C91.2025 20.4144 91.526 20.4934 91.8781 20.4934ZM98.705 18.2942C98.705 17.6833 98.8271 17.1514 99.0715 16.6986C99.3159 16.2387 99.6536 15.8829 100.085 15.6313C100.523 15.3798 101.023 15.254 101.583 15.254C102.309 15.254 102.906 15.4301 103.373 15.7823C103.847 16.1344 104.16 16.6232 104.311 17.2484H103.254C103.154 16.8891 102.956 16.6052 102.661 16.3968C102.374 16.1883 102.015 16.0841 101.583 16.0841C101.023 16.0841 100.57 16.2782 100.225 16.6663C99.88 17.0472 99.7076 17.5898 99.7076 18.2942C99.7076 19.0057 99.88 19.5555 100.225 19.9436C100.57 20.3317 101.023 20.5258 101.583 20.5258C102.015 20.5258 102.374 20.4251 102.661 20.2239C102.949 20.0227 103.147 19.7352 103.254 19.3614H104.311C104.153 19.9652 103.837 20.4503 103.362 20.8168C102.888 21.1762 102.295 21.3559 101.583 21.3559C101.023 21.3559 100.523 21.2301 100.085 20.9785C99.6536 20.727 99.3159 20.3712 99.0715 19.9113C98.8271 19.4513 98.705 18.9123 98.705 18.2942ZM110.859 15.351V21.2588H109.878V20.3856C109.691 20.6875 109.429 20.9246 109.091 21.0971C108.761 21.2624 108.394 21.3451 107.992 21.3451C107.532 21.3451 107.118 21.2516 106.752 21.0648C106.385 20.8707 106.094 20.5832 105.879 20.2023C105.67 19.8214 105.566 19.3578 105.566 18.8116V15.351H106.536V18.6823C106.536 19.2644 106.684 19.7136 106.978 20.0298C107.273 20.3389 107.675 20.4934 108.186 20.4934C108.71 20.4934 109.124 20.3317 109.425 20.0083C109.727 19.6849 109.878 19.2141 109.878 18.596V15.351H110.859ZM113.712 16.1596V19.6417C113.712 19.9292 113.773 20.1341 113.896 20.2562C114.018 20.3712 114.23 20.4287 114.532 20.4287H115.254V21.2588H114.37C113.824 21.2588 113.414 21.1331 113.141 20.8815C112.868 20.63 112.731 20.2167 112.731 19.6417V16.1596H111.966V15.351H112.731V13.8633H113.712V15.351H115.254V16.1596H113.712ZM121.833 18.0785C121.833 18.2654 121.822 18.4631 121.801 18.6715H117.079C117.115 19.2536 117.312 19.71 117.672 20.0406C118.038 20.364 118.48 20.5258 118.998 20.5258C119.422 20.5258 119.774 20.4287 120.054 20.2347C120.342 20.0334 120.543 19.7675 120.658 19.4369H121.714C121.556 20.0047 121.24 20.4683 120.766 20.8276C120.291 21.1798 119.702 21.3559 118.998 21.3559C118.437 21.3559 117.934 21.2301 117.488 20.9785C117.05 20.727 116.705 20.3712 116.453 19.9113C116.202 19.4441 116.076 18.9051 116.076 18.2942C116.076 17.6833 116.198 17.1478 116.443 16.6878C116.687 16.2279 117.028 15.8757 117.467 15.6313C117.912 15.3798 118.423 15.254 118.998 15.254C119.558 15.254 120.054 15.3762 120.485 15.6206C120.917 15.8649 121.247 16.2027 121.477 16.6339C121.714 17.058 121.833 17.5395 121.833 18.0785ZM120.82 17.8737C120.82 17.5 120.737 17.1802 120.572 16.9142C120.406 16.6411 120.18 16.4363 119.892 16.2997C119.612 16.156 119.299 16.0841 118.955 16.0841C118.459 16.0841 118.035 16.2422 117.682 16.5585C117.337 16.8747 117.14 17.3131 117.089 17.8737H120.82ZM125.635 18.2834C125.635 17.6797 125.758 17.1514 126.002 16.6986C126.246 16.2387 126.581 15.8829 127.005 15.6313C127.436 15.3798 127.914 15.254 128.438 15.254C128.956 15.254 129.405 15.3654 129.786 15.5882C130.167 15.811 130.451 16.0913 130.638 16.4291V15.351H131.629V21.2588H130.638V20.1592C130.444 20.5042 130.153 20.7917 129.764 21.0217C129.384 21.2445 128.938 21.3559 128.428 21.3559C127.903 21.3559 127.429 21.2265 127.005 20.9678C126.581 20.709 126.246 20.3461 126.002 19.8789C125.758 19.4118 125.635 18.8799 125.635 18.2834ZM130.638 18.2942C130.638 17.8486 130.548 17.4605 130.368 17.1299C130.188 16.7992 129.944 16.5477 129.635 16.3752C129.333 16.1955 128.999 16.1057 128.632 16.1057C128.266 16.1057 127.932 16.1919 127.63 16.3644C127.328 16.5369 127.087 16.7885 126.908 17.1191C126.728 17.4497 126.638 17.8378 126.638 18.2834C126.638 18.7362 126.728 19.1315 126.908 19.4692C127.087 19.7999 127.328 20.055 127.63 20.2347C127.932 20.4072 128.266 20.4934 128.632 20.4934C128.999 20.4934 129.333 20.4072 129.635 20.2347C129.944 20.055 130.188 19.7999 130.368 19.4692C130.548 19.1315 130.638 18.7398 130.638 18.2942ZM136.166 15.2432C136.884 15.2432 137.467 15.4624 137.912 15.9009C138.358 16.3321 138.581 16.9574 138.581 17.7767V21.2588H137.61V17.9168C137.61 17.3275 137.463 16.8783 137.168 16.5693C136.874 16.253 136.471 16.0949 135.961 16.0949C135.443 16.0949 135.03 16.2566 134.721 16.58C134.419 16.9035 134.268 17.3742 134.268 17.9923V21.2588H133.287V15.351H134.268V16.1919C134.462 15.8901 134.725 15.6565 135.055 15.4912C135.393 15.3259 135.763 15.2432 136.166 15.2432ZM139.817 18.2834C139.817 17.6797 139.939 17.1514 140.183 16.6986C140.428 16.2387 140.762 15.8829 141.186 15.6313C141.617 15.3798 142.099 15.254 142.63 15.254C143.09 15.254 143.518 15.3618 143.913 15.5774C144.309 15.7859 144.61 16.0626 144.819 16.4076V13.2812H145.811V21.2588H144.819V20.1484C144.625 20.5006 144.337 20.7917 143.956 21.0217C143.575 21.2445 143.13 21.3559 142.62 21.3559C142.095 21.3559 141.617 21.2265 141.186 20.9678C140.762 20.709 140.428 20.3461 140.183 19.8789C139.939 19.4118 139.817 18.8799 139.817 18.2834ZM144.819 18.2942C144.819 17.8486 144.729 17.4605 144.549 17.1299C144.37 16.7992 144.125 16.5477 143.816 16.3752C143.514 16.1955 143.18 16.1057 142.814 16.1057C142.447 16.1057 142.113 16.1919 141.811 16.3644C141.509 16.5369 141.268 16.7885 141.089 17.1191C140.909 17.4497 140.819 17.8378 140.819 18.2834C140.819 18.7362 140.909 19.1315 141.089 19.4692C141.268 19.7999 141.509 20.055 141.811 20.2347C142.113 20.4072 142.447 20.4934 142.814 20.4934C143.18 20.4934 143.514 20.4072 143.816 20.2347C144.125 20.055 144.37 19.7999 144.549 19.4692C144.729 19.1315 144.819 18.7398 144.819 18.2942ZM152.682 13.7447C153.501 13.7447 154.209 13.8993 154.806 14.2083C155.41 14.5102 155.87 14.945 156.186 15.5128C156.509 16.0805 156.671 16.7489 156.671 17.518C156.671 18.287 156.509 18.9554 156.186 19.5232C155.87 20.0837 155.41 20.515 154.806 20.8168C154.209 21.1115 153.501 21.2588 152.682 21.2588H150.343V13.7447H152.682ZM152.682 20.4503C153.652 20.4503 154.393 20.1951 154.903 19.6849C155.413 19.1674 155.668 18.4451 155.668 17.518C155.668 16.5836 155.41 15.8541 154.892 15.3295C154.382 14.8048 153.645 14.5425 152.682 14.5425H151.324V20.4503H152.682ZM158.946 16.3105C159.118 15.9727 159.363 15.7104 159.679 15.5235C160.002 15.3367 160.394 15.2432 160.854 15.2432V16.2566H160.595C159.496 16.2566 158.946 16.8532 158.946 18.0462V21.2588H157.965V15.351H158.946V16.3105ZM167.377 18.0785C167.377 18.2654 167.366 18.4631 167.345 18.6715H162.623C162.659 19.2536 162.856 19.71 163.216 20.0406C163.582 20.364 164.024 20.5258 164.542 20.5258C164.966 20.5258 165.318 20.4287 165.598 20.2347C165.886 20.0334 166.087 19.7675 166.202 19.4369H167.258C167.1 20.0047 166.784 20.4683 166.31 20.8276C165.835 21.1798 165.246 21.3559 164.542 21.3559C163.981 21.3559 163.478 21.2301 163.032 20.9785C162.594 20.727 162.249 20.3712 161.997 19.9113C161.746 19.4441 161.62 18.9051 161.62 18.2942C161.62 17.6833 161.742 17.1478 161.987 16.6878C162.231 16.2279 162.572 15.8757 163.011 15.6313C163.456 15.3798 163.967 15.254 164.542 15.254C165.102 15.254 165.598 15.3762 166.029 15.6206C166.461 15.8649 166.791 16.2027 167.021 16.6339C167.258 17.058 167.377 17.5395 167.377 18.0785ZM166.364 17.8737C166.364 17.5 166.281 17.1802 166.116 16.9142C165.95 16.6411 165.724 16.4363 165.436 16.2997C165.156 16.156 164.843 16.0841 164.498 16.0841C164.003 16.0841 163.579 16.2422 163.226 16.5585C162.881 16.8747 162.684 17.3131 162.633 17.8737H166.364ZM168.305 18.2834C168.305 17.6797 168.427 17.1514 168.672 16.6986C168.916 16.2387 169.25 15.8829 169.674 15.6313C170.106 15.3798 170.584 15.254 171.108 15.254C171.626 15.254 172.075 15.3654 172.456 15.5882C172.837 15.811 173.121 16.0913 173.307 16.4291V15.351H174.299V21.2588H173.307V20.1592C173.113 20.5042 172.822 20.7917 172.434 21.0217C172.053 21.2445 171.608 21.3559 171.097 21.3559C170.573 21.3559 170.098 21.2265 169.674 20.9678C169.25 20.709 168.916 20.3461 168.672 19.8789C168.427 19.4118 168.305 18.8799 168.305 18.2834ZM173.307 18.2942C173.307 17.8486 173.218 17.4605 173.038 17.1299C172.858 16.7992 172.614 16.5477 172.305 16.3752C172.003 16.1955 171.669 16.1057 171.302 16.1057C170.936 16.1057 170.602 16.1919 170.3 16.3644C169.998 16.5369 169.757 16.7885 169.577 17.1191C169.398 17.4497 169.308 17.8378 169.308 18.2834C169.308 18.7362 169.398 19.1315 169.577 19.4692C169.757 19.7999 169.998 20.055 170.3 20.2347C170.602 20.4072 170.936 20.4934 171.302 20.4934C171.669 20.4934 172.003 20.4072 172.305 20.2347C172.614 20.055 172.858 19.7999 173.038 19.4692C173.218 19.1315 173.307 18.7398 173.307 18.2942ZM183.062 15.2432C183.522 15.2432 183.931 15.3403 184.291 15.5343C184.65 15.7212 184.934 16.0051 185.142 16.386C185.351 16.7669 185.455 17.2305 185.455 17.7767V21.2588H184.485V17.9168C184.485 17.3275 184.337 16.8783 184.043 16.5693C183.755 16.253 183.363 16.0949 182.868 16.0949C182.357 16.0949 181.951 16.2602 181.649 16.5908C181.347 16.9142 181.197 17.385 181.197 18.0031V21.2588H180.226V17.9168C180.226 17.3275 180.079 16.8783 179.784 16.5693C179.497 16.253 179.105 16.0949 178.609 16.0949C178.099 16.0949 177.693 16.2602 177.391 16.5908C177.089 16.9142 176.938 17.385 176.938 18.0031V21.2588H175.957V15.351H176.938V16.2027C177.132 15.8937 177.391 15.6565 177.714 15.4912C178.045 15.3259 178.408 15.2432 178.803 15.2432C179.299 15.2432 179.738 15.3546 180.118 15.5774C180.499 15.8002 180.783 16.1273 180.97 16.5585C181.135 16.1416 181.409 15.8182 181.789 15.5882C182.17 15.3582 182.594 15.2432 183.062 15.2432ZM192.153 15.351L188.595 24.0402H187.582L188.746 21.1942L186.363 15.351H187.452L189.307 20.1376L191.139 15.351H192.153ZM194.152 19.9005L192.945 22.8005H192.287L193.074 19.9005H194.152ZM201.557 21.3343C200.86 21.3343 200.224 21.1726 199.649 20.8492C199.074 20.5186 198.617 20.0622 198.279 19.48C197.949 18.8907 197.784 18.2295 197.784 17.4964C197.784 16.7633 197.949 16.1057 198.279 15.5235C198.617 14.9342 199.074 14.4778 199.649 14.1544C200.224 13.8238 200.86 13.6585 201.557 13.6585C202.261 13.6585 202.901 13.8238 203.476 14.1544C204.051 14.4778 204.503 14.9306 204.834 15.5128C205.165 16.0949 205.33 16.7561 205.33 17.4964C205.33 18.2367 205.165 18.8979 204.834 19.48C204.503 20.0622 204.051 20.5186 203.476 20.8492C202.901 21.1726 202.261 21.3343 201.557 21.3343ZM201.557 20.4826C202.081 20.4826 202.552 20.3604 202.969 20.1161C203.393 19.8717 203.724 19.5232 203.961 19.0704C204.205 18.6176 204.327 18.0929 204.327 17.4964C204.327 16.8927 204.205 16.368 203.961 15.9224C203.724 15.4696 203.397 15.1211 202.98 14.8767C202.563 14.6323 202.089 14.5102 201.557 14.5102C201.025 14.5102 200.551 14.6323 200.134 14.8767C199.717 15.1211 199.386 15.4696 199.142 15.9224C198.905 16.368 198.786 16.8927 198.786 17.4964C198.786 18.0929 198.905 18.6176 199.142 19.0704C199.386 19.5232 199.717 19.8717 200.134 20.1161C200.558 20.3604 201.032 20.4826 201.557 20.4826ZM214.247 13.7986V21.2588H213.266V15.696L210.786 21.2588H210.096L207.606 15.6852V21.2588H206.625V13.7986H207.682L210.441 19.9652L213.201 13.7986H214.247ZM221.603 15.9224C221.395 15.484 221.093 15.1462 220.697 14.909C220.302 14.6647 219.842 14.5425 219.317 14.5425C218.793 14.5425 218.318 14.6647 217.894 14.909C217.478 15.1462 217.147 15.4912 216.903 15.944C216.665 16.3896 216.547 16.9071 216.547 17.4964C216.547 18.0857 216.665 18.6032 216.903 19.0488C217.147 19.4944 217.478 19.8394 217.894 20.0837C218.318 20.3209 218.793 20.4395 219.317 20.4395C220.051 20.4395 220.654 20.2203 221.129 19.7819C221.603 19.3435 221.88 18.7505 221.959 18.0031H218.962V17.2053H223.004V17.96C222.947 18.5781 222.753 19.1458 222.422 19.6633C222.092 20.1736 221.657 20.5797 221.118 20.8815C220.579 21.1762 219.979 21.3235 219.317 21.3235C218.62 21.3235 217.984 21.1618 217.409 20.8384C216.834 20.5078 216.378 20.0514 216.04 19.4692C215.71 18.8871 215.544 18.2295 215.544 17.4964C215.544 16.7633 215.71 16.1057 216.04 15.5235C216.378 14.9342 216.834 14.4778 217.409 14.1544C217.984 13.8238 218.62 13.6585 219.317 13.6585C220.115 13.6585 220.82 13.8561 221.43 14.2514C222.049 14.6467 222.498 15.2037 222.778 15.9224H221.603ZM225.574 13.7447L225.455 19.1351H224.636L224.517 13.7447H225.574ZM225.089 21.3235C224.902 21.3235 224.744 21.2588 224.614 21.1295C224.485 21.0001 224.42 20.842 224.42 20.6551C224.42 20.4683 224.485 20.3101 224.614 20.1808C224.744 20.0514 224.902 19.9867 225.089 19.9867C225.268 19.9867 225.419 20.0514 225.541 20.1808C225.671 20.3101 225.735 20.4683 225.735 20.6551C225.735 20.842 225.671 21.0001 225.541 21.1295C225.419 21.2588 225.268 21.3235 225.089 21.3235ZM228.526 19.9005L227.319 22.8005H226.661L227.448 19.9005H228.526ZM240.394 15.351L238.55 21.2588H237.537L236.114 16.5693L234.691 21.2588H233.677L231.823 15.351H232.826L234.184 20.3101L235.65 15.351H236.653L238.087 20.3209L239.423 15.351H240.394ZM244.3 15.2432C244.745 15.2432 245.148 15.3403 245.507 15.5343C245.866 15.7212 246.147 16.0051 246.348 16.386C246.556 16.7669 246.661 17.2305 246.661 17.7767V21.2588H245.69V17.9168C245.69 17.3275 245.543 16.8783 245.248 16.5693C244.954 16.253 244.551 16.0949 244.041 16.0949C243.523 16.0949 243.11 16.2566 242.801 16.58C242.499 16.9035 242.348 17.3742 242.348 17.9923V21.2588H241.367V13.2812H242.348V16.1919C242.542 15.8901 242.808 15.6565 243.146 15.4912C243.491 15.3259 243.876 15.2432 244.3 15.2432ZM253.653 18.0785C253.653 18.2654 253.643 18.4631 253.621 18.6715H248.899C248.935 19.2536 249.133 19.71 249.492 20.0406C249.859 20.364 250.301 20.5258 250.818 20.5258C251.242 20.5258 251.594 20.4287 251.875 20.2347C252.162 20.0334 252.363 19.7675 252.478 19.4369H253.535C253.377 20.0047 253.061 20.4683 252.586 20.8276C252.112 21.1798 251.523 21.3559 250.818 21.3559C250.258 21.3559 249.754 21.2301 249.309 20.9785C248.87 20.727 248.525 20.3712 248.274 19.9113C248.022 19.4441 247.897 18.9051 247.897 18.2942C247.897 17.6833 248.019 17.1478 248.263 16.6878C248.508 16.2279 248.849 15.8757 249.287 15.6313C249.733 15.3798 250.243 15.254 250.818 15.254C251.379 15.254 251.875 15.3762 252.306 15.6206C252.737 15.8649 253.068 16.2027 253.298 16.6339C253.535 17.058 253.653 17.5395 253.653 18.0785ZM252.64 17.8737C252.64 17.5 252.557 17.1802 252.392 16.9142C252.227 16.6411 252 16.4363 251.713 16.2997C251.433 16.156 251.12 16.0841 250.775 16.0841C250.279 16.0841 249.855 16.2422 249.503 16.5585C249.158 16.8747 248.96 17.3131 248.91 17.8737H252.64ZM255.929 16.3105C256.102 15.9727 256.346 15.7104 256.663 15.5235C256.986 15.3367 257.378 15.2432 257.838 15.2432V16.2566H257.579C256.479 16.2566 255.929 16.8532 255.929 18.0462V21.2588H254.948V15.351H255.929V16.3105ZM264.36 18.0785C264.36 18.2654 264.35 18.4631 264.328 18.6715H259.606C259.642 19.2536 259.84 19.71 260.199 20.0406C260.566 20.364 261.008 20.5258 261.525 20.5258C261.949 20.5258 262.301 20.4287 262.582 20.2347C262.869 20.0334 263.07 19.7675 263.185 19.4369H264.242C264.084 20.0047 263.767 20.4683 263.293 20.8276C262.819 21.1798 262.229 21.3559 261.525 21.3559C260.965 21.3559 260.461 21.2301 260.016 20.9785C259.577 20.727 259.232 20.3712 258.981 19.9113C258.729 19.4441 258.604 18.9051 258.604 18.2942C258.604 17.6833 258.726 17.1478 258.97 16.6878C259.214 16.2279 259.556 15.8757 259.994 15.6313C260.44 15.3798 260.95 15.254 261.525 15.254C262.086 15.254 262.582 15.3762 263.013 15.6206C263.444 15.8649 263.775 16.2027 264.005 16.6339C264.242 17.058 264.36 17.5395 264.36 18.0785ZM263.347 17.8737C263.347 17.5 263.264 17.1802 263.099 16.9142C262.934 16.6411 262.707 16.4363 262.42 16.2997C262.14 16.156 261.827 16.0841 261.482 16.0841C260.986 16.0841 260.562 16.2422 260.21 16.5585C259.865 16.8747 259.667 17.3131 259.617 17.8737H263.347ZM268.163 18.2834C268.163 17.6797 268.285 17.1514 268.529 16.6986C268.774 16.2387 269.108 15.8829 269.532 15.6313C269.963 15.3798 270.445 15.254 270.977 15.254C271.437 15.254 271.864 15.3618 272.26 15.5774C272.655 15.7859 272.957 16.0626 273.165 16.4076V13.2812H274.157V21.2588H273.165V20.1484C272.971 20.5006 272.684 20.7917 272.303 21.0217C271.922 21.2445 271.476 21.3559 270.966 21.3559C270.441 21.3559 269.963 21.2265 269.532 20.9678C269.108 20.709 268.774 20.3461 268.529 19.8789C268.285 19.4118 268.163 18.8799 268.163 18.2834ZM273.165 18.2942C273.165 17.8486 273.075 17.4605 272.896 17.1299C272.716 16.7992 272.472 16.5477 272.163 16.3752C271.861 16.1955 271.526 16.1057 271.16 16.1057C270.793 16.1057 270.459 16.1919 270.157 16.3644C269.855 16.5369 269.615 16.7885 269.435 17.1191C269.255 17.4497 269.166 17.8378 269.166 18.2834C269.166 18.7362 269.255 19.1315 269.435 19.4692C269.615 19.7999 269.855 20.055 270.157 20.2347C270.459 20.4072 270.793 20.4934 271.16 20.4934C271.526 20.4934 271.861 20.4072 272.163 20.2347C272.472 20.055 272.716 19.7999 272.896 19.4692C273.075 19.1315 273.165 18.7398 273.165 18.2942ZM276.322 14.3916C276.135 14.3916 275.977 14.3269 275.847 14.1975C275.718 14.0682 275.653 13.91 275.653 13.7232C275.653 13.5363 275.718 13.3782 275.847 13.2488C275.977 13.1195 276.135 13.0548 276.322 13.0548C276.501 13.0548 276.652 13.1195 276.774 13.2488C276.904 13.3782 276.968 13.5363 276.968 13.7232C276.968 13.91 276.904 14.0682 276.774 14.1975C276.652 14.3269 276.501 14.3916 276.322 14.3916ZM276.796 15.351V21.2588H275.815V15.351H276.796ZM278.101 18.2834C278.101 17.6797 278.224 17.1514 278.468 16.6986C278.712 16.2387 279.046 15.8829 279.47 15.6313C279.902 15.3798 280.383 15.254 280.915 15.254C281.375 15.254 281.803 15.3618 282.198 15.5774C282.593 15.7859 282.895 16.0626 283.104 16.4076V13.2812H284.095V21.2588H283.104V20.1484C282.909 20.5006 282.622 20.7917 282.241 21.0217C281.86 21.2445 281.415 21.3559 280.904 21.3559C280.38 21.3559 279.902 21.2265 279.47 20.9678C279.046 20.709 278.712 20.3461 278.468 19.8789C278.224 19.4118 278.101 18.8799 278.101 18.2834ZM283.104 18.2942C283.104 17.8486 283.014 17.4605 282.834 17.1299C282.654 16.7992 282.41 16.5477 282.101 16.3752C281.799 16.1955 281.465 16.1057 281.098 16.1057C280.732 16.1057 280.398 16.1919 280.096 16.3644C279.794 16.5369 279.553 16.7885 279.373 17.1191C279.194 17.4497 279.104 17.8378 279.104 18.2834C279.104 18.7362 279.194 19.1315 279.373 19.4692C279.553 19.7999 279.794 20.055 280.096 20.2347C280.398 20.4072 280.732 20.4934 281.098 20.4934C281.465 20.4934 281.799 20.4072 282.101 20.2347C282.41 20.055 282.654 19.7999 282.834 19.4692C283.014 19.1315 283.104 18.7398 283.104 18.2942ZM293.716 15.351L290.158 24.0402H289.145L290.309 21.1942L287.927 15.351H289.015L290.87 20.1376L292.702 15.351H293.716ZM297.279 21.3559C296.725 21.3559 296.222 21.2301 295.769 20.9785C295.324 20.727 294.972 20.3712 294.713 19.9113C294.461 19.4441 294.335 18.9051 294.335 18.2942C294.335 17.6904 294.465 17.1586 294.724 16.6986C294.989 16.2315 295.349 15.8757 295.802 15.6313C296.254 15.3798 296.761 15.254 297.322 15.254C297.882 15.254 298.389 15.3798 298.842 15.6313C299.295 15.8757 299.65 16.2279 299.909 16.6878C300.175 17.1478 300.308 17.6833 300.308 18.2942C300.308 18.9051 300.171 19.4441 299.898 19.9113C299.632 20.3712 299.269 20.727 298.809 20.9785C298.349 21.2301 297.839 21.3559 297.279 21.3559ZM297.279 20.4934C297.631 20.4934 297.961 20.4108 298.27 20.2455C298.579 20.0802 298.827 19.8322 299.014 19.5016C299.208 19.171 299.305 18.7685 299.305 18.2942C299.305 17.8198 299.212 17.4173 299.025 17.0867C298.838 16.7561 298.594 16.5118 298.292 16.3536C297.99 16.1883 297.663 16.1057 297.311 16.1057C296.952 16.1057 296.621 16.1883 296.319 16.3536C296.024 16.5118 295.787 16.7561 295.608 17.0867C295.428 17.4173 295.338 17.8198 295.338 18.2942C295.338 18.7757 295.424 19.1818 295.597 19.5124C295.776 19.843 296.014 20.0909 296.308 20.2562C296.603 20.4144 296.926 20.4934 297.279 20.4934ZM306.837 15.351V21.2588H305.856V20.3856C305.669 20.6875 305.407 20.9246 305.069 21.0971C304.739 21.2624 304.372 21.3451 303.97 21.3451C303.51 21.3451 303.096 21.2516 302.73 21.0648C302.363 20.8707 302.072 20.5832 301.857 20.2023C301.648 19.8214 301.544 19.3578 301.544 18.8116V15.351H302.514V18.6823C302.514 19.2644 302.661 19.7136 302.956 20.0298C303.251 20.3389 303.653 20.4934 304.164 20.4934C304.688 20.4934 305.102 20.3317 305.403 20.0083C305.705 19.6849 305.856 19.2141 305.856 18.596V15.351H306.837ZM313.804 15.254C314.314 15.254 314.76 15.3654 315.141 15.5882C315.529 15.811 315.817 16.0913 316.003 16.4291V15.351H316.995V21.3882C316.995 21.9272 316.88 22.4052 316.65 22.822C316.42 23.2461 316.09 23.5767 315.658 23.8138C315.234 24.051 314.738 24.1696 314.171 24.1696C313.394 24.1696 312.748 23.9863 312.23 23.6198C311.713 23.2533 311.407 22.7537 311.314 22.1213H312.284C312.392 22.4806 312.615 22.7681 312.952 22.9837C313.29 23.2065 313.696 23.3179 314.171 23.3179C314.71 23.3179 315.148 23.149 315.486 22.8112C315.831 22.4735 316.003 21.9991 316.003 21.3882V20.1484C315.809 20.4934 315.522 20.7809 315.141 21.0109C314.76 21.2409 314.314 21.3559 313.804 21.3559C313.279 21.3559 312.802 21.2265 312.37 20.9678C311.946 20.709 311.612 20.3461 311.368 19.8789C311.123 19.4118 311.001 18.8799 311.001 18.2834C311.001 17.6797 311.123 17.1514 311.368 16.6986C311.612 16.2387 311.946 15.8829 312.37 15.6313C312.802 15.3798 313.279 15.254 313.804 15.254ZM316.003 18.2942C316.003 17.8486 315.914 17.4605 315.734 17.1299C315.554 16.7992 315.31 16.5477 315.001 16.3752C314.699 16.1955 314.365 16.1057 313.998 16.1057C313.632 16.1057 313.297 16.1919 312.996 16.3644C312.694 16.5369 312.453 16.7885 312.273 17.1191C312.094 17.4497 312.004 17.8378 312.004 18.2834C312.004 18.7362 312.094 19.1315 312.273 19.4692C312.453 19.7999 312.694 20.055 312.996 20.2347C313.297 20.4072 313.632 20.4934 313.998 20.4934C314.365 20.4934 314.699 20.4072 315.001 20.2347C315.31 20.055 315.554 19.7999 315.734 19.4692C315.914 19.1315 316.003 18.7398 316.003 18.2942ZM324.043 18.0785C324.043 18.2654 324.033 18.4631 324.011 18.6715H319.289C319.325 19.2536 319.523 19.71 319.882 20.0406C320.249 20.364 320.691 20.5258 321.208 20.5258C321.632 20.5258 321.984 20.4287 322.265 20.2347C322.552 20.0334 322.753 19.7675 322.868 19.4369H323.925C323.767 20.0047 323.45 20.4683 322.976 20.8276C322.502 21.1798 321.912 21.3559 321.208 21.3559C320.648 21.3559 320.144 21.2301 319.699 20.9785C319.26 20.727 318.915 20.3712 318.664 19.9113C318.412 19.4441 318.287 18.9051 318.287 18.2942C318.287 17.6833 318.409 17.1478 318.653 16.6878C318.897 16.2279 319.239 15.8757 319.677 15.6313C320.123 15.3798 320.633 15.254 321.208 15.254C321.769 15.254 322.265 15.3762 322.696 15.6206C323.127 15.8649 323.458 16.2027 323.688 16.6339C323.925 17.058 324.043 17.5395 324.043 18.0785ZM323.03 17.8737C323.03 17.5 322.947 17.1802 322.782 16.9142C322.617 16.6411 322.39 16.4363 322.103 16.2997C321.823 16.156 321.51 16.0841 321.165 16.0841C320.669 16.0841 320.245 16.2422 319.893 16.5585C319.548 16.8747 319.35 17.3131 319.3 17.8737H323.03ZM326.535 16.1596V19.6417C326.535 19.9292 326.596 20.1341 326.718 20.2562C326.84 20.3712 327.052 20.4287 327.354 20.4287H328.077V21.2588H327.193C326.646 21.2588 326.237 21.1331 325.964 20.8815C325.691 20.63 325.554 20.2167 325.554 19.6417V16.1596H324.789V15.351H325.554V13.8633H326.535V15.351H328.077V16.1596H326.535ZM337.929 13.7447V21.2588H336.948V17.8522H333.12V21.2588H332.139V13.7447H333.12V17.0436H336.948V13.7447H337.929ZM340.11 14.3916C339.924 14.3916 339.765 14.3269 339.636 14.1975C339.507 14.0682 339.442 13.91 339.442 13.7232C339.442 13.5363 339.507 13.3782 339.636 13.2488C339.765 13.1195 339.924 13.0548 340.11 13.0548C340.29 13.0548 340.441 13.1195 340.563 13.2488C340.693 13.3782 340.757 13.5363 340.757 13.7232C340.757 13.91 340.693 14.0682 340.563 14.1975C340.441 14.3269 340.29 14.3916 340.11 14.3916ZM340.585 15.351V21.2588H339.604V15.351H340.585ZM349.361 15.2432C349.821 15.2432 350.231 15.3403 350.59 15.5343C350.95 15.7212 351.233 16.0051 351.442 16.386C351.65 16.7669 351.754 17.2305 351.754 17.7767V21.2588H350.784V17.9168C350.784 17.3275 350.637 16.8783 350.342 16.5693C350.055 16.253 349.663 16.0949 349.167 16.0949C348.657 16.0949 348.251 16.2602 347.949 16.5908C347.647 16.9142 347.496 17.385 347.496 18.0031V21.2588H346.526V17.9168C346.526 17.3275 346.379 16.8783 346.084 16.5693C345.796 16.253 345.405 16.0949 344.909 16.0949C344.399 16.0949 343.992 16.2602 343.691 16.5908C343.389 16.9142 343.238 17.385 343.238 18.0031V21.2588H342.257V15.351H343.238V16.2027C343.432 15.8937 343.691 15.6565 344.014 15.4912C344.345 15.3259 344.708 15.2432 345.103 15.2432C345.599 15.2432 346.037 15.3546 346.418 15.5774C346.799 15.8002 347.083 16.1273 347.27 16.5585C347.435 16.1416 347.708 15.8182 348.089 15.5882C348.47 15.3582 348.894 15.2432 349.361 15.2432ZM354.377 19.9005L353.17 22.8005H352.512L353.299 19.9005H354.377ZM21.8298 29.7691V37.2832H20.8488V29.7691H21.8298ZM27.357 29.3055V37.2832H26.376V29.3055H27.357ZM31.6056 37.3802C31.0522 37.3802 30.5491 37.2544 30.0963 37.0029C29.6507 36.7513 29.2985 36.3956 29.0398 35.9356C28.7882 35.4684 28.6625 34.9294 28.6625 34.3185C28.6625 33.7148 28.7918 33.1829 29.0506 32.723C29.3165 32.2558 29.6758 31.9 30.1286 31.6557C30.5814 31.4041 31.0881 31.2783 31.6487 31.2783C32.2093 31.2783 32.716 31.4041 33.1688 31.6557C33.6215 31.9 33.9773 32.2522 34.236 32.7122C34.502 33.1721 34.6349 33.7076 34.6349 34.3185C34.6349 34.9294 34.4984 35.4684 34.2253 35.9356C33.9593 36.3956 33.5964 36.7513 33.1364 37.0029C32.6764 37.2544 32.1662 37.3802 31.6056 37.3802ZM31.6056 36.5177C31.9577 36.5177 32.2883 36.4351 32.5974 36.2698C32.9064 36.1045 33.1544 35.8565 33.3413 35.5259C33.5353 35.1953 33.6323 34.7928 33.6323 34.3185C33.6323 33.8441 33.5389 33.4417 33.352 33.1111C33.1652 32.7805 32.9208 32.5361 32.6189 32.378C32.3171 32.2127 31.9901 32.13 31.6379 32.13C31.2786 32.13 30.948 32.2127 30.6461 32.378C30.3514 32.5361 30.1143 32.7805 29.9346 33.1111C29.7549 33.4417 29.6651 33.8441 29.6651 34.3185C29.6651 34.8 29.7513 35.2061 29.9238 35.5367C30.1035 35.8673 30.3406 36.1153 30.6353 36.2806C30.93 36.4387 31.2534 36.5177 31.6056 36.5177ZM38.5014 37.3802C37.948 37.3802 37.4449 37.2544 36.9921 37.0029C36.5465 36.7513 36.1943 36.3956 35.9356 35.9356C35.684 35.4684 35.5583 34.9294 35.5583 34.3185C35.5583 33.7148 35.6876 33.1829 35.9464 32.723C36.2123 32.2558 36.5716 31.9 37.0244 31.6557C37.4772 31.4041 37.9839 31.2783 38.5445 31.2783C39.1051 31.2783 39.6118 31.4041 40.0646 31.6557C40.5174 31.9 40.8731 32.2522 41.1319 32.7122C41.3978 33.1721 41.5307 33.7076 41.5307 34.3185C41.5307 34.9294 41.3942 35.4684 41.1211 35.9356C40.8552 36.3956 40.4922 36.7513 40.0322 37.0029C39.5723 37.2544 39.062 37.3802 38.5014 37.3802ZM38.5014 36.5177C38.8535 36.5177 39.1842 36.4351 39.4932 36.2698C39.8022 36.1045 40.0502 35.8565 40.2371 35.5259C40.4311 35.1953 40.5281 34.7928 40.5281 34.3185C40.5281 33.8441 40.4347 33.4417 40.2478 33.1111C40.061 32.7805 39.8166 32.5361 39.5148 32.378C39.2129 32.2127 38.8859 32.13 38.5337 32.13C38.1744 32.13 37.8438 32.2127 37.5419 32.378C37.2472 32.5361 37.0101 32.7805 36.8304 33.1111C36.6507 33.4417 36.5609 33.8441 36.5609 34.3185C36.5609 34.8 36.6471 35.2061 36.8196 35.5367C36.9993 35.8673 37.2365 36.1153 37.5311 36.2806C37.8258 36.4387 38.1492 36.5177 38.5014 36.5177ZM45.3972 37.3802C44.8438 37.3802 44.3407 37.2544 43.8879 37.0029C43.4423 36.7513 43.0901 36.3956 42.8314 35.9356C42.5799 35.4684 42.4541 34.9294 42.4541 34.3185C42.4541 33.7148 42.5835 33.1829 42.8422 32.723C43.1081 32.2558 43.4675 31.9 43.9202 31.6557C44.373 31.4041 44.8797 31.2783 45.4403 31.2783C46.0009 31.2783 46.5076 31.4041 46.9604 31.6557C47.4132 31.9 47.7689 32.2522 48.0277 32.7122C48.2936 33.1721 48.4266 33.7076 48.4266 34.3185C48.4266 34.9294 48.29 35.4684 48.0169 35.9356C47.751 36.3956 47.388 36.7513 46.928 37.0029C46.4681 37.2544 45.9578 37.3802 45.3972 37.3802ZM45.3972 36.5177C45.7494 36.5177 46.08 36.4351 46.389 36.2698C46.6981 36.1045 46.946 35.8565 47.1329 35.5259C47.3269 35.1953 47.424 34.7928 47.424 34.3185C47.424 33.8441 47.3305 33.4417 47.1437 33.1111C46.9568 32.7805 46.7124 32.5361 46.4106 32.378C46.1087 32.2127 45.7817 32.13 45.4295 32.13C45.0702 32.13 44.7396 32.2127 44.4377 32.378C44.143 32.5361 43.9059 32.7805 43.7262 33.1111C43.5465 33.4417 43.4567 33.8441 43.4567 34.3185C43.4567 34.8 43.5429 35.2061 43.7154 35.5367C43.8951 35.8673 44.1323 36.1153 44.4269 36.2806C44.7216 36.4387 45.045 36.5177 45.3972 36.5177ZM52.293 37.3802C51.7396 37.3802 51.2365 37.2544 50.7837 37.0029C50.3381 36.7513 49.986 36.3956 49.7272 35.9356C49.4757 35.4684 49.3499 34.9294 49.3499 34.3185C49.3499 33.7148 49.4793 33.1829 49.738 32.723C50.0039 32.2558 50.3633 31.9 50.8161 31.6557C51.2688 31.4041 51.7755 31.2783 52.3361 31.2783C52.8967 31.2783 53.4034 31.4041 53.8562 31.6557C54.309 31.9 54.6647 32.2522 54.9235 32.7122C55.1894 33.1721 55.3224 33.7076 55.3224 34.3185C55.3224 34.9294 55.1858 35.4684 54.9127 35.9356C54.6468 36.3956 54.2838 36.7513 53.8239 37.0029C53.3639 37.2544 52.8536 37.3802 52.293 37.3802ZM52.293 36.5177C52.6452 36.5177 52.9758 36.4351 53.2848 36.2698C53.5939 36.1045 53.8418 35.8565 54.0287 35.5259C54.2227 35.1953 54.3198 34.7928 54.3198 34.3185C54.3198 33.8441 54.2263 33.4417 54.0395 33.1111C53.8526 32.7805 53.6082 32.5361 53.3064 32.378C53.0045 32.2127 52.6775 32.13 52.3253 32.13C51.966 32.13 51.6354 32.2127 51.3335 32.378C51.0389 32.5361 50.8017 32.7805 50.622 33.1111C50.4423 33.4417 50.3525 33.8441 50.3525 34.3185C50.3525 34.8 50.4387 35.2061 50.6112 35.5367C50.7909 35.8673 51.0281 36.1153 51.3227 36.2806C51.6174 36.4387 51.9408 36.5177 52.293 36.5177ZM58.8115 36.3776L60.6442 31.3754H61.6899L59.3721 37.2832H58.2293L55.9115 31.3754H56.968L58.8115 36.3776ZM68.0456 34.1029C68.0456 34.2897 68.0348 34.4874 68.0133 34.6958H63.2914C63.3273 35.278 63.5249 35.7343 63.8843 36.0649C64.2508 36.3884 64.6928 36.5501 65.2103 36.5501C65.6343 36.5501 65.9865 36.4531 66.2668 36.259C66.5543 36.0578 66.7555 35.7918 66.8705 35.4612H67.927C67.7689 36.029 67.4527 36.4926 66.9783 36.8519C66.504 37.2041 65.9146 37.3802 65.2103 37.3802C64.6497 37.3802 64.1466 37.2544 63.701 37.0029C63.2626 36.7513 62.9176 36.3956 62.6661 35.9356C62.4145 35.4684 62.2888 34.9294 62.2888 34.3185C62.2888 33.7076 62.4109 33.1721 62.6553 32.7122C62.8997 32.2522 63.241 31.9 63.6795 31.6557C64.1251 31.4041 64.6353 31.2783 65.2103 31.2783C65.7709 31.2783 66.2668 31.4005 66.698 31.6449C67.1293 31.8893 67.4599 32.227 67.6898 32.6583C67.927 33.0823 68.0456 33.5638 68.0456 34.1029ZM67.0322 33.898C67.0322 33.5243 66.9496 33.2045 66.7843 32.9386C66.619 32.6655 66.3926 32.4606 66.1051 32.3241C65.8248 32.1803 65.5122 32.1085 65.1672 32.1085C64.6713 32.1085 64.2472 32.2666 63.8951 32.5828C63.5501 32.899 63.3524 33.3374 63.3021 33.898H67.0322ZM26.1097 45.7934L23.6625 50.4722V53.3075H22.6815V50.4722L20.2235 45.7934H21.3123L23.1666 49.5989L25.0209 45.7934H26.1097ZM29.7211 53.4045C29.1677 53.4045 28.6646 53.2787 28.2118 53.0272C27.7662 52.7756 27.414 52.4199 27.1553 51.9599C26.9037 51.4927 26.778 50.9537 26.778 50.3428C26.778 49.7391 26.9073 49.2073 27.1661 48.7473C27.432 48.2801 27.7913 47.9244 28.2441 47.68C28.6969 47.4284 29.2036 47.3027 29.7642 47.3027C30.3248 47.3027 30.8315 47.4284 31.2843 47.68C31.737 47.9244 32.0928 48.2765 32.3515 48.7365C32.6175 49.1965 32.7504 49.7319 32.7504 50.3428C32.7504 50.9537 32.6139 51.4927 32.3408 51.9599C32.0748 52.4199 31.7119 52.7756 31.2519 53.0272C30.7919 53.2787 30.2817 53.4045 29.7211 53.4045ZM29.7211 52.5421C30.0732 52.5421 30.4038 52.4594 30.7129 52.2941C31.0219 52.1288 31.2699 51.8808 31.4567 51.5502C31.6508 51.2196 31.7478 50.8172 31.7478 50.3428C31.7478 49.8685 31.6544 49.466 31.4675 49.1354C31.2807 48.8048 31.0363 48.5604 30.7344 48.4023C30.4326 48.237 30.1056 48.1543 29.7534 48.1543C29.3941 48.1543 29.0634 48.237 28.7616 48.4023C28.4669 48.5604 28.2297 48.8048 28.0501 49.1354C27.8704 49.466 27.7806 49.8685 27.7806 50.3428C27.7806 50.8243 27.8668 51.2304 28.0393 51.561C28.219 51.8916 28.4561 52.1396 28.7508 52.3049C29.0455 52.463 29.3689 52.5421 29.7211 52.5421ZM39.2797 47.3997V53.3075H38.2987V52.4343C38.1118 52.7361 37.8495 52.9733 37.5117 53.1458C37.1811 53.3111 36.8145 53.3937 36.412 53.3937C35.9521 53.3937 35.5388 53.3003 35.1723 53.1134C34.8057 52.9194 34.5147 52.6319 34.299 52.251C34.0906 51.8701 33.9864 51.4065 33.9864 50.8603V47.3997H34.9567V50.7309C34.9567 51.3131 35.104 51.7623 35.3987 52.0785C35.6933 52.3875 36.0958 52.5421 36.6061 52.5421C37.1308 52.5421 37.544 52.3804 37.8459 52.0569C38.1477 51.7335 38.2987 51.2628 38.2987 50.6447V47.3997H39.2797ZM41.087 45.7934H42.1759L41.141 48.2406H40.451L41.087 45.7934ZM44.2754 48.3592C44.4479 48.0214 44.6923 47.7591 45.0085 47.5722C45.3319 47.3853 45.7236 47.2919 46.1836 47.2919V48.3053H45.9249C44.8252 48.3053 44.2754 48.9018 44.2754 50.0949V53.3075H43.2944V47.3997H44.2754V48.3592ZM52.7064 50.1272C52.7064 50.3141 52.6956 50.5117 52.674 50.7201H47.9521C47.9881 51.3023 48.1857 51.7587 48.5451 52.0893C48.9116 52.4127 49.3536 52.5744 49.8711 52.5744C50.2951 52.5744 50.6473 52.4774 50.9276 52.2833C51.2151 52.0821 51.4163 51.8162 51.5313 51.4856H52.5878C52.4297 52.0533 52.1134 52.5169 51.6391 52.8763C51.1647 53.2284 50.5754 53.4045 49.8711 53.4045C49.3105 53.4045 48.8074 53.2787 48.3618 53.0272C47.9234 52.7756 47.5784 52.4199 47.3268 51.9599C47.0753 51.4927 46.9495 50.9537 46.9495 50.3428C46.9495 49.7319 47.0717 49.1965 47.3161 48.7365C47.5604 48.2765 47.9018 47.9244 48.3402 47.68C48.7858 47.4284 49.2961 47.3027 49.8711 47.3027C50.4317 47.3027 50.9276 47.4249 51.3588 47.6692C51.79 47.9136 52.1206 48.2514 52.3506 48.6826C52.5878 49.1066 52.7064 49.5882 52.7064 50.1272ZM51.693 49.9224C51.693 49.5486 51.6103 49.2288 51.445 48.9629C51.2797 48.6898 51.0533 48.485 50.7659 48.3484C50.4856 48.2047 50.1729 48.1328 49.8279 48.1328C49.332 48.1328 48.908 48.2909 48.5558 48.6071C48.2109 48.9234 48.0132 49.3618 47.9629 49.9224H51.693ZM56.5089 49.545C56.5089 48.812 56.6742 48.1543 57.0048 47.5722C57.3354 46.9828 57.7846 46.5229 58.3524 46.1923C58.9274 45.8617 59.5634 45.6964 60.2606 45.6964C61.0799 45.6964 61.795 45.894 62.4059 46.2893C63.0168 46.6846 63.4624 47.2452 63.7427 47.9711H62.5676C62.3592 47.5183 62.0573 47.1697 61.662 46.9254C61.2739 46.681 60.8068 46.5588 60.2606 46.5588C59.7359 46.5588 59.2652 46.681 58.8483 46.9254C58.4314 47.1697 58.1044 47.5183 57.8673 47.9711C57.6301 48.4167 57.5115 48.9413 57.5115 49.545C57.5115 50.1416 57.6301 50.6662 57.8673 51.119C58.1044 51.5646 58.4314 51.9096 58.8483 52.154C59.2652 52.3983 59.7359 52.5205 60.2606 52.5205C60.8068 52.5205 61.2739 52.4019 61.662 52.1647C62.0573 51.9204 62.3592 51.5718 62.5676 51.119H63.7427C63.4624 51.8377 63.0168 52.3947 62.4059 52.79C61.795 53.1781 61.0799 53.3722 60.2606 53.3722C59.5634 53.3722 58.9274 53.2105 58.3524 52.887C57.7846 52.5564 57.3354 52.1001 57.0048 51.5179C56.6742 50.9357 56.5089 50.2781 56.5089 49.545ZM70.4424 47.3997V53.3075H69.4614V52.4343C69.2745 52.7361 69.0122 52.9733 68.6744 53.1458C68.3438 53.3111 67.9773 53.3937 67.5748 53.3937C67.1148 53.3937 66.7016 53.3003 66.335 53.1134C65.9685 52.9194 65.6774 52.6319 65.4618 52.251C65.2534 51.8701 65.1492 51.4065 65.1492 50.8603V47.3997H66.1194V50.7309C66.1194 51.3131 66.2667 51.7623 66.5614 52.0785C66.8561 52.3875 67.2586 52.5421 67.7688 52.5421C68.2935 52.5421 68.7068 52.3804 69.0086 52.0569C69.3105 51.7335 69.4614 51.2628 69.4614 50.6447V47.3997H70.4424ZM73.2955 48.2082V51.6904C73.2955 51.9779 73.3566 52.1827 73.4788 52.3049C73.601 52.4199 73.813 52.4774 74.1148 52.4774H74.8372V53.3075H73.9531C73.4069 53.3075 72.9973 53.1817 72.7241 52.9302C72.451 52.6786 72.3145 52.2654 72.3145 51.6904V48.2082H71.5491V47.3997H72.3145V45.912H73.2955V47.3997H74.8372V48.2082H73.2955ZM81.4161 50.1272C81.4161 50.3141 81.4053 50.5117 81.3838 50.7201H76.6619C76.6978 51.3023 76.8954 51.7587 77.2548 52.0893C77.6213 52.4127 78.0633 52.5744 78.5808 52.5744C79.0048 52.5744 79.357 52.4774 79.6373 52.2833C79.9248 52.0821 80.126 51.8162 80.241 51.4856H81.2975C81.1394 52.0533 80.8232 52.5169 80.3488 52.8763C79.8745 53.2284 79.2851 53.4045 78.5808 53.4045C78.0202 53.4045 77.5171 53.2787 77.0715 53.0272C76.6331 52.7756 76.2881 52.4199 76.0366 51.9599C75.785 51.4927 75.6593 50.9537 75.6593 50.3428C75.6593 49.7319 75.7814 49.1965 76.0258 48.7365C76.2702 48.2765 76.6115 47.9244 77.05 47.68C77.4956 47.4284 78.0058 47.3027 78.5808 47.3027C79.1414 47.3027 79.6373 47.4249 80.0685 47.6692C80.4998 47.9136 80.8304 48.2514 81.0604 48.6826C81.2975 49.1066 81.4161 49.5882 81.4161 50.1272ZM80.4027 49.9224C80.4027 49.5486 80.3201 49.2288 80.1548 48.9629C79.9895 48.6898 79.7631 48.485 79.4756 48.3484C79.1953 48.2047 78.8827 48.1328 78.5377 48.1328C78.0418 48.1328 77.6177 48.2909 77.2656 48.6071C76.9206 48.9234 76.7229 49.3618 76.6726 49.9224H80.4027ZM89.3476 49.4372C89.6207 49.4804 89.8687 49.5918 90.0915 49.7714C90.3215 49.9511 90.5011 50.1739 90.6305 50.4398C90.7671 50.7058 90.8353 50.9896 90.8353 51.2915C90.8353 51.6724 90.7383 52.0174 90.5443 52.3264C90.3502 52.6283 90.0663 52.8691 89.6926 53.0487C89.3261 53.2212 88.8912 53.3075 88.3881 53.3075H85.5852V45.7934H88.2803C88.7906 45.7934 89.2254 45.8796 89.5848 46.0521C89.9441 46.2174 90.2137 46.4438 90.3933 46.7313C90.573 47.0188 90.6629 47.3422 90.6629 47.7016C90.6629 48.1472 90.5407 48.5173 90.2963 48.812C90.0591 49.0994 89.7429 49.3079 89.3476 49.4372ZM86.5662 49.0384H88.2157C88.6756 49.0384 89.0314 48.9305 89.2829 48.7149C89.5345 48.4993 89.6603 48.2011 89.6603 47.8201C89.6603 47.4392 89.5345 47.141 89.2829 46.9254C89.0314 46.7097 88.6684 46.6019 88.1941 46.6019H86.5662V49.0384ZM88.3019 52.4989C88.7906 52.4989 89.1715 52.3839 89.4446 52.154C89.7178 51.924 89.8543 51.6041 89.8543 51.1945C89.8543 50.7776 89.7106 50.4506 89.4231 50.2134C89.1356 49.9691 88.7511 49.8469 88.2696 49.8469H86.5662V52.4989H88.3019ZM93.3934 48.2082V51.6904C93.3934 51.9779 93.4545 52.1827 93.5767 52.3049C93.6988 52.4199 93.9109 52.4774 94.2127 52.4774H94.935V53.3075H94.051C93.5048 53.3075 93.0951 53.1817 92.822 52.9302C92.5489 52.6786 92.4124 52.2654 92.4124 51.6904V48.2082H91.6469V47.3997H92.4124V45.912H93.3934V47.3997H94.935V48.2082H93.3934ZM103.994 47.3997L102.15 53.3075H101.137L99.7136 48.6179L98.2906 53.3075H97.2772L95.4229 47.3997H96.4255L97.7839 52.3588L99.2501 47.3997H100.253L101.686 52.3696L103.023 47.3997H103.994Z" fill="#333333"/>
<path d="M283.282 59.7638C283.323 58.9425 283.611 58.31 284.145 57.8664C284.687 57.4147 285.397 57.1888 286.276 57.1888C286.876 57.1888 287.389 57.2956 287.816 57.5091C288.244 57.7145 288.564 57.9979 288.777 58.3593C288.999 58.7125 289.11 59.1149 289.11 59.5667C289.11 60.0842 288.975 60.5236 288.704 60.885C288.441 61.2382 288.124 61.4764 287.755 61.5996V61.6489C288.231 61.7968 288.601 62.0596 288.864 62.4374C289.135 62.8153 289.27 63.2999 289.27 63.8913C289.27 64.3841 289.155 64.8235 288.925 65.2096C288.704 65.5956 288.371 65.8996 287.927 66.1213C287.492 66.3349 286.966 66.4417 286.35 66.4417C285.422 66.4417 284.666 66.2076 284.083 65.7394C283.5 65.2712 283.192 64.5812 283.159 63.6695H284.835C284.851 64.072 284.987 64.3964 285.241 64.6428C285.504 64.881 285.862 65.0001 286.313 65.0001C286.732 65.0001 287.053 64.8851 287.274 64.6552C287.504 64.417 287.619 64.1131 287.619 63.7434C287.619 63.2506 287.463 62.8974 287.151 62.6838C286.839 62.4703 286.354 62.3635 285.697 62.3635H285.34V60.9466H285.697C286.864 60.9466 287.447 60.5565 287.447 59.7762C287.447 59.423 287.34 59.1478 287.126 58.9507C286.921 58.7535 286.621 58.655 286.227 58.655C285.841 58.655 285.541 58.7618 285.328 58.9753C285.122 59.1807 285.003 59.4435 284.97 59.7638H283.282Z" fill="#65676B"/>
<path d="M299.209 57.4596C299.236 57.4476 299.266 57.4427 299.295 57.4452C299.325 57.4478 299.354 57.4577 299.378 57.4742C299.403 57.4906 299.423 57.513 299.437 57.5393C299.451 57.5656 299.458 57.595 299.458 57.6248V59.0457C299.458 59.2092 299.523 59.3659 299.638 59.4815C299.754 59.597 299.91 59.6619 300.074 59.6619C300.896 59.6619 302.555 59.6681 304.141 60.675C305.354 61.444 306.593 62.844 307.339 65.4518C306.082 64.2403 304.646 63.5835 303.389 63.2347C302.616 63.0213 301.822 62.8948 301.022 62.8576C300.694 62.8432 300.366 62.8465 300.038 62.8674H300.022L300.016 62.8687L300.074 63.4824L300.012 62.8687C299.86 62.884 299.719 62.9552 299.617 63.0687C299.514 63.1821 299.458 63.3295 299.458 63.4824V64.9034C299.458 65.0365 299.322 65.1203 299.209 65.0685L294.299 61.4539C294.282 61.4415 294.265 61.43 294.247 61.4194C294.22 61.4033 294.198 61.3805 294.183 61.3533C294.167 61.3261 294.159 61.2953 294.159 61.2641C294.159 61.2328 294.167 61.2021 294.183 61.1749C294.198 61.1477 294.22 61.1249 294.247 61.1088C294.265 61.0982 294.282 61.0866 294.299 61.0743L299.209 57.4596ZM300.69 64.0814C300.774 64.0814 300.866 64.0851 300.965 64.0888C301.5 64.1134 302.239 64.1947 303.06 64.4227C304.694 64.8763 306.629 65.9041 307.916 68.2186C307.985 68.3435 308.096 68.4403 308.229 68.4925C308.363 68.5447 308.51 68.5489 308.646 68.5045C308.781 68.46 308.898 68.3697 308.974 68.249C309.051 68.1282 309.083 67.9846 309.066 67.8427C308.494 63.2704 306.741 60.8648 304.801 59.6348C303.267 58.6612 301.687 58.4739 300.69 58.4382V57.6248C300.69 57.371 300.622 57.1218 300.492 56.9037C300.362 56.6855 300.176 56.5064 299.953 56.3853C299.73 56.2641 299.479 56.2054 299.225 56.2153C298.972 56.2252 298.725 56.3034 298.512 56.4416L293.59 60.0649C293.387 60.192 293.219 60.3687 293.103 60.5785C292.986 60.7882 292.925 61.0242 292.925 61.2641C292.925 61.504 292.986 61.7399 293.103 61.9497C293.219 62.1595 293.387 62.3362 293.59 62.4632L298.512 66.0865C298.725 66.2247 298.972 66.3029 299.225 66.3128C299.479 66.3227 299.73 66.264 299.953 66.1429C300.176 66.0217 300.362 65.8426 300.492 65.6245C300.622 65.4063 300.69 65.1572 300.69 64.9034V64.0814Z" fill="#333333"/>
<path d="M321.838 58.9876V57.3983H324.807V66.3801H323.033V58.9876H321.838Z" fill="#65676B"/>
<path d="M340.239 68.535C340.054 68.535 339.874 68.505 339.7 68.4452C339.526 68.3854 339.369 68.2847 339.227 68.1433L338.379 67.3437C337.03 66.1143 335.86 64.9176 334.87 63.7535C333.88 62.5895 333.385 61.3492 333.385 60.0328C333.385 58.9558 333.744 58.0501 334.462 57.3158C335.18 56.5814 336.072 56.2142 337.138 56.2142C337.682 56.2142 338.221 56.3339 338.754 56.5733C339.287 56.8126 339.782 57.2151 340.239 57.7808C340.75 57.2151 341.256 56.8126 341.757 56.5733C342.257 56.3339 342.785 56.2142 343.339 56.2142C344.417 56.2142 345.319 56.5814 346.048 57.3158C346.777 58.0501 347.142 58.9558 347.142 60.0328C347.142 61.3492 346.636 62.5922 345.624 63.7617C344.612 64.9312 343.443 66.1306 342.116 67.36L341.267 68.1433C341.126 68.2847 340.965 68.3854 340.786 68.4452C340.606 68.505 340.424 68.535 340.239 68.535Z" fill="#B40000"/>
</g>
<g filter="url(#filter1_d_380_4610)">
<path d="M0 14.6316L12.3207 10.0113V21.947L0 14.6316Z" fill="white"/>
</g>
<defs>
<filter id="filter0_d_380_4610" x="6.92786" y="-3.08018" width="366.542" height="90.095" filterUnits="userSpaceOnUse" color-interpolation-filters="sRGB">
<feFlood flood-opacity="0" result="BackgroundImageFix"/>
<feColorMatrix in="SourceAlpha" type="matrix" values="0 0 0 0 0 0 0 0 0 0 0 0 0 0 0 0 0 0 127 0" result="hardAlpha"/>
<feMorphology radius="1.53775" operator="dilate" in="SourceAlpha" result="effect1_dropShadow_380_4610"/>
<feOffset dx="2.30663" dy="3.0755"/>
<feGaussianBlur stdDeviation="2.30663"/>
<feComposite in2="hardAlpha" operator="out"/>
<feColorMatrix type="matrix" values="0 0 0 0 0 0 0 0 0 0 0 0 0 0 0 0 0 0 0.08 0"/>
<feBlend mode="normal" in2="BackgroundImageFix" result="effect1_dropShadow_380_4610"/>
<feBlend mode="normal" in="SourceGraphic" in2="effect1_dropShadow_380_4610" result="shape"/>
</filter>
<filter id="filter1_d_380_4610" x="-3.85022" y="6.93111" width="24.6402" height="24.2568" filterUnits="userSpaceOnUse" color-interpolation-filters="sRGB">
<feFlood flood-opacity="0" result="BackgroundImageFix"/>
<feColorMatrix in="SourceAlpha" type="matrix" values="0 0 0 0 0 0 0 0 0 0 0 0 0 0 0 0 0 0 127 0" result="hardAlpha"/>
<feMorphology radius="1.53775" operator="dilate" in="SourceAlpha" result="effect1_dropShadow_380_4610"/>
<feOffset dx="2.30663" dy="3.0755"/>
<feGaussianBlur stdDeviation="2.30663"/>
<feComposite in2="hardAlpha" operator="out"/>
<feColorMatrix type="matrix" values="0 0 0 0 0 0 0 0 0 0 0 0 0 0 0 0 0 0 0.08 0"/>
<feBlend mode="normal" in2="BackgroundImageFix" result="effect1_dropShadow_380_4610"/>
<feBlend mode="normal" in="SourceGraphic" in2="effect1_dropShadow_380_4610" result="shape"/>
</filter>
</defs>
</svg>
