<svg width="58" height="49" viewBox="0 0 58 49" fill="none" xmlns="http://www.w3.org/2000/svg">
<path d="M48.9998 2.04224H8.16714C4.78445 2.04224 2.04224 4.78445 2.04224 8.16714V40.8333C2.04224 44.216 4.78445 46.9582 8.16714 46.9582H48.9998C52.3825 46.9582 55.1248 44.216 55.1248 40.8333V8.16714C55.1248 4.78445 52.3825 2.04224 48.9998 2.04224Z" stroke="#333333" stroke-width="4.07692" stroke-linejoin="round"/>
<path d="M38.7935 18.3758C41.0486 18.3758 42.8767 16.5476 42.8767 14.2925C42.8767 12.0374 41.0486 10.2092 38.7935 10.2092C36.5384 10.2092 34.7102 12.0374 34.7102 14.2925C34.7102 16.5476 36.5384 18.3758 38.7935 18.3758Z" stroke="#333333" stroke-width="4.07692" stroke-miterlimit="10"/>
<path d="M34.7084 34.6808L23.14 23.134C22.4038 22.3981 21.4144 21.971 20.3739 21.9402C19.3335 21.9094 18.3205 22.2771 17.5421 22.9682L2.04224 36.7492M24.5002 46.9574L40.2387 31.2189C40.9584 30.4977 41.9218 30.0717 42.9397 30.0244C43.9575 29.9772 44.9562 30.3122 45.7396 30.9637L55.1248 38.7908" stroke="#333333" stroke-width="4.07692" stroke-linecap="round" stroke-linejoin="round"/>
</svg>
