<svg width="58" height="57" viewBox="0 0 58 57" fill="none" xmlns="http://www.w3.org/2000/svg">
<mask id="mask0_564_4830" style="mask-type:luminance" maskUnits="userSpaceOnUse" x="-5" y="-5" width="68" height="67">
<path d="M-4.32971 -4.43967H62.0238V61.9139H-4.32971V-4.43967Z" fill="white"/>
</mask>
<g mask="url(#mask0_564_4830)">
<path d="M17.6142 24.0073C20.1025 23.0908 22.5223 25.5106 21.6058 28.0009L16.1793 42.7521C16.0593 43.079 15.8588 43.3703 15.5965 43.5992C15.3342 43.8282 15.0184 43.9874 14.6784 44.0622C14.3383 44.137 13.9849 44.1249 13.6507 44.0272C13.3166 43.9294 13.0124 43.7491 12.7663 43.5028L2.11238 32.8489C1.86658 32.6027 1.68665 32.2987 1.58916 31.9648C1.49167 31.6309 1.47976 31.2778 1.55453 30.938C1.62929 30.5983 1.78832 30.2828 2.01698 30.0207C2.24564 29.7585 2.53658 29.5581 2.86301 29.4379L17.6142 24.0073Z" fill="url(#paint0_linear_564_4830)"/>
<path d="M17.6142 24.0073C20.1025 23.0908 22.5223 25.5106 21.6058 28.0009L16.1793 42.7521C16.0593 43.079 15.8588 43.3703 15.5965 43.5992C15.3342 43.8282 15.0184 43.9874 14.6784 44.0622C14.3383 44.137 13.9849 44.1249 13.6507 44.0272C13.3166 43.9294 13.0124 43.7491 12.7663 43.5028L2.11238 32.8489C1.86658 32.6027 1.68665 32.2987 1.58916 31.9648C1.49167 31.6309 1.47976 31.2778 1.55453 30.938C1.62929 30.5983 1.78832 30.2828 2.01698 30.0207C2.24564 29.7585 2.53658 29.5581 2.86301 29.4379L17.6142 24.0073Z" fill="url(#paint1_radial_564_4830)"/>
<path d="M17.6142 24.0073C20.1025 23.0908 22.5223 25.5106 21.6058 28.0009L16.1793 42.7521C16.0593 43.079 15.8588 43.3703 15.5965 43.5992C15.3342 43.8282 15.0184 43.9874 14.6784 44.0622C14.3383 44.137 13.9849 44.1249 13.6507 44.0272C13.3166 43.9294 13.0124 43.7491 12.7663 43.5028L2.11238 32.8489C1.86658 32.6027 1.68665 32.2987 1.58916 31.9648C1.49167 31.6309 1.47976 31.2778 1.55453 30.938C1.62929 30.5983 1.78832 30.2828 2.01698 30.0207C2.24564 29.7585 2.53658 29.5581 2.86301 29.4379L17.6142 24.0073Z" fill="url(#paint2_linear_564_4830)"/>
<path d="M30.0537 36.4486C32.5419 35.5321 34.9618 37.9519 34.0452 40.4422L28.6146 55.1934C28.4944 55.5199 28.294 55.8108 28.0318 56.0395C27.7697 56.2681 27.4542 56.4272 27.1145 56.5019C26.7748 56.5767 26.4217 56.5648 26.0877 56.4673C25.7538 56.3698 25.4498 56.1899 25.2036 55.9441L14.5497 45.2902C14.3039 45.044 14.124 44.74 14.0265 44.4061C13.929 44.0721 13.9171 43.7191 13.9919 43.3793C14.0667 43.0396 14.2257 42.7241 14.4543 42.462C14.683 42.1998 14.9739 41.9994 15.3004 41.8792L30.0537 36.4486Z" fill="url(#paint3_linear_564_4830)"/>
<path d="M30.0537 36.4486C32.5419 35.5321 34.9618 37.9519 34.0452 40.4422L28.6146 55.1934C28.4944 55.5199 28.294 55.8108 28.0318 56.0395C27.7697 56.2681 27.4542 56.4272 27.1145 56.5019C26.7748 56.5767 26.4217 56.5648 26.0877 56.4673C25.7538 56.3698 25.4498 56.1899 25.2036 55.9441L14.5497 45.2902C14.3039 45.044 14.124 44.74 14.0265 44.4061C13.929 44.0721 13.9171 43.7191 13.9919 43.3793C14.0667 43.0396 14.2257 42.7241 14.4543 42.462C14.683 42.1998 14.9739 41.9994 15.3004 41.8792L30.0537 36.4486Z" fill="url(#paint4_radial_564_4830)"/>
<path d="M30.0537 36.4486C32.5419 35.5321 34.9618 37.9519 34.0452 40.4422L28.6146 55.1934C28.4944 55.5199 28.294 55.8108 28.0318 56.0395C27.7697 56.2681 27.4542 56.4272 27.1145 56.5019C26.7748 56.5767 26.4217 56.5648 26.0877 56.4673C25.7538 56.3698 25.4498 56.1899 25.2036 55.9441L14.5497 45.2902C14.3039 45.044 14.124 44.74 14.0265 44.4061C13.929 44.0721 13.9171 43.7191 13.9919 43.3793C14.0667 43.0396 14.2257 42.7241 14.4543 42.462C14.683 42.1998 14.9739 41.9994 15.3004 41.8792L30.0537 36.4486Z" fill="url(#paint5_radial_564_4830)"/>
<g filter="url(#filter0_i_564_4830)">
<path d="M42.1171 2.92213C42.1739 2.89963 42.236 2.89431 42.2957 2.90685C42.3554 2.91939 42.4102 2.94922 42.4531 2.99263L54.6559 15.2888C54.699 15.3319 54.7284 15.3867 54.7406 15.4465C54.7527 15.5062 54.7471 15.5682 54.7243 15.6247C51.8006 22.7992 47.7717 30.4298 42.3784 35.8252C37.124 41.0796 28.2368 45.5564 20.2122 48.8492L8.82633 37.4612C12.1191 29.4366 16.5959 20.5514 21.8503 15.2971C27.2622 9.88511 34.9219 5.84791 42.1151 2.9242" fill="url(#paint6_linear_564_4830)"/>
<path d="M42.1171 2.92213C42.1739 2.89963 42.236 2.89431 42.2957 2.90685C42.3554 2.91939 42.4102 2.94922 42.4531 2.99263L54.6559 15.2888C54.699 15.3319 54.7284 15.3867 54.7406 15.4465C54.7527 15.5062 54.7471 15.5682 54.7243 15.6247C51.8006 22.7992 47.7717 30.4298 42.3784 35.8252C37.124 41.0796 28.2368 45.5564 20.2122 48.8492L8.82633 37.4612C12.1191 29.4366 16.5959 20.5514 21.8503 15.2971C27.2622 9.88511 34.9219 5.84791 42.1151 2.9242" fill="url(#paint7_radial_564_4830)"/>
<path d="M42.1171 2.92213C42.1739 2.89963 42.236 2.89431 42.2957 2.90685C42.3554 2.91939 42.4102 2.94922 42.4531 2.99263L54.6559 15.2888C54.699 15.3319 54.7284 15.3867 54.7406 15.4465C54.7527 15.5062 54.7471 15.5682 54.7243 15.6247C51.8006 22.7992 47.7717 30.4298 42.3784 35.8252C37.124 41.0796 28.2368 45.5564 20.2122 48.8492L8.82633 37.4612C12.1191 29.4366 16.5959 20.5514 21.8503 15.2971C27.2622 9.88511 34.9219 5.84791 42.1151 2.9242" fill="url(#paint8_radial_564_4830)"/>
<path d="M42.1171 2.92213C42.1739 2.89963 42.236 2.89431 42.2957 2.90685C42.3554 2.91939 42.4102 2.94922 42.4531 2.99263L54.6559 15.2888C54.699 15.3319 54.7284 15.3867 54.7406 15.4465C54.7527 15.5062 54.7471 15.5682 54.7243 15.6247C51.8006 22.7992 47.7717 30.4298 42.3784 35.8252C37.124 41.0796 28.2368 45.5564 20.2122 48.8492L8.82633 37.4612C12.1191 29.4366 16.5959 20.5514 21.8503 15.2971C27.2622 9.88511 34.9219 5.84791 42.1151 2.9242" fill="url(#paint9_radial_564_4830)"/>
<path d="M42.1171 2.92213C42.1739 2.89963 42.236 2.89431 42.2957 2.90685C42.3554 2.91939 42.4102 2.94922 42.4531 2.99263L54.6559 15.2888C54.699 15.3319 54.7284 15.3867 54.7406 15.4465C54.7527 15.5062 54.7471 15.5682 54.7243 15.6247C51.8006 22.7992 47.7717 30.4298 42.3784 35.8252C37.124 41.0796 28.2368 45.5564 20.2122 48.8492L8.82633 37.4612C12.1191 29.4366 16.5959 20.5514 21.8503 15.2971C27.2622 9.88511 34.9219 5.84791 42.1151 2.9242" fill="url(#paint10_radial_564_4830)"/>
</g>
<g filter="url(#filter1_dii_564_4830)">
<path d="M46.4738 18.4974C46.4897 19.4223 46.3214 20.3411 45.9784 21.2003C45.6355 22.0594 45.125 22.8417 44.4765 23.5014C43.8281 24.1611 43.0547 24.6851 42.2016 25.0428C41.3485 25.4005 40.4327 25.5847 39.5077 25.5847C38.5826 25.5847 37.6669 25.4005 36.8138 25.0428C35.9607 24.6851 35.1873 24.1611 34.5389 23.5014C33.8904 22.8417 33.3799 22.0594 33.037 21.2003C32.694 20.3411 32.5257 19.4223 32.5416 18.4974C32.5731 16.6707 33.3209 14.9294 34.6239 13.6488C35.9268 12.3681 37.6807 11.6505 39.5077 11.6505C41.3347 11.6505 43.0886 12.3681 44.3915 13.6488C45.6945 14.9294 46.4423 16.6707 46.4738 18.4974Z" fill="url(#paint11_linear_564_4830)"/>
<path d="M46.4738 18.4974C46.4897 19.4223 46.3214 20.3411 45.9784 21.2003C45.6355 22.0594 45.125 22.8417 44.4765 23.5014C43.8281 24.1611 43.0547 24.6851 42.2016 25.0428C41.3485 25.4005 40.4327 25.5847 39.5077 25.5847C38.5826 25.5847 37.6669 25.4005 36.8138 25.0428C35.9607 24.6851 35.1873 24.1611 34.5389 23.5014C33.8904 22.8417 33.3799 22.0594 33.037 21.2003C32.694 20.3411 32.5257 19.4223 32.5416 18.4974C32.5731 16.6707 33.3209 14.9294 34.6239 13.6488C35.9268 12.3681 37.6807 11.6505 39.5077 11.6505C41.3347 11.6505 43.0886 12.3681 44.3915 13.6488C45.6945 14.9294 46.4423 16.6707 46.4738 18.4974Z" fill="url(#paint12_radial_564_4830)"/>
</g>
<path d="M44.328 18.4971C44.3413 19.1388 44.2264 19.7767 43.99 20.3733C43.7537 20.97 43.4006 21.5135 42.9515 21.972C42.5024 22.4305 41.9664 22.7948 41.3747 23.0435C40.783 23.2921 40.1477 23.4202 39.5059 23.4202C38.8641 23.4202 38.2288 23.2921 37.6371 23.0435C37.0455 22.7948 36.5094 22.4305 36.0603 21.972C35.6112 21.5135 35.2582 20.97 35.0218 20.3733C34.7855 19.7767 34.6706 19.1388 34.6839 18.4971C34.71 17.2356 35.2296 16.0345 36.131 15.1515C37.0325 14.2686 38.2441 13.7741 39.5059 13.7741C40.7678 13.7741 41.9793 14.2686 42.8808 15.1515C43.7823 16.0345 44.3018 17.2356 44.328 18.4971Z" fill="url(#paint13_radial_564_4830)"/>
<g filter="url(#filter2_i_564_4830)">
<path d="M0.696002 56.798C-0.769997 55.332 -0.181109 45.1634 5.00276 43.0898C5.00276 43.0898 10.1866 41.0163 13.5271 44.3339C16.8676 47.6516 15.3705 51.384 15.3705 51.384C13.9045 55.782 7.66312 57.53 6.92909 56.796C6.52475 56.3916 7.25256 55.6555 6.92909 55.332C6.60561 55.0065 6.10382 55.3777 4.73113 56.064C3.75241 56.5534 1.28282 57.3848 0.696002 56.798Z" fill="url(#paint14_radial_564_4830)"/>
<path d="M0.696002 56.798C-0.769997 55.332 -0.181109 45.1634 5.00276 43.0898C5.00276 43.0898 10.1866 41.0163 13.5271 44.3339C16.8676 47.6516 15.3705 51.384 15.3705 51.384C13.9045 55.782 7.66312 57.53 6.92909 56.796C6.52475 56.3916 7.25256 55.6555 6.92909 55.332C6.60561 55.0065 6.10382 55.3777 4.73113 56.064C3.75241 56.5534 1.28282 57.3848 0.696002 56.798Z" fill="url(#paint15_radial_564_4830)"/>
</g>
<path d="M8.23784 39.0711C8.52669 38.782 8.86966 38.5528 9.24715 38.3963C9.62464 38.2399 10.0293 38.1594 10.4379 38.1594C10.8465 38.1594 11.2511 38.2399 11.6286 38.3963C12.0061 38.5528 12.3491 38.782 12.6379 39.0711L19.9679 46.4031C20.5246 46.9914 20.8299 47.7737 20.8188 48.5835C20.8077 49.3934 20.4812 50.167 19.9086 50.7398C19.336 51.3127 18.5626 51.6396 17.7528 51.651C16.9429 51.6625 16.1605 51.3576 15.572 50.8011L8.23784 43.4711C7.94881 43.1823 7.71953 42.8393 7.56309 42.4618C7.40666 42.0843 7.32614 41.6797 7.32614 41.2711C7.32614 40.8625 7.40666 40.4579 7.56309 40.0804C7.71953 39.7029 7.94881 39.3599 8.23784 39.0711Z" fill="url(#paint16_linear_564_4830)"/>
<path d="M8.23784 39.0711C8.52669 38.782 8.86966 38.5528 9.24715 38.3963C9.62464 38.2399 10.0293 38.1594 10.4379 38.1594C10.8465 38.1594 11.2511 38.2399 11.6286 38.3963C12.0061 38.5528 12.3491 38.782 12.6379 39.0711L19.9679 46.4031C20.5246 46.9914 20.8299 47.7737 20.8188 48.5835C20.8077 49.3934 20.4812 50.167 19.9086 50.7398C19.336 51.3127 18.5626 51.6396 17.7528 51.651C16.9429 51.6625 16.1605 51.3576 15.572 50.8011L8.23784 43.4711C7.94881 43.1823 7.71953 42.8393 7.56309 42.4618C7.40666 42.0843 7.32614 41.6797 7.32614 41.2711C7.32614 40.8625 7.40666 40.4579 7.56309 40.0804C7.71953 39.7029 7.94881 39.3599 8.23784 39.0711Z" fill="url(#paint17_radial_564_4830)"/>
<path d="M8.23784 39.0711C8.52669 38.782 8.86966 38.5528 9.24715 38.3963C9.62464 38.2399 10.0293 38.1594 10.4379 38.1594C10.8465 38.1594 11.2511 38.2399 11.6286 38.3963C12.0061 38.5528 12.3491 38.782 12.6379 39.0711L19.9679 46.4031C20.5246 46.9914 20.8299 47.7737 20.8188 48.5835C20.8077 49.3934 20.4812 50.167 19.9086 50.7398C19.336 51.3127 18.5626 51.6396 17.7528 51.651C16.9429 51.6625 16.1605 51.3576 15.572 50.8011L8.23784 43.4711C7.94881 43.1823 7.71953 42.8393 7.56309 42.4618C7.40666 42.0843 7.32614 41.6797 7.32614 41.2711C7.32614 40.8625 7.40666 40.4579 7.56309 40.0804C7.71953 39.7029 7.94881 39.3599 8.23784 39.0711Z" fill="url(#paint18_radial_564_4830)"/>
<path d="M56.1646 1.51409C54.201 -0.449565 50.7568 -0.227695 48.2478 0.634901C46.3548 1.28363 44.4783 1.97987 42.6202 2.72296C42.5885 2.73568 42.5604 2.75604 42.5385 2.78223C42.5165 2.80842 42.5014 2.83963 42.4944 2.87307C42.4875 2.90652 42.4889 2.94117 42.4985 2.97395C42.5082 3.00673 42.5257 3.03662 42.5497 3.06095L54.597 15.1891C54.6213 15.2127 54.6509 15.23 54.6833 15.2395C54.7157 15.2491 54.75 15.2505 54.7831 15.2438C54.8162 15.237 54.8472 15.2223 54.8733 15.2008C54.8994 15.1794 54.9199 15.1519 54.933 15.1207C55.6854 13.243 56.3899 11.3465 57.0459 9.43297C57.8961 6.95715 58.5803 3.92977 56.1646 1.51409Z" fill="url(#paint19_linear_564_4830)"/>
<path d="M56.1646 1.51409C54.201 -0.449565 50.7568 -0.227695 48.2478 0.634901C46.3548 1.28363 44.4783 1.97987 42.6202 2.72296C42.5885 2.73568 42.5604 2.75604 42.5385 2.78223C42.5165 2.80842 42.5014 2.83963 42.4944 2.87307C42.4875 2.90652 42.4889 2.94117 42.4985 2.97395C42.5082 3.00673 42.5257 3.03662 42.5497 3.06095L54.597 15.1891C54.6213 15.2127 54.6509 15.23 54.6833 15.2395C54.7157 15.2491 54.75 15.2505 54.7831 15.2438C54.8162 15.237 54.8472 15.2223 54.8733 15.2008C54.8994 15.1794 54.9199 15.1519 54.933 15.1207C55.6854 13.243 56.3899 11.3465 57.0459 9.43297C57.8961 6.95715 58.5803 3.92977 56.1646 1.51409Z" fill="url(#paint20_radial_564_4830)"/>
<path d="M56.1646 1.51409C54.201 -0.449565 50.7568 -0.227695 48.2478 0.634901C46.3548 1.28363 44.4783 1.97987 42.6202 2.72296C42.5885 2.73568 42.5604 2.75604 42.5385 2.78223C42.5165 2.80842 42.5014 2.83963 42.4944 2.87307C42.4875 2.90652 42.4889 2.94117 42.4985 2.97395C42.5082 3.00673 42.5257 3.03662 42.5497 3.06095L54.597 15.1891C54.6213 15.2127 54.6509 15.23 54.6833 15.2395C54.7157 15.2491 54.75 15.2505 54.7831 15.2438C54.8162 15.237 54.8472 15.2223 54.8733 15.2008C54.8994 15.1794 54.9199 15.1519 54.933 15.1207C55.6854 13.243 56.3899 11.3465 57.0459 9.43297C57.8961 6.95715 58.5803 3.92977 56.1646 1.51409Z" fill="url(#paint21_linear_564_4830)"/>
<path d="M23.833 30.2279C26.3213 29.3114 28.7411 31.7312 27.8246 34.2216L22.3961 48.9728C22.276 49.2996 22.0755 49.5909 21.8132 49.8199C21.5509 50.0488 21.2352 50.2081 20.8951 50.2828C20.555 50.3576 20.2016 50.3456 19.8675 50.2478C19.5333 50.15 19.2291 49.9697 18.983 49.7234L8.3291 39.0695C8.0833 38.8234 7.90337 38.5193 7.80588 38.1854C7.70839 37.8515 7.69648 37.4984 7.77124 37.1587C7.84601 36.8189 8.00504 36.5035 8.2337 36.2413C8.46236 35.9792 8.7533 35.7788 9.07973 35.6585L23.833 30.2279Z" fill="url(#paint22_linear_564_4830)"/>
<path d="M23.833 30.2279C26.3213 29.3114 28.7411 31.7312 27.8246 34.2216L22.3961 48.9728C22.276 49.2996 22.0755 49.5909 21.8132 49.8199C21.5509 50.0488 21.2352 50.2081 20.8951 50.2828C20.555 50.3576 20.2016 50.3456 19.8675 50.2478C19.5333 50.15 19.2291 49.9697 18.983 49.7234L8.3291 39.0695C8.0833 38.8234 7.90337 38.5193 7.80588 38.1854C7.70839 37.8515 7.69648 37.4984 7.77124 37.1587C7.84601 36.8189 8.00504 36.5035 8.2337 36.2413C8.46236 35.9792 8.7533 35.7788 9.07973 35.6585L23.833 30.2279Z" fill="url(#paint23_radial_564_4830)"/>
<path d="M23.833 30.2279C26.3213 29.3114 28.7411 31.7312 27.8246 34.2216L22.3961 48.9728C22.276 49.2996 22.0755 49.5909 21.8132 49.8199C21.5509 50.0488 21.2352 50.2081 20.8951 50.2828C20.555 50.3576 20.2016 50.3456 19.8675 50.2478C19.5333 50.15 19.2291 49.9697 18.983 49.7234L8.3291 39.0695C8.0833 38.8234 7.90337 38.5193 7.80588 38.1854C7.70839 37.8515 7.69648 37.4984 7.77124 37.1587C7.84601 36.8189 8.00504 36.5035 8.2337 36.2413C8.46236 35.9792 8.7533 35.7788 9.07973 35.6585L23.833 30.2279Z" fill="url(#paint24_radial_564_4830)"/>
<path d="M23.833 30.2279C26.3213 29.3114 28.7411 31.7312 27.8246 34.2216L22.3961 48.9728C22.276 49.2996 22.0755 49.5909 21.8132 49.8199C21.5509 50.0488 21.2352 50.2081 20.8951 50.2828C20.555 50.3576 20.2016 50.3456 19.8675 50.2478C19.5333 50.15 19.2291 49.9697 18.983 49.7234L8.3291 39.0695C8.0833 38.8234 7.90337 38.5193 7.80588 38.1854C7.70839 37.8515 7.69648 37.4984 7.77124 37.1587C7.84601 36.8189 8.00504 36.5035 8.2337 36.2413C8.46236 35.9792 8.7533 35.7788 9.07973 35.6585L23.833 30.2279Z" fill="url(#paint25_radial_564_4830)"/>
<g filter="url(#filter3_f_564_4830)">
<path d="M14.7544 41.2796L26.4181 32.1415L18.9015 45.491L14.7544 41.2796Z" fill="url(#paint26_linear_564_4830)"/>
</g>
</g>
<defs>
<filter id="filter0_i_564_4830" x="8.5301" y="2.30778" width="46.2167" height="46.5414" filterUnits="userSpaceOnUse" color-interpolation-filters="sRGB">
<feFlood flood-opacity="0" result="BackgroundImageFix"/>
<feBlend mode="normal" in="SourceGraphic" in2="BackgroundImageFix" result="shape"/>
<feColorMatrix in="SourceAlpha" type="matrix" values="0 0 0 0 0 0 0 0 0 0 0 0 0 0 0 0 0 0 127 0" result="hardAlpha"/>
<feOffset dx="-0.294643" dy="-0.589286"/>
<feGaussianBlur stdDeviation="0.883929"/>
<feComposite in2="hardAlpha" operator="arithmetic" k2="-1" k3="1"/>
<feColorMatrix type="matrix" values="0 0 0 0 0.745098 0 0 0 0 0.772549 0 0 0 0 0.952941 0 0 0 1 0"/>
<feBlend mode="normal" in2="shape" result="effect1_innerShadow_564_4830"/>
</filter>
<filter id="filter1_dii_564_4830" x="31.3557" y="10.7618" width="16.3034" height="16.3039" filterUnits="userSpaceOnUse" color-interpolation-filters="sRGB">
<feFlood flood-opacity="0" result="BackgroundImageFix"/>
<feColorMatrix in="SourceAlpha" type="matrix" values="0 0 0 0 0 0 0 0 0 0 0 0 0 0 0 0 0 0 127 0" result="hardAlpha"/>
<feOffset dy="0.294643"/>
<feGaussianBlur stdDeviation="0.589286"/>
<feComposite in2="hardAlpha" operator="out"/>
<feColorMatrix type="matrix" values="0 0 0 0 0.866667 0 0 0 0 0.764706 0 0 0 0 0.847059 0 0 0 1 0"/>
<feBlend mode="normal" in2="BackgroundImageFix" result="effect1_dropShadow_564_4830"/>
<feBlend mode="normal" in="SourceGraphic" in2="effect1_dropShadow_564_4830" result="shape"/>
<feColorMatrix in="SourceAlpha" type="matrix" values="0 0 0 0 0 0 0 0 0 0 0 0 0 0 0 0 0 0 127 0" result="hardAlpha"/>
<feOffset dx="-0.117857" dy="0.117857"/>
<feGaussianBlur stdDeviation="0.0589286"/>
<feComposite in2="hardAlpha" operator="arithmetic" k2="-1" k3="1"/>
<feColorMatrix type="matrix" values="0 0 0 0 0.721569 0 0 0 0 0.690196 0 0 0 0 0.701961 0 0 0 1 0"/>
<feBlend mode="normal" in2="shape" result="effect2_innerShadow_564_4830"/>
<feColorMatrix in="SourceAlpha" type="matrix" values="0 0 0 0 0 0 0 0 0 0 0 0 0 0 0 0 0 0 127 0" result="hardAlpha"/>
<feOffset dx="0.117857" dy="-0.117857"/>
<feGaussianBlur stdDeviation="0.0589286"/>
<feComposite in2="hardAlpha" operator="arithmetic" k2="-1" k3="1"/>
<feColorMatrix type="matrix" values="0 0 0 0 0.615686 0 0 0 0 0.560784 0 0 0 0 0.65098 0 0 0 1 0"/>
<feBlend mode="normal" in2="effect2_innerShadow_564_4830" result="effect3_innerShadow_564_4830"/>
</filter>
<filter id="filter2_i_564_4830" x="0" y="42.2128" width="15.7048" height="14.7872" filterUnits="userSpaceOnUse" color-interpolation-filters="sRGB">
<feFlood flood-opacity="0" result="BackgroundImageFix"/>
<feBlend mode="normal" in="SourceGraphic" in2="BackgroundImageFix" result="shape"/>
<feColorMatrix in="SourceAlpha" type="matrix" values="0 0 0 0 0 0 0 0 0 0 0 0 0 0 0 0 0 0 127 0" result="hardAlpha"/>
<feOffset dy="-0.235714"/>
<feGaussianBlur stdDeviation="0.235714"/>
<feComposite in2="hardAlpha" operator="arithmetic" k2="-1" k3="1"/>
<feColorMatrix type="matrix" values="0 0 0 0 0.847059 0 0 0 0 0.505882 0 0 0 0 0.360784 0 0 0 1 0"/>
<feBlend mode="normal" in2="shape" result="effect1_innerShadow_564_4830"/>
</filter>
<filter id="filter3_f_564_4830" x="13.5695" y="30.9566" width="14.0335" height="15.7192" filterUnits="userSpaceOnUse" color-interpolation-filters="sRGB">
<feFlood flood-opacity="0" result="BackgroundImageFix"/>
<feBlend mode="normal" in="SourceGraphic" in2="BackgroundImageFix" result="shape"/>
<feGaussianBlur stdDeviation="0.589286" result="effect1_foregroundBlur_564_4830"/>
</filter>
<linearGradient id="paint0_linear_564_4830" x1="12.4905" y1="31.4513" x2="2.12275" y2="29.7427" gradientUnits="userSpaceOnUse">
<stop stop-color="#EE2452"/>
<stop offset="1" stop-color="#F63E7A"/>
</linearGradient>
<radialGradient id="paint1_radial_564_4830" cx="0" cy="0" r="1" gradientUnits="userSpaceOnUse" gradientTransform="translate(0.644313 30.9433) rotate(-19.9576) scale(16.5919 2.82096)">
<stop offset="0.164" stop-color="#FF8DB0"/>
<stop offset="1" stop-color="#FF8DB0" stop-opacity="0"/>
</radialGradient>
<linearGradient id="paint2_linear_564_4830" x1="5.8427" y1="36.4797" x2="7.53264" y2="34.8312" gradientUnits="userSpaceOnUse">
<stop offset="0.491" stop-color="#DD467C"/>
<stop offset="1" stop-color="#DD467C" stop-opacity="0"/>
</linearGradient>
<linearGradient id="paint3_linear_564_4830" x1="32.77" y1="40.5003" x2="19.8767" y2="50.6171" gradientUnits="userSpaceOnUse">
<stop stop-color="#F83267"/>
<stop offset="1" stop-color="#FF3190"/>
</linearGradient>
<radialGradient id="paint4_radial_564_4830" cx="0" cy="0" r="1" gradientUnits="userSpaceOnUse" gradientTransform="translate(25.9014 41.6006) rotate(86.482) scale(15.84 13.6565)">
<stop offset="0.757" stop-color="#E76CBE" stop-opacity="0"/>
<stop offset="0.951" stop-color="#E76CBE"/>
</radialGradient>
<radialGradient id="paint5_radial_564_4830" cx="0" cy="0" r="1" gradientUnits="userSpaceOnUse" gradientTransform="translate(23.5676 49.9598) rotate(-57.346) scale(10.9287 4.80041)">
<stop stop-color="#FF5898"/>
<stop offset="1" stop-color="#FF5898" stop-opacity="0"/>
</radialGradient>
<linearGradient id="paint6_linear_564_4830" x1="23.6335" y1="13.5428" x2="41.9056" y2="31.9456" gradientUnits="userSpaceOnUse">
<stop stop-color="#CCBBC0"/>
<stop offset="1" stop-color="#EAD2EC"/>
</linearGradient>
<radialGradient id="paint7_radial_564_4830" cx="0" cy="0" r="1" gradientUnits="userSpaceOnUse" gradientTransform="translate(45.3726 40.302) rotate(-142.447) scale(34.5804 65.0022)">
<stop offset="0.811" stop-color="#E7E5E5" stop-opacity="0"/>
<stop offset="1" stop-color="#E7E5E5"/>
</radialGradient>
<radialGradient id="paint8_radial_564_4830" cx="0" cy="0" r="1" gradientUnits="userSpaceOnUse" gradientTransform="translate(14.7069 39.7484) rotate(-56.929) scale(20.3287 9.55429)">
<stop offset="0.281" stop-color="#B5A3A5"/>
<stop offset="1" stop-color="#B5A3A5" stop-opacity="0"/>
</radialGradient>
<radialGradient id="paint9_radial_564_4830" cx="0" cy="0" r="1" gradientUnits="userSpaceOnUse" gradientTransform="translate(8.82492 37.2202) rotate(-73.625) scale(18.0216 3.05371)">
<stop offset="0.208" stop-color="#B28F96"/>
<stop offset="1" stop-color="#B28F96" stop-opacity="0"/>
</radialGradient>
<radialGradient id="paint10_radial_564_4830" cx="0" cy="0" r="1" gradientUnits="userSpaceOnUse" gradientTransform="translate(51.8836 10.304) rotate(137.284) scale(27.319 8.48224)">
<stop stop-color="#FAECF1"/>
<stop offset="1" stop-color="#FAECF1" stop-opacity="0"/>
</radialGradient>
<linearGradient id="paint11_linear_564_4830" x1="32.5416" y1="17.3134" x2="46.4738" y2="18.4974" gradientUnits="userSpaceOnUse">
<stop stop-color="#A796A0"/>
<stop offset="1" stop-color="#A5959F"/>
</linearGradient>
<radialGradient id="paint12_radial_564_4830" cx="0" cy="0" r="1" gradientUnits="userSpaceOnUse" gradientTransform="translate(39.5108 18.4974) rotate(90) scale(6.96584)">
<stop offset="0.587" stop-color="#93859B"/>
<stop offset="1" stop-color="#93859B" stop-opacity="0"/>
</radialGradient>
<radialGradient id="paint13_radial_564_4830" cx="0" cy="0" r="1" gradientUnits="userSpaceOnUse" gradientTransform="translate(39.5049 23.3202) rotate(-90) scale(10.0476 9.24027)">
<stop stop-color="#72CDFF"/>
<stop offset="0.738" stop-color="#66ACFF"/>
<stop offset="1" stop-color="#3B57F4"/>
</radialGradient>
<radialGradient id="paint14_radial_564_4830" cx="0" cy="0" r="1" gradientUnits="userSpaceOnUse" gradientTransform="translate(12.6562 45.8373) rotate(135) scale(12.04 9.46369)">
<stop stop-color="#D46213"/>
<stop offset="1" stop-color="#FF9542"/>
</radialGradient>
<radialGradient id="paint15_radial_564_4830" cx="0" cy="0" r="1" gradientUnits="userSpaceOnUse" gradientTransform="translate(12.8905 55.6306) rotate(-131.186) scale(14.8767 15.6776)">
<stop offset="0.871" stop-color="#FFC484" stop-opacity="0"/>
<stop offset="1" stop-color="#FFC484"/>
</radialGradient>
<linearGradient id="paint16_linear_564_4830" x1="7.69457" y1="41.0845" x2="19.0991" y2="52.2941" gradientUnits="userSpaceOnUse">
<stop stop-color="#452860"/>
<stop offset="1" stop-color="#51509F"/>
</linearGradient>
<radialGradient id="paint17_radial_564_4830" cx="0" cy="0" r="1" gradientUnits="userSpaceOnUse" gradientTransform="translate(9.83447 40.0477) rotate(77.8285) scale(3.38071 2.98695)">
<stop stop-color="#8E839A"/>
<stop offset="1" stop-color="#8E839A" stop-opacity="0"/>
</radialGradient>
<radialGradient id="paint18_radial_564_4830" cx="0" cy="0" r="1" gradientUnits="userSpaceOnUse" gradientTransform="translate(10.6162 42.0487) rotate(47.9357) scale(12.8815 6.75223)">
<stop offset="0.86" stop-color="#6175B9" stop-opacity="0"/>
<stop offset="1" stop-color="#6175B9"/>
</radialGradient>
<linearGradient id="paint19_linear_564_4830" x1="56.175" y1="1.52445" x2="48.5527" y2="9.14682" gradientUnits="userSpaceOnUse">
<stop stop-color="#FF3745"/>
<stop offset="1" stop-color="#ED224B"/>
</linearGradient>
<radialGradient id="paint20_radial_564_4830" cx="0" cy="0" r="1" gradientUnits="userSpaceOnUse" gradientTransform="translate(55.2667 4.57657) rotate(135) scale(17.1001 4.105)">
<stop offset="0.189" stop-color="#FF5971"/>
<stop offset="1" stop-color="#FF5971" stop-opacity="0"/>
</radialGradient>
<linearGradient id="paint21_linear_564_4830" x1="49.2183" y1="9.65484" x2="49.9793" y2="8.86067" gradientUnits="userSpaceOnUse">
<stop stop-color="#D2575E"/>
<stop offset="1" stop-color="#F93251" stop-opacity="0"/>
</linearGradient>
<linearGradient id="paint22_linear_564_4830" x1="27.1051" y1="30.9474" x2="13.656" y2="44.3965" gradientUnits="userSpaceOnUse">
<stop stop-color="#FF2644"/>
<stop offset="1" stop-color="#FF2982"/>
</linearGradient>
<radialGradient id="paint23_radial_564_4830" cx="0" cy="0" r="1" gradientUnits="userSpaceOnUse" gradientTransform="translate(8.60074 35.8348) rotate(-20.865) scale(15.4641 4.04838)">
<stop stop-color="#FF95AF"/>
<stop offset="1" stop-color="#FF95AF" stop-opacity="0"/>
</radialGradient>
<radialGradient id="paint24_radial_564_4830" cx="0" cy="0" r="1" gradientUnits="userSpaceOnUse" gradientTransform="translate(6.8631 37.672) rotate(44.7044) scale(9.5595 2.82379)">
<stop offset="0.382" stop-color="#E14678"/>
<stop offset="1" stop-color="#E14678" stop-opacity="0"/>
</radialGradient>
<radialGradient id="paint25_radial_564_4830" cx="0" cy="0" r="1" gradientUnits="userSpaceOnUse" gradientTransform="translate(19.6818 35.25) rotate(84.6743) scale(15.3587 16.367)">
<stop offset="0.832" stop-color="#E67BC7" stop-opacity="0"/>
<stop offset="1" stop-color="#E67BC7"/>
</radialGradient>
<linearGradient id="paint26_linear_564_4830" x1="24.668" y1="33.114" x2="16.1146" y2="42.0572" gradientUnits="userSpaceOnUse">
<stop stop-color="#FF5970"/>
<stop offset="1" stop-color="#FF5794"/>
</linearGradient>
</defs>
</svg>
