<svg width="60" height="60" viewBox="0 0 60 60" fill="none" xmlns="http://www.w3.org/2000/svg">
<path d="M25.3125 6.5625C23.2414 6.5625 21.5625 8.24143 21.5625 10.3125V12.1875H8.4375C6.36643 12.1875 4.6875 13.8664 4.6875 15.9375V51.5625C4.6875 53.6336 6.36643 55.3125 8.4375 55.3125H50.625C52.6961 55.3125 54.375 53.6336 54.375 51.5625V42.0454C55.0501 41.8352 55.6647 41.392 56.085 40.7156L56.6372 39.827C56.8899 39.4204 57.2329 39.0774 57.6395 38.8247L58.5281 38.2725C60.4906 37.053 60.4906 34.197 58.5281 32.9775L57.6395 32.4253C57.2329 32.1726 56.8899 31.8296 56.6372 31.423L56.085 30.5344C55.6647 29.858 55.0501 29.4148 54.375 29.2046V15.9375C54.375 13.8664 52.6961 12.1875 50.625 12.1875H39.375V10.3125C39.375 8.24143 37.6961 6.5625 35.625 6.5625H25.3125Z" fill="#050505"/>
<path d="M4.26335 1.53584C4.59131 0.738053 5.72119 0.738054 6.04915 1.53584L6.69056 3.09609C6.78859 3.33455 6.97793 3.52389 7.2164 3.62192L8.77666 4.26332C9.57445 4.59129 9.57445 5.72116 8.77666 6.04912L7.2164 6.69052C6.97793 6.78855 6.78859 6.97789 6.69056 7.21635L6.04915 8.7766C5.72119 9.57439 4.59131 9.57439 4.26335 8.7766L3.62194 7.21635C3.52391 6.97789 3.33457 6.78855 3.0961 6.69052L1.53584 6.04912C0.738052 5.72116 0.738052 4.59129 1.53584 4.26332L3.0961 3.62192C3.33457 3.52389 3.52391 3.33455 3.62194 3.09609L4.26335 1.53584Z" fill="#050505"/>
<path d="M53.9291 4.36293C54.265 3.54569 55.4225 3.54569 55.7584 4.36293L55.8393 4.55956C55.9397 4.80383 56.1337 4.9978 56.3779 5.09822L56.5746 5.17905C57.3918 5.51501 57.3918 6.67243 56.5746 7.00839L56.3779 7.08922C56.1337 7.18964 55.9397 7.38361 55.8393 7.62788L55.7584 7.82451C55.4225 8.64175 54.265 8.64175 53.9291 7.82451L53.8482 7.62788C53.7478 7.38361 53.5538 7.18964 53.3096 7.08922L53.1129 7.00839C52.2957 6.67243 52.2957 5.51501 53.1129 5.17905L53.3096 5.09822C53.5538 4.9978 53.7478 4.80383 53.8482 4.55956L53.9291 4.36293Z" fill="#050505"/>
<path fill-rule="evenodd" clip-rule="evenodd" d="M13.125 51.5625V23.4375H52.5V29.0625H48.75C47.7311 29.0625 46.7122 29.5531 46.1025 30.5344L45.5503 31.423C45.2976 31.8296 44.9546 32.1726 44.548 32.4253L43.6594 32.9775C41.6969 34.197 41.6969 37.053 43.6594 38.2725L44.548 38.8247C44.9546 39.0774 45.2976 39.4204 45.5503 39.827L46.1025 40.7156C46.7122 41.6969 47.7311 42.1875 48.75 42.1875H52.5V51.5625C52.5 52.598 51.6605 53.4375 50.625 53.4375H15C13.9645 53.4375 13.125 52.598 13.125 51.5625ZM18.75 30.9375C18.75 29.902 19.5895 29.0625 20.625 29.0625H35.625C36.6605 29.0625 37.5 29.902 37.5 30.9375V45C37.5 46.0355 36.6605 46.875 35.625 46.875H20.625C19.5895 46.875 18.75 46.0355 18.75 45V30.9375Z" fill="#279B48"/>
<path d="M25 41.25H31.25C33.454 41.25 35.2774 42.8798 35.5807 45H20.6693C20.9726 42.8798 22.796 41.25 25 41.25Z" fill="white"/>
<path d="M30.9375 35.625C30.9375 37.1783 29.6783 38.4375 28.125 38.4375C26.5717 38.4375 25.3125 37.1783 25.3125 35.625C25.3125 34.0717 26.5717 32.8125 28.125 32.8125C29.6783 32.8125 30.9375 34.0717 30.9375 35.625Z" fill="white"/>
<path d="M54.4954 31.5256L55.0471 32.4133C55.451 33.0633 55.9992 33.6115 56.6492 34.0154L57.5369 34.5671C58.321 35.0544 58.3211 36.1956 57.5369 36.6829L56.6492 37.2346C55.9992 37.6385 55.451 38.1867 55.0471 38.8367L54.4954 39.7244C54.0081 40.5085 52.8669 40.5086 52.3796 39.7244L51.8279 38.8367C51.424 38.1867 50.8758 37.6385 50.2258 37.2346L49.3381 36.6829C48.554 36.1956 48.5539 35.0544 49.3381 34.5671L50.2258 34.0154C50.8758 33.6115 51.424 33.0633 51.8279 32.4133L52.3796 31.5256C52.8669 30.7415 54.0081 30.7414 54.4954 31.5256Z" fill="white"/>
<path d="M25.3125 14.0625H15C13.9645 14.0625 13.125 14.902 13.125 15.9375V21.5625H52.5V15.9375C52.5 14.902 51.6605 14.0625 50.625 14.0625H39.375V15C39.375 16.5533 38.1158 17.8125 36.5625 17.8125H28.125C26.5717 17.8125 25.3125 16.5533 25.3125 15V14.0625Z" fill="white"/>
<path d="M30.9375 8.4375H35.625C36.6605 8.4375 37.5 9.27697 37.5 10.3125V15C37.5 15.5178 37.0803 15.9375 36.5625 15.9375H30C29.4822 15.9375 29.0625 15.5178 29.0625 15V10.3125C29.0625 9.27697 29.902 8.4375 30.9375 8.4375Z" fill="white"/>
</svg>
