<svg width="24" height="22" viewBox="0 0 24 22" fill="none" xmlns="http://www.w3.org/2000/svg">
<path d="M12 10.9091C11.3527 10.9091 10.72 11.101 10.1818 11.4606C9.64357 11.8203 9.2241 12.3314 8.97639 12.9294C8.72869 13.5274 8.66388 14.1854 8.79016 14.8203C8.91644 15.4551 9.22813 16.0383 9.68583 16.496C10.1435 16.9537 10.7267 17.2654 11.3615 17.3917C11.9964 17.5179 12.6544 17.4531 13.2524 17.2054C13.8504 16.9577 14.3616 16.5382 14.7212 16C15.0808 15.4619 15.2727 14.8291 15.2727 14.1818C15.2727 13.3138 14.9279 12.4814 14.3142 11.8677C13.7004 11.2539 12.868 10.9091 12 10.9091ZM12 15.2727C11.7842 15.2727 11.5733 15.2087 11.3939 15.0889C11.2145 14.969 11.0747 14.7986 10.9921 14.5993C10.9096 14.4 10.888 14.1806 10.9301 13.969C10.9721 13.7574 11.076 13.563 11.2286 13.4104C11.3812 13.2579 11.5756 13.154 11.7872 13.1119C11.9988 13.0698 12.2181 13.0914 12.4175 13.174C12.6168 13.2565 12.7872 13.3963 12.9071 13.5757C13.0269 13.7551 13.0909 13.9661 13.0909 14.1818C13.0909 14.4711 12.976 14.7486 12.7714 14.9532C12.5668 15.1578 12.2893 15.2727 12 15.2727ZM11.2255 8.41091C11.3292 8.51023 11.4515 8.58808 11.5855 8.64C11.716 8.69771 11.8572 8.72753 12 8.72753C12.1428 8.72753 12.284 8.69771 12.4145 8.64C12.5485 8.58808 12.6708 8.51023 12.7745 8.41091L15.2727 5.95636C15.4839 5.74515 15.6026 5.45869 15.6026 5.16C15.6026 4.86131 15.4839 4.57485 15.2727 4.36364C15.0615 4.15243 14.7751 4.03377 14.4764 4.03377C14.1777 4.03377 13.8912 4.15243 13.68 4.36364L13.0909 5.00727V1.09091C13.0909 0.801582 12.976 0.524105 12.7714 0.31952C12.5668 0.114935 12.2893 0 12 0C11.7107 0 11.4332 0.114935 11.2286 0.31952C11.024 0.524105 10.9091 0.801582 10.9091 1.09091V5.00727L10.32 4.36364C10.1088 4.15243 9.82233 4.03377 9.52364 4.03377C9.22494 4.03377 8.93848 4.15243 8.72727 4.36364C8.51606 4.57485 8.39741 4.86131 8.39741 5.16C8.39741 5.45869 8.51606 5.74515 8.72727 5.95636L11.2255 8.41091ZM19.6364 14.1818C19.6364 13.9661 19.5724 13.7551 19.4525 13.5757C19.3326 13.3963 19.1623 13.2565 18.9629 13.174C18.7636 13.0914 18.5442 13.0698 18.3326 13.1119C18.121 13.154 17.9266 13.2579 17.7741 13.4104C17.6215 13.563 17.5176 13.7574 17.4755 13.969C17.4334 14.1806 17.455 14.4 17.5376 14.5993C17.6202 14.7986 17.76 14.969 17.9394 15.0889C18.1188 15.2087 18.3297 15.2727 18.5455 15.2727C18.8348 15.2727 19.1123 15.1578 19.3168 14.9532C19.5214 14.7486 19.6364 14.4711 19.6364 14.1818ZM20.7273 6.54545H17.4545C17.1652 6.54545 16.8877 6.66039 16.6832 6.86497C16.4786 7.06956 16.3636 7.34704 16.3636 7.63636C16.3636 7.92569 16.4786 8.20317 16.6832 8.40775C16.8877 8.61234 17.1652 8.72727 17.4545 8.72727H20.7273C21.0166 8.72727 21.2941 8.84221 21.4987 9.04679C21.7032 9.25138 21.8182 9.52886 21.8182 9.81818V18.5455C21.8182 18.8348 21.7032 19.1123 21.4987 19.3168C21.2941 19.5214 21.0166 19.6364 20.7273 19.6364H3.27273C2.9834 19.6364 2.70592 19.5214 2.50134 19.3168C2.29675 19.1123 2.18182 18.8348 2.18182 18.5455V9.81818C2.18182 9.52886 2.29675 9.25138 2.50134 9.04679C2.70592 8.84221 2.9834 8.72727 3.27273 8.72727H6.54545C6.83478 8.72727 7.11226 8.61234 7.31684 8.40775C7.52143 8.20317 7.63636 7.92569 7.63636 7.63636C7.63636 7.34704 7.52143 7.06956 7.31684 6.86497C7.11226 6.66039 6.83478 6.54545 6.54545 6.54545H3.27273C2.40475 6.54545 1.57232 6.89026 0.95856 7.50401C0.344804 8.11777 0 8.9502 0 9.81818V18.5455C0 19.4134 0.344804 20.2459 0.95856 20.8596C1.57232 21.4734 2.40475 21.8182 3.27273 21.8182H20.7273C21.5953 21.8182 22.4277 21.4734 23.0414 20.8596C23.6552 20.2459 24 19.4134 24 18.5455V9.81818C24 8.9502 23.6552 8.11777 23.0414 7.50401C22.4277 6.89026 21.5953 6.54545 20.7273 6.54545ZM4.36364 14.1818C4.36364 14.3976 4.42762 14.6085 4.54749 14.7879C4.66736 14.9673 4.83774 15.1071 5.03707 15.1897C5.23641 15.2723 5.45576 15.2939 5.66737 15.2518C5.87899 15.2097 6.07337 15.1058 6.22593 14.9532C6.3785 14.8006 6.4824 14.6063 6.52449 14.3946C6.56659 14.183 6.54498 13.9637 6.46241 13.7643C6.37985 13.565 6.24002 13.3946 6.06062 13.2748C5.88122 13.1549 5.67031 13.0909 5.45455 13.0909C5.16522 13.0909 4.88774 13.2058 4.68316 13.4104C4.47857 13.615 4.36364 13.8925 4.36364 14.1818Z" fill="white"/>
</svg>
