<svg width="30" height="30" viewBox="0 0 30 30" fill="none" xmlns="http://www.w3.org/2000/svg">
<path d="M15.9332 15L12.7716 18.1794C12.5071 18.4203 12.3748 18.7147 12.3748 19.0625C12.3748 19.4103 12.5055 19.6943 12.7669 19.9144C12.9901 20.1789 13.2736 20.3112 13.6172 20.3112C13.9609 20.3112 14.2691 20.1789 14.5419 19.9144L18.565 15.8872C18.8087 15.657 18.9305 15.3636 18.9305 15.0069C18.9305 14.6503 18.8087 14.3418 18.565 14.0815L14.5243 10.0231C14.2678 9.79123 13.9666 9.67755 13.6206 9.68207C13.2747 9.68659 12.9899 9.8048 12.7661 10.0367C12.5053 10.2894 12.3748 10.5867 12.3748 10.9287C12.3748 11.2706 12.5071 11.5575 12.7716 11.7894L15.9332 15ZM14.9985 28.0883C13.2143 28.0883 11.5153 27.7468 9.9015 27.0638C8.28767 26.3808 6.88861 25.4472 5.70434 24.2629C4.52007 23.0786 3.59164 21.6872 2.91903 20.0885C2.24645 18.4899 1.91016 16.7946 1.91016 15.0024C1.91016 13.1917 2.24706 11.4901 2.92087 9.89773C3.59471 8.30533 4.52659 6.91386 5.71653 5.72329C6.90649 4.53273 8.30553 3.59688 9.91366 2.91573C11.5218 2.2346 13.2193 1.89404 15.0061 1.89404C16.8005 1.89404 18.4895 2.23416 20.073 2.91439C21.6566 3.59462 23.0438 4.52936 24.2348 5.71864C25.4257 6.90791 26.3684 8.30069 27.0628 9.89698C27.7572 11.4933 28.1044 13.1999 28.1044 15.0169C28.1044 16.8123 27.7576 18.5052 27.0638 20.0954C26.3701 21.6856 25.429 23.0732 24.2407 24.2582C23.0523 25.4431 21.6642 26.3777 20.0763 27.0619C18.4884 27.7462 16.7958 28.0884 14.9985 28.0884V28.0883Z" fill="white"/>
<path d="M16.2644 14.9901L12.7545 11.4683C12.5781 11.2998 12.4935 11.0992 12.5004 10.8664C12.5073 10.6336 12.599 10.4291 12.7753 10.2527C12.9299 10.0842 13.1305 10 13.3772 10C13.6239 10 13.8315 10.0842 13.9999 10.2527L18.1222 14.375C18.1995 14.4523 18.2649 14.5459 18.3183 14.6558C18.3718 14.7657 18.3985 14.8771 18.3985 14.9901C18.3985 15.109 18.3718 15.2235 18.3183 15.3334C18.2649 15.4433 18.1995 15.5369 18.1222 15.6142L13.9791 19.7573C13.8106 19.9258 13.6065 20.0065 13.3668 19.9996C13.1271 19.9926 12.9299 19.9049 12.7753 19.7364C12.599 19.5601 12.5108 19.3521 12.5108 19.1124C12.5108 18.8726 12.599 18.6685 12.7753 18.5L16.2644 14.9901Z" fill="black"/>
<path fill-rule="evenodd" clip-rule="evenodd" d="M13.3772 10.625C13.2902 10.625 13.262 10.6468 13.2358 10.6753L13.2268 10.6852L13.2173 10.6947C13.1448 10.7671 13.127 10.8234 13.1251 10.885C13.1237 10.9315 13.1312 10.9638 13.1863 11.0164L13.1918 11.0217L17.1463 14.9895L13.2129 18.9463L13.2071 18.9519C13.1518 19.0048 13.1358 19.0466 13.1358 19.1124C13.1358 19.179 13.1529 19.2301 13.2172 19.2945L13.2268 19.304L13.2358 19.3139C13.2702 19.3514 13.3047 19.3725 13.3849 19.3748C13.4539 19.3768 13.4912 19.3613 13.5371 19.3153L17.6803 15.1722C17.703 15.1495 17.7297 15.1148 17.7563 15.0601M12.3242 9.82007C12.606 9.51851 12.9754 9.375 13.3772 9.375C13.7831 9.375 14.1517 9.52055 14.4419 9.81079L18.5642 13.9331C18.696 14.0649 18.8001 14.2174 18.8804 14.3825C18.9718 14.5704 19.0235 14.7748 19.0235 14.9901C19.0235 15.2063 18.9741 15.414 18.8804 15.6067C18.8001 15.7718 18.696 15.9242 18.5642 16.0561L14.4211 20.1992C14.13 20.4903 13.7591 20.6362 13.3487 20.6243C12.9539 20.6129 12.5977 20.4619 12.3241 20.169C12.0417 19.8822 11.8858 19.5207 11.8858 19.1124C11.8858 18.7016 12.0439 18.3376 12.337 18.0544L15.3826 14.9906L12.3165 11.9143C12.0229 11.6307 11.8633 11.264 11.8757 10.8478C11.8876 10.4482 12.0495 10.0988 12.3242 9.82007ZM13.3772 10.625C13.4647 10.625 13.5113 10.6479 13.558 10.6947L13.3772 10.625ZM13.558 10.6947L17.6803 14.8169L13.558 10.6947ZM17.6803 14.8169C17.703 14.8397 17.7297 14.8744 17.7563 14.9291C17.7718 14.961 17.7735 14.9795 17.7735 14.9901C17.7735 15.0117 17.7695 15.0329 17.7563 15.0601" fill="black"/>
</svg>
