<svg width="15" height="15" viewBox="0 0 15 15" fill="none" xmlns="http://www.w3.org/2000/svg">
<path fill-rule="evenodd" clip-rule="evenodd" d="M6.75345 2.52786e-08C5.67456 0.000116847 4.6114 0.258686 3.65297 0.754061C2.69453 1.24944 1.86871 1.9672 1.24464 2.84728C0.620565 3.72735 0.216399 4.74412 0.0659734 5.81246C-0.0844522 6.88081 0.0232402 7.96965 0.380035 8.98783C0.73683 10.006 1.33235 10.9239 2.11673 11.6647C2.90111 12.4054 3.85154 12.9475 4.88845 13.2456C5.92535 13.5436 7.01857 13.5889 8.07657 13.3776C9.13458 13.1664 10.1266 12.7048 10.9696 12.0314L13.7275 14.7894C13.869 14.9261 14.0586 15.0017 14.2554 15C14.4522 14.9983 14.6404 14.9194 14.7795 14.7803C14.9187 14.6411 14.9976 14.4529 14.9993 14.2561C15.001 14.0593 14.9254 13.8698 14.7887 13.7282L12.0307 10.9703C12.8247 9.97657 13.3219 8.77885 13.4652 7.51498C13.6085 6.25111 13.392 4.97247 12.8406 3.82624C12.2892 2.68 11.4253 1.71277 10.3484 1.03586C9.27155 0.358953 8.02541 -0.000110001 6.75345 2.52786e-08ZM2.25066 6.75418C2.25066 6.16286 2.36713 5.57734 2.59342 5.03104C2.8197 4.48473 3.15138 3.98835 3.5695 3.57023C3.98762 3.15211 4.484 2.82043 5.03031 2.59415C5.57661 2.36786 6.16213 2.25139 6.75345 2.25139C7.34476 2.25139 7.93029 2.36786 8.47659 2.59415C9.02289 2.82043 9.51927 3.15211 9.9374 3.57023C10.3555 3.98835 10.6872 4.48473 10.9135 5.03104C11.1398 5.57734 11.2562 6.16286 11.2562 6.75418C11.2562 7.94839 10.7818 9.09369 9.9374 9.93813C9.09296 10.7826 7.94766 11.257 6.75345 11.257C5.55923 11.257 4.41393 10.7826 3.5695 9.93813C2.72506 9.09369 2.25066 7.94839 2.25066 6.75418Z" fill="#65676B"/>
</svg>
