<svg width="28" height="28" viewBox="0 0 28 28" fill="none" xmlns="http://www.w3.org/2000/svg">
<path d="M23.0332 13.0722V20.8892C23.0332 21.464 22.8215 21.9596 22.3982 22.3758C21.9749 22.7919 21.4708 23 20.8859 23H7.11519C6.52683 23 6.02575 22.7919 5.61194 22.3758C5.19814 21.9596 4.99123 21.464 4.99123 20.8892V13.1649C4.52443 12.6856 4.24435 12.1516 4.15099 11.5631C4.05763 10.9746 4.09653 10.4106 4.26769 9.87113L5.25264 6.74254C5.43625 6.1994 5.72204 5.7732 6.11 5.46392C6.49796 5.15464 6.974 5 7.53811 5H20.3665C20.9241 5 21.4146 5.16237 21.838 5.48711C22.2613 5.81186 22.5664 6.22938 22.7531 6.73969L23.7567 9.87113C23.9279 10.3969 23.9473 10.9459 23.8151 11.518C23.6828 12.0902 23.4222 12.6082 23.0332 13.0722ZM16.1133 12.0979C16.4854 12.0979 16.8137 11.9742 17.0982 11.7268C17.3827 11.4794 17.5016 11.1701 17.4549 10.799L16.8947 7.13402H14.8875V10.7758C14.8875 11.141 15.0028 11.4526 15.2333 11.7108C15.4639 11.9689 15.7572 12.0979 16.1133 12.0979ZM11.749 12.0979C12.1185 12.0979 12.4422 11.9727 12.7201 11.7224C12.998 11.4719 13.137 11.1564 13.137 10.7758V7.13402H11.153L10.5929 10.799C10.5306 11.1392 10.6084 11.4407 10.8263 11.7036C11.0441 11.9665 11.3517 12.0979 11.749 12.0979ZM7.51744 12.0979C7.825 12.0979 8.10326 11.982 8.35222 11.75C8.60118 11.518 8.74122 11.2397 8.77234 10.9149L9.37919 7.13402H7.37193L6.34496 10.3814C6.20492 10.8332 6.2516 11.2322 6.48501 11.5785C6.71841 11.9248 7.06255 12.0979 7.51744 12.0979ZM20.4782 12.0979C20.9212 12.0979 21.2671 11.9278 21.5161 11.5876C21.765 11.2474 21.8195 10.8454 21.6795 10.3814L20.6525 7.13402H18.6919L19.2521 10.9149C19.2676 11.2397 19.3952 11.518 19.6349 11.75C19.8745 11.982 20.1556 12.0979 20.4782 12.0979ZM7.11519 20.8892H20.8859V14.2088C20.9306 14.2242 20.899 14.2281 20.7911 14.2204C20.6831 14.2126 20.5814 14.2088 20.4859 14.2088C20.1768 14.2088 19.8395 14.143 19.4738 14.0116C19.1082 13.8802 18.7312 13.6675 18.3431 13.3737C18.0933 13.6366 17.7749 13.8415 17.3879 13.9884C17.0009 14.1353 16.5974 14.2088 16.1776 14.2088C15.7376 14.2088 15.3426 14.1508 14.9925 14.0348C14.6424 13.9188 14.3195 13.7448 14.0239 13.5129C13.7325 13.7286 13.4146 13.8985 13.0701 14.0226C12.7257 14.1467 12.3451 14.2088 11.9284 14.2088C11.4508 14.2088 11.0299 14.139 10.6658 13.9994C10.3017 13.8598 9.97394 13.6512 9.68261 13.3737C9.26249 13.683 8.85403 13.8995 8.45725 14.0232C8.06047 14.1469 7.74538 14.2088 7.51197 14.2088C7.40305 14.2088 7.31406 14.2126 7.24501 14.2204C7.17597 14.2281 7.1327 14.2242 7.11519 14.2088V20.8892Z" fill="#65676B"/>
</svg>
