<svg width="12" height="12" viewBox="0 0 12 12" fill="none" xmlns="http://www.w3.org/2000/svg">
<path d="M1.42745 12C1.04 12 0.705229 11.859 0.423137 11.5769C0.141046 11.2948 0 10.96 0 10.5725V1.44314C0 1.05137 0.141046 0.712904 0.423137 0.427749C0.705229 0.142583 1.04 0 1.42745 0H10.5569C10.9486 0 11.2871 0.142583 11.5723 0.427749C11.8574 0.712904 12 1.05137 12 1.44314V10.5725C12 10.96 11.8574 11.2948 11.5723 11.5769C11.2871 11.859 10.9486 12 10.5569 12H1.42745ZM1.42745 10.5725H10.5569V1.44314H1.42745V10.5725ZM2.69804 9.30196H9.31765C9.4536 9.30196 9.55556 9.23595 9.62353 9.10392C9.6915 8.9719 9.68366 8.84445 9.6 8.72157L7.82745 6.27451C7.75103 6.20131 7.65088 6.16209 7.527 6.15686C7.40312 6.15163 7.3098 6.19608 7.24706 6.2902L5.45882 8.56471L4.31373 6.96471C4.22684 6.87059 4.12146 6.82614 3.99758 6.83137C3.8737 6.8366 3.78039 6.88105 3.71765 6.96471L2.41569 8.72157C2.32157 8.84445 2.3085 8.9719 2.37647 9.10392C2.44444 9.23595 2.55163 9.30196 2.69804 9.30196Z" fill="#65676B"/>
</svg>
