<svg width="80" height="80" viewBox="0 0 80 80" fill="none" xmlns="http://www.w3.org/2000/svg">
<path d="M53.6974 40.0495C61.268 40.0495 67.4052 33.9123 67.4052 26.3416C67.4052 18.771 61.268 12.6338 53.6974 12.6338C46.1267 12.6338 39.9895 18.771 39.9895 26.3416C39.9895 33.9123 46.1267 40.0495 53.6974 40.0495Z" fill="#C9E8D2"/>
<path d="M53.6973 40.0502C61.2679 40.0502 67.4051 33.913 67.4051 26.3423C67.4051 20.486 63.7327 15.4874 58.5651 13.5239" stroke="#279B48" stroke-width="7" stroke-linecap="round" stroke-linejoin="round"/>
<path d="M72.4208 59.3061C79.126 63.772 74.5983 72.3853 66.542 72.3853H36.2883C28.232 72.3853 23.7043 63.772 30.4095 59.3061C36.424 55.3004 43.6469 52.9658 51.4152 52.9658C59.1834 52.9658 66.4064 55.3004 72.4208 59.3061Z" fill="#C9E8D2"/>
<path d="M30.6316 37.3326C38.8381 37.3326 45.4908 30.6799 45.4908 22.4734C45.4908 14.2669 38.8381 7.61426 30.6316 7.61426C22.4251 7.61426 15.7725 14.2669 15.7725 22.4734C15.7725 30.6799 22.4251 37.3326 30.6316 37.3326Z" fill="#C9E8D2" stroke="#279B48" stroke-width="7" stroke-linecap="round" stroke-linejoin="round"/>
<path d="M53.3917 58.2092C60.66 63.0502 55.752 72.3869 47.0191 72.3869H14.2244C5.49152 72.3869 0.583545 63.0502 7.85192 58.2092C14.3715 53.867 22.2011 51.3364 30.6218 51.3364C39.0425 51.3364 46.8721 53.867 53.3917 58.2092Z" fill="#C9E8D2" stroke="#279B48" stroke-width="7"/>
<path d="M45.7559 72.3862H66.5419C74.5982 72.3862 79.1259 63.7729 72.4207 59.307C70.5692 58.0739 68.6031 56.9991 66.5419 56.1021" stroke="#279B48" stroke-width="7" stroke-linecap="round"/>
</svg>
