<svg width="14" height="18" viewBox="0 0 14 18" fill="none" xmlns="http://www.w3.org/2000/svg">
<path d="M6.53694 18C6.05303 18 5.63404 17.8152 5.27996 17.4457C4.92589 17.0762 4.75182 16.63 4.75776 16.1072H8.31694C8.32288 16.63 8.14868 17.0762 7.79433 17.4457C7.43998 17.8152 7.02085 18 6.53694 18ZM3.08779 14.824V13.3741H9.98692V14.824H3.08779ZM3.20541 12.1114C2.23527 11.4811 1.4585 10.6896 0.875098 9.73701C0.291699 8.78442 0 7.71788 0 6.53737C0 4.76757 0.645844 3.23556 1.93753 1.94134C3.22922 0.647115 4.76256 0 6.53756 0C8.31255 0 9.84776 0.647115 11.1432 1.94134C12.4386 3.23556 13.0863 4.76756 13.0863 6.53735C13.0863 7.70632 12.7999 8.76999 12.2272 9.72836C11.6545 10.6867 10.8686 11.4811 9.86929 12.1114H3.20541ZM3.80593 10.4066H9.29278C9.92155 9.97123 10.4249 9.41599 10.8029 8.7409C11.1809 8.06583 11.3699 7.33351 11.3699 6.54393C11.3699 5.21948 10.8937 4.08377 9.94133 3.13679C8.98892 2.18982 7.85348 1.71634 6.53499 1.71634C5.2165 1.71634 4.08184 2.18845 3.13101 3.13267C2.18018 4.07691 1.70476 5.21223 1.70476 6.53862C1.70476 7.32935 1.8956 8.06238 2.27729 8.73772C2.659 9.41308 3.16854 9.96938 3.80593 10.4066Z" fill="white"/>
</svg>
