<svg width="35" height="35" viewBox="0 0 35 35" fill="none" xmlns="http://www.w3.org/2000/svg">
<path fill-rule="evenodd" clip-rule="evenodd" d="M2.73438 7.10938C2.73438 5.90125 3.71375 4.92188 4.92188 4.92188H30.0781C31.2862 4.92188 32.2656 5.90125 32.2656 7.10938V24.0625C32.2656 25.2706 31.2862 26.25 30.0781 26.25H28.9844L28.9844 28.9844C28.9844 28.9876 28.9844 28.9908 28.9844 28.9941C28.9806 29.9454 28.4282 30.6476 27.7082 30.9736C27.5708 31.0366 27.4259 31.0858 27.275 31.1195C27.0672 31.1669 26.8526 31.1852 26.6386 31.1719H25.5059C24.5862 31.1719 23.7086 30.7858 23.0871 30.1078L19.5508 26.25H4.92188C3.71375 26.25 2.73438 25.2706 2.73438 24.0625V7.10938Z" fill="#050505"/>
<path d="M4.12758 29.3334C4.31889 28.868 4.97799 28.868 5.1693 29.3334L5.54345 30.2436C5.60064 30.3827 5.71109 30.4931 5.85019 30.5503L6.76034 30.9245C7.22572 31.1158 7.22572 31.7749 6.76034 31.9662L5.85019 32.3403C5.71109 32.3975 5.60064 32.508 5.54345 32.6471L5.1693 33.5572C4.97799 34.0226 4.31889 34.0226 4.12758 33.5572L3.75342 32.6471C3.69624 32.508 3.58579 32.3975 3.44668 32.3403L2.53653 31.9662C2.07116 31.7749 2.07116 31.1158 2.53653 30.9245L3.44668 30.5503C3.58579 30.4931 3.69624 30.3827 3.75342 30.2436L4.12758 29.3334Z" fill="#050505"/>
<path d="M33.0992 28.795C33.2952 28.3183 33.9704 28.3183 34.1664 28.795L34.2135 28.9097C34.2721 29.0522 34.3853 29.1654 34.5278 29.224L34.6425 29.2711C35.1192 29.4671 35.1192 30.1423 34.6425 30.3383L34.5278 30.3854C34.3853 30.444 34.2721 30.5571 34.2135 30.6996L34.1664 30.8143C33.9704 31.2911 33.2952 31.2911 33.0992 30.8143L33.0521 30.6996C32.9935 30.5571 32.8804 30.444 32.7379 30.3854L32.6232 30.3383C32.1464 30.1423 32.1464 29.4671 32.6232 29.2711L32.7379 29.224C32.8804 29.1654 32.9935 29.0522 33.0521 28.9097L33.0992 28.795Z" fill="#050505"/>
<path d="M32.0137 0.898903C32.2067 0.429532 32.8714 0.429533 33.0644 0.898903L33.2763 1.41435C33.334 1.55464 33.4454 1.66604 33.5857 1.72372L34.1011 1.93561C34.5705 2.12856 34.5705 2.79331 34.1011 2.98627L33.5857 3.19816C33.4454 3.25583 33.334 3.36723 33.2763 3.50753L33.0644 4.02297C32.8714 4.49234 32.2067 4.49234 32.0137 4.02297L31.8018 3.50753C31.7442 3.36723 31.6328 3.25583 31.4925 3.19816L30.977 2.98626C30.5077 2.79331 30.5077 2.12856 30.977 1.93561L31.4925 1.72372C31.6328 1.66604 31.7442 1.55464 31.8018 1.41435L32.0137 0.898903Z" fill="#050505"/>
<path fill-rule="evenodd" clip-rule="evenodd" d="M22.5586 25.1562L25.9219 29.6406C26.5525 30.4815 27.8906 30.0355 27.8906 28.9844V25.1562H30.0781C30.6822 25.1562 31.1719 24.6666 31.1719 24.0625V7.10938C31.1719 6.50531 30.6822 6.01562 30.0781 6.01562H8.75C8.14594 6.01562 7.65625 6.50531 7.65625 7.10937V24.0625C7.65625 24.6666 8.14594 25.1562 8.75 25.1562H22.5586ZM13.3984 18.0469C14.7576 18.0469 15.8594 16.9451 15.8594 15.5859C15.8594 14.2268 14.7576 13.125 13.3984 13.125C12.0393 13.125 10.9375 14.2268 10.9375 15.5859C10.9375 16.9451 12.0393 18.0469 13.3984 18.0469ZM21.875 15.5859C21.875 16.9451 20.7732 18.0469 19.4141 18.0469C18.0549 18.0469 16.9531 16.9451 16.9531 15.5859C16.9531 14.2268 18.0549 13.125 19.4141 13.125C20.7732 13.125 21.875 14.2268 21.875 15.5859ZM25.4297 18.0469C26.7888 18.0469 27.8906 16.9451 27.8906 15.5859C27.8906 14.2268 26.7888 13.125 25.4297 13.125C24.0705 13.125 22.9688 14.2268 22.9688 15.5859C22.9688 16.9451 24.0705 18.0469 25.4297 18.0469Z" fill="#279B48"/>
<path d="M14.7656 15.5859C14.7656 16.341 14.1535 16.9531 13.3984 16.9531C12.6434 16.9531 12.0312 16.341 12.0312 15.5859C12.0312 14.8309 12.6434 14.2188 13.3984 14.2188C14.1535 14.2188 14.7656 14.8309 14.7656 15.5859Z" fill="#E9EBF4"/>
<path d="M20.7812 15.5859C20.7812 16.341 20.1691 16.9531 19.4141 16.9531C18.659 16.9531 18.0469 16.341 18.0469 15.5859C18.0469 14.8309 18.659 14.2188 19.4141 14.2188C20.1691 14.2188 20.7812 14.8309 20.7812 15.5859Z" fill="#E9EBF4"/>
<path d="M26.7969 15.5859C26.7969 16.341 26.1848 16.9531 25.4297 16.9531C24.6746 16.9531 24.0625 16.341 24.0625 15.5859C24.0625 14.8309 24.6746 14.2188 25.4297 14.2188C26.1848 14.2188 26.7969 14.8309 26.7969 15.5859Z" fill="#E9EBF4"/>
</svg>
