<svg width="88" height="91" viewBox="0 0 88 91" fill="none" xmlns="http://www.w3.org/2000/svg">
<path d="M36.4448 30.8828C25.3589 27.6103 15.0591 32.2485 6.56735 40.7402L24.7835 50.8119" fill="#C9E8D2"/>
<path d="M61.0245 55.4625C64.297 66.5484 59.6588 76.8482 51.1671 85.3399L41.0954 67.1238" fill="#C9E8D2"/>
<path d="M24.7837 50.7502L41.1342 67.1007C54.2146 59.2648 69.0843 51.6757 75.8713 44.6418C90.556 29.9572 82.0413 9.84299 82.0413 9.84299C82.0413 9.84299 61.9271 1.32838 47.2425 16.013C40.2087 22.8 32.5579 37.7314 24.7837 50.7502Z" fill="white"/>
<path d="M61.1013 30.2324C62.354 31.4852 64.3852 31.4852 65.6379 30.2324C66.8907 28.9796 66.8907 26.9485 65.6379 25.6957C64.3852 24.443 62.354 24.443 61.1013 25.6957C59.8485 26.9485 59.8485 28.9796 61.1013 30.2324Z" fill="#4147D5"/>
<path d="M21.0337 82.0067C18.509 84.4444 8.71158 86.666 5.39939 87.3613C4.86911 87.4726 4.41076 87.0143 4.52208 86.484C5.21739 83.1718 7.439 73.3744 9.87663 70.8497C10.5993 70.0741 11.4709 69.452 12.4392 69.0205C13.4075 68.5891 14.4529 68.3571 15.5128 68.3384C16.5728 68.3197 17.6256 68.5147 18.6086 68.9117C19.5916 69.3087 20.4845 69.8997 21.2341 70.6493C21.9837 71.3989 22.5747 72.2918 22.9717 73.2748C23.3687 74.2577 23.5637 75.3106 23.545 76.3706C23.5263 77.4305 23.2943 78.4758 22.8628 79.4442C22.4314 80.4125 21.8093 81.284 21.0337 82.0067Z" fill="#C9E8D2"/>
<path d="M6.69702 10.2302L4.40794 7.94109C4.65961 7.51964 4.91036 7.08388 5.15932 6.65121C5.34806 6.3232 5.53578 5.99697 5.72211 5.6801L8.95704 8.91503C8.65326 9.09355 8.34072 9.27353 8.02597 9.45478C7.5812 9.7109 7.13204 9.96956 6.69702 10.2302Z" fill="#C9E8D2"/>
<path d="M35.4528 34.2433C37.3087 34.7911 39.2574 33.7307 39.8053 31.8748C40.3532 30.0188 39.2927 28.0701 37.4368 27.5223L35.4528 34.2433ZM6.56735 40.7402L4.08974 38.2626C3.31141 39.0409 2.94407 40.1398 3.09784 41.2297C3.25162 42.3196 3.90865 43.274 4.87195 43.8066L6.56735 40.7402ZM23.0881 53.8783C24.7816 54.8146 26.9135 54.2008 27.8498 52.5073C28.7862 50.8138 28.1724 48.6819 26.4789 47.7455L23.0881 53.8783ZM64.385 54.4705C63.8371 52.6145 61.8885 51.5541 60.0325 52.102C58.1765 52.6499 57.1161 54.5985 57.664 56.4545L64.385 54.4705ZM51.1671 85.3399L48.1007 87.0353C48.6333 87.9986 49.5876 88.6556 50.6776 88.8094C51.7675 88.9632 52.8663 88.5959 53.6447 87.8175L51.1671 85.3399ZM44.1618 65.4284C43.2254 63.7349 41.0935 63.1211 39.4 64.0574C37.7065 64.9938 37.0926 67.1257 38.029 68.8192L44.1618 65.4284ZM24.7837 50.7502L21.7753 48.9537C20.9524 50.3318 21.1711 52.0928 22.306 53.2278L24.7837 50.7502ZM41.1342 67.1007L38.6566 69.5783C39.7928 70.7145 41.5563 70.9323 42.9348 70.1065L41.1342 67.1007ZM75.8713 44.6418L73.3937 42.1642C73.379 42.179 73.3644 42.1939 73.3499 42.2089L75.8713 44.6418ZM82.0413 9.84299L85.268 8.4771C84.9131 7.63863 84.2457 6.97125 83.4072 6.61632L82.0413 9.84299ZM47.2425 16.013L49.6755 18.5344C49.6905 18.52 49.7054 18.5054 49.7201 18.4906L47.2425 16.013ZM65.6379 30.2324L63.1603 27.7548L65.6379 30.2324ZM61.1013 30.2324L58.6237 32.71L61.1013 30.2324ZM61.1013 25.6957L58.6237 23.2181L61.1013 25.6957ZM65.6379 25.6957L63.1603 28.1734L65.6379 25.6957ZM21.0337 82.0067L18.645 79.4433C18.6299 79.4574 18.6148 79.4717 18.5999 79.4861L21.0337 82.0067ZM9.87663 70.8497L12.3973 73.2834C12.4117 73.2685 12.426 73.2535 12.4401 73.2383L9.87663 70.8497ZM5.39939 87.3613L6.11925 90.7904L5.39939 87.3613ZM4.52208 86.484L1.09295 85.7641L4.52208 86.484ZM6.69702 10.2302L4.21941 12.7078L6.15248 14.6408L8.49766 13.236L6.69702 10.2302ZM4.40794 7.94109L1.39963 6.14466L4.5827e-05 8.48841L1.93033 10.4187L4.40794 7.94109ZM5.15932 6.65121L8.1963 8.39874L5.15932 6.65121ZM5.72211 5.6801L8.19972 3.20249L4.99731 8.11519e-05L2.70171 3.90406L5.72211 5.6801ZM8.95704 8.91503L10.7322 11.9359L14.638 9.64077L11.4347 6.43743L8.95704 8.91503ZM8.02597 9.45478L9.77451 12.4912L9.77451 12.4912L8.02597 9.45478ZM37.4368 27.5223C24.656 23.7494 13.0861 29.2663 4.08974 38.2626L9.04496 43.2178C17.032 35.2307 26.0617 31.4711 35.4528 34.2433L37.4368 27.5223ZM4.87195 43.8066L23.0881 53.8783L26.4789 47.7455L8.26276 37.6738L4.87195 43.8066ZM57.664 56.4545C60.4362 65.8455 56.6765 74.8752 48.6895 82.8623L53.6447 87.8175C62.641 78.8212 68.1578 67.2512 64.385 54.4705L57.664 56.4545ZM54.2335 83.6445L44.1618 65.4284L38.029 68.8192L48.1007 87.0353L54.2335 83.6445ZM22.306 53.2278L38.6566 69.5783L43.6118 64.6231L27.2613 48.2725L22.306 53.2278ZM42.9348 70.1065C46.1738 68.1662 49.5273 66.2389 52.8744 64.3112C56.2099 62.3902 59.5396 60.4685 62.6781 58.5674C68.8762 54.8131 74.6497 50.954 78.3928 47.0748L73.3499 42.2089C70.3059 45.3635 65.2511 48.8159 59.0475 52.5735C55.9851 54.4285 52.7206 56.3129 49.3771 58.2385C46.0452 60.1574 42.6348 62.1172 39.3335 64.0949L42.9348 70.1065ZM78.3489 47.1195C86.59 38.8784 88.2845 29.0978 87.9638 21.5862C87.8037 17.8382 87.1443 14.6046 86.526 12.3054C86.2158 11.152 85.9132 10.2233 85.6828 9.5703C85.5675 9.2435 85.47 8.98488 85.3983 8.80077C85.3625 8.70869 85.333 8.63516 85.311 8.58098C85.3 8.55388 85.2908 8.53161 85.2836 8.51427C85.28 8.50559 85.2769 8.49815 85.2743 8.49195C85.273 8.48885 85.2718 8.48607 85.2708 8.48359C85.2702 8.48235 85.2696 8.48073 85.2693 8.48011C85.2686 8.47856 85.268 8.4771 82.0413 9.84299C78.8147 11.2089 78.8141 11.2076 78.8136 11.2063C78.8135 11.206 78.813 11.2049 78.8127 11.2042C78.8122 11.203 78.8118 11.202 78.8115 11.2014C78.811 11.2001 78.8109 11.1999 78.8113 11.201C78.8122 11.2031 78.815 11.2099 78.8197 11.2213C78.829 11.2441 78.8455 11.2853 78.8684 11.3442C78.9143 11.4619 78.9854 11.6497 79.0742 11.9016C79.2522 12.4059 79.5 13.1634 79.7586 14.1252C80.2779 16.0563 80.8293 18.769 80.9624 21.8852C81.2278 28.1018 79.8373 35.7207 73.3937 42.1642L78.3489 47.1195ZM82.0413 9.84299C83.4072 6.61632 83.4058 6.61569 83.4042 6.61504C83.4036 6.61478 83.402 6.6141 83.4007 6.61357C83.3983 6.61253 83.3955 6.61136 83.3924 6.61006C83.3862 6.60746 83.3787 6.60435 83.3701 6.60075C83.3527 6.59355 83.3305 6.58438 83.3034 6.57336C83.2492 6.55132 83.1756 6.52187 83.0836 6.486C82.8995 6.41429 82.6408 6.3168 82.314 6.20152C81.661 5.97115 80.7323 5.66852 79.579 5.35837C77.2797 4.74006 74.0461 4.08061 70.2981 3.92058C62.7865 3.59986 53.006 5.29432 44.7649 13.5354L49.7201 18.4906C56.1637 12.0471 63.7825 10.6565 69.9992 10.9219C73.1153 11.055 75.8281 11.6064 77.7591 12.1257C78.7209 12.3843 79.4784 12.6322 79.9827 12.8101C80.2346 12.899 80.4225 12.9701 80.5402 13.0159C80.599 13.0388 80.6402 13.0554 80.663 13.0647C80.6744 13.0693 80.6812 13.0721 80.6834 13.073C80.6844 13.0734 80.6843 13.0734 80.683 13.0728C80.6823 13.0726 80.6814 13.0722 80.6801 13.0716C80.6795 13.0714 80.6783 13.0709 80.678 13.0707C80.6768 13.0702 80.6755 13.0697 82.0413 9.84299ZM44.8095 13.4915C40.9311 17.2339 37.0568 23.0219 33.2944 29.2283C29.6168 35.2949 25.4844 42.7425 21.7753 48.9537L27.792 52.5466C31.8571 45.7391 35.4372 39.2116 39.287 32.8611C43.052 26.6504 46.5201 21.5791 49.6755 18.5344L44.8095 13.4915ZM63.1603 27.7548C63.2759 27.6392 63.4633 27.6392 63.5789 27.7548L58.6237 32.71C61.2448 35.3311 65.4944 35.3311 68.1155 32.71L63.1603 27.7548ZM63.5789 27.7548C63.6945 27.8704 63.6945 28.0578 63.5789 28.1734L58.6237 23.2181C56.0026 25.8392 56.0026 30.0889 58.6237 32.71L63.5789 27.7548ZM63.5789 28.1734C63.4633 28.2889 63.2759 28.2889 63.1603 28.1734L68.1155 23.2181C65.4944 20.597 61.2448 20.597 58.6237 23.2181L63.5789 28.1734ZM63.1603 28.1734C63.0447 28.0578 63.0447 27.8704 63.1603 27.7548L68.1155 32.71C70.7366 30.0889 70.7366 25.8392 68.1155 23.2181L63.1603 28.1734ZM18.5999 79.4861C18.4599 79.6213 17.8845 80.0136 16.6237 80.5481C15.4651 81.0394 14.0367 81.525 12.5115 81.9794C9.46793 82.8861 6.29855 83.5923 4.67954 83.9322L6.11925 90.7904C7.81242 90.435 11.1979 89.6828 14.5122 88.6954C16.166 88.2028 17.8673 87.6325 19.3593 86.9999C20.7491 86.4106 22.3452 85.611 23.4675 84.5274L18.5999 79.4861ZM7.95121 87.2038C8.29107 85.5848 8.99733 82.4154 9.90401 79.3719C10.3584 77.8467 10.844 76.4183 11.3353 75.2597C11.8698 73.9989 12.2621 73.4235 12.3973 73.2834L7.35594 68.4159C6.27237 69.5382 5.47281 71.1342 4.88351 72.5241C4.25091 74.016 3.6806 75.7174 3.18795 77.3712C2.20059 80.6855 1.44839 84.071 1.09295 85.7641L7.95121 87.2038ZM12.4401 73.2383C12.842 72.807 13.3267 72.461 13.8653 72.2211L11.0131 65.82C9.61499 66.443 8.35664 67.3412 7.31316 68.461L12.4401 73.2383ZM13.8653 72.2211C14.4038 71.9811 14.9851 71.8521 15.5746 71.8417L15.451 64.835C13.9206 64.8621 12.4113 65.197 11.0131 65.82L13.8653 72.2211ZM15.5746 71.8417C16.1641 71.8313 16.7497 71.9397 17.2963 72.1605L19.9209 65.6628C18.5016 65.0896 16.9814 64.808 15.451 64.835L15.5746 71.8417ZM17.2963 72.1605C17.843 72.3813 18.3396 72.71 18.7565 73.1269L23.7117 68.1717C22.6294 67.0893 21.3401 66.2361 19.9209 65.6628L17.2963 72.1605ZM18.7565 73.1269C19.1734 73.5438 19.502 74.0404 19.7228 74.587L26.2205 71.9625C25.6473 70.5433 24.794 69.254 23.7117 68.1717L18.7565 73.1269ZM19.7228 74.587C19.9436 75.1337 20.0521 75.7193 20.0417 76.3087L27.0483 76.4324C27.0753 74.902 26.7938 73.3818 26.2205 71.9625L19.7228 74.587ZM20.0417 76.3087C20.0313 76.8982 19.9023 77.4796 19.6623 78.0181L26.0634 80.8702C26.6864 79.4721 27.0213 77.9628 27.0483 76.4324L20.0417 76.3087ZM19.6623 78.0181C19.4223 78.5567 19.0764 79.0413 18.645 79.4433L23.4224 84.5702C24.5422 83.5267 25.4404 82.2684 26.0634 80.8702L19.6623 78.0181ZM4.67954 83.9322C6.62431 83.5239 8.35945 85.2591 7.95121 87.2038L1.09295 85.7641C0.462073 88.7694 3.1139 91.4213 6.11925 90.7904L4.67954 83.9322ZM9.17463 7.75255L6.88555 5.46348L1.93033 10.4187L4.21941 12.7078L9.17463 7.75255ZM7.41625 9.73752C7.68495 9.28755 7.94992 8.82692 8.1963 8.39874L2.12234 4.90368C1.87079 5.34085 1.63427 5.75173 1.39963 6.14466L7.41625 9.73752ZM8.1963 8.39874C8.38657 8.06808 8.56598 7.75633 8.7425 7.45614L2.70171 3.90406C2.50558 4.23761 2.30956 4.57833 2.12234 4.90368L8.1963 8.39874ZM3.2445 8.15771L6.47943 11.3926L11.4347 6.43743L8.19972 3.20249L3.2445 8.15771ZM7.18186 5.89413C6.89366 6.06349 6.59466 6.2357 6.27743 6.41838L9.77451 12.4912C10.0868 12.3114 10.4129 12.1236 10.7322 11.9359L7.18186 5.89413ZM6.27743 6.41838C5.83739 6.67179 5.36176 6.94558 4.89638 7.22437L8.49766 13.236C8.90232 12.9935 9.32502 12.75 9.77451 12.4912L6.27743 6.41838Z" fill="#279B48"/>
</svg>
