<svg width="16" height="14" viewBox="0 0 16 14" fill="none" xmlns="http://www.w3.org/2000/svg">
<path d="M0 4.375C0 4.375 0 2.625 1.75 2.625H14C14 2.625 15.75 2.625 15.75 4.375V12.25C15.75 12.25 15.75 14 14 14H1.75C1.75 14 0 14 0 12.25V4.375Z" fill="#31373D"/>
<path d="M9.1875 12.6875C11.6037 12.6875 13.5625 10.7287 13.5625 8.3125C13.5625 5.89625 11.6037 3.9375 9.1875 3.9375C6.77125 3.9375 4.8125 5.89625 4.8125 8.3125C4.8125 10.7287 6.77125 12.6875 9.1875 12.6875Z" fill="#CCD6DD"/>
<path d="M9.1875 11.8125C11.1205 11.8125 12.6875 10.2455 12.6875 8.3125C12.6875 6.3795 11.1205 4.8125 9.1875 4.8125C7.2545 4.8125 5.6875 6.3795 5.6875 8.3125C5.6875 10.2455 7.2545 11.8125 9.1875 11.8125Z" fill="#31373D"/>
<path d="M9.1875 10.5C10.3956 10.5 11.375 9.52062 11.375 8.3125C11.375 7.10438 10.3956 6.125 9.1875 6.125C7.97938 6.125 7 7.10438 7 8.3125C7 9.52062 7.97938 10.5 9.1875 10.5Z" fill="#3B88C3"/>
<path d="M14.2188 4.8125C14.5812 4.8125 14.875 4.51869 14.875 4.15625C14.875 3.79381 14.5812 3.5 14.2188 3.5C13.8563 3.5 13.5625 3.79381 13.5625 4.15625C13.5625 4.51869 13.8563 4.8125 14.2188 4.8125Z" fill="white"/>
<path d="M7 3.9375L8.3125 1.3125L5.6875 2.1875L3.9375 0L3.0625 2.1875L0.4375 1.75L2.1875 4.375L0 6.125H2.625L1.75 8.75L4.375 7.4375L7 9.625L6.5625 6.125L9.1875 5.6875L7 3.9375Z" fill="#FFAC33"/>
<path d="M4.375 6.125L3.0625 7L3.5 5.6875L2.1875 5.25L3.5 4.375L2.1875 3.0625H3.9375L4.375 1.75L5.25 3.0625L6.5625 2.625L5.6875 3.9375L7 5.25L5.6875 5.6875L6.125 7.4375L4.375 6.125Z" fill="white"/>
</svg>
