<svg width="10" height="10" viewBox="0 0 10 10" fill="none" xmlns="http://www.w3.org/2000/svg">
<path d="M5.00902 6.07133L1.29719 9.77282C1.14925 9.92075 0.970033 9.99644 0.759533 9.99989C0.549044 10.0033 0.373275 9.92499 0.232226 9.76487C0.0774089 9.61693 0.00132337 9.44209 0.00396971 9.24034C0.00661606 9.03858 0.085354 8.85765 0.240184 8.69752L3.94406 5.00398L0.232226 1.28419C0.0774089 1.13627 0 0.961425 0 0.759668C0 0.557924 0.0774089 0.376984 0.232226 0.21685C0.373275 0.0689226 0.549044 -0.00332183 0.759533 0.000117201C0.970033 0.00356843 1.14925 0.0792638 1.29719 0.227203L5.00902 3.92868L8.70494 0.227203C8.85288 0.0792638 9.0321 0.00356843 9.2426 0.000117201C9.45309 -0.00332183 9.62886 0.0689226 9.76991 0.21685C9.92473 0.376984 10.0008 0.557924 9.99817 0.759668C9.99552 0.961425 9.92288 1.13627 9.78024 1.28419L6.07637 5.00398L9.78024 8.69752C9.92288 8.85235 9.99552 9.03197 9.99817 9.23637C10.0008 9.44076 9.92473 9.61693 9.76991 9.76487C9.62886 9.92499 9.45309 10.0033 9.2426 9.99989C9.0321 9.99644 8.85288 9.92075 8.70494 9.77282L5.00902 6.07133Z" fill="#EC5D5D"/>
</svg>
