<svg width="18" height="18" viewBox="0 0 18 18" fill="none" xmlns="http://www.w3.org/2000/svg">
<path d="M0.975401 18C0.701047 18 0.469892 17.906 0.281935 17.7181C0.0939784 17.5301 0 17.299 0 17.0246V13.9921C0 13.7177 0.0939784 13.4866 0.281935 13.2986C0.469892 13.1107 0.701047 13.0167 0.975401 13.0167H17.0112C17.2855 13.0167 17.5189 13.1107 17.7114 13.2986C17.9038 13.4866 18 13.7177 18 13.9921V17.0246C18 17.299 17.9038 17.5301 17.7114 17.7181C17.5189 17.906 17.2855 18 17.0112 18H0.975401ZM0.975401 11.4984C0.701047 11.4984 0.469892 11.4053 0.281935 11.2191C0.0939784 11.033 0 10.7964 0 10.5095V7.50388C0 7.22952 0.0939784 6.99613 0.281935 6.80369C0.469892 6.61126 0.701047 6.51504 0.975401 6.51504H17.0112C17.2855 6.51504 17.5189 6.61126 17.7114 6.80369C17.9038 6.99613 18 7.22952 18 7.50388V10.5095C18 10.7964 17.9038 11.033 17.7114 11.2191C17.5189 11.4053 17.2855 11.4984 17.0112 11.4984H0.975401ZM0.975401 4.99673C0.701047 4.99673 0.469892 4.90364 0.281935 4.71747C0.0939784 4.53129 0 4.29477 0 4.00791V0.988814C0 0.71446 0.0939784 0.481066 0.281935 0.28863C0.469892 0.0962104 0.701047 0 0.975401 0H17.0112C17.2855 0 17.5189 0.0962104 17.7114 0.28863C17.9038 0.481066 18 0.71446 18 0.988814V4.00791C18 4.29477 17.9038 4.53129 17.7114 4.71747C17.5189 4.90364 17.2855 4.99673 17.0112 4.99673H0.975401Z" fill="#050505"/>
</svg>
