<svg width="33" height="32" viewBox="0 0 33 32" fill="none" xmlns="http://www.w3.org/2000/svg">
<path d="M26.8382 10.3509C26.4218 10.3509 26.0744 10.2137 25.7961 9.9395C25.5178 9.6653 25.3787 9.29941 25.3787 8.84184V6.66337H23.1582C22.7596 6.66337 22.4155 6.51902 22.1258 6.23031C21.8361 5.94158 21.6912 5.5849 21.6912 5.16028C21.6912 4.73566 21.8321 4.38404 22.1139 4.1054C22.3957 3.82676 22.7438 3.68744 23.1582 3.68744H25.3787V1.46691C25.3787 1.06837 25.5202 0.724247 25.8033 0.434531C26.0863 0.144843 26.436 0 26.8523 0C27.2685 0 27.623 0.140889 27.9156 0.422668C28.2083 0.704447 28.3546 1.05253 28.3546 1.46691V3.68744H30.5331C30.9435 3.68744 31.2977 3.82921 31.5954 4.11276C31.8932 4.39631 32.0421 4.7504 32.0421 5.17505C32.0421 5.59967 31.8972 5.95387 31.6073 6.23767C31.3175 6.52147 30.9594 6.66337 30.5331 6.66337H28.3546V8.84184C28.3546 9.26772 28.209 9.62568 27.9177 9.91573C27.6265 10.2058 27.2666 10.3509 26.8382 10.3509ZM7.52309 24.4861H24.3855C24.7117 24.4861 24.9642 24.326 25.1432 24.0059C25.3221 23.6858 25.3037 23.3758 25.0878 23.0758L20.6596 17.1971C20.4892 16.985 20.2615 16.8819 19.9766 16.888C19.6918 16.8941 19.4573 17.0112 19.2732 17.2392L14.662 23.3173L11.3495 19.0244C11.1633 18.7964 10.9316 18.6823 10.6547 18.6823C10.3778 18.6823 10.1472 18.7964 9.9631 19.0244L6.83901 23.0758C6.58295 23.3881 6.54394 23.7012 6.72197 24.0151C6.89998 24.3291 7.16702 24.4861 7.52309 24.4861ZM3.52287 32C2.54947 32 1.71899 31.6602 1.03141 30.9805C0.343803 30.3008 0 29.4743 0 28.5009V3.6198C0 2.6464 0.343803 1.81591 1.03141 1.12834C1.71899 0.440757 2.54947 0.096969 3.52287 0.096969H18.0879C18.5935 0.096969 19.0149 0.265595 19.3523 0.602849C19.6898 0.940131 19.8585 1.35559 19.8585 1.84923V6.67801C19.8585 7.19902 20.0271 7.62437 20.3644 7.95405C20.7016 8.28373 21.1171 8.44857 21.6107 8.44857H23.5697V10.3893C23.5697 10.9102 23.7383 11.3356 24.0756 11.6653C24.4129 11.995 24.8283 12.1598 25.322 12.1598H30.1325C30.6222 12.1598 31.0397 12.3285 31.385 12.6657C31.7304 13.003 31.903 13.4105 31.903 13.8883V28.5009C31.903 29.4743 31.5522 30.3008 30.8506 30.9805C30.149 31.6602 29.3335 32 28.404 32H3.52287Z" fill="#65676B"/>
</svg>
