<svg width="15" height="14" viewBox="0 0 15 14" fill="none" xmlns="http://www.w3.org/2000/svg">
<path d="M7.00015 14C5.05051 14 3.3964 13.3192 2.03784 11.9577C0.679281 10.5961 0 8.9485 0 7.01479C0 5.08107 0.679281 3.42851 2.03784 2.0571C3.3964 0.685699 5.05202 0 7.00469 0C8.19508 0 9.25581 0.24291 10.1869 0.728731C11.1179 1.21455 11.9271 1.89099 12.6143 2.75806V0.718857C12.6143 0.520119 12.6797 0.350629 12.8106 0.210386C12.9414 0.0701288 13.1136 0 13.327 0C13.5326 0 13.7083 0.0701288 13.854 0.210386C13.9997 0.350629 14.0726 0.520119 14.0726 0.718857V4.97202C14.0726 5.21988 13.9861 5.42646 13.8132 5.59176C13.6402 5.75704 13.4336 5.83968 13.1933 5.83968H8.92849C8.73306 5.83968 8.56633 5.76789 8.4283 5.62431C8.29029 5.48071 8.22128 5.30709 8.22128 5.10343C8.22128 4.90308 8.29141 4.73459 8.43166 4.59795C8.57192 4.4613 8.74141 4.39298 8.94013 4.39298H11.7045C11.1547 3.58388 10.4952 2.93971 9.72605 2.46047C8.95686 1.98122 8.04713 1.74159 6.99688 1.74159C5.52134 1.74159 4.2721 2.25108 3.24915 3.27006C2.22619 4.28903 1.71471 5.53647 1.71471 7.01236C1.71471 8.49554 2.22619 9.74515 3.24915 10.7612C4.2721 11.7773 5.52134 12.2853 6.99688 12.2853C7.95954 12.2853 8.86003 12.0421 9.69833 11.5558C10.5366 11.0695 11.1841 10.393 11.6408 9.52635C11.7729 9.32313 11.9461 9.18209 12.1603 9.10323C12.3745 9.02438 12.5928 9.02708 12.8151 9.11133C13.0398 9.18783 13.1937 9.3305 13.2771 9.53933C13.3605 9.74819 13.3531 9.94972 13.2551 10.1439C12.6624 11.3301 11.8046 12.2693 10.6817 12.9616C9.55893 13.6539 8.33174 14 7.00015 14Z" fill="#65676B"/>
</svg>
