<svg width="18" height="18" viewBox="0 0 18 18" fill="none" xmlns="http://www.w3.org/2000/svg">
<path d="M8.48474 18C8.22071 18 7.99896 17.9131 7.81951 17.7392C7.64008 17.5653 7.55037 17.3516 7.55037 17.0981V13.1263C7.55037 12.866 7.64239 12.6466 7.82643 12.4682C8.01047 12.2897 8.23046 12.2004 8.48639 12.2004C8.75494 12.2004 8.97296 12.2897 9.14045 12.4682C9.30793 12.6466 9.39168 12.866 9.39168 13.1263V14.2103H16.915C17.1879 14.2103 17.4104 14.2946 17.5826 14.4631C17.7548 14.6317 17.8408 14.8497 17.8408 15.1172C17.8408 15.3812 17.7548 15.603 17.5826 15.7824C17.4104 15.9618 17.1879 16.0516 16.915 16.0516H9.39168V17.0981C9.39168 17.3516 9.30738 17.5653 9.13877 17.7392C8.97019 17.9131 8.75218 18 8.48474 18ZM0.92586 16.0516C0.656814 16.0516 0.435239 15.9595 0.261134 15.7755C0.0870445 15.5915 0 15.3715 0 15.1155C0 14.847 0.0870445 14.629 0.261134 14.4615C0.435239 14.294 0.656814 14.2103 0.92586 14.2103H5.45211C5.71822 14.2103 5.93506 14.2946 6.10264 14.4631C6.27024 14.6317 6.35404 14.8497 6.35404 15.1172C6.35404 15.3812 6.27024 15.603 6.10264 15.7824C5.93506 15.9618 5.71822 16.0516 5.45211 16.0516H0.92586ZM5.44713 11.8863C5.18308 11.8863 4.96133 11.7993 4.7819 11.6253C4.60245 11.4513 4.51273 11.2252 4.51273 10.9469V9.9139H0.92586C0.67125 9.9139 0.453287 9.82433 0.271972 9.6452C0.0906574 9.46606 0 9.25372 0 9.00818C0 8.76265 0.0906574 8.54759 0.271972 8.363C0.453287 8.1784 0.67125 8.0861 0.92586 8.0861H4.51273V6.99173C4.51273 6.72563 4.60475 6.50879 4.78879 6.34119C4.97284 6.17361 5.19282 6.08982 5.44876 6.08982C5.71731 6.08982 5.93533 6.17361 6.10281 6.34119C6.2703 6.50879 6.35404 6.72563 6.35404 6.99173V10.9604C6.35404 11.2421 6.26975 11.4668 6.10116 11.6346C5.93256 11.8024 5.71455 11.8863 5.44713 11.8863ZM8.47622 9.9139C8.22161 9.9139 8.00365 9.82433 7.82234 9.6452C7.64102 9.46606 7.55037 9.25372 7.55037 9.00818C7.55037 8.76265 7.64102 8.54759 7.82234 8.363C8.00365 8.1784 8.22161 8.0861 8.47622 8.0861H16.915C17.1662 8.0861 17.3834 8.178 17.5664 8.36181C17.7493 8.54561 17.8408 8.76373 17.8408 9.01615C17.8408 9.26181 17.7493 9.47285 17.5664 9.64927C17.3834 9.82569 17.1662 9.9139 16.915 9.9139H8.47622ZM12.4048 5.79957C12.1454 5.79957 11.9276 5.71262 11.7513 5.53872C11.575 5.36482 11.4868 5.15113 11.4868 4.89763V0.925836C11.4868 0.665579 11.5772 0.446204 11.758 0.267713C11.9389 0.089237 12.1549 0 12.406 0C12.6698 0 12.8895 0.089237 13.0649 0.267713C13.2404 0.446204 13.3281 0.665579 13.3281 0.925836V1.97236H16.915C17.1879 1.97236 17.4104 2.05981 17.5826 2.23471C17.7548 2.40963 17.8408 2.62674 17.8408 2.88604C17.8408 3.15459 17.7548 3.37633 17.5826 3.55127C17.4104 3.7262 17.1879 3.81367 16.915 3.81367H13.3281V4.89763C13.3281 5.15113 13.2416 5.36482 13.0686 5.53872C12.8957 5.71262 12.6744 5.79957 12.4048 5.79957ZM0.92586 3.81367C0.656814 3.81367 0.435239 3.7248 0.261134 3.54708C0.0870445 3.36934 0 3.14845 0 2.88441C0 2.62037 0.0870445 2.40236 0.261134 2.23036C0.435239 2.05836 0.656814 1.97236 0.92586 1.97236H9.36462C9.63751 1.97236 9.86004 2.05981 10.0322 2.23471C10.2044 2.40963 10.2905 2.62674 10.2905 2.88604C10.2905 3.15459 10.2044 3.37633 10.0322 3.55127C9.86004 3.7262 9.63751 3.81367 9.36462 3.81367H0.92586Z" fill="#050505"/>
</svg>
