<svg width="26" height="26" viewBox="0 0 26 26" fill="none" xmlns="http://www.w3.org/2000/svg">
<path d="M18.614 11.8068L9.98202 7.48946C9.73799 7.36735 9.46679 7.30968 9.1942 7.32193C8.9216 7.33417 8.65667 7.41594 8.42458 7.55944C8.19249 7.70294 8.00095 7.90342 7.86818 8.14181C7.73542 8.3802 7.66582 8.64859 7.66602 8.92146V17.0761C7.66582 17.349 7.73542 17.6174 7.86818 17.8558C8.00095 18.0942 8.19249 18.2946 8.42458 18.4381C8.65667 18.5816 8.9216 18.6634 9.1942 18.6757C9.46679 18.6879 9.73799 18.6302 9.98202 18.5081L18.614 14.1908C18.8352 14.0799 19.0212 13.9097 19.1511 13.6992C19.2811 13.4887 19.3499 13.2462 19.3499 12.9988C19.3499 12.7514 19.2811 12.5089 19.1511 12.2984C19.0212 12.0878 18.8352 11.9176 18.614 11.8068Z" stroke="white" stroke-width="2" stroke-linecap="round" stroke-linejoin="round"/>
<path d="M13 25C19.6274 25 25 19.6274 25 13C25 6.37258 19.6274 1 13 1C6.37258 1 1 6.37258 1 13C1 19.6274 6.37258 25 13 25Z" stroke="white" stroke-width="2"/>
</svg>
