<svg width="34" height="24" viewBox="0 0 34 24" fill="none" xmlns="http://www.w3.org/2000/svg">
<path d="M0 20.165C0 19.2523 0.218893 18.441 0.656679 17.7311C1.09444 17.0212 1.7194 16.4868 2.53156 16.1281C4.28748 15.3555 5.88543 14.7936 7.32541 14.4422C8.76539 14.0908 10.2474 13.9151 11.7716 13.9151C13.2957 13.9151 14.7719 14.0908 16.2002 14.4422C17.6285 14.7936 19.2211 15.3558 20.978 16.1288C21.7701 16.4799 22.3957 17.0113 22.8547 17.7229C23.3137 18.4344 23.5432 19.2476 23.5432 20.1622V21.4348C23.5432 22.1552 23.2958 22.7628 22.8009 23.2577C22.306 23.7526 21.6984 24 20.978 24H2.56515C1.8448 24 1.23719 23.7526 0.742313 23.2577C0.247438 22.7628 0 22.1552 0 21.4348V20.165ZM30.5655 24H24.9839C25.1479 23.6018 25.3001 23.1918 25.4407 22.7701C25.5813 22.3485 25.6515 21.9034 25.6515 21.4348V20.3121C25.6515 18.8585 25.3119 17.593 24.6325 16.5154C23.9531 15.4378 22.8638 14.5476 21.3646 13.8448C23.1918 14.0322 24.9019 14.3016 26.4949 14.653C28.0878 15.0044 29.3997 15.4495 30.4305 15.9883C31.2738 16.4802 31.9356 17.0776 32.4158 17.7804C32.896 18.4832 33.1362 19.2562 33.1362 20.0996V21.4348C33.1362 22.1552 32.8829 22.7628 32.3763 23.2577C31.8697 23.7526 31.2661 24 30.5655 24ZM11.7716 11.5256C10.072 11.5256 8.68668 10.99 7.61552 9.91889C6.54436 8.84773 6.00878 7.46823 6.00878 5.78038C6.00878 4.09253 6.54436 2.70717 7.61552 1.6243C8.68668 0.541434 10.0662 0 11.754 0C13.4419 0 14.8272 0.540122 15.9101 1.62037C16.993 2.70059 17.5344 4.08141 17.5344 5.76281C17.5344 7.46237 16.9943 8.84773 15.9141 9.91889C14.8338 10.99 13.453 11.5256 11.7716 11.5256ZM25.8975 5.76281C25.8975 7.46237 25.3575 8.84773 24.2775 9.91889C23.1975 10.99 21.817 11.5256 20.1359 11.5256C19.8071 11.5256 19.4378 11.5022 19.0278 11.4553C18.6179 11.4085 18.2606 11.3265 17.9561 11.2094C18.5417 10.5438 18.981 9.75191 19.2738 8.83372C19.5666 7.91551 19.713 6.89532 19.713 5.77314C19.713 4.65096 19.5666 3.65421 19.2738 2.78287C18.981 1.91152 18.5417 1.08931 17.9561 0.316252C18.2782 0.228404 18.6413 0.153734 19.0454 0.0922401C19.4495 0.0307467 19.8126 0 20.1347 0C21.8161 0 23.1969 0.540122 24.2771 1.62037C25.3574 2.70059 25.8975 4.08141 25.8975 5.76281ZM2.56515 21.4348H20.978V20.1698C20.978 19.795 20.8805 19.4416 20.6855 19.1096C20.4905 18.7775 20.2483 18.557 19.959 18.448C18.2255 17.6984 16.7613 17.183 15.5666 16.9019C14.3719 16.6208 13.101 16.4802 11.754 16.4802C10.407 16.4802 9.13031 16.6208 7.92387 16.9019C6.71742 17.183 5.25915 17.6984 3.54905 18.448C3.25974 18.557 3.02343 18.7775 2.84012 19.1096C2.65681 19.4416 2.56515 19.795 2.56515 20.1698V21.4348ZM11.7613 8.96047C12.6818 8.96047 13.4466 8.65935 14.0556 8.05711C14.6647 7.45487 14.9693 6.69353 14.9693 5.77307C14.9693 4.85261 14.6633 4.08785 14.0513 3.47877C13.4393 2.86969 12.6731 2.56515 11.7526 2.56515C10.8322 2.56515 10.0723 2.87115 9.47294 3.48313C8.8736 4.09511 8.57394 4.86133 8.57394 5.78179C8.57394 6.70224 8.87506 7.46214 9.47729 8.06147C10.0795 8.6608 10.8409 8.96047 11.7613 8.96047Z" fill="#279B48"/>
</svg>
