<svg width="25" height="24" viewBox="0 0 25 24" fill="none" xmlns="http://www.w3.org/2000/svg">
<path d="M4.6729 13.3832L12.9346 21.6449C13.2087 21.919 13.3458 22.243 13.3458 22.6168C13.3458 22.9907 13.2212 23.3146 12.972 23.5888C12.6978 23.8629 12.3676 24 11.9813 24C11.595 24 11.2773 23.8629 11.028 23.5888L0.411215 12.972C0.261682 12.8474 0.155763 12.704 0.0934579 12.5421C0.0311526 12.3801 0 12.1994 0 12C0 11.8255 0.0311526 11.6573 0.0934579 11.4953C0.155763 11.3333 0.261682 11.19 0.411215 11.0654L11.0654 0.411215C11.3396 0.137072 11.6636 0 12.0374 0C12.4112 0 12.7352 0.137072 13.0093 0.411215C13.2586 0.685358 13.3832 1.00935 13.3832 1.38318C13.3832 1.75701 13.2586 2.06854 13.0093 2.31776L4.6729 10.6542H23.215C23.5888 10.6542 23.9065 10.785 24.1682 11.0467C24.4299 11.3084 24.5607 11.6262 24.5607 12C24.5607 12.3988 24.4299 12.729 24.1682 12.9907C23.9065 13.2523 23.5888 13.3832 23.215 13.3832H4.6729Z" fill="#1A1A1A"/>
</svg>
