<svg width="26" height="27" viewBox="0 0 26 27" fill="none" xmlns="http://www.w3.org/2000/svg">
<path fill-rule="evenodd" clip-rule="evenodd" d="M7.67149 15.5678C6.04782 11.583 8.97953 7.22266 13.2821 7.22266H13.514C14.2792 7.22266 15.037 7.37339 15.744 7.66624C16.451 7.95909 17.0934 8.38832 17.6345 8.92944C18.1756 9.47056 18.6049 10.113 18.8977 10.82C19.1906 11.527 19.3413 12.2847 19.3413 13.05C19.3413 14.7706 18.6578 16.4207 17.4411 17.6373C16.2245 18.8539 14.5744 19.5374 12.8538 19.5374H7.20562C7.0934 19.5375 6.98391 19.5028 6.89229 19.438C6.80067 19.3732 6.73145 19.2815 6.69418 19.1756C6.65691 19.0698 6.65344 18.955 6.68425 18.847C6.71505 18.7391 6.77862 18.6434 6.86615 18.5732L8.28976 17.4299C8.3202 17.4055 8.34192 17.3719 8.35169 17.3341C8.36145 17.2964 8.35873 17.2565 8.34393 17.2204L7.67149 15.5678ZM13.2821 8.30607C9.74803 8.30607 7.34069 11.8864 8.67401 15.159L9.34717 16.8123C9.44973 17.0643 9.46823 17.3427 9.39991 17.6061C9.33159 17.8695 9.18011 18.1038 8.96797 18.2742L8.74479 18.454H12.8538C14.2871 18.454 15.6616 17.8847 16.6751 16.8712C17.6885 15.8578 18.2579 14.4832 18.2579 13.05C18.2579 11.7918 17.7581 10.5852 16.8684 9.69553C15.9788 8.80587 14.7721 8.30607 13.514 8.30607H13.2821Z" fill="#333333"/>
</svg>
