<svg width="898" height="359" viewBox="0 0 898 359" fill="none" xmlns="http://www.w3.org/2000/svg">
<g clip-path="url(#clip0_673_7149)">
<rect width="898" height="359" fill="white"/>
<rect width="245" height="359" fill="#F5F8DE"/>
<rect x="658" width="240" height="359" fill="#F5F8DE"/>
<rect width="413" height="359" transform="translate(245)" fill="white"/>
<path d="M381.784 270C376.472 270 371.846 268.031 367.908 264.092C363.969 260.154 362 255.528 362 250.216V109.918C362 104.569 363.969 99.9119 367.908 95.947C371.846 91.9823 376.472 90 381.784 90H522.082C527.431 90 532.088 91.9823 536.053 95.947C540.018 99.9119 542 104.569 542 109.918V250.216C542 255.528 540.018 260.154 536.053 264.092C532.088 268.031 527.431 270 522.082 270H381.784ZM381.784 250.216H522.082V109.918H381.784V250.216ZM391.485 230.122H512.619L475.347 179.54L443.845 220.287L421.621 189.975L391.485 230.122Z" fill="#999D9F"/>
</g>
<defs>
<clipPath id="clip0_673_7149">
<rect width="898" height="359" fill="white"/>
</clipPath>
</defs>
</svg>
