<svg width="60" height="60" viewBox="0 0 60 60" fill="none" xmlns="http://www.w3.org/2000/svg">
<path d="M8.49884 8.33223H49.7182V49.8223H8.49884V8.33223Z" fill="#279B48"/>
<path d="M12.0837 50.25C10.8702 50.25 9.82773 49.8114 8.95622 48.9342C8.08471 48.057 7.64896 47.0076 7.64896 45.7862V11.9406C7.64896 10.7192 8.08471 9.66984 8.95622 8.79261C9.82773 7.91538 10.8702 7.47677 12.0837 7.47677H45.7084C46.9219 7.47677 47.9644 7.91538 48.8359 8.79261C49.7074 9.66984 50.1432 10.7192 50.1432 11.9406V45.7862C50.1432 47.0076 49.7074 48.057 48.8359 48.9342C47.9644 49.8114 46.9219 50.25 45.7084 50.25H12.0837ZM12.0837 47.9182H45.7084C46.2379 47.9182 46.7233 47.6961 47.1646 47.2519C47.6059 46.8077 47.8265 46.3192 47.8265 45.7862V11.9406C47.8265 11.4076 47.6059 10.9191 47.1646 10.4749C46.7233 10.0307 46.2379 9.80864 45.7084 9.80864H12.0837C11.5542 9.80864 11.0688 10.0307 10.6275 10.4749C10.1863 10.9191 9.96562 11.4076 9.96562 11.9406V45.7862C9.96562 46.3192 10.1863 46.8077 10.6275 47.2519C11.0688 47.6961 11.5542 47.9182 12.0837 47.9182Z" fill="black"/>
<path d="M40.7878 42.4402H17.4226L22.2545 36.1775L26.6231 41.3076L33.5069 32.713L40.7878 42.4402Z" fill="white"/>
<path d="M19.1162 19.9007C18.5456 20.4579 17.8308 20.7365 16.972 20.7365C16.1132 20.7365 15.407 20.4626 14.8534 19.9147C14.2999 19.367 14.0231 18.6608 14.0231 17.7964C14.0231 16.9319 14.2952 16.2078 14.8395 15.6239C15.3837 15.0401 16.0852 14.7482 16.9441 14.7482C17.8029 14.7482 18.5223 15.0354 19.1023 15.6099C19.6823 16.1843 19.9723 16.9037 19.9723 17.7681C19.9723 18.6326 19.6869 19.3435 19.1162 19.9007Z" fill="white"/>
<path fill-rule="evenodd" clip-rule="evenodd" d="M12.0837 8.33223C11.0996 8.33223 10.2721 8.6779 9.55718 9.39752C9.42497 9.53059 9.30547 9.66754 9.19849 9.80864H10.0889C10.6468 9.27185 11.3176 8.95318 12.0837 8.95318H45.7084C46.5033 8.95318 47.1955 9.29622 47.7656 9.86999C48.3356 10.4438 48.6764 11.1406 48.6764 11.9406V45.7862C48.6764 46.5862 48.3356 47.283 47.7656 47.8568C47.1955 48.4306 46.5033 48.7736 45.7084 48.7736H12.0837C11.3176 48.7736 10.6468 48.4549 10.0889 47.9182H9.19849C9.30547 48.0593 9.42497 48.1962 9.55718 48.3293C10.2721 49.0489 11.0996 49.3946 12.0837 49.3946H45.7084C46.6926 49.3946 47.52 49.0489 48.235 48.3293C48.9499 47.6097 49.2933 46.7768 49.2933 45.7862V11.9406C49.2933 10.95 48.9499 10.1171 48.235 9.39752C47.52 8.6779 46.6926 8.33223 45.7084 8.33223H12.0837ZM9.11574 47.8046V9.92219C8.70027 10.5158 8.49884 11.182 8.49884 11.9406V45.7862C8.49884 46.5448 8.70027 47.211 9.11574 47.8046ZM10.8155 45.7862C10.8155 46.0521 10.916 46.3324 11.2285 46.647C11.541 46.9616 11.8195 47.0627 12.0837 47.0627H45.7084C45.9726 47.0627 46.2511 46.9616 46.5637 46.647C46.8762 46.3324 46.9766 46.0521 46.9766 45.7862V11.9406C46.9766 11.6747 46.8762 11.3944 46.5637 11.0798C46.2511 10.7652 45.9726 10.6641 45.7084 10.6641H12.0837C11.8195 10.6641 11.541 10.7652 11.2285 11.0798C10.916 11.3944 10.8155 11.6747 10.8155 11.9406V45.7862ZM8.35526 8.1877C9.38335 7.15286 10.6409 6.6213 12.0837 6.6213H45.7084C47.1513 6.6213 48.4088 7.15286 49.4369 8.1877C50.465 9.22254 50.9931 10.4883 50.9931 11.9406V45.7862C50.9931 47.2385 50.465 48.5042 49.4369 49.5391C48.4088 50.5739 47.1513 51.1055 45.7084 51.1055H12.0837C10.6409 51.1055 9.38335 50.5739 8.35526 49.5391C7.32717 48.5042 6.79908 47.2385 6.79908 45.7862V11.9406C6.79908 10.4883 7.32717 9.22254 8.35526 8.1877ZM14.2197 15.0386C14.9384 14.2676 15.8714 13.8928 16.9441 13.8928C18.0122 13.8928 18.9499 14.2588 19.6984 15.0001C20.4505 15.745 20.8222 16.6886 20.8222 17.7681C20.8222 18.8434 20.4578 19.7826 19.708 20.5147C18.9653 21.2399 18.0323 21.5919 16.972 21.5919C15.9162 21.5919 14.9877 21.2473 14.2576 20.5248C13.5235 19.7983 13.1732 18.8634 13.1732 17.7964C13.1732 16.7334 13.5152 15.7943 14.2197 15.0386ZM16.9441 15.6037C16.2991 15.6037 15.829 15.8126 15.4593 16.2093C15.0753 16.6212 14.873 17.1304 14.873 17.7964C14.873 18.4583 15.0763 18.9356 15.4493 19.3047C15.8263 19.6778 16.3102 19.881 16.972 19.881C17.6294 19.881 18.1259 19.6759 18.5245 19.2866C18.916 18.9044 19.1224 18.4218 19.1224 17.7681C19.1224 17.1188 18.9141 16.6236 18.5062 16.2197C18.0947 15.8121 17.5935 15.6037 16.9441 15.6037ZM33.5296 31.3217L42.4923 43.2957H15.6865L22.2221 34.8249L26.6031 39.9696L33.5296 31.3217ZM27.4928 41.5848H39.0834L33.4842 34.1043L27.4928 41.5848ZM25.7397 41.5848H19.1587L22.287 37.5301L25.7397 41.5848Z" fill="black"/>
<path d="M52.4987 0.426552C52.7309 -0.142184 53.5312 -0.142184 53.7634 0.426552L54.2177 1.53884C54.2871 1.70884 54.4212 1.84382 54.5901 1.91371L55.6952 2.37095C56.2602 2.60476 56.2602 3.41023 55.6952 3.64404L54.5901 4.10129C54.4212 4.17117 54.2871 4.30615 54.2177 4.47615L53.7634 5.58844C53.5312 6.15718 52.7309 6.15718 52.4987 5.58844L52.0444 4.47615C51.975 4.30615 51.8409 4.17117 51.672 4.10129L50.5669 3.64404C50.0019 3.41023 50.0019 2.60476 50.5669 2.37095L51.672 1.91371C51.8409 1.84382 51.975 1.70884 52.0444 1.53884L52.4987 0.426552Z" fill="#050505"/>
<path d="M55.1086 52.4494C55.4225 51.681 56.5036 51.681 56.8175 52.4494L57.4312 53.9522C57.5251 54.1819 57.7062 54.3643 57.9344 54.4587L59.4274 55.0765C60.1909 55.3924 60.1909 56.4807 59.4274 56.7966L57.9344 57.4144C57.7062 57.5088 57.525 57.6912 57.4312 57.9209L56.8175 59.4237C56.5036 60.1921 55.4225 60.1921 55.1086 59.4237L54.4949 57.9209C54.4011 57.6912 54.2199 57.5088 53.9917 57.4144L52.4987 56.7966C51.7353 56.4807 51.7353 55.3924 52.4987 55.0765L53.9917 54.4587C54.2199 54.3643 54.4011 54.1819 54.4949 53.9522L55.1086 52.4494Z" fill="#050505"/>
<path d="M1.84251 21.9256C2.02421 21.4807 2.65016 21.4807 2.83185 21.9256L3.18719 22.7957C3.2415 22.9286 3.34639 23.0342 3.4785 23.0889L4.34288 23.4466C4.78486 23.6294 4.78486 24.2595 4.34288 24.4424L3.4785 24.8001C3.34639 24.8547 3.2415 24.9603 3.18719 25.0933L2.83185 25.9633C2.65016 26.4082 2.02421 26.4082 1.84251 25.9633L1.48718 25.0933C1.43287 24.9603 1.32797 24.8547 1.19586 24.8001L0.331482 24.4424C-0.110494 24.2595 -0.110494 23.6294 0.331482 23.4466L1.19586 23.0889C1.32797 23.0342 1.43287 22.9286 1.48718 22.7957L1.84251 21.9256Z" fill="#050505"/>
</svg>
