<svg width="30" height="39" viewBox="0 0 30 39" fill="none" xmlns="http://www.w3.org/2000/svg">
<path d="M15 18.5893L11.6464 21.21C11.4593 21.3343 11.2793 21.3364 11.1064 21.2164C10.9336 21.0964 10.8829 20.9393 10.9543 20.745L12.2229 16.4914L8.88428 14.07C8.70571 13.9457 8.65929 13.7814 8.745 13.5771C8.83072 13.3714 8.97071 13.2686 9.165 13.2686H13.3179L14.5886 9.04071C14.66 8.84643 14.7971 8.74929 15 8.74929C15.2029 8.74929 15.34 8.84643 15.4114 9.04071L16.6821 13.2686H20.8221C21.0179 13.2686 21.1607 13.3714 21.2507 13.5771C21.3407 13.7829 21.2957 13.9471 21.1157 14.07L17.7643 16.4914L19.035 20.745C19.1064 20.9393 19.0557 21.0964 18.8829 21.2164C18.7086 21.3364 18.5286 21.3343 18.3429 21.21L15 18.5893ZM15 36.3471L6.50786 38.8843C5.95786 39.08 5.45 38.9979 4.98429 38.6379C4.51857 38.2779 4.28571 37.8093 4.28571 37.2321V25.4379C2.92857 24.1036 1.875 22.5407 1.125 20.7493C0.375 18.9579 0 17.0414 0 15C0 10.8186 1.455 7.27357 4.365 4.365C7.27357 1.455 10.8186 0 15 0C19.1814 0 22.7264 1.455 25.635 4.365C28.545 7.27357 30 10.8186 30 15C30 17.0414 29.625 18.9579 28.875 20.7493C28.125 22.5407 27.0714 24.1029 25.7143 25.4357V37.23C25.7143 37.8071 25.4814 38.2757 25.0157 38.6357C24.55 38.9957 24.0429 39.0779 23.4943 38.8821L15 36.3471ZM15 27.8571C18.5714 27.8571 21.6071 26.6071 24.1071 24.1071C26.6071 21.6071 27.8571 18.5714 27.8571 15C27.8571 11.4286 26.6071 8.39286 24.1071 5.89286C21.6071 3.39286 18.5714 2.14286 15 2.14286C11.4286 2.14286 8.39286 3.39286 5.89286 5.89286C3.39286 8.39286 2.14286 11.4286 2.14286 15C2.14286 18.5714 3.39286 21.6071 5.89286 24.1071C8.39286 26.6071 11.4286 27.8571 15 27.8571ZM6.42857 36.5229L15 34.1229L23.5714 36.5229V27.2443C22.3757 28.1229 21.0479 28.8014 19.5879 29.28C18.1293 29.76 16.6 30 15 30C13.4 30 11.8707 29.76 10.4121 29.28C8.95214 28.8029 7.62429 28.1243 6.42857 27.2443V36.5229Z" fill="#333333"/>
</svg>
