<svg width="90" height="24" viewBox="0 0 90 24" fill="none" xmlns="http://www.w3.org/2000/svg">
<path d="M12 24C18.6274 24 24 18.6274 24 12C24 5.37258 18.6274 0 12 0C5.37258 0 0 5.37258 0 12C0 18.6274 5.37258 24 12 24Z" fill="#FFCC4D"/>
<path d="M11.9993 14.0001C9.58402 14.0001 7.98135 13.7188 5.99935 13.3335C5.54668 13.2461 4.66602 13.3335 4.66602 14.6668C4.66602 17.3335 7.72935 20.6668 11.9993 20.6668C16.2687 20.6668 19.3327 17.3335 19.3327 14.6668C19.3327 13.3335 18.452 13.2455 17.9993 13.3335C16.0173 13.7188 14.4147 14.0001 11.9993 14.0001Z" fill="#664500"/>
<path d="M6 14.6665C6 14.6665 8 15.3332 12 15.3332C16 15.3332 18 14.6665 18 14.6665C18 14.6665 16.6667 17.3332 12 17.3332C7.33333 17.3332 6 14.6665 6 14.6665Z" fill="white"/>
<path d="M8.00065 11.3332C8.92113 11.3332 9.66732 10.2885 9.66732 8.99984C9.66732 7.71117 8.92113 6.6665 8.00065 6.6665C7.08018 6.6665 6.33398 7.71117 6.33398 8.99984C6.33398 10.2885 7.08018 11.3332 8.00065 11.3332Z" fill="#664500"/>
<path d="M16.0007 11.3332C16.9211 11.3332 17.6673 10.2885 17.6673 8.99984C17.6673 7.71117 16.9211 6.6665 16.0007 6.6665C15.0802 6.6665 14.334 7.71117 14.334 8.99984C14.334 10.2885 15.0802 11.3332 16.0007 11.3332Z" fill="#664500"/>
<path d="M45.9757 24C44.3441 24 42.7944 23.6876 41.3265 23.0629C39.8586 22.4381 38.5809 21.5848 37.4935 20.503C36.406 19.4212 35.5519 18.1466 34.9311 16.6792C34.3104 15.2118 34 13.6551 34 12.009C34 10.3629 34.3124 8.80668 34.9371 7.34035C35.5619 5.87402 36.4144 4.59683 37.4945 3.50879C38.5746 2.42073 39.8487 1.56391 41.3169 0.938334C42.7851 0.312777 44.3427 0 45.9897 0C47.6367 0 49.194 0.314371 50.6616 0.943115C52.1292 1.57188 53.4066 2.42673 54.4938 3.50767C55.5811 4.58864 56.4373 5.8646 57.0624 7.33557C57.6875 8.80656 58 10.3587 58 11.9919V13.5561C58 14.7055 57.5846 15.673 56.7537 16.4588C55.9229 17.2446 54.9249 17.6374 53.7599 17.6374C53.0063 17.6374 52.3197 17.4665 51.7002 17.1245C51.0807 16.7826 50.5963 16.3037 50.2469 15.6879C49.7448 16.3527 49.1182 16.8438 48.3671 17.1613C47.616 17.4787 46.8259 17.6374 45.9969 17.6374C44.4337 17.6374 43.0991 17.0912 41.993 15.9988C40.887 14.9065 40.3339 13.5736 40.3339 12.0001C40.3339 10.4112 40.8853 9.06757 41.988 7.96914C43.0907 6.8707 44.4228 6.32148 45.9842 6.32148C47.5456 6.32148 48.8802 6.87074 49.9881 7.96926C51.096 9.06776 51.6499 10.414 51.6499 12.0081V13.466C51.6499 14.0375 51.8561 14.5111 52.2684 14.8867C52.6808 15.2623 53.1737 15.4502 53.7471 15.4502C54.3051 15.4502 54.7835 15.2623 55.1822 14.8867C55.581 14.5111 55.7804 14.0375 55.7804 13.466V11.9919C55.7804 9.27534 54.8276 6.96748 52.9221 5.06833C51.0165 3.16918 48.7047 2.2196 45.9867 2.2196C43.2687 2.2196 40.9587 3.17237 39.0566 5.07792C37.1545 6.98347 36.2034 9.29525 36.2034 12.0133C36.2034 14.7313 37.153 17.0413 39.0522 18.9434C40.9513 20.8455 43.2592 21.7966 45.9757 21.7966H51.0648C51.3724 21.7966 51.6292 21.9028 51.8352 22.1152C52.0411 22.3277 52.1441 22.5886 52.1441 22.8979C52.1441 23.214 52.0411 23.4767 51.8352 23.686C51.6292 23.8953 51.3724 24 51.0648 24H45.9757ZM45.9998 15.4502C46.9415 15.4502 47.754 15.1088 48.4375 14.4259C49.1209 13.7431 49.4626 12.9351 49.4626 12.0019C49.4626 11.04 49.1183 10.2173 48.4296 9.53389C47.7409 8.85046 46.9257 8.50875 45.984 8.50875C45.0423 8.50875 44.2298 8.85254 43.5463 9.54014C42.8629 10.2277 42.5212 11.0524 42.5212 12.0143C42.5212 12.9476 42.8656 13.7535 43.5543 14.4322C44.243 15.1108 45.0582 15.4502 45.9998 15.4502Z" fill="#02558B"/>
<path d="M74.9232 17.0705L73.8958 21.0879C73.8258 21.368 73.6885 21.5901 73.4839 21.7541C73.2794 21.918 73.0426 22 72.7736 22C72.3645 22 72.038 21.8458 71.7942 21.5376C71.5504 21.2292 71.4831 20.8804 71.5924 20.4909L72.4687 17.0705H69.2161C68.807 17.0705 68.4833 16.9212 68.245 16.6227C68.0067 16.3242 67.9423 15.9705 68.0516 15.5614C68.1216 15.3009 68.261 15.0788 68.4698 14.8952C68.6786 14.7116 68.9274 14.6198 69.2161 14.6198H73.0823L74.4133 9.35075H71.1607C70.7516 9.35075 70.428 9.20151 70.1897 8.90301C69.9514 8.60454 69.8869 8.25075 69.9962 7.84167C70.0663 7.58118 70.2057 7.35913 70.4145 7.1755C70.6233 6.99188 70.872 6.90007 71.1607 6.90007H75.027L76.0083 2.9121C76.0783 2.63197 76.2156 2.40992 76.4201 2.24594C76.6247 2.08198 76.8713 2 77.16 2C77.5494 2 77.8611 2.15202 78.0951 2.45605C78.3292 2.76009 78.4013 3.09145 78.3116 3.45016L77.4943 6.90007H82.7467L83.728 2.9121C83.798 2.63197 83.9353 2.40992 84.1399 2.24594C84.3444 2.08198 84.591 2 84.8797 2C85.2691 2 85.5808 2.15202 85.8149 2.45605C86.0489 2.76009 86.121 3.09145 86.0314 3.45016L85.214 6.90007H88.4667C88.8561 6.90007 89.17 7.05423 89.4082 7.36255C89.6465 7.67084 89.7208 8.01971 89.6312 8.40916C89.5415 8.68929 89.3922 8.91625 89.1834 9.09005C88.9746 9.26385 88.7357 9.35075 88.4667 9.35075H84.5876L83.2694 14.6198H86.522C86.9114 14.6198 87.2253 14.7739 87.4636 15.0823C87.7019 15.3906 87.7762 15.7394 87.6865 16.1289C87.5968 16.409 87.4476 16.636 87.2388 16.8098C87.03 16.9836 86.791 17.0705 86.522 17.0705H82.6429L81.6155 21.0879C81.5455 21.368 81.4082 21.5901 81.2037 21.7541C80.9991 21.918 80.7623 22 80.4933 22C80.0842 22 79.7577 21.8458 79.5139 21.5376C79.2701 21.2292 79.2028 20.8804 79.3121 20.4909L80.1884 17.0705H74.9232ZM75.5497 14.6198H80.802L82.1331 9.35075H76.8679L75.5497 14.6198Z" fill="#279B48"/>
</svg>
