<svg width="35" height="35" viewBox="0 0 35 35" fill="none" xmlns="http://www.w3.org/2000/svg">
<path fill-rule="evenodd" clip-rule="evenodd" d="M31.9824 7.88212C31.7576 8.02182 31.5662 8.20882 31.4213 8.42991C33.5471 11.8036 33.2367 16.4464 30.4901 19.4495L30.4833 19.457L20.8207 29.2621C19.9269 30.1691 18.5938 30.0781 17.5 30.0781C16.1757 30.0781 15.0731 30.1691 14.1793 29.262L12.782 27.844C12.1786 28.5606 11.2109 28.4375 10.3906 28.4375C9.57031 28.4375 8.18628 28.5135 7.72089 27.3814L7.46257 26.753C7.4049 26.6127 7.2935 26.5013 7.1532 26.4437L6.52483 26.1854C5.11672 25.6065 5.11672 23.6123 6.52483 23.0334L7.1532 22.7751C7.2935 22.7174 7.4049 22.606 7.46257 22.4657L7.46831 22.4517L4.51671 19.4565L4.50986 19.449C1.41338 16.0631 1.41338 10.5931 4.50986 7.2072C6.00207 5.57553 7.91591 4.86829 9.84375 4.92376V4.92188H12.5781V4.92489C14.305 4.97457 16.043 5.63617 17.4993 6.79347C18.9559 5.63547 20.6945 4.97345 22.4219 4.92376L22.5029 4.92188C22.5885 4.92036 22.6739 4.92036 22.7593 4.92188H24.4255C24.5557 4.74927 24.7209 4.59565 24.9211 4.47124L25.4394 4.14913C25.6767 4.00172 25.8767 3.80165 26.0241 3.56444L26.3462 3.04609C26.7019 2.4737 27.2963 2.1875 27.8906 2.1875H29.5312C30.1256 2.1875 30.7199 2.4737 31.0756 3.04609L31.3977 3.56444C31.5452 3.80165 31.7452 4.00172 31.9824 4.14913L32.5008 4.47124C33.6456 5.18261 33.6456 6.84864 32.5008 7.56001L31.9824 7.88212Z" fill="#050505"/>
<path d="M29.2838 26.599C29.4751 26.1337 30.1342 26.1337 30.3255 26.599L30.6997 27.5092C30.7569 27.6483 30.8673 27.7587 31.0064 27.8159L31.9166 28.1901C32.382 28.3814 32.382 29.0405 31.9166 29.2318L31.0064 29.6059C30.8673 29.6631 30.7569 29.7736 30.6997 29.9127L30.3255 30.8228C30.1342 31.2882 29.4751 31.2882 29.2838 30.8228L28.9097 29.9127C28.8525 29.7736 28.742 29.6631 28.6029 29.6059L27.6928 29.2318C27.2274 29.0405 27.2274 28.3814 27.6928 28.1901L28.6029 27.8159C28.742 27.7587 28.8525 27.6483 28.9097 27.5092L29.2838 26.599Z" fill="#050505"/>
<path d="M3.02936 1.99265C3.22231 1.52328 3.88706 1.52328 4.08002 1.99265L4.29191 2.50809C4.34958 2.64838 4.46098 2.75978 4.60128 2.81746L5.11672 3.02935C5.58609 3.2223 5.58609 3.88704 5.11672 4.07999L4.60128 4.29188C4.46098 4.34956 4.34958 4.46096 4.29191 4.60125L4.08002 5.11669C3.88706 5.58606 3.22231 5.58606 3.02936 5.11669L2.81747 4.60125C2.75979 4.46096 2.64839 4.34956 2.5081 4.29188L1.99265 4.07999C1.52328 3.88704 1.52328 3.2223 1.99265 3.02935L2.5081 2.81746C2.64839 2.75978 2.75979 2.64838 2.81747 2.50809L3.02936 1.99265Z" fill="#050505"/>
<path d="M3.568 29.8888C3.76398 29.4121 4.43915 29.4121 4.63513 29.8888L4.68228 30.0035C4.74086 30.146 4.85401 30.2591 4.9965 30.3177L5.1112 30.3649C5.58793 30.5608 5.58793 31.236 5.1112 31.432L4.9965 31.4791C4.85401 31.5377 4.74086 31.6509 4.68228 31.7933L4.63513 31.908C4.43915 32.3848 3.76398 32.3848 3.568 31.908L3.52084 31.7933C3.46227 31.6509 3.34912 31.5377 3.20662 31.4791L3.09192 31.432C2.61519 31.236 2.61519 30.5608 3.09192 30.3649L3.20662 30.3177C3.34912 30.2591 3.46227 30.146 3.52084 30.0035L3.568 29.8888Z" fill="#050505"/>
<path d="M29.5312 9.81361L27.8906 9.81362C27.2963 9.81361 26.7019 9.52916 26.3462 8.96027L26.0241 8.4451C25.8767 8.20933 25.6767 8.01049 25.4394 7.86398L24.9211 7.54385C24.3907 7.21625 24.106 6.68496 24.0671 6.13874C22.5811 6.43882 21.1296 7.25762 19.9633 8.53291L19.5974 8.93308L21.0852 10.6497C21.2823 10.8771 21.2566 11.2203 21.0277 11.4162C20.7989 11.6121 20.4536 11.5866 20.2565 11.3592L18.4576 9.28362L17.771 8.53291C15.022 5.52697 10.6885 5.05721 8.05361 7.93834C5.33854 10.9072 5.3363 15.7385 8.04689 18.7104L10.4361 21.135C11.2645 20.4917 12.6034 20.7258 13.0604 21.8373L13.3187 22.4657C13.3764 22.606 13.4877 22.7174 13.628 22.7751L14.2564 23.0334C15.3846 23.4972 15.6089 24.8696 14.9292 25.6946L17.6951 28.5014C18.3384 29.1543 19.3959 29.1543 20.0393 28.5014L29.6875 18.7104C31.9934 16.1823 32.336 12.3084 30.7155 9.3803C30.3783 9.66917 29.9548 9.81361 29.5312 9.81361Z" fill="#279B48"/>
<path d="M30.4709 4.14216L30.1492 3.62434C29.8649 3.16689 29.1992 3.16689 28.9149 3.62434L28.5931 4.14216C28.3575 4.52132 28.0377 4.84111 27.6586 5.07672L27.1407 5.3985C26.6833 5.68276 26.6833 6.34849 27.1407 6.63275L27.6586 6.95453C28.0377 7.19014 28.3575 7.50993 28.5931 7.88909L28.9149 8.40691C29.1992 8.86436 29.8649 8.86436 30.1492 8.40691L30.4709 7.88909C30.7065 7.50993 31.0263 7.19014 31.4055 6.95453L31.9233 6.63275C32.3808 6.34849 32.3808 5.68276 31.9233 5.3985L31.4055 5.07672C31.0263 4.84111 30.7065 4.52132 30.4709 4.14216Z" fill="#E9EBF4"/>
<path d="M12.0105 22.2693C11.8175 21.7999 11.1527 21.7999 10.9598 22.2693L10.7015 22.8976C10.5285 23.3185 10.1943 23.6527 9.77337 23.8257L9.145 24.084C8.67563 24.277 8.67563 24.9418 9.145 25.1347L9.77337 25.393C10.1943 25.566 10.5285 25.9002 10.7015 26.3211L10.9598 26.9495C11.1527 27.4189 11.8175 27.4189 12.0105 26.9495L12.2688 26.3211C12.4418 25.9002 12.776 25.566 13.1969 25.393L13.8253 25.1347C14.2946 24.9418 14.2946 24.277 13.8253 24.0841L13.1969 23.8257C12.776 23.6527 12.4418 23.3185 12.2688 22.8976L12.0105 22.2693Z" fill="#E9EBF4"/>
</svg>
