<svg width="18" height="18" viewBox="0 0 18 18" fill="none" xmlns="http://www.w3.org/2000/svg">
<path d="M1.97454 8.29451C1.42549 8.29451 0.959132 8.10044 0.575479 7.71231C0.191826 7.3242 0 6.8556 0 6.30653V1.98796C0 1.4389 0.191826 0.970306 0.575479 0.582174C0.959132 0.194058 1.42549 0 1.97454 0H6.30655C6.84667 0 7.31078 0.194058 7.6989 0.582174C8.08703 0.970306 8.2811 1.4389 8.2811 1.98796V6.30653C8.2811 6.8556 8.08703 7.3242 7.6989 7.71231C7.31078 8.10044 6.84667 8.29451 6.30655 8.29451H1.97454ZM1.97454 18C1.42549 18 0.959132 17.8082 0.575479 17.4245C0.191826 17.0409 0 16.5745 0 16.0255V11.6934C0 11.1533 0.191826 10.6892 0.575479 10.3011C0.959132 9.91297 1.42549 9.7189 1.97454 9.7189H6.30655C6.84667 9.7189 7.31078 9.91297 7.6989 10.3011C8.08703 10.6892 8.2811 11.1533 8.2811 11.6934V16.0255C8.2811 16.5745 8.08703 17.0409 7.6989 17.4245C7.31078 17.8082 6.84667 18 6.30655 18H1.97454ZM11.6935 8.29451C11.1444 8.29451 10.6758 8.10044 10.2877 7.71231C9.89956 7.3242 9.70549 6.8556 9.70549 6.30653V1.98796C9.70549 1.4389 9.89956 0.970306 10.2877 0.582174C10.6758 0.194058 11.1444 0 11.6935 0H16.012C16.5611 0 17.0297 0.194058 17.4178 0.582174C17.8059 0.970306 18 1.4389 18 1.98796V6.30653C18 6.8556 17.8059 7.3242 17.4178 7.71231C17.0297 8.10044 16.5611 8.29451 16.012 8.29451H11.6935ZM11.6935 18C11.1444 18 10.6758 17.8082 10.2877 17.4245C9.89956 17.0409 9.70549 16.5745 9.70549 16.0255V11.6934C9.70549 11.1533 9.89956 10.6892 10.2877 10.3011C10.6758 9.91297 11.1444 9.7189 11.6935 9.7189H16.012C16.5611 9.7189 17.0297 9.91297 17.4178 10.3011C17.8059 10.6892 18 11.1533 18 11.6934V16.0255C18 16.5745 17.8059 17.0409 17.4178 17.4245C17.0297 17.8082 16.5611 18 16.012 18H11.6935Z" fill="#050505"/>
</svg>
