<svg width="14" height="14" viewBox="0 0 14 14" fill="none" xmlns="http://www.w3.org/2000/svg">
<path d="M1.85914 13.5532C1.7643 13.5532 1.67503 13.5171 1.59693 13.4509C1.46862 13.3366 1.41283 13.15 1.46304 12.9755L2.18828 10.424C1.67503 9.9366 1.25662 9.37696 0.95537 8.76316C0.598326 8.03503 0.414226 7.25274 0.414226 6.44638C0.414226 5.64604 0.592748 4.86374 0.944212 4.12358C1.27894 3.4135 1.75872 2.76961 2.36681 2.21599C2.98047 1.66237 3.6834 1.2291 4.45886 0.922201C5.26778 0.603267 6.12134 0.446809 7.00279 0.446809C7.87866 0.446809 8.7378 0.609284 9.54672 0.922201C10.3222 1.2291 11.0251 1.66237 11.6332 2.21599C12.2413 2.76961 12.7211 3.4135 13.0558 4.12358C13.4073 4.86976 13.5858 5.65205 13.5858 6.44638C13.5858 7.24672 13.4073 8.01698 13.0558 8.74511C12.7211 9.44316 12.2357 10.063 11.6276 10.5985C10.3891 11.6757 8.74895 12.2714 7.00279 12.2714C6.22176 12.2714 5.46304 12.1511 4.7378 11.9164L2.05997 13.493C1.99303 13.5351 1.92608 13.5532 1.85914 13.5532ZM7.00279 1.3314C6.22176 1.3314 5.45746 1.47582 4.7378 1.75865C4.0516 2.02944 3.43236 2.40855 2.90237 2.89598C2.37796 3.37137 1.96513 3.92499 1.68061 4.53277C1.39052 5.15259 1.23989 5.79648 1.23989 6.4524C1.23989 7.76424 1.83682 8.99785 2.91911 9.93058C3.053 10.0449 3.10321 10.2315 3.05858 10.406L2.55091 12.1992L4.49791 11.0559C4.59833 10.9957 4.71548 10.9837 4.82148 11.0258C5.51325 11.2665 6.24965 11.3929 7.00279 11.3929C10.1771 11.3929 12.7657 9.17838 12.7657 6.45841C12.7657 5.80249 12.6206 5.15861 12.325 4.53879C12.0349 3.93101 11.6276 3.38341 11.1032 2.902C10.5732 2.41457 9.95398 2.03546 9.26778 1.76467C8.54812 1.47582 7.78382 1.3314 7.00279 1.3314Z" fill="white"/>
<path fill-rule="evenodd" clip-rule="evenodd" d="M9.33122 1.31403C9.35792 1.32433 9.38458 1.33481 9.41118 1.34548C9.54049 1.39654 9.66775 1.4513 9.79281 1.50978C9.66611 1.45017 9.53697 1.39431 9.40549 1.34224C9.38078 1.33269 9.35602 1.32328 9.33122 1.31403ZM12.4118 3.81651C12.1734 3.42791 11.8869 3.06714 11.5537 2.73563C11.8893 3.06822 12.1762 3.43044 12.4118 3.81651ZM1.86276 13.1001L2.32724 11.4594L1.86051 13.1014L1.86276 13.1001ZM1.3037 4.34672C1.13448 4.71113 1.00823 5.08587 0.928092 5.46841C1.00677 5.08701 1.132 4.71212 1.3037 4.34672ZM4.31665 0.502547C5.17347 0.164731 6.07537 0 7.00279 0C7.92626 0 8.8327 0.171325 9.68655 0.50162L9.68941 0.502724C10.5075 0.82648 11.2531 1.28526 11.9004 1.87455C12.5476 2.46377 13.0634 3.15394 13.425 3.92106C13.8044 4.72647 14 5.57792 14 6.44638C14 7.32083 13.8044 8.16145 13.4234 8.95095C13.0593 9.7102 12.5352 10.376 11.8896 10.9446L11.8876 10.9464C10.5686 12.0936 8.83434 12.7182 7.00279 12.7182C6.24193 12.7182 5.49993 12.6095 4.78675 12.3966L2.26278 13.8826C2.13442 13.962 1.99755 14 1.85914 14C1.66176 14 1.48407 13.9235 1.34101 13.8022L1.33703 13.7988L1.33312 13.7954C1.08066 13.5704 0.965622 13.1981 1.0672 12.8439L1.06743 12.8431L1.71566 10.5625C1.25737 10.0896 0.875608 9.5556 0.589282 8.97222C0.201748 8.18191 0 7.328 0 6.44638C0 5.5726 0.195251 4.72097 0.575246 3.92049C0.936853 3.15359 1.45259 2.46363 2.09963 1.87455L2.10105 1.87325C2.75299 1.28511 3.49844 0.826367 4.31665 0.502547ZM4.87985 2.17836C5.55322 1.91377 6.26937 1.77821 7.00279 1.77821C7.73627 1.77821 8.45151 1.91378 9.12333 2.18343L9.12546 2.18428C9.76991 2.4386 10.3453 2.79216 10.8345 3.242C11.3207 3.68834 11.693 4.19095 11.9566 4.74323M4.87985 2.17836C4.23551 2.43267 3.66017 2.7862 3.17113 3.23598L3.16888 3.23804C2.68384 3.67775 2.30766 4.18457 2.05039 4.73414C1.78687 5.29716 1.65411 5.87249 1.65411 6.4524C1.65411 7.60795 2.17792 8.71991 3.17767 9.58151L2.91911 9.93058L3.17622 9.58026C3.44887 9.81309 3.54387 10.1886 3.45789 10.5248L3.45639 10.5307L3.24312 11.284L4.29674 10.6653L4.29855 10.6642C4.49516 10.5471 4.73298 10.518 4.95514 10.6028C5.60368 10.8277 6.29491 10.9461 7.00279 10.9461C10.0428 10.9461 12.3515 8.84082 12.3515 6.45841C12.3515 5.8761 12.2232 5.302 11.9566 4.74323" fill="white"/>
<path d="M10.4236 5.93323H3.59964C3.34804 5.93323 3.14553 5.66756 3.14553 5.33749C3.14553 5.00741 3.34804 4.74174 3.59964 4.74174H10.4236C10.6752 4.74174 10.8777 5.00741 10.8777 5.33749C10.8777 5.66756 10.6752 5.93323 10.4236 5.93323Z" fill="white"/>
<path fill-rule="evenodd" clip-rule="evenodd" d="M3.59964 4.89068C3.44835 4.89068 3.2836 5.06107 3.2836 5.33749C3.2836 5.6139 3.44835 5.78429 3.59964 5.78429H10.4236C10.5749 5.78429 10.7397 5.6139 10.7397 5.33749C10.7397 5.06107 10.5749 4.89068 10.4236 4.89068H3.59964ZM3.00745 5.33749C3.00745 4.95375 3.24773 4.5928 3.59964 4.5928H10.4236C10.7755 4.5928 11.0158 4.95375 11.0158 5.33749C11.0158 5.72122 10.7755 6.08217 10.4236 6.08217H3.59964C3.24773 6.08217 3.00745 5.72122 3.00745 5.33749Z" fill="white"/>
<path d="M9.28055 8.31621H4.18385C3.91457 8.31621 3.69783 8.05054 3.69783 7.72047C3.69783 7.39039 3.91457 7.12472 4.18385 7.12472H9.28712C9.5564 7.12472 9.77314 7.39039 9.77314 7.72047C9.76657 8.05054 9.54983 8.31621 9.28055 8.31621Z" fill="white"/>
<path fill-rule="evenodd" clip-rule="evenodd" d="M4.18385 7.27366C4.00688 7.27366 3.8359 7.45419 3.8359 7.72047C3.8359 7.98674 4.00688 8.16727 4.18385 8.16727H9.28055C9.45704 8.16727 9.62906 7.98715 9.63507 7.71886C9.63438 7.45346 9.46373 7.27366 9.28712 7.27366H4.18385ZM3.55975 7.72047C3.55975 7.3266 3.82226 6.97578 4.18385 6.97578H9.28712C9.64871 6.97578 9.91122 7.3266 9.91122 7.72047V7.72366C9.90344 8.11465 9.64228 8.46515 9.28055 8.46515H4.18385C3.82226 8.46515 3.55975 8.11434 3.55975 7.72047Z" fill="white"/>
</svg>
