<svg width="36" height="36" viewBox="0 0 36 36" fill="none" xmlns="http://www.w3.org/2000/svg">
<path fill-rule="evenodd" clip-rule="evenodd" d="M20.5708 10.2857C20.9517 9.90476 21.5431 9.90476 21.9241 10.2857L24.6309 12.9925C24.7051 13.0667 24.7443 13.1436 24.7605 13.1762L24.8094 13.2252L24.8409 13.3195C24.9086 13.5227 24.9348 13.7778 24.8482 14.0051C24.8236 14.1075 24.7728 14.1817 24.7444 14.2195C24.7055 14.2715 24.6591 14.3177 24.6356 14.3412C24.6339 14.3429 24.6323 14.3444 24.6309 14.3458L21.9241 17.0526C21.7317 17.245 21.4599 17.3383 21.2474 17.3383C21.035 17.3383 20.7632 17.245 20.5708 17.0526C20.1898 16.6716 20.1898 16.0802 20.5708 15.6993L21.6385 14.6316H15.2926C14.0093 14.6316 13.0068 15.634 13.0068 16.9173C13.0068 17.1754 12.919 17.4232 12.7346 17.6075C12.5503 17.7918 12.3025 17.8797 12.0444 17.8797C11.7863 17.8797 11.5386 17.7918 11.3542 17.6075C11.1699 17.4232 11.082 17.1754 11.082 16.9173C11.082 14.5735 12.9487 12.7068 15.2926 12.7068H21.6385L20.5708 11.6391C20.1898 11.2581 20.1898 10.6667 20.5708 10.2857ZM21.2474 10.8421C21.2273 10.8421 21.1981 10.8494 21.1662 10.8812C21.1344 10.913 21.1271 10.9423 21.1271 10.9624C21.1271 10.9826 21.1344 11.0118 21.1662 11.0436L23.6715 13.5489H15.2926C13.4138 13.5489 11.9241 15.0386 11.9241 16.9173C11.9241 16.984 11.9445 17.0069 11.9497 17.012C11.9548 17.0172 11.9777 17.0376 12.0444 17.0376C12.1112 17.0376 12.134 17.0172 12.1392 17.012C12.1443 17.0069 12.1647 16.984 12.1647 16.9173C12.1647 15.169 13.5442 13.7895 15.2926 13.7895H23.6715L21.1662 16.2947C21.1344 16.3265 21.1271 16.3558 21.1271 16.3759C21.1271 16.3961 21.1344 16.4253 21.1662 16.4572C21.1725 16.4634 21.1887 16.4755 21.2143 16.4858C21.2261 16.4905 21.2367 16.4935 21.2445 16.4951C21.2456 16.4954 21.2466 16.4955 21.2474 16.4957C21.2483 16.4955 21.2493 16.4954 21.2504 16.4951C21.2582 16.4935 21.2688 16.4905 21.2805 16.4858C21.3062 16.4755 21.3224 16.4634 21.3287 16.4572L24.0354 13.7504C24.0375 13.7483 24.0394 13.7464 24.0413 13.7446L24.06 13.7071C24.0604 13.7037 24.061 13.6979 24.061 13.6895C24.061 13.6764 24.0596 13.6602 24.0563 13.6416C24.0357 13.6096 24.0221 13.5827 24.0141 13.5667L21.3287 10.8812C21.2968 10.8494 21.2676 10.8421 21.2474 10.8421ZM23.264 18.3925C23.4483 18.2082 23.6961 18.1203 23.9542 18.1203C24.2123 18.1203 24.4601 18.2082 24.6444 18.3925C24.8287 18.5768 24.9166 18.8246 24.9166 19.0827C24.9166 21.4265 23.0499 23.2932 20.7061 23.2932H14.3602L15.4279 24.3609C15.8089 24.7419 15.8089 25.3333 15.4279 25.7143C15.3489 25.7933 15.2532 25.8693 15.132 25.9231C15.009 25.9778 14.8815 26 14.7512 26C14.6209 26 14.4934 25.9778 14.3704 25.9231C14.2492 25.8693 14.1535 25.7933 14.0745 25.7143L11.3678 23.0075C11.2935 22.9333 11.2544 22.8564 11.2382 22.8238L11.1892 22.7748L11.1578 22.6805C11.09 22.4773 11.0639 22.2222 11.1504 21.9949C11.1751 21.8925 11.2258 21.8183 11.2542 21.7805C11.2932 21.7285 11.3396 21.6823 11.3631 21.6588C11.3648 21.6571 11.3663 21.6556 11.3678 21.6542L14.0745 18.9474C14.4555 18.5664 15.0469 18.5664 15.4279 18.9474C15.8089 19.3284 15.8089 19.9198 15.4279 20.3007L14.3602 21.3684H20.7061C21.9893 21.3684 22.9918 20.366 22.9918 19.0827C22.9918 18.8246 23.0797 18.5768 23.264 18.3925ZM23.8595 18.988C23.8543 18.9931 23.8339 19.016 23.8339 19.0827C23.8339 20.831 22.4544 22.2105 20.7061 22.2105H12.3272L14.8324 19.7053C14.8642 19.6735 14.8715 19.6442 14.8715 19.6241C14.8715 19.6039 14.8642 19.5747 14.8324 19.5428C14.8006 19.511 14.7714 19.5038 14.7512 19.5038C14.731 19.5038 14.7018 19.511 14.67 19.5428L11.9632 22.2496C11.9612 22.2517 11.9592 22.2536 11.9574 22.2554L11.9386 22.2929C11.9382 22.2963 11.9377 22.3021 11.9377 22.3105C11.9377 22.3236 11.939 22.3398 11.9423 22.3584C11.9629 22.3904 11.9765 22.4173 11.9845 22.4333L14.67 25.1188C14.6993 25.1481 14.7118 25.1533 14.7124 25.1536C14.7132 25.1539 14.7149 25.1547 14.7193 25.1555C14.7241 25.1565 14.7341 25.1579 14.7512 25.1579C14.7683 25.1579 14.7783 25.1565 14.7831 25.1555C14.7875 25.1547 14.7892 25.1539 14.79 25.1536C14.7906 25.1533 14.8031 25.1481 14.8324 25.1188C14.8642 25.087 14.8715 25.0577 14.8715 25.0376C14.8715 25.0174 14.8642 24.9882 14.8324 24.9564L12.3272 22.4511H20.7061C22.5848 22.4511 24.0745 20.9614 24.0745 19.0827C24.0745 19.016 24.0541 18.9931 24.049 18.988C24.0438 18.9828 24.0209 18.9624 23.9542 18.9624C23.8875 18.9624 23.8646 18.9828 23.8595 18.988Z" fill="#65676B"/>
</svg>
