<svg width="28" height="28" viewBox="0 0 28 28" fill="none" xmlns="http://www.w3.org/2000/svg">
<path fill-rule="evenodd" clip-rule="evenodd" d="M8.19827 13.4952C8.19827 13.3688 8.21563 13.3054 8.21447 13.1909C8.21242 12.9663 8.27709 12.5361 8.32929 12.3282C8.34974 12.2468 8.36915 12.159 8.39358 12.0722C8.41699 11.989 8.44347 11.9005 8.47215 11.8143C8.78806 10.8654 9.30212 10.1361 10.0496 9.46836C10.3812 9.17208 10.8645 8.88133 11.2471 8.69717C11.3227 8.66083 11.3931 8.63338 11.4719 8.60193C12.0589 8.36777 12.4347 8.29379 13.062 8.2242C13.1704 8.21221 13.2872 8.22381 13.384 8.21015L13.9868 8.23838C14.158 8.24766 14.3926 8.2907 14.5532 8.32782C14.9892 8.42847 15.3851 8.56172 15.7678 8.74524C16.0862 8.89783 16.7017 9.29593 16.9416 9.54027C16.9796 9.57894 16.9886 9.58229 17.028 9.61399L17.4347 10.0399C17.4854 10.1051 17.528 10.1523 17.5806 10.2144C17.6324 10.2755 17.6762 10.3405 17.7229 10.4082C17.7703 10.4772 17.8077 10.528 17.854 10.5973C18.3734 11.3734 18.7047 12.4277 18.7047 13.3671C18.7047 13.903 18.6831 14.2249 18.5576 14.7262C18.3795 15.4372 18.0733 16.1047 17.6266 16.6782C17.5771 16.7417 17.5357 16.7956 17.4845 16.8563L17.1818 17.1939C17.1211 17.2546 17.072 17.2864 17.0136 17.3459C16.9513 17.4093 16.9108 17.4401 16.8457 17.4982C16.7872 17.5505 16.7309 17.591 16.6689 17.6416C16.4223 17.8429 15.9647 18.1169 15.6772 18.2504C15.1486 18.4959 14.3667 18.7366 13.6036 18.7366H13.3157C12.3803 18.7366 11.3155 18.3738 10.6131 17.9031C10.2481 17.6585 10.033 17.4899 9.71358 17.1698C9.04728 16.502 8.55431 15.6121 8.33585 14.6557C8.26141 14.3297 8.19827 13.8421 8.19827 13.4952ZM5 13.2547C5 14.5004 5.10955 15.1984 5.48166 16.3142C5.56549 16.5656 5.66964 16.8257 5.78883 17.0643C6.02439 17.5361 6.26007 17.9535 6.56069 18.3903C6.76565 18.688 7.01097 18.9995 7.26685 19.2532C7.29076 19.2769 7.30851 19.2923 7.33011 19.318C7.35698 19.3503 7.35647 19.357 7.38655 19.3897L7.65888 19.6456C8.18863 20.1566 8.67041 20.4809 9.3047 20.8651C10.416 21.5382 12.0043 21.958 13.4595 21.958C14.3504 21.958 15.4595 21.7896 16.2832 21.4704C16.4835 21.3928 16.6836 21.3253 16.8657 21.2367C17.6213 20.8692 17.7176 20.8139 18.4488 20.3231C18.5504 20.3913 18.6489 20.4948 18.7406 20.5757C18.7774 20.6082 18.8004 20.6385 18.8365 20.672C18.8753 20.708 18.8936 20.7135 18.9329 20.7516L20.0039 21.7298C20.0441 21.7708 20.0556 21.7772 20.0984 21.8115C20.2375 21.9227 20.628 22.3145 20.7769 22.4297C21.0758 22.6611 21.2517 23 21.6952 23C22.1033 23 22.2571 22.6997 22.499 22.4592L22.8186 22.1064C23.0678 21.8274 23.058 21.3702 22.803 21.1041L22.5244 20.8545C22.3722 20.7327 22.2017 20.5387 22.0494 20.417C21.8243 20.2369 21.6019 20.0128 21.3876 19.8141L20.5241 19.0287C20.4027 18.9162 20.2362 18.8101 20.1442 18.6722L20.9811 17.3473C21.0323 17.2448 21.0737 17.1612 21.1251 17.0589C21.2254 16.8595 21.3038 16.6479 21.3847 16.4375C21.9139 15.0631 22.0921 13.1377 21.7082 11.6068C21.6748 11.4737 21.6403 11.3355 21.6058 11.1964C21.5705 11.0538 21.5265 10.9277 21.4814 10.7923C21.375 10.4726 21.2394 10.1618 21.1039 9.8564C20.8971 9.39052 20.6265 8.94487 20.3293 8.53311L20.1101 8.23992C20.0698 8.18567 20.032 8.14404 19.9881 8.08978L19.7445 7.80497C19.6516 7.68305 19.2318 7.27503 19.0935 7.15905C18.9472 7.03623 18.8129 6.90761 18.6593 6.79291L18.0526 6.35912C17.9424 6.28553 17.8409 6.22625 17.7266 6.15691C17.6736 6.12469 17.62 6.09286 17.5643 6.06309C17.3894 5.96953 17.2183 5.86785 17.0352 5.79207L16.4965 5.5628C15.3647 5.15491 14.5673 5 13.2841 5C12.6454 5 11.9691 5.10903 11.4579 5.23713C11.1693 5.30943 10.9366 5.3816 10.6675 5.47078C9.76012 5.77145 8.92359 6.26323 8.1759 6.85232C8.12498 6.8924 8.07959 6.92475 8.03485 6.96741C7.94343 7.05466 7.85291 7.11639 7.76316 7.20802C7.71212 7.26008 7.67637 7.27864 7.62674 7.32774L6.88381 8.13785L6.54513 8.58376C6.32938 8.89667 6.15027 9.20958 5.96511 9.54118C5.59956 10.1957 5.2803 11.102 5.15597 11.8397C5.07805 12.3018 5.00051 12.7561 5.00051 13.2546L5 13.2547Z" fill="#65676B"/>
</svg>
