<svg width="24" height="24" viewBox="0 0 24 24" fill="none" xmlns="http://www.w3.org/2000/svg">
<path d="M11.8386 20.6252C11.4298 20.6252 11.0879 20.4851 10.8129 20.205C10.5379 19.9248 10.4004 19.5881 10.4004 19.1947C10.4004 18.81 10.5369 18.4689 10.8099 18.1714C11.0829 17.8739 11.417 17.7252 11.8122 17.7252C12.221 17.7252 12.5629 17.8735 12.8379 18.1702C13.1129 18.4669 13.2504 18.8086 13.2504 19.1952C13.2504 19.5819 13.1143 19.9169 12.8421 20.2002C12.57 20.4835 12.2355 20.6252 11.8386 20.6252ZM11.8386 13.3502C11.4298 13.3502 11.0879 13.2137 10.8129 12.9407C10.5379 12.6677 10.4004 12.3336 10.4004 11.9384C10.4004 11.5296 10.5369 11.1877 10.8099 10.9127C11.0829 10.6377 11.417 10.5002 11.8122 10.5002C12.221 10.5002 12.5629 10.6363 12.8379 10.9084C13.1129 11.1806 13.2504 11.5151 13.2504 11.912C13.2504 12.3208 13.1143 12.6627 12.8421 12.9377C12.57 13.2127 12.2355 13.3502 11.8386 13.3502ZM11.8386 6.1252C11.4298 6.1252 11.0879 5.98135 10.8129 5.69367C10.5379 5.40599 10.4004 5.06015 10.4004 4.65617C10.4004 4.25219 10.5369 3.90853 10.8099 3.6252C11.0829 3.34186 11.417 3.2002 11.8122 3.2002C12.221 3.2002 12.5629 3.34251 12.8379 3.62715C13.1129 3.91176 13.2504 4.25433 13.2504 4.65484C13.2504 5.06223 13.1143 5.40914 12.8421 5.69557C12.57 5.98199 12.2355 6.1252 11.8386 6.1252Z" fill="#1A1A1A"/>
</svg>
