<svg width="28" height="28" viewBox="0 0 28 28" fill="none" xmlns="http://www.w3.org/2000/svg">
<path d="M17.636 14.0742L13.9258 10.364C13.841 10.3074 13.7703 10.2153 13.7138 10.0876C13.6572 9.95995 13.629 9.82921 13.629 9.69541C13.629 9.54747 13.6563 9.41661 13.7109 9.30283C13.7655 9.18905 13.8371 9.08339 13.9258 8.98587L17.636 5.29682C17.6926 5.21201 17.7844 5.14134 17.9114 5.08481C18.0384 5.02827 18.1684 5 18.3015 5C18.4487 5 18.5761 5.02859 18.6838 5.08576C18.7915 5.14295 18.8946 5.2133 18.9929 5.29682L22.7032 9.00707C22.7867 9.10591 22.8571 9.2104 22.9142 9.32055C22.9714 9.43069 23 9.55777 23 9.70182C23 9.83172 22.9717 9.96042 22.9152 10.0879C22.8587 10.2154 22.788 10.3074 22.7032 10.364L19.0141 14.0742C18.9152 14.1629 18.8071 14.2345 18.6898 14.2891C18.5724 14.3437 18.4417 14.371 18.2975 14.371C18.1675 14.371 18.0389 14.3428 17.9117 14.2862C17.7845 14.2297 17.6926 14.159 17.636 14.0742ZM5 12.3145V7.07774C5 6.79823 5.09417 6.56934 5.28251 6.39107C5.47085 6.21281 5.70883 6.12367 5.99647 6.12367H11.2332C11.4929 6.12367 11.7169 6.21281 11.905 6.39107C12.0932 6.56934 12.1873 6.79823 12.1873 7.07774V12.3145C12.1873 12.6078 12.0932 12.8436 11.905 13.0221C11.7169 13.2005 11.4929 13.2898 11.2332 13.2898H5.99647C5.70883 13.2898 5.47085 13.2005 5.28251 13.0221C5.09417 12.8436 5 12.6078 5 12.3145ZM14.7102 22.0035V16.7668C14.7102 16.5071 14.7995 16.2831 14.9779 16.095C15.1564 15.9068 15.3922 15.8127 15.6855 15.8127H20.9223C21.2018 15.8127 21.4307 15.9068 21.6089 16.095C21.7872 16.2831 21.8763 16.5071 21.8763 16.7668V22.0035C21.8763 22.2912 21.7872 22.5292 21.6089 22.7175C21.4307 22.9058 21.2018 23 20.9223 23H15.6855C15.3922 23 15.1564 22.9058 14.9779 22.7175C14.7995 22.5292 14.7102 22.2912 14.7102 22.0035ZM5 22.0035V16.7668C5 16.5071 5.09417 16.2831 5.28251 16.095C5.47085 15.9068 5.70883 15.8127 5.99647 15.8127H11.2332C11.4929 15.8127 11.7169 15.9068 11.905 16.095C12.0932 16.2831 12.1873 16.5071 12.1873 16.7668V22.0035C12.1873 22.2912 12.0932 22.5292 11.905 22.7175C11.7169 22.9058 11.4929 23 11.2332 23H5.99647C5.70883 23 5.47085 22.9058 5.28251 22.7175C5.09417 22.5292 5 22.2912 5 22.0035ZM6.95053 11.3604H10.2367V8.053H6.95053V11.3604ZM18.3569 12.1025L20.7102 9.77032L18.3569 7.39576L16.0247 9.77032L18.3569 12.1025ZM16.6396 21.0495H19.947V17.7633H16.6396V21.0495ZM6.95053 21.0495H10.2367V17.7633H6.95053V21.0495Z" fill="#65676B"/>
</svg>
