<svg width="51" height="14" viewBox="0 0 51 14" fill="none" xmlns="http://www.w3.org/2000/svg">
<path d="M15.6157 4.30796C15.6157 1.92872 13.687 0 11.3082 0C9.86404 0 8.58973 0.7129 7.80785 1.80255C7.02598 0.7129 5.75166 0 4.30796 0C1.92872 0 0 1.92828 0 4.30796C0 4.64498 0.0427828 4.97153 0.116125 5.28629C0.71421 9.00271 4.84624 12.9234 7.80785 14C10.769 12.9234 14.9015 9.00271 15.4987 5.28673C15.5729 4.97197 15.6157 4.64542 15.6157 4.30796Z" fill="#DD2E44"/>
<path d="M23.2099 2.73024C23.1656 2.7745 23.132 2.82786 23.104 2.88636L23.1008 2.8832L18.6677 12.8696L18.672 12.8739C18.5898 13.0332 18.7274 13.3573 19.0092 13.6395C19.291 13.9213 19.6151 14.0589 19.7744 13.9767L19.7783 13.9806L29.7647 9.5471L29.7615 9.54354C29.8196 9.51588 29.873 9.48228 29.9177 9.43722C30.535 8.81984 29.5339 6.8179 27.6821 4.96577C25.8296 3.11363 23.8277 2.11286 23.2099 2.73024Z" fill="#DD2E44"/>
<path d="M23.753 4.51367L18.7791 12.6187L18.6677 12.8696L18.672 12.874C18.5898 13.0333 18.7274 13.3574 19.0092 13.6396C19.1009 13.7313 19.1961 13.8008 19.2894 13.8597L25.334 6.48992L23.753 4.51367Z" fill="#EA596E"/>
<path d="M27.7116 4.93454C29.5574 6.78115 30.5823 8.74949 29.9997 9.3313C29.4175 9.9139 27.4491 8.88941 25.6021 7.04359C23.7559 5.19699 22.7314 3.22786 23.3136 2.64565C23.8962 2.06345 25.8646 3.08794 27.7116 4.93454Z" fill="#A0041E"/>
<path d="M25.9638 5.14931C25.8851 5.21294 25.7824 5.24614 25.6737 5.23429C25.3306 5.19713 25.0421 5.07777 24.8401 4.88923C24.6263 4.68963 24.5207 4.42165 24.5496 4.15328C24.6002 3.68214 25.0729 3.24974 25.8788 3.33669C26.1923 3.37029 26.3322 3.2695 26.3369 3.22128C26.3425 3.17346 26.2274 3.045 25.914 3.01101C25.5709 2.97386 25.2824 2.85449 25.08 2.66596C24.8662 2.46636 24.7603 2.19838 24.7895 1.93C24.8409 1.45886 25.3132 1.02646 26.1183 1.11381C26.3468 1.13832 26.4674 1.09128 26.5183 1.06085C26.559 1.03595 26.5753 1.01223 26.5768 0.998399C26.5816 0.950574 26.4681 0.822118 26.1539 0.788126C25.9369 0.764411 25.7796 0.569949 25.8037 0.352561C25.827 0.135569 26.0211 -0.0213445 26.2389 0.00237045C27.044 0.0889301 27.414 0.611845 27.363 1.08338C27.3116 1.55531 26.8393 1.98692 26.0334 1.90036C25.8049 1.87546 25.6855 1.92289 25.6342 1.95332C25.5935 1.97783 25.5769 2.00194 25.5753 2.01538C25.5701 2.0636 25.6844 2.19166 25.9986 2.22565C26.8037 2.3126 27.1737 2.83512 27.1227 3.30666C27.0717 3.77779 26.5994 4.2102 25.7938 4.12285C25.5654 4.09834 25.4452 4.14577 25.3939 4.17581C25.3527 4.20111 25.3369 4.22482 25.3354 4.23826C25.3302 4.28608 25.4444 4.41454 25.7583 4.44853C25.9749 4.47225 26.1326 4.6671 26.1085 4.8841C26.0974 4.99239 26.0425 5.08607 25.9638 5.14931Z" fill="#AA8DD8"/>
<path d="M30.7331 8.80512C31.513 8.58496 32.0509 8.93278 32.179 9.3893C32.307 9.84541 32.0295 10.4229 31.2501 10.6422C30.9458 10.7276 30.8545 10.8731 30.8667 10.9193C30.8802 10.9659 31.0347 11.0426 31.3383 10.9569C32.1177 10.7375 32.6556 11.0853 32.7837 11.5414C32.9125 11.9979 32.6343 12.5746 31.8545 12.7944C31.5505 12.8797 31.4588 13.0256 31.4722 13.0718C31.4853 13.1181 31.6394 13.1948 31.9434 13.1094C32.1529 13.0505 32.3718 13.1726 32.4307 13.3825C32.4892 13.5928 32.3671 13.811 32.1568 13.8702C31.3778 14.0896 30.8394 13.7426 30.7106 13.2857C30.5825 12.8295 30.8604 12.2529 31.6406 12.0331C31.945 11.9474 32.0363 11.8023 32.0228 11.7557C32.0102 11.7094 31.856 11.6323 31.5525 11.7177C30.7723 11.9375 30.2347 11.5904 30.1063 11.1331C29.9778 10.677 30.2557 10.1003 31.0355 9.8802C31.339 9.79522 31.4303 9.64897 31.4177 9.60313C31.4043 9.55649 31.2505 9.47981 30.9466 9.56518C30.7363 9.62447 30.5185 9.50194 30.4592 9.29207C30.4003 9.08258 30.5229 8.86441 30.7331 8.80512Z" fill="#77B255"/>
<path d="M27.7061 7.73838C27.5899 7.73838 27.4753 7.68739 27.397 7.59016C27.2607 7.41941 27.2887 7.1708 27.4587 7.03444C27.5449 6.96527 29.6002 5.35107 32.5048 5.76648C32.7211 5.79731 32.8712 5.9973 32.8404 6.2135C32.8096 6.42931 32.6112 6.58109 32.393 6.54868C29.8266 6.18426 27.9713 7.63719 27.9532 7.65182C27.8796 7.71031 27.7927 7.73838 27.7061 7.73838Z" fill="#AA8DD8"/>
<path d="M20.8896 6.09434C20.852 6.09434 20.8137 6.08881 20.7758 6.07774C20.5667 6.0149 20.4481 5.79474 20.5109 5.58566C20.9588 4.09438 21.3647 1.71458 20.8659 1.09404C20.8102 1.02369 20.726 0.954518 20.5331 0.969142C20.1623 0.9976 20.1975 1.7798 20.1979 1.7877C20.2145 2.00549 20.0509 2.19521 19.8335 2.21141C19.6125 2.22485 19.426 2.06438 19.4098 1.8466C19.3691 1.30155 19.5386 0.251764 20.4738 0.181015C20.8912 0.149395 21.2378 0.294451 21.4825 0.598793C22.4196 1.76517 21.4682 5.14653 21.2682 5.81292C21.2169 5.98407 21.0596 6.09434 20.8896 6.09434Z" fill="#77B255"/>
<path d="M28.6944 4.11837C29.0219 4.11837 29.2873 3.85293 29.2873 3.52549C29.2873 3.19806 29.0219 2.93262 28.6944 2.93262C28.367 2.93262 28.1016 3.19806 28.1016 3.52549C28.1016 3.85293 28.367 4.11837 28.6944 4.11837Z" fill="#5C913B"/>
<path d="M19.4057 7.67475C19.8423 7.67475 20.1962 7.32083 20.1962 6.88425C20.1962 6.44767 19.8423 6.09375 19.4057 6.09375C18.9692 6.09375 18.6152 6.44767 18.6152 6.88425C18.6152 7.32083 18.9692 7.67475 19.4057 7.67475Z" fill="#9266CC"/>
<path d="M31.4601 8.07051C31.7875 8.07051 32.0529 7.80508 32.0529 7.47764C32.0529 7.1502 31.7875 6.88477 31.4601 6.88477C31.1326 6.88477 30.8672 7.1502 30.8672 7.47764C30.8672 7.80508 31.1326 8.07051 31.4601 8.07051Z" fill="#5C913B"/>
<path d="M27.9034 12.8137C28.2309 12.8137 28.4963 12.5482 28.4963 12.2208C28.4963 11.8934 28.2309 11.6279 27.9034 11.6279C27.576 11.6279 27.3105 11.8934 27.3105 12.2208C27.3105 12.5482 27.576 12.8137 27.9034 12.8137Z" fill="#5C913B"/>
<path d="M29.6831 2.14252C30.1197 2.14252 30.4736 1.7886 30.4736 1.35202C30.4736 0.915442 30.1197 0.561523 29.6831 0.561523C29.2465 0.561523 28.8926 0.915442 28.8926 1.35202C28.8926 1.7886 29.2465 2.14252 29.6831 2.14252Z" fill="#FFCC4D"/>
<path d="M31.4601 3.72286C31.7875 3.72286 32.0529 3.45742 32.0529 3.12998C32.0529 2.80255 31.7875 2.53711 31.4601 2.53711C31.1326 2.53711 30.8672 2.80255 30.8672 3.12998C30.8672 3.45742 31.1326 3.72286 31.4601 3.72286Z" fill="#FFCC4D"/>
<path d="M30.2765 5.30391C30.6039 5.30391 30.8693 5.03847 30.8693 4.71104C30.8693 4.3836 30.6039 4.11816 30.2765 4.11816C29.949 4.11816 29.6836 4.3836 29.6836 4.71104C29.6836 5.03847 29.949 5.30391 30.2765 5.30391Z" fill="#FFCC4D"/>
<path d="M21.5792 9.65157C21.9066 9.65157 22.1721 9.38613 22.1721 9.05869C22.1721 8.73126 21.9066 8.46582 21.5792 8.46582C21.2518 8.46582 20.9863 8.73126 20.9863 9.05869C20.9863 9.38613 21.2518 9.65157 21.5792 9.65157Z" fill="#FFCC4D"/>
<path d="M40.4404 2.73024C40.3961 2.7745 40.3625 2.82786 40.3344 2.88636L40.3313 2.8832L35.8981 12.8696L35.9025 12.8739C35.8203 13.0332 35.9578 13.3573 36.2396 13.6395C36.5215 13.9213 36.8456 14.0589 37.0048 13.9767L37.0088 13.9806L46.9952 9.5471L46.992 9.54354C47.0501 9.51588 47.1035 9.48228 47.1481 9.43722C47.7655 8.81984 46.7643 6.8179 44.9126 4.96577C43.0601 3.11363 41.0581 2.11286 40.4404 2.73024Z" fill="#DD2E44"/>
<path d="M40.9834 4.51367L36.0096 12.6187L35.8981 12.8696L35.9025 12.874C35.8203 13.0333 35.9578 13.3574 36.2396 13.6396C36.3313 13.7313 36.4266 13.8008 36.5199 13.8597L42.5644 6.48992L40.9834 4.51367Z" fill="#EA596E"/>
<path d="M44.942 4.93454C46.7878 6.78115 47.8127 8.74949 47.2301 9.3313C46.6479 9.9139 44.6796 8.88941 42.8326 7.04359C40.9864 5.19699 39.9619 3.22786 40.5441 2.64565C41.1267 2.06345 43.095 3.08794 44.942 4.93454Z" fill="#A0041E"/>
<path d="M43.1943 5.14931C43.1156 5.21294 43.0129 5.24614 42.9042 5.23429C42.5611 5.19713 42.2726 5.07777 42.0706 4.88923C41.8567 4.68963 41.7512 4.42165 41.7801 4.15328C41.8307 3.68214 42.3034 3.24974 43.1093 3.33669C43.4227 3.37029 43.5626 3.2695 43.5674 3.22128C43.5729 3.17346 43.4579 3.045 43.1445 3.01101C42.8014 2.97386 42.5129 2.85449 42.3105 2.66596C42.0967 2.46636 41.9907 2.19838 42.02 1.93C42.0714 1.45886 42.5437 1.02646 43.3488 1.11381C43.5773 1.13832 43.6978 1.09128 43.7488 1.06085C43.7895 1.03595 43.8057 1.01223 43.8073 0.998399C43.812 0.950574 43.6986 0.822118 43.3844 0.788126C43.1674 0.764411 43.0101 0.569949 43.0342 0.352561C43.0575 0.135569 43.2516 -0.0213445 43.4694 0.00237045C44.2745 0.0889301 44.6444 0.611845 44.5935 1.08338C44.5421 1.55531 44.0697 1.98692 43.2638 1.90036C43.0354 1.87546 42.916 1.92289 42.8646 1.95332C42.8239 1.97783 42.8073 2.00194 42.8057 2.01538C42.8006 2.0636 42.9148 2.19166 43.2291 2.22565C44.0342 2.3126 44.4041 2.83512 44.3531 3.30666C44.3022 3.77779 43.8298 4.2102 43.0243 4.12285C42.7959 4.09834 42.6757 4.14577 42.6243 4.17581C42.5832 4.20111 42.5674 4.22482 42.5658 4.23826C42.5607 4.28608 42.6749 4.41454 42.9887 4.44853C43.2053 4.47225 43.363 4.6671 43.3389 4.8841C43.3279 4.99239 43.2729 5.08607 43.1943 5.14931Z" fill="#AA8DD8"/>
<path d="M47.9636 8.80512C48.7434 8.58496 49.2814 8.93278 49.4094 9.3893C49.5375 9.84541 49.26 10.4229 48.4806 10.6422C48.1762 10.7276 48.0849 10.8731 48.0972 10.9193C48.1106 10.9659 48.2652 11.0426 48.5687 10.9569C49.3482 10.7375 49.8861 11.0853 50.0141 11.5414C50.143 11.9979 49.8647 12.5746 49.0849 12.7944C48.781 12.8797 48.6893 13.0256 48.7027 13.0718C48.7158 13.1181 48.8699 13.1948 49.1738 13.1094C49.3833 13.0505 49.6023 13.1726 49.6612 13.3825C49.7197 13.5928 49.5976 13.811 49.3873 13.8702C48.6082 14.0896 48.0699 13.7426 47.9411 13.2857C47.813 12.8295 48.0909 12.2529 48.8711 12.0331C49.1754 11.9474 49.2667 11.8023 49.2533 11.7557C49.2406 11.7094 49.0865 11.6323 48.7829 11.7177C48.0027 11.9375 47.4652 11.5904 47.3367 11.1331C47.2083 10.677 47.4861 10.1003 48.266 9.8802C48.5695 9.79522 48.6608 9.64897 48.6482 9.60313C48.6347 9.55649 48.481 9.47981 48.177 9.56518C47.9668 9.62447 47.749 9.50194 47.6897 9.29207C47.6308 9.08258 47.7533 8.86441 47.9636 8.80512Z" fill="#77B255"/>
<path d="M44.9366 7.73838C44.8204 7.73838 44.7058 7.68739 44.6275 7.59016C44.4911 7.41941 44.5192 7.1708 44.6892 7.03444C44.7753 6.96527 46.8306 5.35107 49.7353 5.76648C49.9515 5.79731 50.1017 5.9973 50.0709 6.2135C50.0401 6.42931 49.8416 6.58109 49.6235 6.54868C47.0571 6.18426 45.2018 7.63719 45.1836 7.65182C45.1101 7.71031 45.0232 7.73838 44.9366 7.73838Z" fill="#AA8DD8"/>
<path d="M38.1201 6.09434C38.0825 6.09434 38.0442 6.08881 38.0062 6.07774C37.7971 6.0149 37.6786 5.79474 37.7414 5.58566C38.1892 4.09438 38.5952 1.71458 38.0963 1.09404C38.0406 1.02369 37.9564 0.954518 37.7635 0.969142C37.3928 0.9976 37.428 1.7798 37.4284 1.7877C37.445 2.00549 37.2813 2.19521 37.064 2.21141C36.843 2.22485 36.6565 2.06438 36.6403 1.8466C36.5995 1.30155 36.7691 0.251764 37.7043 0.181015C38.1216 0.149395 38.4683 0.294451 38.7129 0.598793C39.6501 1.76517 38.6987 5.14653 38.4987 5.81292C38.4473 5.98407 38.29 6.09434 38.1201 6.09434Z" fill="#77B255"/>
<path d="M45.9249 4.11837C46.2523 4.11837 46.5178 3.85293 46.5178 3.52549C46.5178 3.19806 46.2523 2.93262 45.9249 2.93262C45.5975 2.93262 45.332 3.19806 45.332 3.52549C45.332 3.85293 45.5975 4.11837 45.9249 4.11837Z" fill="#5C913B"/>
<path d="M36.6362 7.67475C37.0728 7.67475 37.4267 7.32083 37.4267 6.88425C37.4267 6.44767 37.0728 6.09375 36.6362 6.09375C36.1996 6.09375 35.8457 6.44767 35.8457 6.88425C35.8457 7.32083 36.1996 7.67475 36.6362 7.67475Z" fill="#9266CC"/>
<path d="M48.6905 8.07051C49.018 8.07051 49.2834 7.80508 49.2834 7.47764C49.2834 7.1502 49.018 6.88477 48.6905 6.88477C48.3631 6.88477 48.0977 7.1502 48.0977 7.47764C48.0977 7.80508 48.3631 8.07051 48.6905 8.07051Z" fill="#5C913B"/>
<path d="M45.1339 12.8137C45.4613 12.8137 45.7268 12.5482 45.7268 12.2208C45.7268 11.8934 45.4613 11.6279 45.1339 11.6279C44.8065 11.6279 44.541 11.8934 44.541 12.2208C44.541 12.5482 44.8065 12.8137 45.1339 12.8137Z" fill="#5C913B"/>
<path d="M46.9135 2.14252C47.3501 2.14252 47.704 1.7886 47.704 1.35202C47.704 0.915442 47.3501 0.561523 46.9135 0.561523C46.477 0.561523 46.123 0.915442 46.123 1.35202C46.123 1.7886 46.477 2.14252 46.9135 2.14252Z" fill="#FFCC4D"/>
<path d="M48.6905 3.72286C49.018 3.72286 49.2834 3.45742 49.2834 3.12998C49.2834 2.80255 49.018 2.53711 48.6905 2.53711C48.3631 2.53711 48.0977 2.80255 48.0977 3.12998C48.0977 3.45742 48.3631 3.72286 48.6905 3.72286Z" fill="#FFCC4D"/>
<path d="M47.5069 5.30391C47.8344 5.30391 48.0998 5.03847 48.0998 4.71104C48.0998 4.3836 47.8344 4.11816 47.5069 4.11816C47.1795 4.11816 46.9141 4.3836 46.9141 4.71104C46.9141 5.03847 47.1795 5.30391 47.5069 5.30391Z" fill="#FFCC4D"/>
<path d="M38.8097 9.65157C39.1371 9.65157 39.4025 9.38613 39.4025 9.05869C39.4025 8.73126 39.1371 8.46582 38.8097 8.46582C38.4822 8.46582 38.2168 8.73126 38.2168 9.05869C38.2168 9.38613 38.4822 9.65157 38.8097 9.65157Z" fill="#FFCC4D"/>
</svg>
