<svg width="14" height="14" viewBox="0 0 14 14" fill="none" xmlns="http://www.w3.org/2000/svg">
<path d="M1.53876 14C1.12557 14 0.765807 13.8468 0.459477 13.5405C0.153159 13.2342 0 12.8744 0 12.4612V1.54921C0 1.13314 0.153159 0.770925 0.459477 0.462547C0.765807 0.154182 1.12557 0 1.53876 0H12.4508C12.8669 0 13.2291 0.154182 13.5375 0.462547C13.8458 0.770925 14 1.13314 14 1.54921V12.4612C14 12.8744 13.8458 13.2342 13.5375 13.5405C13.2291 13.8468 12.8669 14 12.4508 14H1.53876ZM1.53876 12.4612H12.4508V1.54921H1.53876V12.4612ZM2.29326 10.8984H11.7148L8.81586 6.96419L6.36576 10.1334L4.63717 7.77581L2.29326 10.8984Z" fill="white"/>
</svg>
