<svg width="36" height="38" viewBox="0 0 36 38" fill="none" xmlns="http://www.w3.org/2000/svg">
<path fill-rule="evenodd" clip-rule="evenodd" d="M10.6203 21.554C8.37228 16.037 12.4313 10 18.3883 10H18.7093C19.7688 10 20.8179 10.2087 21.7968 10.6141C22.7756 11.0196 23.665 11.6139 24.4142 12.3631C25.1634 13.1122 25.7577 14.0017 26.1631 14.9805C26.5686 15.9594 26.7773 17.0085 26.7773 18.068C26.7773 20.4502 25.831 22.7348 24.1465 24.4192C22.4621 26.1037 20.1775 27.05 17.7953 27.05H9.97528C9.8199 27.0501 9.66831 27.002 9.54146 26.9123C9.41461 26.8225 9.31877 26.6956 9.26717 26.5491C9.21557 26.4025 9.21077 26.2435 9.25342 26.0941C9.29607 25.9447 9.38408 25.8122 9.50528 25.715L11.4763 24.132C11.5184 24.0982 11.5485 24.0518 11.562 23.9995C11.5755 23.9472 11.5718 23.892 11.5513 23.842L10.6203 21.554ZM18.3883 11.5C13.4953 11.5 10.1623 16.457 12.0083 20.988L12.9403 23.277C13.0823 23.6259 13.1079 24.0114 13.0133 24.376C12.9187 24.7407 12.709 25.0651 12.4153 25.301L12.1063 25.55H17.7953C19.7796 25.55 21.6827 24.7617 23.0858 23.3586C24.489 21.9554 25.2773 20.0523 25.2773 18.068C25.2773 16.3261 24.5853 14.6555 23.3536 13.4237C22.1218 12.192 20.4512 11.5 18.7093 11.5H18.3883Z" fill="#333333"/>
</svg>
