<svg width="14" height="9" viewBox="0 0 14 9" fill="none" xmlns="http://www.w3.org/2000/svg">
<path d="M7.01149 8.21939C6.84449 8.21939 6.68597 8.18675 6.53592 8.12147C6.38587 8.05619 6.2621 7.95956 6.16461 7.83156L0.377756 2.04467C0.121738 1.81918 -0.00414629 1.54028 0.000104119 1.20797C0.00433503 0.875679 0.124711 0.591274 0.361232 0.354753C0.597734 0.118251 0.887015 0 1.22908 0C1.57112 0 1.86463 0.118251 2.10961 0.354753L7.01149 5.26935L11.9261 0.354753C12.1626 0.118251 12.4442 0 12.771 0C13.0978 0 13.3892 0.118251 13.6452 0.354753C13.8817 0.599756 14 0.893276 14 1.23532C14 1.57738 13.8817 1.86666 13.6452 2.10316L7.88761 7.83156C7.77062 7.95956 7.63711 8.05619 7.48705 8.12147C7.337 8.18675 7.17848 8.21939 7.01149 8.21939Z" fill="#65676B"/>
</svg>
