<svg width="30" height="30" viewBox="0 0 30 30" fill="none" xmlns="http://www.w3.org/2000/svg">
<path d="M15.9204 4.75797C16.1962 4.38664 16.6475 4.21875 17.1101 4.21875H21.7962C22.2588 4.21875 22.71 4.38664 22.9859 4.75797C23.5467 5.5129 24.3255 7.00789 23.6344 8.90605C23.4995 9.27666 23.2863 9.58795 23.0183 9.84375H25.7812C26.8168 9.84375 27.6562 10.6832 27.6562 11.7188V25.7812C27.6562 26.8168 26.8168 27.6562 25.7812 27.6562H4.21875C3.18322 27.6562 2.34375 26.8168 2.34375 25.7812V11.7188C2.34375 10.6832 3.18322 9.84375 4.21875 9.84375H7.79073C6.30358 7.47331 7.34175 5.58491 8.02652 4.72444C8.30434 4.37533 8.74119 4.21875 9.18736 4.21875H14.2501C14.6963 4.21875 15.1332 4.37533 15.411 4.72444C15.4986 4.83451 15.592 4.9614 15.6851 5.10398C15.7647 4.97566 15.8445 4.86005 15.9204 4.75797Z" fill="#050505"/>
<path d="M2.60042 0.767922C2.76441 0.369026 3.32934 0.369026 3.49333 0.767922L3.81403 1.54805C3.86304 1.66728 3.95772 1.76196 4.07695 1.81097L4.85708 2.13167C5.25597 2.29566 5.25597 2.86059 4.85708 3.02458L4.07695 3.34528C3.95772 3.39429 3.86304 3.48897 3.81403 3.6082L3.49333 4.38833C3.32934 4.78722 2.76441 4.78722 2.60042 4.38833L2.27972 3.6082C2.23071 3.48897 2.13603 3.39429 2.0168 3.34528L1.23667 3.02458C0.837776 2.86059 0.837776 2.29566 1.23667 2.13167L2.0168 1.81097C2.13603 1.76196 2.23071 1.66728 2.27972 1.54805L2.60042 0.767922Z" fill="#050505"/>
<path d="M27.902 5.93147C28.07 5.52284 28.6487 5.52284 28.8167 5.93147L28.8571 6.02978C28.9073 6.15192 29.0043 6.24891 29.1265 6.29912L29.2248 6.33953C29.6334 6.50751 29.6334 7.08624 29.2248 7.25422L29.1265 7.29463C29.0043 7.34484 28.9073 7.44183 28.8571 7.56397L28.8167 7.66228C28.6487 8.07091 28.07 8.07091 27.902 7.66228L27.8616 7.56397C27.8114 7.44183 27.7144 7.34484 27.5923 7.29463L27.494 7.25422C27.0853 7.08624 27.0853 6.50751 27.494 6.33953L27.5923 6.29912C27.7144 6.24891 27.8114 6.15192 27.8616 6.02978L27.902 5.93147Z" fill="#050505"/>
<path d="M24.6278 0.301738C24.7932 -0.100579 25.363 -0.100579 25.5284 0.301738L25.71 0.743546C25.7595 0.863801 25.8549 0.959286 25.9752 1.00872L26.417 1.19034C26.8193 1.35573 26.8193 1.92552 26.417 2.09091L25.9752 2.27253C25.8549 2.32196 25.7595 2.41745 25.71 2.5377L25.5284 2.97951C25.363 3.38183 24.7932 3.38183 24.6278 2.97951L24.4462 2.5377C24.3968 2.41745 24.3013 2.32196 24.181 2.27253L23.7392 2.09091C23.3369 1.92552 23.3369 1.35573 23.7392 1.19034L24.181 1.00872C24.3013 0.959286 24.3968 0.863801 24.4462 0.743546L24.6278 0.301738Z" fill="#050505"/>
<path d="M16.4062 10.7812H11.7188C11.201 10.7812 10.7812 11.201 10.7812 11.7187V25.7812C10.7812 26.299 11.201 26.7188 11.7187 26.7188H16.4062V10.7812Z" fill="#279B48"/>
<path d="M21.5625 26.7188H25.7812C26.299 26.7188 26.7188 26.299 26.7188 25.7812V11.7188C26.7188 11.201 26.299 10.7812 25.7812 10.7812H21.5625V26.7188Z" fill="#279B48"/>
<path d="M19.4865 7.5251C20.136 7.6494 20.6269 8.2205 20.6269 8.90625V9.83324C21.6995 9.75772 22.5022 9.28076 22.7554 8.58534C23.2935 7.10726 22.7033 5.94713 22.2352 5.31702C22.1826 5.2462 22.0515 5.15625 21.7981 5.15625H18.8778C19.2266 5.78033 19.5109 6.5834 19.4865 7.5251Z" fill="#E9EBF4"/>
<path d="M17.3456 10.7812H20.6269V26.7188H17.3456V10.7812Z" fill="#E9EBF4"/>
<path d="M11.0703 5.15625H14.252C14.4953 5.15625 14.6252 5.24019 14.6793 5.30821C15.0026 5.71447 15.3871 6.35702 15.4587 7.14948C15.471 7.28503 15.4745 7.42923 15.4657 7.58176C14.9221 7.77619 14.5331 8.29579 14.5331 8.90625V9.80571C14.5234 9.81836 14.5136 9.83105 14.5036 9.84375H13.7133C13.3818 9.84375 12.9674 9.59693 12.5148 8.83869C12.0858 8.11993 11.7758 7.18281 11.5809 6.39774C11.4646 5.92948 11.2788 5.51369 11.0703 5.15625Z" fill="#E9EBF4"/>
<path d="M15.4706 8.90625C15.4706 8.64737 15.6805 8.4375 15.9394 8.4375H19.2206C19.4795 8.4375 19.6894 8.64737 19.6894 8.90625V9.84375H15.4706V8.90625Z" fill="#E9EBF4"/>
</svg>
