<svg width="19" height="18" viewBox="0 0 19 18" fill="none" xmlns="http://www.w3.org/2000/svg">
<path d="M6.79444 18L6.34372 15.1734C6.13096 15.1037 5.89518 14.9942 5.63638 14.8449C5.37758 14.6956 5.16015 14.5504 4.98408 14.4092L2.34134 15.6139L0 11.4519L2.388 9.70128C2.37369 9.61729 2.36497 9.50266 2.36185 9.3574C2.35875 9.21214 2.3572 9.09036 2.3572 8.99206C2.3572 8.9 2.35875 8.78693 2.36185 8.65286C2.36497 8.5188 2.37369 8.39858 2.388 8.29219L0 6.52662L2.34134 2.39826L4.98968 3.60298C5.15765 3.47793 5.37259 3.3392 5.63451 3.18678C5.89642 3.03437 6.13282 2.92332 6.34372 2.85364L6.79444 0H11.4314L11.8607 2.84151C12.0877 2.91119 12.3317 3.02224 12.5927 3.17466C12.8537 3.32707 13.0691 3.46985 13.2389 3.60298L15.8966 2.39826L18.2258 6.52662L15.7949 8.24646C15.8092 8.36715 15.8256 8.49811 15.8439 8.63934C15.8623 8.78055 15.8714 8.90435 15.8714 9.01073C15.8714 9.11712 15.8623 9.23734 15.8439 9.3714C15.8256 9.50547 15.8123 9.6257 15.8042 9.73208L18.2165 11.4519L15.863 15.6139L13.2203 14.4092C13.0442 14.5504 12.8263 14.6992 12.5666 14.8557C12.3069 15.0121 12.0787 15.118 11.8821 15.1734L11.4314 18H6.79444ZM9.08072 11.8858C9.88262 11.8858 10.5638 11.6056 11.1244 11.045C11.6849 10.4845 11.9652 9.80331 11.9652 9.0014C11.9652 8.20758 11.6849 7.52839 11.1244 6.96382C10.5638 6.39925 9.88262 6.11696 9.08072 6.11696C8.27072 6.11696 7.58748 6.39925 7.031 6.96382C6.47453 7.52839 6.19629 8.20758 6.19629 9.0014C6.19629 9.80331 6.47453 10.4845 7.031 11.045C7.58748 11.6056 8.27072 11.8858 9.08072 11.8858Z" fill="#65676B"/>
</svg>
