<svg width="24" height="24" viewBox="0 0 24 24" fill="none" xmlns="http://www.w3.org/2000/svg">
<path fill-rule="evenodd" clip-rule="evenodd" d="M10.999 2C9.5614 2.00016 8.14473 2.3447 6.86761 3.00479C5.59049 3.66489 4.49007 4.62132 3.65849 5.79402C2.82691 6.96672 2.28835 8.32158 2.08791 9.74516C1.88747 11.1687 2.03097 12.6196 2.5064 13.9764C2.98183 15.3331 3.77536 16.5562 4.82056 17.5433C5.86576 18.5304 7.13221 19.2527 8.5139 19.6498C9.89558 20.0469 11.3523 20.1073 12.7621 19.8258C14.1719 19.5443 15.4938 18.9292 16.617 18.032L20.292 21.707C20.4806 21.8892 20.7332 21.99 20.9954 21.9877C21.2576 21.9854 21.5084 21.8802 21.6938 21.6948C21.8793 21.5094 21.9844 21.2586 21.9867 20.9964C21.989 20.7342 21.8882 20.4816 21.706 20.293L18.031 16.618C19.089 15.2939 19.7516 13.6979 19.9425 12.0138C20.1334 10.3297 19.8449 8.62586 19.1102 7.0985C18.3754 5.57113 17.2243 4.28228 15.7894 3.38029C14.3544 2.47831 12.6939 1.99985 10.999 2ZM4.99903 11C4.99903 10.2121 5.15422 9.43185 5.45575 8.7039C5.75728 7.97595 6.19923 7.31451 6.75639 6.75736C7.31354 6.20021 7.97497 5.75825 8.70293 5.45672C9.43088 5.15519 10.2111 5 10.999 5C11.787 5 12.5672 5.15519 13.2951 5.45672C14.0231 5.75825 14.6845 6.20021 15.2417 6.75736C15.7988 7.31451 16.2408 7.97595 16.5423 8.7039C16.8438 9.43185 16.999 10.2121 16.999 11C16.999 12.5913 16.3669 14.1174 15.2417 15.2426C14.1164 16.3679 12.5903 17 10.999 17C9.40773 17 7.8816 16.3679 6.75639 15.2426C5.63117 14.1174 4.99903 12.5913 4.99903 11Z" fill="#65676B"/>
</svg>
