<svg width="33" height="27" viewBox="0 0 33 27" fill="none" xmlns="http://www.w3.org/2000/svg">
<path d="M7.36154 7.36154H13.4538" stroke="#333333" stroke-width="2.5" stroke-linecap="round" stroke-linejoin="round"/>
<path d="M29.9533 8.88462H25.9903C23.2716 8.88462 21.0692 10.9301 21.0692 13.4538C21.0692 15.9776 23.2731 18.0231 25.9888 18.0231H29.9533C30.0813 18.0231 30.1437 18.0231 30.197 18.02C31.0195 17.9698 31.6744 17.3621 31.7277 16.599C31.7308 16.5503 31.7308 16.4909 31.7308 16.3736V10.5341C31.7308 10.4168 31.7308 10.3574 31.7277 10.3087C31.6729 9.54563 31.0195 8.93792 30.197 8.88766C30.1452 8.88462 30.0813 8.88462 29.9533 8.88462Z" stroke="#333333" stroke-width="2.5"/>
<path d="M30.1544 8.88462C30.0356 6.03342 29.6548 4.28492 28.4226 3.05428C26.6391 1.26923 23.7666 1.26923 18.0231 1.26923H13.4538C7.71032 1.26923 4.8378 1.26923 3.05428 3.05428C1.26923 4.8378 1.26923 7.71032 1.26923 13.4538C1.26923 19.1974 1.26923 22.0699 3.05428 23.8534C4.8378 25.6385 7.71032 25.6385 13.4538 25.6385H18.0231C23.7666 25.6385 26.6391 25.6385 28.4226 23.8534C29.6548 22.6228 30.0371 20.8743 30.1544 18.0231" stroke="#333333" stroke-width="2.5"/>
<path d="M25.6226 13.4538H25.6378" stroke="#333333" stroke-width="2.5" stroke-linecap="round" stroke-linejoin="round"/>
</svg>
