<svg width="21" height="24" viewBox="0 0 21 24" fill="none" xmlns="http://www.w3.org/2000/svg">
<path d="M20.0282 4.91294L15.3224 0.207059C15.1901 0.0746424 15.0107 0.000164755 14.8235 0H5.41176C4.97494 0 4.556 0.173529 4.24712 0.482412C3.93823 0.791296 3.76471 1.21023 3.76471 1.64706V3.76471H1.64706C1.21023 3.76471 0.791296 3.93823 0.482412 4.24712C0.173529 4.556 0 4.97494 0 5.41176V22.3529C0 22.7898 0.173529 23.2087 0.482412 23.5176C0.791296 23.8265 1.21023 24 1.64706 24H14.8235C15.2604 24 15.6793 23.8265 15.9882 23.5176C16.2971 23.2087 16.4706 22.7898 16.4706 22.3529V20.2353H18.5882C19.0251 20.2353 19.444 20.0618 19.7529 19.7529C20.0618 19.444 20.2353 19.0251 20.2353 18.5882V5.41176C20.2351 5.22462 20.1607 5.04519 20.0282 4.91294ZM15.0588 22.3529C15.0588 22.4153 15.034 22.4752 14.9899 22.5193C14.9458 22.5634 14.8859 22.5882 14.8235 22.5882H1.64706C1.58465 22.5882 1.52481 22.5634 1.48068 22.5193C1.43655 22.4752 1.41176 22.4153 1.41176 22.3529V5.41176C1.41176 5.34936 1.43655 5.28951 1.48068 5.24539C1.52481 5.20126 1.58465 5.17647 1.64706 5.17647H10.7659L15.0588 9.46941V22.3529ZM18.8235 18.5882C18.8235 18.6506 18.7987 18.7105 18.7546 18.7546C18.7105 18.7987 18.6506 18.8235 18.5882 18.8235H16.4706V9.17647C16.4704 8.98932 16.3959 8.8099 16.2635 8.67765L11.5576 3.97176C11.4254 3.83935 11.246 3.76487 11.0588 3.76471H5.17647V1.64706C5.17647 1.58465 5.20126 1.52481 5.24539 1.48068C5.28951 1.43655 5.34936 1.41176 5.41176 1.41176H14.5306L18.8235 5.70471V18.5882ZM11.7647 14.8235C11.7647 15.0107 11.6903 15.1903 11.558 15.3227C11.4256 15.455 11.246 15.5294 11.0588 15.5294H5.41176C5.22455 15.5294 5.04501 15.455 4.91263 15.3227C4.78025 15.1903 4.70588 15.0107 4.70588 14.8235C4.70588 14.6363 4.78025 14.4568 4.91263 14.3244C5.04501 14.192 5.22455 14.1176 5.41176 14.1176H11.0588C11.246 14.1176 11.4256 14.192 11.558 14.3244C11.6903 14.4568 11.7647 14.6363 11.7647 14.8235ZM11.7647 18.5882C11.7647 18.7754 11.6903 18.955 11.558 19.0874C11.4256 19.2197 11.246 19.2941 11.0588 19.2941H5.41176C5.22455 19.2941 5.04501 19.2197 4.91263 19.0874C4.78025 18.955 4.70588 18.7754 4.70588 18.5882C4.70588 18.401 4.78025 18.2215 4.91263 18.0891C5.04501 17.9567 5.22455 17.8824 5.41176 17.8824H11.0588C11.246 17.8824 11.4256 17.9567 11.558 18.0891C11.6903 18.2215 11.7647 18.401 11.7647 18.5882Z" fill="white"/>
</svg>
