<svg width="27" height="24" viewBox="0 0 27 24" fill="none" xmlns="http://www.w3.org/2000/svg">
<path d="M10.5 15.8655L18.8655 10.5L10.5 5.1345V15.8655ZM9 24V21H2.4225C1.7325 21 1.1565 20.769 0.6945 20.307C0.2315 19.844 0 19.2675 0 18.5775V2.4225C0 1.7325 0.2315 1.1565 0.6945 0.6945C1.1565 0.2315 1.7325 0 2.4225 0H24.5775C25.2675 0 25.8435 0.2315 26.3055 0.6945C26.7685 1.1565 27 1.7325 27 2.4225V18.5775C27 19.2675 26.769 19.8435 26.307 20.3055C25.844 20.7685 25.2675 21 24.5775 21H18V24H9ZM2.4225 19.5H24.5775C24.8075 19.5 25.019 19.404 25.212 19.212C25.404 19.019 25.5 18.8075 25.5 18.5775V2.4225C25.5 2.1925 25.404 1.981 25.212 1.788C25.019 1.596 24.8075 1.5 24.5775 1.5H2.4225C2.1925 1.5 1.981 1.596 1.788 1.788C1.596 1.981 1.5 2.1925 1.5 2.4225V18.5775C1.5 18.8075 1.596 19.019 1.788 19.212C1.981 19.404 2.1925 19.5 2.4225 19.5Z" fill="white"/>
</svg>
