<svg width="82" height="40" viewBox="0 0 82 40" fill="none" xmlns="http://www.w3.org/2000/svg">
<path d="M24 9.5C24 9.10218 23.842 8.72064 23.5607 8.43934C23.2794 8.15804 22.8978 8 22.5 8H15C14.6022 8 14.2206 8.15804 13.9393 8.43934C13.658 8.72064 13.5 9.10218 13.5 9.5C13.5 9.89782 13.658 10.2794 13.9393 10.5607C14.2206 10.842 14.6022 11 15 11H18.855L13.935 15.935C13.7944 16.0744 13.6828 16.2403 13.6067 16.4231C13.5305 16.6059 13.4913 16.802 13.4913 17C13.4913 17.198 13.5305 17.3941 13.6067 17.5769C13.6828 17.7597 13.7944 17.9256 13.935 18.065C14.0744 18.2056 14.2403 18.3172 14.4231 18.3933C14.6059 18.4695 14.802 18.5087 15 18.5087C15.198 18.5087 15.3941 18.4695 15.5769 18.3933C15.7597 18.3172 15.9256 18.2056 16.065 18.065L21 13.13V17C21 17.3978 21.158 17.7794 21.4393 18.0607C21.7206 18.342 22.1022 18.5 22.5 18.5C22.8978 18.5 23.2794 18.342 23.5607 18.0607C23.842 17.7794 24 17.3978 24 17V9.5ZM10.065 21.935C9.92556 21.7944 9.75965 21.6828 9.57687 21.6067C9.39408 21.5305 9.19802 21.4913 9 21.4913C8.80198 21.4913 8.60592 21.5305 8.42313 21.6067C8.24035 21.6828 8.07444 21.7944 7.935 21.935L3 26.855V23C3 22.6022 2.84196 22.2206 2.56066 21.9393C2.27936 21.658 1.89782 21.5 1.5 21.5C1.10218 21.5 0.720645 21.658 0.43934 21.9393C0.158036 22.2206 0 22.6022 0 23V30.5C0 30.8978 0.158036 31.2794 0.43934 31.5607C0.720645 31.842 1.10218 32 1.5 32H9C9.39782 32 9.77936 31.842 10.0607 31.5607C10.342 31.2794 10.5 30.8978 10.5 30.5C10.5 30.1022 10.342 29.7206 10.0607 29.4393C9.77936 29.158 9.39782 29 9 29H5.13L10.065 24.065C10.2056 23.9256 10.3172 23.7597 10.3933 23.5769C10.4695 23.3941 10.5087 23.198 10.5087 23C10.5087 22.802 10.4695 22.6059 10.3933 22.4231C10.3172 22.2403 10.2056 22.0744 10.065 21.935Z" fill="#333333"/>
<path d="M64.1007 5.49849C64.3615 5.31189 64.6667 5.19699 64.9859 5.16525C65.305 5.13351 65.6269 5.18605 65.9194 5.31762C66.2119 5.44919 66.4647 5.65519 66.6527 5.91504C66.8407 6.1749 66.9572 6.47952 66.9907 6.79849L67.0007 6.98849V33.0085C67.0008 33.3292 66.9167 33.6444 66.7569 33.9225C66.5972 34.2006 66.3672 34.4319 66.0901 34.5933C65.8129 34.7547 65.4983 34.8406 65.1776 34.8424C64.8568 34.8442 64.5412 34.7618 64.2623 34.6035L64.1023 34.5002L53.134 26.6652H48.6673C47.8264 26.6654 47.0164 26.3478 46.3997 25.776C45.7831 25.2042 45.4054 24.4204 45.3423 23.5818L45.334 23.3318V16.6652C45.3341 15.8245 45.6519 15.0149 46.2237 14.3986C46.7955 13.7824 47.579 13.4049 48.4173 13.3418L48.6673 13.3318H53.134L64.1007 5.49849ZM71.3107 15.2852L73.6673 17.6418L76.024 15.2852C76.1777 15.126 76.3616 14.999 76.565 14.9117C76.7683 14.8243 76.987 14.7783 77.2083 14.7764C77.4296 14.7745 77.6491 14.8167 77.8539 14.9005C78.0587 14.9843 78.2448 15.108 78.4013 15.2645C78.5578 15.421 78.6816 15.6071 78.7654 15.8119C78.8492 16.0167 78.8913 16.2362 78.8894 16.4575C78.8875 16.6788 78.8415 16.8975 78.7542 17.1008C78.6668 17.3042 78.5398 17.4881 78.3806 17.6418L76.024 19.9985L78.3806 22.3552C78.6934 22.6677 78.8692 23.0916 78.8693 23.5337C78.8695 23.9759 78.694 24.3999 78.3815 24.7127C78.069 25.0254 77.645 25.2012 77.2029 25.2013C76.7608 25.2015 76.3367 25.026 76.024 24.7135L73.6673 22.3552L71.3107 24.7135C70.9979 25.026 70.5738 25.2015 70.1317 25.2013C69.6896 25.2012 69.2657 25.0254 68.9531 24.7127C68.6406 24.3999 68.4652 23.9759 68.4653 23.5337C68.4655 23.0916 68.6413 22.6677 68.954 22.3552L71.3107 19.9985L68.954 17.6418C68.7948 17.4881 68.6678 17.3042 68.5805 17.1008C68.4931 16.8975 68.4472 16.6788 68.4452 16.4575C68.4433 16.2362 68.4855 16.0167 68.5693 15.8119C68.6531 15.6071 68.7768 15.421 68.9333 15.2645C69.0898 15.108 69.2759 14.9843 69.4807 14.9005C69.6856 14.8167 69.905 14.7745 70.1263 14.7764C70.3476 14.7783 70.5663 14.8243 70.7697 14.9117C70.973 14.999 71.1569 15.126 71.3107 15.2852Z" fill="#333333"/>
</svg>
