<svg width="20" height="14" viewBox="0 0 20 14" fill="none" xmlns="http://www.w3.org/2000/svg">
<path d="M0 11.7629C0 11.2305 0.127688 10.7573 0.383063 10.3431C0.638425 9.92901 1.00298 9.61731 1.47674 9.40804C2.50103 8.95739 3.43317 8.62958 4.27316 8.4246C5.11314 8.21962 5.97768 8.11713 6.86676 8.11713C7.75585 8.11713 8.61697 8.21962 9.45012 8.4246C10.2833 8.62958 11.2123 8.95754 12.2372 9.40849C12.6992 9.61329 13.0641 9.92324 13.3319 10.3383C13.5997 10.7534 13.7335 11.2277 13.7335 11.7613V12.5037C13.7335 12.9239 13.5892 13.2783 13.3005 13.567C13.0118 13.8557 12.6574 14 12.2372 14H1.49634C1.07613 14 0.721693 13.8557 0.433016 13.567C0.144339 13.2783 0 12.9239 0 12.5037V11.7629ZM17.8299 14H14.5739C14.6696 13.7677 14.7584 13.5286 14.8404 13.2826C14.9224 13.0366 14.9634 12.777 14.9634 12.5037V11.8487C14.9634 11.0008 14.7652 10.2626 14.369 9.63397C13.9727 9.00537 13.3372 8.48609 12.4627 8.07613C13.5285 8.18546 14.5261 8.34261 15.4553 8.54758C16.3846 8.75256 17.1498 9.0122 17.7511 9.3265C18.243 9.61347 18.6291 9.96193 18.9092 10.3719C19.1894 10.7818 19.3294 11.2328 19.3294 11.7247V12.5037C19.3294 12.9239 19.1817 13.2783 18.8862 13.567C18.5907 13.8557 18.2386 14 17.8299 14ZM6.86676 6.72328C5.87535 6.72328 5.06723 6.41086 4.44239 5.78602C3.81754 5.16118 3.50512 4.35647 3.50512 3.37189C3.50512 2.38731 3.81754 1.57918 4.44239 0.94751C5.06723 0.315836 5.87194 0 6.85651 0C7.84109 0 8.64922 0.315071 9.28089 0.945215C9.91257 1.57534 10.2284 2.38082 10.2284 3.36164C10.2284 4.35305 9.91334 5.16118 9.28321 5.78602C8.65306 6.41086 7.84758 6.72328 6.86676 6.72328ZM15.1069 3.36164C15.1069 4.35305 14.7919 5.16118 14.1619 5.78602C13.5319 6.41086 12.7266 6.72328 11.746 6.72328C11.5542 6.72328 11.3387 6.70961 11.0996 6.68228C10.8604 6.65495 10.652 6.60713 10.4744 6.5388C10.816 6.15054 11.0722 5.68861 11.243 5.153C11.4139 4.61738 11.4993 4.02227 11.4993 3.36767C11.4993 2.71306 11.4139 2.13162 11.243 1.62334C11.0722 1.11505 10.816 0.635432 10.4744 0.18448C10.6623 0.133236 10.8741 0.0896779 11.1098 0.0538067C11.3455 0.0179356 11.5573 0 11.7452 0C12.7261 0 13.5315 0.315071 14.1617 0.945215C14.7918 1.57534 15.1069 2.38082 15.1069 3.36164ZM1.49634 12.5037H12.2372V11.7657C12.2372 11.5471 12.1803 11.3409 12.0665 11.1472C11.9528 10.9535 11.8115 10.8249 11.6428 10.7613C10.6315 10.3241 9.77745 10.0234 9.08053 9.85944C8.3836 9.69546 7.64226 9.61347 6.85651 9.61347C6.07077 9.61347 5.32601 9.69546 4.62225 9.85944C3.9185 10.0234 3.06784 10.3241 2.07028 10.7613C1.90151 10.8249 1.76366 10.9535 1.65673 11.1472C1.5498 11.3409 1.49634 11.5471 1.49634 11.7657V12.5037ZM6.86078 5.22694C7.39771 5.22694 7.84383 5.05129 8.19912 4.69998C8.55442 4.34868 8.73206 3.90456 8.73206 3.36762C8.73206 2.83069 8.55357 2.38458 8.19658 2.02928C7.83959 1.67399 7.39263 1.49634 6.85569 1.49634C6.31876 1.49634 5.87549 1.67483 5.52588 2.03182C5.17627 2.38881 5.00146 2.83578 5.00146 3.37271C5.00146 3.90964 5.17712 4.35291 5.52842 4.70252C5.87973 5.05213 6.32385 5.22694 6.86078 5.22694Z" fill="#050505"/>
</svg>
