<svg width="10" height="10" viewBox="0 0 10 10" fill="none" xmlns="http://www.w3.org/2000/svg">
<path d="M3.951 6.049H1.04135C0.745278 6.049 0.497703 5.94589 0.298622 5.73966C0.0995406 5.53344 0 5.28943 0 5.00766C0 4.71159 0.0995406 4.46401 0.298622 4.26493C0.497703 4.06585 0.745278 3.96631 1.04135 3.96631H3.951V1.04135C3.951 0.759571 4.05411 0.515569 4.26034 0.309342C4.46656 0.103114 4.71057 0 4.99234 0C5.27412 0 5.51812 0.103114 5.72435 0.309342C5.93058 0.515569 6.03369 0.759571 6.03369 1.04135V3.96631H8.94334C9.23941 3.96631 9.48698 4.06585 9.68606 4.26493C9.88515 4.46401 9.98469 4.70903 9.98469 5C9.98469 5.29096 9.88515 5.53854 9.68606 5.74273C9.48698 5.94691 9.23941 6.049 8.94334 6.049H6.03369V8.95865C6.03369 9.24043 5.93058 9.48443 5.72435 9.69066C5.51812 9.89689 5.27412 10 4.99234 10C4.71057 10 4.46656 9.89689 4.26034 9.69066C4.05411 9.48443 3.951 9.24043 3.951 8.95865V6.049Z" fill="#279B48"/>
</svg>
