<svg width="10" height="6" viewBox="0 0 10 6" fill="none" xmlns="http://www.w3.org/2000/svg">
<path d="M4.45888 5.13604L0.177565 0.891244C0.11893 0.85012 0.0746721 0.797425 0.044793 0.733159C0.0149307 0.668894 0 0.596599 0 0.516279C0 0.37538 0.051656 0.254114 0.154967 0.152478C0.258279 0.0508257 0.381121 0 0.523495 0H9.4765C9.61888 0 9.74172 0.0528022 9.84503 0.158409C9.94834 0.264 10 0.389507 10 0.534931C10 0.568111 9.94026 0.687436 9.82078 0.892902L5.5662 5.13609C5.48528 5.21733 5.39338 5.2789 5.2905 5.32079C5.18763 5.36269 5.09188 5.38363 5.00327 5.38363C4.91465 5.38363 4.81782 5.36269 4.71276 5.32079C4.60771 5.2789 4.52308 5.21731 4.45888 5.13604Z" fill="#02558B"/>
</svg>
