<svg width="40" height="40" viewBox="0 0 40 40" fill="none" xmlns="http://www.w3.org/2000/svg">
<path d="M21.2463 20L17.0307 24.2391C16.678 24.5604 16.5017 24.9529 16.5017 25.4167C16.5017 25.8805 16.676 26.2591 17.0245 26.5526C17.3221 26.9052 17.7 27.0816 18.1582 27.0816C18.6165 27.0816 19.0275 26.9052 19.3912 26.5526L24.7553 21.183C25.0802 20.876 25.2427 20.4848 25.2427 20.0092C25.2427 19.5337 25.0802 19.1224 24.7553 18.7754L19.3677 13.3641C19.0257 13.055 18.624 12.9034 18.1628 12.9094C17.7015 12.9155 17.3218 13.0731 17.0235 13.3823C16.6756 13.7192 16.5017 14.1156 16.5017 14.5716C16.5017 15.0275 16.678 15.41 17.0307 15.7192L21.2463 20ZM19.9999 37.4511C17.621 37.4511 15.3557 36.9958 13.204 36.0851C11.0522 35.1744 9.18677 33.9295 7.60774 32.3505C6.02872 30.7715 4.7908 28.9162 3.89399 26.7847C2.99722 24.6532 2.54883 22.3927 2.54883 20.0033C2.54883 17.589 2.99804 15.3202 3.89645 13.197C4.7949 11.0738 6.03741 9.21847 7.62399 7.63106C9.21061 6.04364 11.076 4.79583 13.2202 3.88764C15.3643 2.97947 17.6276 2.52539 20.0101 2.52539C22.4027 2.52539 24.6546 2.97888 26.766 3.88585C28.8774 4.79282 30.7271 6.03915 32.315 7.62485C33.9029 9.21054 35.1599 11.0676 36.0857 13.196C37.0116 15.3244 37.4745 17.5999 37.4745 20.0226C37.4745 22.4165 37.012 24.6736 36.087 26.7939C35.162 28.9142 33.9073 30.7643 32.3228 32.3443C30.7383 33.9242 28.8875 35.1703 26.7703 36.0826C24.6532 36.995 22.3964 37.4511 19.9999 37.4511V37.4511Z" fill="white"/>
<path d="M21.6866 19.9867L17.0066 15.2911C16.7715 15.0664 16.6586 14.7989 16.6678 14.4885C16.6771 14.1782 16.7993 13.9054 17.0344 13.6703C17.2405 13.4457 17.508 13.3333 17.8369 13.3333C18.1658 13.3333 18.4426 13.4457 18.6672 13.6703L24.1636 19.1667C24.2667 19.2698 24.3539 19.3946 24.4251 19.5411C24.4964 19.6876 24.532 19.8362 24.532 19.9867C24.532 20.1454 24.4964 20.2979 24.4251 20.4445C24.3539 20.591 24.2667 20.7158 24.1636 20.8189L18.6395 26.343C18.4148 26.5677 18.1427 26.6754 17.823 26.6661C17.5034 26.6569 17.2405 26.5399 17.0344 26.3153C16.7993 26.0802 16.6817 25.8028 16.6817 25.4831C16.6817 25.1635 16.7993 24.8913 17.0344 24.6667L21.6866 19.9867Z" fill="#1A1A1A"/>
<path fill-rule="evenodd" clip-rule="evenodd" d="M17.8369 14.1667C17.7209 14.1667 17.6833 14.1957 17.6484 14.2337L17.6363 14.2469L17.6237 14.2596C17.5271 14.3561 17.5033 14.4313 17.5008 14.5134C17.499 14.5753 17.5089 14.6184 17.5823 14.6886L17.5897 14.6956L22.8624 19.986L17.6179 25.2618L17.6101 25.2692C17.5363 25.3397 17.5151 25.3955 17.5151 25.4831C17.5151 25.5721 17.5378 25.6402 17.6236 25.726L17.6363 25.7387L17.6484 25.7519C17.6943 25.8018 17.7402 25.83 17.8472 25.8331C17.9392 25.8358 17.989 25.815 18.0502 25.7538L23.5744 20.2296C23.6047 20.1993 23.6402 20.153 23.6757 20.0801M16.4329 13.0934C16.8087 12.6913 17.3011 12.5 17.8369 12.5C18.3781 12.5 18.8695 12.6941 19.2565 13.081L24.7529 18.5774C24.9287 18.7532 25.0675 18.9566 25.1745 19.1767C25.2964 19.4272 25.3653 19.6997 25.3653 19.9867C25.3653 20.2751 25.2995 20.552 25.1746 20.8089C25.0675 21.029 24.9287 21.2323 24.7529 21.4081L19.2287 26.9323C18.8407 27.3203 18.3462 27.515 17.7989 27.4991C17.2726 27.4839 16.7975 27.2826 16.4327 26.892C16.0562 26.5096 15.8484 26.0276 15.8484 25.4831C15.8484 24.9355 16.0591 24.4501 16.45 24.0725L20.5108 19.9875L16.4227 15.8857C16.0312 15.5077 15.8183 15.0187 15.8349 14.4637C15.8508 13.931 16.0667 13.4651 16.4329 13.0934ZM17.8369 14.1667C17.9535 14.1667 18.0157 14.1972 18.078 14.2595L17.8369 14.1667ZM18.078 14.2595L23.5743 19.7559L18.078 14.2595ZM23.5743 19.7559C23.6047 19.7862 23.6402 19.8326 23.6757 19.9055C23.6964 19.948 23.6987 19.9726 23.6987 19.9867C23.6987 20.0156 23.6933 20.0439 23.6757 20.0801" fill="#1A1A1A"/>
</svg>
