<svg width="59" height="24" viewBox="0 0 59 24" fill="none" xmlns="http://www.w3.org/2000/svg">
<path d="M21.2624 8.26443C21.8202 8.26443 22.3167 8.48011 22.7519 8.91146C23.1871 9.3428 23.4047 9.8364 23.4047 10.3923V11.877C23.4047 12.0158 23.4151 12.1618 23.4358 12.3149C23.4566 12.4679 23.4377 12.5994 23.3791 12.7091L20.0624 20.3918C19.8672 20.8538 19.5488 21.2374 19.1073 21.5424C18.6658 21.8475 18.1985 22 17.7052 22H6.16766V8.26443L11.3542 2.6975C11.6737 2.34453 12.0551 2.12486 12.4985 2.03847C12.9419 1.95207 13.3701 2.0112 13.7829 2.21586C14.1725 2.42052 14.4556 2.73956 14.6321 3.17298C14.8086 3.60641 14.8335 4.04966 14.7067 4.50273L13.9091 8.26443H21.2624ZM8.13641 9.30666V19.8722H17.999L21.248 12.1207V10.3923H11.3676L12.6378 4.52721L8.13641 9.30666ZM3.1278 22C2.53539 22 2.03266 21.7968 1.61961 21.3905C1.20654 20.9842 1 20.4781 1 19.8722V10.3923C1 9.80996 1.20654 9.30976 1.61961 8.89164C2.03266 8.4735 2.53539 8.26443 3.1278 8.26443H6.16766V10.3923H3.1278V19.8722H6.16766V22H3.1278Z" fill="black"/>
<path d="M46.2819 20.6252C45.8731 20.6252 45.5312 20.4851 45.2562 20.205C44.9813 19.9248 44.8438 19.5881 44.8438 19.1947C44.8438 18.81 44.9803 18.4689 45.2533 18.1714C45.5262 17.8739 45.8603 17.7252 46.2556 17.7252C46.6644 17.7252 47.0063 17.8735 47.2812 18.1702C47.5563 18.4669 47.6938 18.8086 47.6938 19.1952C47.6938 19.5819 47.5577 19.9169 47.2855 20.2002C47.0133 20.4835 46.6788 20.6252 46.2819 20.6252ZM46.2819 13.3502C45.8731 13.3502 45.5312 13.2137 45.2562 12.9407C44.9813 12.6677 44.8438 12.3336 44.8438 11.9384C44.8438 11.5296 44.9803 11.1877 45.2533 10.9127C45.5262 10.6377 45.8603 10.5002 46.2556 10.5002C46.6644 10.5002 47.0063 10.6363 47.2812 10.9084C47.5563 11.1806 47.6938 11.5151 47.6938 11.912C47.6938 12.3208 47.5577 12.6627 47.2855 12.9377C47.0133 13.2127 46.6788 13.3502 46.2819 13.3502ZM46.2819 6.1252C45.8731 6.1252 45.5312 5.98135 45.2562 5.69367C44.9813 5.40599 44.8438 5.06015 44.8438 4.65617C44.8438 4.25219 44.9803 3.90853 45.2533 3.6252C45.5262 3.34186 45.8603 3.2002 46.2556 3.2002C46.6644 3.2002 47.0063 3.34251 47.2812 3.62715C47.5563 3.91176 47.6938 4.25433 47.6938 4.65484C47.6938 5.06223 47.5577 5.40914 47.2855 5.69557C47.0133 5.98199 46.6788 6.1252 46.2819 6.1252Z" fill="black"/>
</svg>
