<svg width="28" height="28" viewBox="0 0 28 28" fill="none" xmlns="http://www.w3.org/2000/svg">
<path d="M10.76 20.5251V20.0751H7.16002C6.58739 20.0743 6.03842 19.8608 5.63351 19.4812C5.2286 19.1016 5.00078 18.5869 5.00002 18.0501V17.7063C4.99814 17.2781 5.12445 16.8581 5.36459 16.4939C5.60473 16.1297 5.94906 15.836 6.35842 15.6462C6.54154 15.5604 6.69814 15.4321 6.81327 15.2734C6.92839 15.1147 6.9982 14.931 7.01602 14.7399L7.44418 10.3209C7.52498 9.48704 7.80404 8.68079 8.26085 7.96135C8.71765 7.2419 9.34059 6.62756 10.0839 6.16345C10.8272 5.69934 11.672 5.39727 12.5562 5.27942C13.4404 5.16158 14.3415 5.23096 15.1933 5.48246C14.93 5.86623 14.7249 6.2824 14.5837 6.71906C14.1975 6.6231 13.7996 6.57469 13.4 6.57506C12.2662 6.57008 11.1719 6.96548 10.335 7.68259C9.49799 8.3997 8.9797 9.38594 8.88322 10.4451L8.45602 14.8623C8.4163 15.2828 8.26205 15.6867 8.00806 16.0353C7.75407 16.3838 7.40884 16.6654 7.00546 16.8531C6.8354 16.9316 6.69225 17.0532 6.59229 17.2042C6.49233 17.3552 6.43957 17.5295 6.44002 17.7072V18.051C6.44053 18.2298 6.51658 18.4011 6.65152 18.5274C6.78647 18.6538 6.96931 18.7248 7.16002 18.7251H19.64C19.8309 18.7248 20.0139 18.6536 20.1489 18.5271C20.2838 18.4006 20.3598 18.229 20.36 18.0501V17.7063C20.3608 17.5289 20.3085 17.355 20.209 17.2042C20.1096 17.0533 19.967 16.9317 19.7975 16.8531C19.3935 16.6658 19.0477 16.3843 18.7932 16.0357C18.5387 15.6871 18.384 15.283 18.344 14.8623L18.152 12.9003C18.6279 13.031 19.1211 13.098 19.617 13.0992L19.7763 14.739C19.7957 14.9296 19.8663 15.1125 19.9814 15.2707C20.0966 15.4288 20.2526 15.5571 20.4349 15.6435C20.8446 15.8334 21.1893 16.1272 21.4299 16.4915C21.6705 16.8558 21.7974 17.276 21.7962 17.7045V18.0483C21.7957 18.5852 21.5679 19.1 21.163 19.4796C20.758 19.8593 20.2089 20.0728 19.6362 20.0733H16.04V20.5251C16.04 21.1815 15.7619 21.811 15.2668 22.2752C14.7717 22.7393 14.1002 23.0001 13.4 23.0001C12.6998 23.0001 12.0284 22.7393 11.5333 22.2752C11.0382 21.811 10.76 21.1815 10.76 20.5251ZM12.2 20.5251C12.2 20.8234 12.3264 21.1096 12.5515 21.3206C12.7765 21.5315 13.0818 21.6501 13.4 21.6501C13.7183 21.6501 14.0235 21.5315 14.2485 21.3206C14.4736 21.1096 14.6 20.8234 14.6 20.5251V20.0751H12.2V20.5251Z" fill="#65676B" stroke="#65676B"/>
<path d="M19.4313 11.3C18.8082 11.3 18.1992 11.1153 17.6812 10.7691C17.1632 10.423 16.7594 9.93104 16.521 9.35545C16.2826 8.77987 16.2202 8.14651 16.3418 7.53547C16.4633 6.92443 16.7633 6.36315 17.2039 5.92261C17.6444 5.48208 18.2057 5.18207 18.8167 5.06053C19.4278 4.93898 20.0611 5.00136 20.6367 5.23978C21.2123 5.4782 21.7043 5.88194 22.0504 6.39995C22.3965 6.91797 22.5812 7.52699 22.5812 8.15C22.5812 8.98543 22.2494 9.78665 21.6586 10.3774C21.0679 10.9681 20.2667 11.3 19.4313 11.3Z" fill="#B40000"/>
</svg>
