<svg width="32" height="34" viewBox="0 0 32 34" fill="none" xmlns="http://www.w3.org/2000/svg">
<path d="M25.375 10.375H14.125M27.25 1C28.2446 1 29.1984 1.39509 29.9016 2.09835C30.6049 2.80161 31 3.75544 31 4.75V23.5C31 24.4946 30.6049 25.4484 29.9016 26.1516C29.1984 26.8549 28.2446 27.25 27.25 27.25L21.6269 27.2481L17.3256 31.5494C17.0028 31.8722 16.5732 32.0661 16.1175 32.0948C15.6619 32.1234 15.2114 31.9848 14.8506 31.705L14.6744 31.5494L10.3731 27.2481L4.75 27.25C3.75544 27.25 2.80161 26.8549 2.09835 26.1516C1.39509 25.4484 1 24.4946 1 23.5V4.75C1 3.75544 1.39509 2.80161 2.09835 2.09835C2.80161 1.39509 3.75544 1 4.75 1H27.25Z" stroke="#333333" stroke-width="2" stroke-linecap="round" stroke-linejoin="round"/>
<path d="M9.37313 10.375C9.37313 10.5185 9.2913 10.7457 9.08008 10.957C8.86886 11.1682 8.64164 11.25 8.49813 11.25C8.35481 11.25 8.12823 11.1684 7.91758 10.9574C7.70694 10.7465 7.625 10.5192 7.625 10.375C7.625 10.2308 7.70694 10.0035 7.91758 9.79257C8.12823 9.58164 8.35481 9.5 8.49813 9.5C8.64164 9.5 8.86886 9.58183 9.08008 9.79304C9.2913 10.0043 9.37313 10.2315 9.37313 10.375ZM9.37313 17.875C9.37313 18.0185 9.2913 18.2457 9.08008 18.457C8.86886 18.6682 8.64164 18.75 8.49813 18.75C8.35481 18.75 8.12823 18.6684 7.91758 18.4574C7.70694 18.2465 7.625 18.0192 7.625 17.875C7.625 17.7308 7.70694 17.5035 7.91758 17.2926C8.12823 17.0816 8.35481 17 8.49813 17C8.64164 17 8.86886 17.0818 9.08008 17.293C9.2913 17.5043 9.37313 17.7315 9.37313 17.875Z" fill="#1A1A1A" stroke="#333333" stroke-width="2"/>
<path d="M25.375 17.875H14.125" stroke="#333333" stroke-width="2" stroke-linecap="round" stroke-linejoin="round"/>
</svg>
