<svg width="60" height="60" viewBox="0 0 60 60" fill="none" xmlns="http://www.w3.org/2000/svg">
<path fill-rule="evenodd" clip-rule="evenodd" d="M4.6875 12.1875C4.6875 10.1164 6.36643 8.4375 8.4375 8.4375H51.5625C53.6336 8.4375 55.3125 10.1164 55.3125 12.1875V41.25C55.3125 43.3211 53.6336 45 51.5625 45H49.6875L49.6875 49.6875C49.6875 49.693 49.6875 49.6986 49.6875 49.7041C49.6811 51.335 48.734 52.5388 47.4997 53.0976C47.2643 53.2056 47.0158 53.29 46.7572 53.3476C46.4009 53.429 46.033 53.4604 45.6661 53.4375H43.7244C42.1477 53.4375 40.6434 52.7757 39.578 51.6135L33.5156 45H8.4375C6.36643 45 4.6875 43.3211 4.6875 41.25V12.1875Z" fill="#050505"/>
<path d="M7.07585 50.2858C7.40381 49.4881 8.53369 49.4881 8.86165 50.2858L9.50306 51.8461C9.60109 52.0846 9.79043 52.2739 10.0289 52.3719L11.5892 53.0133C12.3869 53.3413 12.3869 54.4712 11.5892 54.7992L10.0289 55.4406C9.79043 55.5386 9.60109 55.7279 9.50306 55.9664L8.86165 57.5267C8.53369 58.3244 7.40381 58.3244 7.07585 57.5267L6.43444 55.9664C6.33641 55.7279 6.14707 55.5386 5.9086 55.4406L4.34834 54.7992C3.55055 54.4712 3.55055 53.3413 4.34834 53.0133L5.9086 52.3719C6.14707 52.2739 6.33641 52.0846 6.43444 51.8461L7.07585 50.2858Z" fill="#050505"/>
<path d="M56.7416 49.3629C57.0775 48.5457 58.235 48.5457 58.5709 49.3629L58.6518 49.5596C58.7522 49.8038 58.9462 49.9978 59.1904 50.0982L59.3871 50.1791C60.2043 50.515 60.2043 51.6725 59.3871 52.0084L59.1904 52.0893C58.9462 52.1897 58.7522 52.3836 58.6518 52.6279L58.5709 52.8246C58.235 53.6418 57.0775 53.6418 56.7416 52.8246L56.6607 52.6279C56.5603 52.3836 56.3663 52.1897 56.1221 52.0893L55.9254 52.0084C55.1082 51.6725 55.1082 50.515 55.9254 50.1791L56.1221 50.0982C56.3663 49.9978 56.5603 49.8038 56.6607 49.5596L56.7416 49.3629Z" fill="#050505"/>
<path d="M54.8807 1.54098C55.2115 0.736341 56.351 0.736341 56.6818 1.54098L57.0451 2.42459C57.1439 2.6651 57.3349 2.85607 57.5754 2.95494L58.459 3.31819C59.2637 3.64897 59.2637 4.78853 58.459 5.11931L57.5754 5.48256C57.3349 5.58143 57.1439 5.7724 57.0451 6.01291L56.6818 6.89652C56.351 7.70116 55.2115 7.70116 54.8807 6.89652L54.5174 6.01291C54.4186 5.7724 54.2276 5.58143 53.9871 5.48256L53.1035 5.11931C52.2988 4.78853 52.2988 3.64897 53.1035 3.31819L53.9871 2.95494C54.2276 2.85607 54.4186 2.6651 54.5174 2.42459L54.8807 1.54098Z" fill="#050505"/>
<path fill-rule="evenodd" clip-rule="evenodd" d="M38.6719 43.125L44.4375 50.8125C45.5186 52.254 47.8125 51.4894 47.8125 49.6875V43.125H51.5625C52.598 43.125 53.4375 42.2855 53.4375 41.25V12.1875C53.4375 11.152 52.598 10.3125 51.5625 10.3125H15C13.9645 10.3125 13.125 11.152 13.125 12.1875V41.25C13.125 42.2855 13.9645 43.125 15 43.125H38.6719ZM22.9688 30.9375C25.2987 30.9375 27.1875 29.0487 27.1875 26.7187C27.1875 24.3888 25.2987 22.5 22.9688 22.5C20.6388 22.5 18.75 24.3888 18.75 26.7187C18.75 29.0487 20.6388 30.9375 22.9688 30.9375ZM37.5 26.7187C37.5 29.0487 35.6112 30.9375 33.2812 30.9375C30.9513 30.9375 29.0625 29.0487 29.0625 26.7187C29.0625 24.3888 30.9513 22.5 33.2812 22.5C35.6112 22.5 37.5 24.3888 37.5 26.7187ZM43.5938 30.9375C45.9237 30.9375 47.8125 29.0487 47.8125 26.7187C47.8125 24.3888 45.9237 22.5 43.5938 22.5C41.2638 22.5 39.375 24.3888 39.375 26.7187C39.375 29.0487 41.2638 30.9375 43.5938 30.9375Z" fill="#279B48"/>
<path d="M25.3125 26.7188C25.3125 28.0132 24.2632 29.0625 22.9688 29.0625C21.6743 29.0625 20.625 28.0132 20.625 26.7188C20.625 25.4243 21.6743 24.375 22.9688 24.375C24.2632 24.375 25.3125 25.4243 25.3125 26.7188Z" fill="white"/>
<path d="M35.625 26.7188C35.625 28.0132 34.5757 29.0625 33.2812 29.0625C31.9868 29.0625 30.9375 28.0132 30.9375 26.7188C30.9375 25.4243 31.9868 24.375 33.2812 24.375C34.5757 24.375 35.625 25.4243 35.625 26.7188Z" fill="white"/>
<path d="M45.9375 26.7188C45.9375 28.0132 44.8882 29.0625 43.5938 29.0625C42.2993 29.0625 41.25 28.0132 41.25 26.7188C41.25 25.4243 42.2993 24.375 43.5938 24.375C44.8882 24.375 45.9375 25.4243 45.9375 26.7188Z" fill="white"/>
</svg>
