<svg width="20" height="20" viewBox="0 0 20 20" fill="none" xmlns="http://www.w3.org/2000/svg">
<g clip-path="url(#clip0_1_6251)">
<path d="M7.05594 19.2014L5.39515 16.3581L2.08854 15.6657L2.46852 12.4473L0.359375 9.99988L2.46852 7.57326L2.08854 4.34997L5.39515 3.66247L7.05594 0.79834L9.99842 2.15251L12.9459 0.79834L14.6225 3.66247L17.9083 4.34997L17.5283 7.57326L19.6375 9.99988L17.5283 12.4473L17.9083 15.6657L14.6225 16.3581L12.9459 19.2014L9.99842 17.8473L7.05594 19.2014ZM9.10258 12.9591L14.031 8.06736L12.921 7.04065L9.10258 10.8223L7.13338 8.72315L5.97669 9.85405L9.10258 12.9591Z" fill="#298CFA"/>
</g>
<defs>
<clipPath id="clip0_1_6251">
<rect width="20" height="20" fill="white"/>
</clipPath>
</defs>
</svg>
