<svg width="28" height="28" viewBox="0 0 28 28" fill="none" xmlns="http://www.w3.org/2000/svg">
<path d="M7.21512 20.9761H10.7248V15.7467C10.7248 15.4671 10.8325 15.2265 11.0481 15.0249C11.2636 14.8234 11.5206 14.7226 11.819 14.7226H16.1659C16.4719 14.7226 16.7352 14.8234 16.9558 15.0249C17.1765 15.2265 17.2868 15.4671 17.2868 15.7467V20.9761H20.7698V11.6803L13.9925 7.03761L7.21512 11.6676V20.9761ZM5 20.9761V11.6757C5 11.3518 5.07509 11.0488 5.22528 10.7665C5.37547 10.4842 5.5968 10.2446 5.88928 10.0475L12.6666 5.38191C13.0384 5.1273 13.479 5 13.9882 5C14.4974 5 14.9497 5.1273 15.3449 5.38191L22.1223 10.0475C22.4017 10.2446 22.6178 10.4842 22.7707 10.7665C22.9236 11.0488 23 11.3518 23 11.6757V20.9761C23 21.5396 22.7835 22.0178 22.3505 22.4107C21.9176 22.8036 21.3907 23 20.7698 23H16.3315C16.019 23 15.7585 22.9014 15.55 22.7043C15.3415 22.5072 15.2372 22.2644 15.2372 21.9759V16.5952H12.7743V21.9759C12.7743 22.2644 12.6675 22.5072 12.4539 22.7043C12.2403 22.9014 11.9735 23 11.6535 23H7.21512C6.5984 23 6.07503 22.8036 5.64501 22.4107C5.215 22.0178 5 21.5396 5 20.9761Z" fill="#65676B"/>
</svg>
