<svg width="25" height="25" viewBox="0 0 25 25" fill="none" xmlns="http://www.w3.org/2000/svg">
<path d="M24.1636 0.834498L24.9302 1.16278C24.9961 1.0096 25.0146 0.840159 24.9832 0.676365C24.9518 0.512571 24.872 0.361966 24.7541 0.244038C24.6362 0.126111 24.4856 0.0462863 24.3218 0.014894C24.158 -0.0164982 23.9885 0.00198628 23.8353 0.0679559L24.1636 0.834498ZM0.83409 10.8329L0.505811 10.0663C0.364505 10.1267 0.242649 10.225 0.153717 10.3503C0.064784 10.4756 0.0122391 10.6231 0.00189149 10.7764C-0.00845608 10.9297 0.0237968 11.0829 0.0950841 11.219C0.166371 11.3552 0.273916 11.4689 0.405827 11.5478L0.83409 10.8329ZM14.1653 24.164L13.4504 24.5923C13.5292 24.7242 13.643 24.8318 13.7791 24.903C13.9152 24.9743 14.0684 25.0066 14.2217 24.9962C14.375 24.9859 14.5225 24.9333 14.6478 24.8444C14.7731 24.7555 14.8714 24.6336 14.9318 24.4923L14.1653 24.164ZM23.8353 0.0679559L0.505811 10.0663L1.16237 11.5994L24.4919 1.60104L23.8353 0.0679559ZM0.405827 11.5478L8.7378 16.5486L9.59433 15.1188L1.26235 10.1197L0.405827 11.5478ZM8.44952 16.2603L13.4487 24.5923L14.8785 23.7358L9.87929 15.4038L8.44952 16.2603ZM14.9301 24.4923L24.9285 1.16278L23.3954 0.506218L13.397 23.8358L14.9301 24.4923ZM23.5737 0.24626L8.57616 15.2438L9.75597 16.422L24.7535 1.4244L23.5737 0.24626Z" fill="#279B48"/>
</svg>
