<svg width="500" height="40" viewBox="0 0 500 40" fill="none" xmlns="http://www.w3.org/2000/svg">
<path d="M18.7537 20L22.9693 24.2391C23.322 24.5604 23.4983 24.9529 23.4983 25.4167C23.4983 25.8805 23.324 26.2591 22.9755 26.5526C22.6779 26.9052 22.3 27.0816 21.8418 27.0816C21.3835 27.0816 20.9725 26.9052 20.6088 26.5526L15.2447 21.183C14.9198 20.876 14.7573 20.4848 14.7573 20.0092C14.7573 19.5337 14.9198 19.1224 15.2447 18.7754L20.6323 13.3641C20.9743 13.055 21.376 12.9034 21.8372 12.9094C22.2985 12.9155 22.6782 13.0731 22.9765 13.3823C23.3244 13.7192 23.4983 14.1156 23.4983 14.5716C23.4983 15.0275 23.322 15.41 22.9693 15.7192L18.7537 20ZM20.0001 37.4511C22.379 37.4511 24.6443 36.9958 26.796 36.0851C28.9478 35.1744 30.8132 33.9295 32.3923 32.3505C33.9713 30.7715 35.2092 28.9162 36.106 26.7847C37.0028 24.6532 37.4512 22.3927 37.4512 20.0033C37.4512 17.589 37.002 15.3202 36.1035 13.197C35.2051 11.0738 33.9626 9.21847 32.376 7.63106C30.7894 6.04364 28.924 4.79583 26.7798 3.88764C24.6357 2.97947 22.3724 2.52539 19.9899 2.52539C17.5973 2.52539 15.3454 2.97888 13.234 3.88585C11.1226 4.79282 9.27295 6.03915 7.685 7.62485C6.09706 9.21054 4.84015 11.0676 3.91426 13.196C2.9884 15.3244 2.52546 17.5999 2.52546 20.0226C2.52546 22.4165 2.98796 24.6736 3.91296 26.7939C4.83796 28.9142 6.0927 30.7643 7.67717 32.3443C9.26167 33.9242 11.1125 35.1703 13.2297 36.0826C15.3468 36.995 17.6036 37.4511 20.0001 37.4511V37.4511Z" fill="white"/>
<path d="M18.3134 19.9867L22.9934 15.2911C23.2285 15.0664 23.3414 14.7989 23.3322 14.4885C23.3229 14.1782 23.2007 13.9054 22.9656 13.6703C22.7595 13.4457 22.492 13.3333 22.1631 13.3333C21.8342 13.3333 21.5574 13.4457 21.3328 13.6703L15.8364 19.1667C15.7333 19.2698 15.6461 19.3946 15.5749 19.5411C15.5036 19.6876 15.468 19.8362 15.468 19.9867C15.468 20.1454 15.5036 20.2979 15.5749 20.4445C15.6461 20.591 15.7333 20.7158 15.8364 20.8189L21.3605 26.343C21.5852 26.5677 21.8573 26.6754 22.177 26.6661C22.4966 26.6569 22.7595 26.5399 22.9656 26.3153C23.2007 26.0802 23.3183 25.8028 23.3183 25.4831C23.3183 25.1635 23.2007 24.8913 22.9656 24.6667L18.3134 19.9867Z" fill="black"/>
<path fill-rule="evenodd" clip-rule="evenodd" d="M22.1631 14.1667C22.2791 14.1667 22.3167 14.1957 22.3516 14.2337L22.3637 14.2469L22.3763 14.2596C22.4729 14.3561 22.4967 14.4313 22.4992 14.5134C22.501 14.5753 22.4911 14.6184 22.4177 14.6886L22.4103 14.6956L17.1376 19.986L22.3821 25.2618L22.3899 25.2692C22.4637 25.3397 22.4849 25.3955 22.4849 25.4831C22.4849 25.5721 22.4622 25.6402 22.3764 25.726L22.3637 25.7387L22.3516 25.7519C22.3057 25.8018 22.2598 25.83 22.1528 25.8331C22.0608 25.8358 22.011 25.815 21.9498 25.7538L16.4256 20.2296C16.3953 20.1993 16.3598 20.153 16.3243 20.0801M23.5671 13.0934C23.1913 12.6913 22.6989 12.5 22.1631 12.5C21.6219 12.5 21.1305 12.6941 20.7435 13.081L15.2471 18.5774C15.0713 18.7532 14.9325 18.9566 14.8255 19.1767C14.7036 19.4272 14.6347 19.6997 14.6347 19.9867C14.6347 20.2751 14.7005 20.552 14.8254 20.8089C14.9325 21.029 15.0713 21.2323 15.2471 21.4081L20.7713 26.9323C21.1593 27.3203 21.6538 27.515 22.2011 27.4991C22.7274 27.4839 23.2025 27.2826 23.5673 26.892C23.9438 26.5096 24.1516 26.0276 24.1516 25.4831C24.1516 24.9355 23.9409 24.4501 23.55 24.0725L19.4892 19.9875L23.5773 15.8857C23.9688 15.5077 24.1817 15.0187 24.1651 14.4637C24.1492 13.931 23.9333 13.4651 23.5671 13.0934ZM22.1631 14.1667C22.0465 14.1667 21.9843 14.1972 21.922 14.2595L22.1631 14.1667ZM21.922 14.2595L16.4257 19.7559L21.922 14.2595ZM16.4257 19.7559C16.3953 19.7862 16.3598 19.8326 16.3243 19.9055C16.3036 19.948 16.3013 19.9726 16.3013 19.9867C16.3013 20.0156 16.3067 20.0439 16.3243 20.0801" fill="black"/>
<path d="M481.246 20L477.031 24.2391C476.678 24.5604 476.502 24.9529 476.502 25.4167C476.502 25.8805 476.676 26.2591 477.024 26.5526C477.322 26.9052 477.7 27.0816 478.158 27.0816C478.616 27.0816 479.027 26.9052 479.391 26.5526L484.755 21.183C485.08 20.876 485.243 20.4848 485.243 20.0092C485.243 19.5337 485.08 19.1224 484.755 18.7754L479.368 13.3641C479.026 13.055 478.624 12.9034 478.163 12.9094C477.702 12.9155 477.322 13.0731 477.023 13.3823C476.676 13.7192 476.502 14.1156 476.502 14.5716C476.502 15.0275 476.678 15.41 477.031 15.7192L481.246 20ZM480 37.4511C477.621 37.4511 475.356 36.9958 473.204 36.0851C471.052 35.1744 469.187 33.9295 467.608 32.3505C466.029 30.7715 464.791 28.9162 463.894 26.7847C462.997 24.6532 462.549 22.3927 462.549 20.0033C462.549 17.589 462.998 15.3202 463.896 13.197C464.795 11.0738 466.037 9.21847 467.624 7.63106C469.211 6.04364 471.076 4.79583 473.22 3.88764C475.364 2.97947 477.628 2.52539 480.01 2.52539C482.403 2.52539 484.655 2.97888 486.766 3.88585C488.877 4.79282 490.727 6.03915 492.315 7.62485C493.903 9.21054 495.16 11.0676 496.086 13.196C497.012 15.3244 497.475 17.5999 497.475 20.0226C497.475 22.4165 497.012 24.6736 496.087 26.7939C495.162 28.9142 493.907 30.7643 492.323 32.3443C490.738 33.9242 488.887 35.1703 486.77 36.0826C484.653 36.995 482.396 37.4511 480 37.4511V37.4511Z" fill="white"/>
<path d="M481.687 19.9867L477.007 15.2911C476.772 15.0664 476.659 14.7989 476.668 14.4885C476.677 14.1782 476.799 13.9054 477.034 13.6703C477.241 13.4457 477.508 13.3333 477.837 13.3333C478.166 13.3333 478.443 13.4457 478.667 13.6703L484.164 19.1667C484.267 19.2698 484.354 19.3946 484.425 19.5411C484.496 19.6876 484.532 19.8362 484.532 19.9867C484.532 20.1454 484.496 20.2979 484.425 20.4445C484.354 20.591 484.267 20.7158 484.164 20.8189L478.639 26.343C478.415 26.5677 478.143 26.6754 477.823 26.6661C477.503 26.6569 477.241 26.5399 477.034 26.3153C476.799 26.0802 476.682 25.8028 476.682 25.4831C476.682 25.1635 476.799 24.8913 477.034 24.6667L481.687 19.9867Z" fill="black"/>
<path fill-rule="evenodd" clip-rule="evenodd" d="M477.837 14.1667C477.721 14.1667 477.683 14.1957 477.648 14.2337L477.636 14.2469L477.624 14.2596C477.527 14.3561 477.503 14.4313 477.501 14.5134C477.499 14.5753 477.509 14.6184 477.582 14.6886L477.59 14.6956L482.862 19.986L477.618 25.2618L477.61 25.2692C477.536 25.3397 477.515 25.3955 477.515 25.4831C477.515 25.5721 477.538 25.6402 477.624 25.726L477.636 25.7387L477.648 25.7519C477.694 25.8018 477.74 25.83 477.847 25.8331C477.939 25.8358 477.989 25.815 478.05 25.7538L483.574 20.2296C483.605 20.1993 483.64 20.153 483.676 20.0801M476.433 13.0934C476.809 12.6913 477.301 12.5 477.837 12.5C478.378 12.5 478.87 12.6941 479.256 13.081L484.753 18.5774C484.929 18.7532 485.068 18.9566 485.175 19.1767C485.296 19.4272 485.365 19.6997 485.365 19.9867C485.365 20.2751 485.299 20.552 485.175 20.8089C485.068 21.029 484.929 21.2323 484.753 21.4081L479.229 26.9323C478.841 27.3203 478.346 27.515 477.799 27.4991C477.273 27.4839 476.798 27.2826 476.433 26.892C476.056 26.5096 475.848 26.0276 475.848 25.4831C475.848 24.9355 476.059 24.4501 476.45 24.0725L480.511 19.9875L476.423 15.8857C476.031 15.5077 475.818 15.0187 475.835 14.4637C475.851 13.931 476.067 13.4651 476.433 13.0934ZM477.837 14.1667C477.954 14.1667 478.016 14.1972 478.078 14.2595L477.837 14.1667ZM478.078 14.2595L483.574 19.7559L478.078 14.2595ZM483.574 19.7559C483.605 19.7862 483.64 19.8326 483.676 19.9055C483.696 19.948 483.699 19.9726 483.699 19.9867C483.699 20.0156 483.693 20.0439 483.676 20.0801" fill="black"/>
</svg>
