<svg width="25" height="24" viewBox="0 0 25 24" fill="none" xmlns="http://www.w3.org/2000/svg">
<path d="M21.2624 8.26443C21.8202 8.26443 22.3167 8.48011 22.7519 8.91146C23.1871 9.3428 23.4047 9.8364 23.4047 10.3923V11.877C23.4047 12.0158 23.4151 12.1618 23.4358 12.3149C23.4566 12.4679 23.4377 12.5994 23.3791 12.7091L20.0624 20.3918C19.8672 20.8538 19.5488 21.2374 19.1073 21.5424C18.6658 21.8475 18.1985 22 17.7052 22H6.16766V8.26443L11.3542 2.6975C11.6737 2.34453 12.0551 2.12486 12.4985 2.03847C12.9419 1.95207 13.3701 2.0112 13.7829 2.21586C14.1725 2.42052 14.4556 2.73956 14.6321 3.17298C14.8086 3.60641 14.8335 4.04966 14.7067 4.50273L13.9091 8.26443H21.2624ZM8.13641 9.30666V19.8722H17.999L21.248 12.1207V10.3923H11.3676L12.6378 4.52721L8.13641 9.30666ZM3.1278 22C2.53539 22 2.03266 21.7968 1.61961 21.3905C1.20654 20.9842 1 20.4781 1 19.8722V10.3923C1 9.80996 1.20654 9.30976 1.61961 8.89164C2.03266 8.4735 2.53539 8.26443 3.1278 8.26443H6.16766V10.3923H3.1278V19.8722H6.16766V22H3.1278Z" fill="black"/>
</svg>
