<svg width="36" height="36" viewBox="0 0 36 36" fill="none" xmlns="http://www.w3.org/2000/svg">
<path d="M17.9671 26C17.7269 26 17.4938 25.9611 17.2677 25.8834C17.0417 25.8057 16.8368 25.6751 16.6532 25.4914L15.5512 24.453C13.7993 22.8565 12.2805 21.3024 10.9949 19.7907C9.70923 18.279 9.06641 16.6684 9.06641 14.9589C9.06641 13.5603 9.53263 12.3841 10.4651 11.4305C11.3975 10.4768 12.556 10 13.9406 10C14.647 10 15.3463 10.1554 16.0386 10.4662C16.7309 10.777 17.3737 11.2998 17.9671 12.0344C18.6311 11.2998 19.288 10.777 19.9379 10.4662C20.5878 10.1554 21.273 10 21.9936 10C23.3922 10 24.5649 10.4768 25.5114 11.4305C26.458 12.3841 26.9313 13.5603 26.9313 14.9589C26.9313 16.6684 26.2744 18.2826 24.9604 19.8013C23.6465 21.3201 22.1278 22.8777 20.4042 24.4742L19.3022 25.4914C19.1185 25.6751 18.9101 25.8057 18.677 25.8834C18.4439 25.9611 18.2072 26 17.9671 26Z" fill="#B40000"/>
</svg>
