<svg width="21" height="16" viewBox="0 0 21 16" fill="none" xmlns="http://www.w3.org/2000/svg">
<path d="M8.16009 1.61727C8.19544 1.60171 8.23414 1.59529 8.27262 1.59858C8.31111 1.60188 8.34815 1.6148 8.38034 1.63616C8.41253 1.65751 8.43883 1.68661 8.45684 1.72078C8.47484 1.75496 8.48397 1.79311 8.48338 1.83173V3.67704C8.48338 3.88928 8.56768 4.09281 8.71775 4.24289C8.86782 4.39296 9.07136 4.47726 9.2836 4.47726C10.3511 4.47726 12.5053 4.48527 14.5651 5.79283C16.1399 6.7915 17.7499 8.6096 18.7182 11.9961C17.0857 10.4229 15.2212 9.56987 13.5888 9.11695C12.5854 8.83981 11.5542 8.67555 10.5143 8.62721C10.0887 8.60851 9.66236 8.61279 9.23718 8.64001H9.21638L9.20837 8.64161L9.2836 9.43863L9.20357 8.64161C9.00605 8.66147 8.82296 8.75403 8.68986 8.90132C8.55677 9.04861 8.48317 9.24012 8.48338 9.43863V11.2839C8.48338 11.4568 8.30733 11.5656 8.16009 11.4984L1.78392 6.80431C1.76228 6.78825 1.73985 6.7733 1.71671 6.75949C1.68191 6.73858 1.65311 6.70902 1.63312 6.67368C1.61313 6.63835 1.60262 6.59844 1.60262 6.55784C1.60262 6.51724 1.61313 6.47733 1.63312 6.44199C1.65311 6.40666 1.68191 6.3771 1.71671 6.35618C1.73985 6.34239 1.76229 6.32743 1.78392 6.31137L8.16009 1.61727ZM10.0838 10.2164C10.1926 10.2164 10.3127 10.2213 10.4407 10.2261C11.1353 10.2581 12.0956 10.3637 13.1615 10.6598C15.2837 11.2487 17.7963 12.5835 19.4672 15.5891C19.5576 15.7514 19.7015 15.8771 19.8744 15.9449C20.0474 16.0126 20.2385 16.0181 20.415 15.9604C20.5915 15.9027 20.7424 15.7854 20.8419 15.6286C20.9415 15.4718 20.9833 15.2853 20.9604 15.101C20.2178 9.16336 17.942 6.0393 15.4229 4.44205C13.4303 3.17771 11.3786 2.93444 10.0838 2.88803V1.83173C10.084 1.50215 9.99515 1.17864 9.82674 0.895338C9.65833 0.612034 9.41656 0.379441 9.12696 0.222103C8.83736 0.0647648 8.51066 -0.0114849 8.18133 0.00139998C7.852 0.0142848 7.53226 0.115826 7.25584 0.29531L0.863671 5.00061C0.599406 5.16557 0.381467 5.39506 0.230373 5.66749C0.0792788 5.93992 0 6.24632 0 6.55784C0 6.86936 0.0792788 7.17576 0.230373 7.44819C0.381467 7.72062 0.599406 7.95011 0.863671 8.11507L7.25584 12.8204C7.53226 12.9999 7.852 13.1014 8.18133 13.1143C8.51066 13.1272 8.83736 13.0509 9.12696 12.8936C9.41656 12.7362 9.65833 12.5036 9.82674 12.2203C9.99515 11.937 10.084 11.6135 10.0838 11.2839V10.2164Z" fill="#333333"/>
</svg>
