<svg width="30" height="29" viewBox="0 0 30 29" fill="none" xmlns="http://www.w3.org/2000/svg">
<path d="M27.9412 8.23717H21.8735C22.1849 8.04168 22.48 7.82136 22.7559 7.57834C23.1719 7.20764 23.5071 6.75513 23.7404 6.24907C23.9737 5.74302 24.1001 5.19429 24.1118 4.63717C24.1298 4.0243 24.0226 3.41421 23.7966 2.84425C23.5706 2.27429 23.2306 1.75647 22.7974 1.32251C22.3643 0.888552 21.8471 0.547586 21.2776 0.320501C20.7081 0.0934156 20.0982 -0.0150078 19.4853 0.00187226C18.9282 0.0135421 18.3794 0.139973 17.8734 0.373265C17.3673 0.606558 16.9148 0.9417 16.5441 1.35775C15.8629 2.16165 15.3391 3.08657 15 4.08423C14.6616 3.08731 14.1388 2.16292 13.4588 1.35923C13.0879 0.942543 12.635 0.606916 12.1284 0.373354C11.6218 0.139792 11.0724 0.0133259 10.5147 0.00187226C9.90145 -0.0158143 9.29104 0.0919628 8.72093 0.318593C8.15081 0.545224 7.633 0.88593 7.19925 1.31982C6.7655 1.7537 6.42496 2.27163 6.19851 2.84182C5.97206 3.41201 5.86447 4.02244 5.88235 4.6357C5.89402 5.19282 6.02045 5.74155 6.25375 6.2476C6.48704 6.75366 6.82218 7.20617 7.23824 7.57687C7.51385 7.82023 7.80896 8.04057 8.12059 8.2357H2.05882C1.78833 8.2357 1.52049 8.289 1.27061 8.39256C1.02072 8.49611 0.793694 8.6479 0.602496 8.83923C0.411297 9.03057 0.259676 9.2577 0.156297 9.50766C0.0529178 9.75762 -0.000192684 10.0255 5.25259e-07 10.296V15.0019C5.25259e-07 15.5479 0.216912 16.0716 0.603016 16.4577C0.98912 16.8438 1.51279 17.0607 2.05882 17.0607H2.35294V26.7666C2.35294 27.3126 2.56985 27.8363 2.95596 28.2224C3.34206 28.6085 3.86573 28.8254 4.41177 28.8254H25.5882C26.1343 28.8254 26.6579 28.6085 27.044 28.2224C27.4301 27.8363 27.6471 27.3126 27.6471 26.7666V17.0607H27.9412C28.4872 17.0607 29.0109 16.8438 29.397 16.4577C29.7831 16.0716 30 15.5479 30 15.0019V10.296C30 9.74996 29.7831 9.22629 29.397 8.84018C29.0109 8.45408 28.4872 8.23717 27.9412 8.23717ZM16.1426 6.61952C16.4735 4.83717 17.0676 3.42099 17.8618 2.52393C18.0743 2.2894 18.3328 2.10113 18.6212 1.97083C18.9096 1.84054 19.2218 1.77101 19.5382 1.76658H19.6191C19.985 1.76662 20.3471 1.84006 20.6841 1.98255C21.0211 2.12504 21.326 2.33368 21.5809 2.59612C21.8358 2.85857 22.0355 3.16949 22.1681 3.51047C22.3007 3.85146 22.3636 4.21558 22.3529 4.58128C22.3479 4.89807 22.2777 5.21042 22.1467 5.49886C22.0156 5.7873 21.8265 6.04564 21.5912 6.25775C20.0147 7.64893 17.3412 8.06511 15.9324 8.1857C15.9691 7.7607 16.0294 7.21952 16.1426 6.61952ZM8.44853 2.56805C8.96182 2.05663 9.6563 1.76858 10.3809 1.76658H10.4618C10.7785 1.77157 11.0909 1.84179 11.3793 1.97285C11.6678 2.10391 11.9261 2.29301 12.1382 2.52834C13.5294 4.10481 13.9456 6.77834 14.0662 8.18717C13.6412 8.1504 13.1 8.08717 12.5059 7.97687C10.7235 7.64893 9.30735 7.05187 8.4103 6.25628C8.1746 6.04469 7.98515 5.78669 7.85381 5.49847C7.72247 5.21024 7.65209 4.89799 7.64706 4.58128C7.63691 4.20887 7.70274 3.83829 7.84054 3.49216C7.97834 3.14603 8.18521 2.83159 8.44853 2.56805ZM1.76471 15.0019V10.296C1.76471 10.218 1.79569 10.1432 1.85085 10.088C1.90601 10.0329 1.98082 10.0019 2.05882 10.0019H14.1176V15.296H2.05882C1.98082 15.296 1.90601 15.265 1.85085 15.2098C1.79569 15.1547 1.76471 15.0799 1.76471 15.0019ZM4.11765 26.7666V17.0607H14.1176V27.0607H4.41177C4.33376 27.0607 4.25895 27.0297 4.20379 26.9746C4.14863 26.9194 4.11765 26.8446 4.11765 26.7666ZM25.8824 26.7666C25.8824 26.8446 25.8514 26.9194 25.7962 26.9746C25.7411 27.0297 25.6662 27.0607 25.5882 27.0607H15.8824V17.0607H25.8824V26.7666ZM28.2353 15.0019C28.2353 15.0799 28.2043 15.1547 28.1492 15.2098C28.094 15.265 28.0192 15.296 27.9412 15.296H15.8824V10.0019H27.9412C28.0192 10.0019 28.094 10.0329 28.1492 10.088C28.2043 10.1432 28.2353 10.218 28.2353 10.296V15.0019Z" fill="#333333"/>
</svg>
