<svg width="30" height="27" viewBox="0 0 30 27" fill="none" xmlns="http://www.w3.org/2000/svg">
<path d="M30 3.75122V18.7512H28.125V10.4163L18.75 15.1184V16.8762H11.25V15.1184L1.875 10.4163V20.6262H18.75V22.5012H0V3.75122H9.375V1.87622C9.375 1.61255 9.42383 1.36841 9.52148 1.1438C9.61914 0.91919 9.75098 0.723877 9.91699 0.557861C10.083 0.391846 10.2832 0.255127 10.5176 0.147705C10.752 0.0402832 10.9961 -0.00854492 11.25 0.0012207H18.75C19.0137 0.0012207 19.2578 0.0500488 19.4824 0.147705C19.707 0.245361 19.9023 0.377197 20.0684 0.543213C20.2344 0.709229 20.3711 0.909424 20.4785 1.1438C20.5859 1.37817 20.6348 1.62231 20.625 1.87622V3.75122H30ZM11.25 3.75122H18.75V1.87622H11.25V3.75122ZM16.875 13.1262H13.125V15.0012H16.875V13.1262ZM28.125 8.33618V5.62622H1.875V8.33618L11.25 13.009V11.2512H18.75V13.009L28.125 8.33618ZM26.25 20.6262H30V22.5012H26.25V26.2512H24.375V22.5012H20.625V20.6262H24.375V16.8762H26.25V20.6262Z" fill="#333333"/>
</svg>
