<svg width="87" height="88" viewBox="0 0 87 88" fill="none" xmlns="http://www.w3.org/2000/svg">
<path d="M20.0419 33.6604V26.9581C20.0419 14.0025 30.5444 3.49998 43.5 3.49998C56.4556 3.49998 66.9581 14.0025 66.9581 26.9581V33.6604M30.0954 53.7674V63.8209M56.9046 53.7674V63.8209M3.50999 40.3566C3.95953 48.5538 5.16003 61.345 7.76157 72.5544C8.96718 77.749 12.7912 81.7045 18.0686 82.4701C23.5065 83.2589 31.7639 83.9278 43.5 83.9278C55.2361 83.9278 63.4935 83.2589 68.9314 82.4701C74.2088 81.7045 78.0328 77.749 79.2384 72.5544C81.84 61.345 83.0405 48.5538 83.49 40.3566C83.6927 36.6606 80.7132 33.6604 77.0116 33.6604H9.98838C6.28679 33.6604 3.3073 36.6606 3.50999 40.3566Z" stroke="#279B48" stroke-width="7" stroke-linecap="round" stroke-linejoin="round"/>
</svg>
