<svg width="62" height="60" viewBox="0 0 62 60" fill="none" xmlns="http://www.w3.org/2000/svg">
<path d="M28.8219 39.8449V35.4248H33.242V39.8449H28.8219ZM23.9653 13.5234H37.8771V6.1406H23.9653V13.5234ZM6.1406 60C4.49172 60 3.05605 59.3888 1.8336 58.1664C0.6112 56.944 0 55.5083 0 53.8594V39.9957H24.1002V41.4593C24.1002 42.3737 24.3895 43.1201 24.9681 43.6987C25.5467 44.2773 26.2707 44.5666 27.14 44.5666H34.8705C35.7607 44.5666 36.4988 44.2773 37.0848 43.6987C37.6708 43.1201 37.9638 42.3737 37.9638 41.4593V39.9957H61.8842V53.8594C61.8842 55.5083 61.2689 56.944 60.0383 58.1664C58.8077 59.3888 57.3622 60 55.7019 60H6.1406ZM0 35.2739V19.7058C0 18.0455 0.6112 16.6 1.8336 15.3694C3.05605 14.1387 4.49172 13.5234 6.1406 13.5234H17.8247V6.1406C17.8247 4.5209 18.4359 3.09255 19.6583 1.85553C20.8808 0.618509 22.3165 0 23.9653 0H37.8771C39.526 0 40.9617 0.618509 42.1841 1.85553C43.4065 3.09255 44.0177 4.5209 44.0177 6.1406V13.5234H55.7019C57.3622 13.5234 58.8077 14.1387 60.0383 15.3694C61.2689 16.6 61.8842 18.0455 61.8842 19.7058V35.2739H37.9638V33.7364C37.9638 32.8701 37.6674 32.1479 37.0746 31.57C36.4818 30.992 35.7403 30.703 34.8502 30.703H27.1196C26.2503 30.703 25.5297 30.992 24.9579 31.57C24.3861 32.1479 24.1002 32.8701 24.1002 33.7364V35.2739H0Z" fill="#999D9F"/>
</svg>
