<svg width="10" height="10" viewBox="0 0 10 10" fill="none" xmlns="http://www.w3.org/2000/svg">
<g clip-path="url(#clip0_0_288)">
<path d="M10 4.4941C10 3.91555 9.52932 3.44487 8.95077 3.44487C8.37223 3.44487 7.90155 3.91555 7.90155 4.4941C7.90155 4.75728 7.99918 4.99792 8.15977 5.18228L7.07514 6.17728L5.69182 3.31851L6.50032 2.36887L5.00568 0.613281L3.51109 2.36892L4.28359 3.27628L2.91014 6.16101L1.84073 5.18174C2.00109 4.99742 2.0985 4.75701 2.0985 4.4941C2.0985 3.91555 1.62782 3.44487 1.04927 3.44487C0.470682 3.44487 0 3.91555 0 4.4941C0 5.03019 0.404318 5.47342 0.924 5.5356L1.2455 9.38719H8.75455L9.07605 5.5356C9.59568 5.47342 10 5.03019 10 4.4941Z" fill="#02558B"/>
</g>
<defs>
<clipPath id="clip0_0_288">
<rect width="10" height="10" fill="white"/>
</clipPath>
</defs>
</svg>
