<svg width="20" height="20" viewBox="0 0 20 20" fill="none" xmlns="http://www.w3.org/2000/svg">
<path d="M9.98419 20C8.61899 20 7.32652 19.7393 6.10677 19.2178C4.88702 18.6963 3.82504 17.9834 2.92082 17.0792C2.0166 16.175 1.30374 15.1126 0.782232 13.892C0.260744 12.6714 0 11.3769 0 10.0086C0 8.62606 0.261213 7.32687 0.783639 6.11102C1.30608 4.89518 2.02171 3.83287 2.93053 2.92409C3.83936 2.0153 4.9008 1.30075 6.11484 0.780442C7.32889 0.260147 8.61718 0 9.97971 0C11.3639 0 12.6671 0.259726 13.8893 0.779178C15.1114 1.29863 16.1747 2.01213 17.0791 2.91967C17.9835 3.82722 18.6964 4.89061 19.2179 6.10985C19.7393 7.32907 20 8.63235 20 10.0197C20 11.3905 19.7399 12.681 19.2196 13.8912C18.6992 15.1013 17.9847 16.1608 17.0759 17.0696C16.1671 17.9783 15.1043 18.6939 13.8873 19.2164C12.6704 19.7388 11.3694 20 9.98419 20ZM9.99018 18.0155C12.2052 18.0155 14.0942 17.2338 15.6573 15.6705C17.2204 14.1071 18.002 12.2202 18.002 10.0098C18.002 7.7948 17.2215 5.90575 15.6604 4.34267C14.0994 2.77957 12.2091 1.99803 9.98961 1.99803C7.78599 1.99803 5.90091 2.77854 4.33437 4.33957C2.76782 5.9006 1.98455 7.79087 1.98455 10.0104C1.98455 12.214 2.76621 14.0991 4.32955 15.6656C5.89288 17.2322 7.77976 18.0155 9.99018 18.0155Z" fill="#999D9F"/>
</svg>
