<svg width="18" height="24" viewBox="0 0 18 24" fill="none" xmlns="http://www.w3.org/2000/svg">
<path d="M17.6786 10.4464C17.6786 10.3286 17.5821 10.2321 17.4643 10.2321H15.8571C15.7393 10.2321 15.6429 10.3286 15.6429 10.4464C15.6429 14.2045 12.5973 17.25 8.83929 17.25C5.08125 17.25 2.03571 14.2045 2.03571 10.4464C2.03571 10.3286 1.93929 10.2321 1.82143 10.2321H0.214286C0.0964286 10.2321 0 10.3286 0 10.4464C0 14.9652 3.39107 18.6938 7.76786 19.2214V21.9643H3.87589C3.50893 21.9643 3.21429 22.3473 3.21429 22.8214V23.7857C3.21429 23.9036 3.28929 24 3.38036 24H14.2982C14.3893 24 14.4643 23.9036 14.4643 23.7857V22.8214C14.4643 22.3473 14.1696 21.9643 13.8027 21.9643H9.80357V19.2348C14.2312 18.7527 17.6786 15.0027 17.6786 10.4464ZM8.83929 15C11.3545 15 13.3929 12.9857 13.3929 10.5V4.5C13.3929 2.01429 11.3545 0 8.83929 0C6.32411 0 4.28571 2.01429 4.28571 4.5V10.5C4.28571 12.9857 6.32411 15 8.83929 15ZM6.32143 4.5C6.32143 3.14464 7.44375 2.03571 8.83929 2.03571C10.2348 2.03571 11.3571 3.14464 11.3571 4.5V10.5C11.3571 11.8554 10.2348 12.9643 8.83929 12.9643C7.44375 12.9643 6.32143 11.8554 6.32143 10.5V4.5Z" fill="white"/>
</svg>
