<svg width="36" height="36" viewBox="0 0 36 36" fill="none" xmlns="http://www.w3.org/2000/svg">
<path d="M22.6921 26C21.9856 26 21.3774 25.7436 20.8674 25.2308C20.3575 24.718 20.1025 24.1187 20.1025 23.4327C20.1025 23.3349 20.1152 23.2173 20.1405 23.0798C20.1659 22.9423 20.1913 22.8136 20.2166 22.6936L15.1424 19.7218C14.8978 19.9754 14.6211 20.1815 14.3123 20.3401C14.0035 20.4986 13.6724 20.5779 13.3191 20.5779C12.6223 20.5779 12.0186 20.3219 11.5081 19.8099C10.9975 19.2979 10.7422 18.6907 10.7422 17.9882C10.7422 17.2858 10.9975 16.6825 11.5081 16.1784C12.0186 15.6742 12.6223 15.4221 13.3191 15.4221C13.6679 15.4221 13.9947 15.4887 14.2994 15.6219C14.6041 15.7551 14.8833 15.9485 15.137 16.2021L20.2166 13.2667C20.1913 13.1788 20.1659 13.0638 20.1405 12.9218C20.1152 12.7799 20.1025 12.6596 20.1025 12.561C20.1025 11.8641 20.3567 11.263 20.8652 10.7578C21.3737 10.2526 21.9812 10 22.6876 10C23.3804 10 23.982 10.2528 24.4925 10.7585C25.003 11.2641 25.2582 11.8682 25.2582 12.5706C25.2582 13.273 25.003 13.8763 24.4924 14.3805C23.9818 14.8847 23.3781 15.1367 22.6813 15.1367C22.3108 15.1367 21.9782 15.0862 21.6833 14.9851C21.3885 14.8841 21.1261 14.7063 20.896 14.4518L15.8028 17.2335C15.8282 17.3443 15.8504 17.4771 15.8694 17.6318C15.8884 17.7866 15.898 17.9076 15.898 17.9951C15.898 18.0825 15.8884 18.1862 15.8694 18.3062C15.8504 18.4261 15.8282 18.5415 15.8028 18.6524L20.896 21.5101C21.1261 21.3064 21.3833 21.1445 21.6677 21.0244C21.952 20.9043 22.2899 20.8442 22.6813 20.8442C23.3781 20.8442 23.9818 21.1002 24.4924 21.6122C25.003 22.1242 25.2582 22.7314 25.2582 23.4339C25.2582 24.1236 25.0037 24.7237 24.4947 25.2342C23.9857 25.7447 23.3848 26 22.6921 26Z" fill="#65676B"/>
</svg>
