<svg width="24" height="24" viewBox="0 0 24 24" fill="none" xmlns="http://www.w3.org/2000/svg">
<path d="M11.8366 20.6252C11.4278 20.6252 11.0859 20.4851 10.8109 20.205C10.5359 19.9248 10.3984 19.5881 10.3984 19.1947C10.3984 18.81 10.5349 18.4689 10.8079 18.1714C11.0809 17.8739 11.415 17.7252 11.8103 17.7252C12.219 17.7252 12.5609 17.8735 12.8359 18.1702C13.1109 18.4669 13.2484 18.8086 13.2484 19.1952C13.2484 19.5819 13.1124 19.9169 12.8402 20.2002C12.568 20.4835 12.2335 20.6252 11.8366 20.6252ZM11.8366 13.3502C11.4278 13.3502 11.0859 13.2137 10.8109 12.9407C10.5359 12.6677 10.3984 12.3336 10.3984 11.9384C10.3984 11.5296 10.5349 11.1877 10.8079 10.9127C11.0809 10.6377 11.415 10.5002 11.8103 10.5002C12.219 10.5002 12.5609 10.6363 12.8359 10.9084C13.1109 11.1806 13.2484 11.5151 13.2484 11.912C13.2484 12.3208 13.1124 12.6627 12.8402 12.9377C12.568 13.2127 12.2335 13.3502 11.8366 13.3502ZM11.8366 6.1252C11.4278 6.1252 11.0859 5.98135 10.8109 5.69367C10.5359 5.40599 10.3984 5.06015 10.3984 4.65617C10.3984 4.25219 10.5349 3.90853 10.8079 3.6252C11.0809 3.34186 11.415 3.2002 11.8103 3.2002C12.219 3.2002 12.5609 3.34251 12.8359 3.62715C13.1109 3.91176 13.2484 4.25433 13.2484 4.65484C13.2484 5.06223 13.1124 5.40914 12.8402 5.69557C12.568 5.98199 12.2335 6.1252 11.8366 6.1252Z" fill="black"/>
</svg>
