<svg width="60" height="60" viewBox="0 0 60 60" fill="none" xmlns="http://www.w3.org/2000/svg">
<path fill-rule="evenodd" clip-rule="evenodd" d="M54.827 13.5122C54.4416 13.7517 54.1134 14.0723 53.8651 14.4513C57.5093 20.2348 56.9772 28.1938 52.2688 33.3419L52.2571 33.3548L35.6926 50.1635C34.1604 51.7184 31.875 51.5625 30 51.5625C27.7298 51.5625 25.8396 51.7184 24.3074 50.1635L21.912 47.7326C20.8776 48.9609 19.2187 48.75 17.8125 48.75C16.4062 48.75 14.0336 48.8803 13.2358 46.9396L12.793 45.8624C12.6941 45.6219 12.5031 45.4309 12.2626 45.332L11.1854 44.8892C8.77152 43.8969 8.77152 40.4781 11.1854 39.4858L12.2626 39.043C12.5031 38.9441 12.6941 38.7531 12.793 38.5126L12.8028 38.4887L7.74294 33.354L7.73119 33.3411C2.42294 27.5368 2.42294 18.1595 7.73119 12.3552C10.2893 9.55806 13.5701 8.34565 16.875 8.44073V8.4375H21.5625V8.44267C24.5228 8.52783 27.5023 9.66201 29.9989 11.646C32.4959 9.66081 35.4763 8.52592 38.4375 8.44073L38.5765 8.4375C38.7231 8.43491 38.8696 8.4349 39.016 8.4375H41.8723C42.0954 8.14161 42.3786 7.87826 42.7219 7.66498L43.6105 7.1128C44.0171 6.8601 44.3601 6.51712 44.6128 6.11046L45.165 5.22186C45.7747 4.24062 46.7936 3.75 47.8125 3.75H50.625C51.6439 3.75 52.6628 4.24062 53.2725 5.22186L53.8247 6.11046C54.0774 6.51712 54.4204 6.8601 54.827 7.1128L55.7156 7.66498C57.6781 8.88448 57.6781 11.7405 55.7156 12.96L54.827 13.5122Z" fill="#050505"/>
<path d="M50.2008 45.5983C50.5288 44.8006 51.6587 44.8006 51.9867 45.5983L52.6281 47.1586C52.7261 47.3971 52.9154 47.5864 53.1539 47.6844L54.7142 48.3258C55.5119 48.6538 55.5119 49.7837 54.7142 50.1116L53.1539 50.753C52.9154 50.8511 52.7261 51.0404 52.6281 51.2789L51.9867 52.8391C51.6587 53.6369 50.5288 53.6369 50.2008 52.8391L49.5594 51.2789C49.4614 51.0404 49.2721 50.8511 49.0336 50.753L47.4733 50.1116C46.6756 49.7837 46.6756 48.6538 47.4733 48.3258L49.0336 47.6844C49.2721 47.5864 49.4614 47.397 49.5594 47.1586L50.2008 45.5983Z" fill="#050505"/>
<path d="M5.19319 3.41597C5.52397 2.61134 6.66353 2.61134 6.99431 3.41597L7.35756 4.29958C7.45643 4.54009 7.6474 4.73105 7.88791 4.82992L8.77152 5.19317C9.57616 5.52394 9.57616 6.6635 8.77152 6.99427L7.88791 7.35752C7.6474 7.45639 7.45643 7.64735 7.35756 7.88786L6.99431 8.77147C6.66353 9.5761 5.52397 9.5761 5.19319 8.77147L4.82994 7.88786C4.73107 7.64735 4.5401 7.45639 4.29959 7.35752L3.41598 6.99427C2.61134 6.6635 2.61134 5.52394 3.41598 5.19317L4.29959 4.82992C4.5401 4.73105 4.73107 4.54009 4.82994 4.29958L5.19319 3.41597Z" fill="#050505"/>
<path d="M6.11656 51.2379C6.45253 50.4207 7.60997 50.4207 7.94594 51.2379L8.02677 51.4346C8.12719 51.6788 8.32115 51.8728 8.56543 51.9732L8.76206 52.054C9.57931 52.39 9.57931 53.5474 8.76206 53.8834L8.56543 53.9642C8.32115 54.0646 8.12719 54.2586 8.02677 54.5029L7.94594 54.6995C7.60997 55.5168 6.45253 55.5168 6.11656 54.6995L6.03573 54.5029C5.93531 54.2586 5.74135 54.0646 5.49707 53.9642L5.30044 53.8834C4.48319 53.5474 4.48319 52.39 5.30044 52.054L5.49707 51.9732C5.74135 51.8728 5.93531 51.6788 6.03573 51.4346L6.11656 51.2379Z" fill="#050505"/>
<path d="M50.625 16.8232L47.8125 16.8232C46.7936 16.8232 45.7747 16.3356 45.165 15.3603L44.6128 14.4772C44.3601 14.073 44.0171 13.7321 43.6105 13.481L42.7219 12.9322C41.8126 12.3706 41.3246 11.4598 41.2579 10.5234C38.7105 11.0378 36.2222 12.4415 34.2229 14.6277L33.5955 15.3137L36.146 18.2565C36.4839 18.6464 36.4398 19.2347 36.0476 19.5705C35.6553 19.9064 35.0633 19.8626 34.7254 19.4727L31.6416 15.9146L30.4646 14.6277C25.752 9.47467 18.3231 8.66936 13.8062 13.6084C9.15178 18.6978 9.14794 26.9802 13.7947 32.0749L17.8904 36.2313C19.3106 35.1285 21.6059 35.5298 22.3892 37.4353L22.832 38.5125C22.9309 38.753 23.1219 38.944 23.3624 39.0428L24.4396 39.4857C26.3736 40.2807 26.7581 42.6334 25.5929 44.0478L30.3344 48.8594C31.4373 49.9786 33.2502 49.9786 34.3531 48.8594L50.8928 32.0749C54.8458 27.7409 55.4332 21.1 52.6551 16.0804C52.0771 16.5756 51.351 16.8232 50.625 16.8232Z" fill="#279B48"/>
<path d="M52.2345 7.10085L51.6829 6.21315C51.1956 5.42895 50.0543 5.42895 49.567 6.21315L49.0154 7.10084C48.6115 7.75083 48.0633 8.29904 47.4133 8.70295L46.5256 9.25457C45.7414 9.74187 45.7414 10.8831 46.5256 11.3704L47.4133 11.9221C48.0633 12.326 48.6115 12.8742 49.0154 13.5242L49.567 14.4119C50.0543 15.1961 51.1956 15.196 51.6829 14.4119L52.2345 13.5242C52.6384 12.8742 53.1866 12.326 53.8366 11.9221L54.7243 11.3704C55.5085 10.8831 55.5085 9.74187 54.7243 9.25457L53.8366 8.70295C53.1866 8.29904 52.6384 7.75083 52.2345 7.10085Z" fill="white"/>
<path d="M20.588 38.1759C20.2572 37.3712 19.1176 37.3712 18.7868 38.1759L18.344 39.2531C18.0474 39.9746 17.4745 40.5475 16.7529 40.8441L15.6757 41.2869C14.8711 41.6177 14.8711 42.7573 15.6757 43.0881L16.7529 43.5309C17.4745 43.8275 18.0474 44.4004 18.344 45.1219L18.7868 46.1992C19.1176 47.0038 20.2572 47.0038 20.588 46.1992L21.0308 45.1219C21.3274 44.4004 21.9003 43.8275 22.6218 43.5309L23.699 43.0881C24.5037 42.7573 24.5037 41.6177 23.699 41.2869L22.6218 40.8441C21.9003 40.5475 21.3274 39.9746 21.0308 39.2531L20.588 38.1759Z" fill="white"/>
</svg>
