<svg width="14" height="14" viewBox="0 0 14 14" fill="none" xmlns="http://www.w3.org/2000/svg">
<path d="M6.02614 7.99724H0.984028C0.69448 7.99724 0.458084 7.90071 0.274841 7.70767C0.0916139 7.5146 0 7.28422 0 7.01651C0 6.73645 0.0916139 6.50578 0.274841 6.32451C0.458084 6.14321 0.69448 6.05256 0.984028 6.05256H6.02614V0.997237C6.02614 0.729699 6.1211 0.496609 6.31101 0.297965C6.50093 0.0993221 6.72742 0 6.99048 0C7.25355 0 7.48271 0.0993221 7.67795 0.297965C7.8732 0.496609 7.97082 0.729699 7.97082 0.997237V6.05256H13.0129C13.2862 6.05256 13.5168 6.14457 13.7048 6.3286C13.8928 6.51262 13.9868 6.74245 13.9868 7.0181C13.9868 7.29374 13.8928 7.52584 13.7048 7.7144C13.5168 7.90296 13.2862 7.99724 13.0129 7.99724H7.97082V13.0394C7.97082 13.3014 7.87358 13.527 7.67912 13.7162C7.48464 13.9054 7.2525 14 6.9827 14C6.71951 14 6.49428 13.9054 6.30702 13.7162C6.11977 13.527 6.02614 13.3014 6.02614 13.0394V7.99724Z" fill="#050505"/>
</svg>
