<svg width="15" height="14" viewBox="0 0 15 14" fill="none" xmlns="http://www.w3.org/2000/svg">
<path d="M5.28456 14L4.934 11.8015C4.76853 11.7474 4.58514 11.6622 4.38385 11.5461C4.18256 11.4299 4.01345 11.3169 3.8765 11.2071L1.82104 12.1441L0 8.90704L1.85733 7.54544C1.8462 7.48011 1.83942 7.39096 1.837 7.27798C1.83458 7.165 1.83338 7.07028 1.83338 6.99382C1.83338 6.92222 1.83458 6.83428 1.837 6.73C1.83942 6.62573 1.8462 6.53223 1.85733 6.44948L0 5.07626L1.82104 1.86531L3.88086 2.80231C4.0115 2.70506 4.17868 2.59716 4.3824 2.47861C4.5861 2.36006 4.76997 2.27369 4.934 2.2195L5.28456 0H8.89108L9.22495 2.21006C9.40156 2.26426 9.59135 2.35063 9.79434 2.46918C9.99733 2.58772 10.1649 2.69877 10.297 2.80231L12.364 1.86531L14.1756 5.07626L12.2849 6.41391C12.2961 6.50778 12.3088 6.60964 12.323 6.71948C12.3373 6.82932 12.3444 6.9256 12.3444 7.00835C12.3444 7.09109 12.3373 7.1846 12.323 7.28886C12.3088 7.39314 12.2985 7.48665 12.2922 7.5694L14.1684 8.90704L12.3379 12.1441L10.2825 11.2071C10.1455 11.3169 9.97603 11.4327 9.77402 11.5544C9.57201 11.6761 9.39455 11.7585 9.24165 11.8015L8.89108 14H5.28456ZM7.06278 9.24454C7.68649 9.24454 8.21632 9.02655 8.65229 8.59059C9.08825 8.15463 9.30623 7.6248 9.30623 7.00109C9.30623 6.38367 9.08825 5.85541 8.65229 5.41631C8.21632 4.97719 7.68649 4.75763 7.06278 4.75763C6.43279 4.75763 5.90138 4.97719 5.46856 5.41631C5.03574 5.85541 4.81933 6.38367 4.81933 7.00109C4.81933 7.6248 5.03574 8.15463 5.46856 8.59059C5.90138 9.02655 6.43279 9.24454 7.06278 9.24454Z" fill="#050505"/>
</svg>
