<svg width="40" height="40" viewBox="0 0 40 40" fill="none" xmlns="http://www.w3.org/2000/svg">
<g clip-path="url(#clip0_26_3144)">
<path d="M25.5555 28.8893C25.5555 29.184 25.4384 29.4666 25.2301 29.675C25.0217 29.8834 24.7391 30.0004 24.4444 30.0004H8.88883C8.64439 30.0004 8.41106 30.2227 8.21106 30.3671L4.44439 33.3338V15.556C4.44439 15.2613 4.56145 14.9787 4.76983 14.7703C4.9782 14.5619 5.26082 14.4449 5.5555 14.4449H9.84439V12.2227H5.5555C4.67145 12.2227 3.8236 12.5738 3.19848 13.199C2.57336 13.8241 2.22217 14.6719 2.22217 15.556V35.556C2.22382 35.7623 2.28291 35.9642 2.39281 36.1388C2.50271 36.3135 2.65908 36.4541 2.84439 36.5449C3.02292 36.6261 3.21976 36.6586 3.41492 36.639C3.61007 36.6195 3.79658 36.5487 3.9555 36.4338L9.67772 32.2227H24.6111C25.0322 32.2351 25.4514 32.161 25.8427 32.0048C26.234 31.8487 26.5891 31.6139 26.8859 31.3149C27.1828 31.016 27.4151 30.6593 27.5685 30.2669C27.7219 29.8745 27.7931 29.4548 27.7777 29.0338V27.7782H25.5555V28.8893Z" fill="white"/>
<path d="M34.4444 4.44434H15.5555C14.6714 4.44434 13.8236 4.79553 13.1985 5.42065C12.5734 6.04577 12.2222 6.89361 12.2222 7.77767V21.111C12.2222 21.9951 12.5734 22.8429 13.1985 23.468C13.8236 24.0931 14.6714 24.4443 15.5555 24.4443H30.6111L35.9222 28.5666C36.0801 28.6833 36.2661 28.7561 36.4612 28.7776C36.6564 28.799 36.8538 28.7684 37.0333 28.6888C37.2224 28.5987 37.3821 28.4571 37.4942 28.2801C37.6063 28.1032 37.666 27.8982 37.6666 27.6888V7.77767C37.6671 6.91253 37.3312 6.0811 36.7299 5.45908C36.1286 4.83705 35.309 4.47317 34.4444 4.44434ZM35.5555 25.4888L31.6666 22.4554C31.4727 22.3049 31.2343 22.2229 30.9888 22.2221H15.5555C15.2608 22.2221 14.9782 22.1051 14.7698 21.8967C14.5615 21.6883 14.4444 21.4057 14.4444 21.111V7.77767C14.4444 7.48298 14.5615 7.20037 14.7698 6.992C14.9782 6.78362 15.2608 6.66656 15.5555 6.66656H34.4444C34.7414 6.69351 35.0183 6.82813 35.223 7.04506C35.4276 7.26199 35.5459 7.54626 35.5555 7.84434V25.4888Z" fill="white"/>
</g>
<defs>
<clipPath id="clip0_26_3144">
<rect width="40" height="40" fill="white"/>
</clipPath>
</defs>
</svg>
